  0
SECTION
  2
HEADER
  9
$ANGBASE
  50
0.0
  9
$ANGDIR
  70
1
  9
$MEASUREMENT
  70
1
  0
ENDSEC
  0
SECTION
  2
TABLES
  0
TABLE
  2
LTYPE
  70
4
  0
LTYPE
  5
40F
  2
CONTINUOUS
  70
0
  3
Solid line
  72
65
  73
0
  40
0.0
  0
LTYPE
  5
410
  2
DASHDOT
 70
0
  3
Dash Dot ____ _ ____ _
 72
65
 73
4
 40
2.0
 49
1.25
 49
-0.25
 49
0.25
 49
-0.25
  0
LTYPE
  5
411
  2
DASHED
 70
0
  3
Dashed __ __ __ __ __
 72
65
 73
2
 40
0.75
 49
0.5
 49
-0.25
  0
LTYPE
  5
43B
  2
DOTTED
 70
0
  3
Dotted .  .  .  .
 72
65
 73
2
 40
0.2
 49
0.0
 49
-0.2
  0
ENDTAB
  0
TABLE
  2
STYLE
  70
4
  0
STYLE
  2
KICAD
  70
0
  40
0
  41
1
  42
1
  50
0
  71
0
  3
isocp.shx
  0
STYLE
  2
KICADB
  70
0
  40
0
  41
1
  42
1
  50
0
  71
0
  3
isocp.shx
  0
STYLE
  2
KICADI
  70
0
  40
0
  41
1
  42
1
  50
15
  71
0
  3
isocp.shx
  0
STYLE
  2
KICADBI
  70
0
  40
0
  41
1
  42
1
  50
15
  71
0
  3
isocp.shx
  0
ENDTAB
  0
TABLE
  2
LAYER
  70
1
  0
LAYER
  2
BLACK
  70
0
  62
7
  6
CONTINUOUS
  0
ENDTAB
  0
ENDSEC
  0
SECTION
  2
ENTITIES
0
LINE
8
BLACK
6
CONTINUOUS
10
224.968
20
-76.556
11
225.188
21
-76.5718
0
LINE
8
BLACK
6
CONTINUOUS
10
225.188
20
-76.5718
11
225.404
21
-76.6187
0
LINE
8
BLACK
6
CONTINUOUS
10
225.404
20
-76.6187
11
225.611
21
-76.696
0
LINE
8
BLACK
6
CONTINUOUS
10
225.611
20
-76.696
11
225.805
21
-76.8019
0
LINE
8
BLACK
6
CONTINUOUS
10
225.805
20
-76.8019
11
225.982
21
-76.9343
0
LINE
8
BLACK
6
CONTINUOUS
10
225.982
20
-76.9343
11
226.139
21
-77.0906
0
LINE
8
BLACK
6
CONTINUOUS
10
226.139
20
-77.0906
11
226.271
21
-77.2675
0
LINE
8
BLACK
6
CONTINUOUS
10
226.271
20
-77.2675
11
226.377
21
-77.4615
0
LINE
8
BLACK
6
CONTINUOUS
10
226.377
20
-77.4615
11
226.454
21
-77.6686
0
LINE
8
BLACK
6
CONTINUOUS
10
226.454
20
-77.6686
11
226.501
21
-77.8846
0
LINE
8
BLACK
6
CONTINUOUS
10
226.501
20
-77.8846
11
226.517
21
-78.105
0
LINE
8
BLACK
6
CONTINUOUS
10
226.517
20
-78.105
11
226.517
21
-94.1724
0
LINE
8
BLACK
6
CONTINUOUS
10
226.517
20
-94.1724
11
226.501
21
-94.3928
0
LINE
8
BLACK
6
CONTINUOUS
10
226.501
20
-94.3928
11
226.454
21
-94.6088
0
LINE
8
BLACK
6
CONTINUOUS
10
226.454
20
-94.6088
11
226.377
21
-94.8158
0
LINE
8
BLACK
6
CONTINUOUS
10
226.377
20
-94.8158
11
226.271
21
-95.0098
0
LINE
8
BLACK
6
CONTINUOUS
10
226.271
20
-95.0098
11
226.139
21
-95.1867
0
LINE
8
BLACK
6
CONTINUOUS
10
226.139
20
-95.1867
11
225.982
21
-95.343
0
LINE
8
BLACK
6
CONTINUOUS
10
225.982
20
-95.343
11
225.805
21
-95.4754
0
LINE
8
BLACK
6
CONTINUOUS
10
225.805
20
-95.4754
11
225.611
21
-95.5814
0
LINE
8
BLACK
6
CONTINUOUS
10
225.611
20
-95.5814
11
225.404
21
-95.6586
0
LINE
8
BLACK
6
CONTINUOUS
10
225.404
20
-95.6586
11
225.188
21
-95.7055
0
LINE
8
BLACK
6
CONTINUOUS
10
225.188
20
-95.7055
11
224.968
21
-95.7213
0
LINE
8
BLACK
6
CONTINUOUS
10
224.968
20
-95.7213
11
224.968
21
-95.7214
0
LINE
8
BLACK
6
CONTINUOUS
10
224.968
20
-95.7214
11
224.968
21
-95.7214
0
LINE
8
BLACK
6
CONTINUOUS
10
224.968
20
-95.7214
11
192.456
21
-95.7214
0
LINE
8
BLACK
6
CONTINUOUS
10
192.456
20
-95.7214
11
192.236
21
-95.7056
0
LINE
8
BLACK
6
CONTINUOUS
10
192.236
20
-95.7056
11
192.02
21
-95.6586
0
LINE
8
BLACK
6
CONTINUOUS
10
192.02
20
-95.6586
11
191.813
21
-95.5814
0
LINE
8
BLACK
6
CONTINUOUS
10
191.813
20
-95.5814
11
191.619
21
-95.4755
0
LINE
8
BLACK
6
CONTINUOUS
10
191.619
20
-95.4755
11
191.442
21
-95.343
0
LINE
8
BLACK
6
CONTINUOUS
10
191.442
20
-95.343
11
191.285
21
-95.1868
0
LINE
8
BLACK
6
CONTINUOUS
10
191.285
20
-95.1868
11
191.153
21
-95.0098
0
LINE
8
BLACK
6
CONTINUOUS
10
191.153
20
-95.0098
11
191.047
21
-94.8159
0
LINE
8
BLACK
6
CONTINUOUS
10
191.047
20
-94.8159
11
190.97
21
-94.6088
0
LINE
8
BLACK
6
CONTINUOUS
10
190.97
20
-94.6088
11
190.923
21
-94.3928
0
LINE
8
BLACK
6
CONTINUOUS
10
190.923
20
-94.3928
11
190.907
21
-94.1724
0
LINE
8
BLACK
6
CONTINUOUS
10
190.907
20
-94.1724
11
190.907
21
-94.1724
0
LINE
8
BLACK
6
CONTINUOUS
10
190.907
20
-94.1724
11
190.907
21
-94.1724
0
LINE
8
BLACK
6
CONTINUOUS
10
190.907
20
-94.1724
11
190.907
21
-78.105
0
LINE
8
BLACK
6
CONTINUOUS
10
190.907
20
-78.105
11
190.923
21
-77.8846
0
LINE
8
BLACK
6
CONTINUOUS
10
190.923
20
-77.8846
11
190.97
21
-77.6686
0
LINE
8
BLACK
6
CONTINUOUS
10
190.97
20
-77.6686
11
191.047
21
-77.4615
0
LINE
8
BLACK
6
CONTINUOUS
10
191.047
20
-77.4615
11
191.153
21
-77.2675
0
LINE
8
BLACK
6
CONTINUOUS
10
191.153
20
-77.2675
11
191.285
21
-77.0906
0
LINE
8
BLACK
6
CONTINUOUS
10
191.285
20
-77.0906
11
191.442
21
-76.9343
0
LINE
8
BLACK
6
CONTINUOUS
10
191.442
20
-76.9343
11
191.619
21
-76.8019
0
LINE
8
BLACK
6
CONTINUOUS
10
191.619
20
-76.8019
11
191.813
21
-76.696
0
LINE
8
BLACK
6
CONTINUOUS
10
191.813
20
-76.696
11
192.02
21
-76.6187
0
LINE
8
BLACK
6
CONTINUOUS
10
192.02
20
-76.6187
11
192.236
21
-76.5718
0
LINE
8
BLACK
6
CONTINUOUS
10
192.236
20
-76.5718
11
192.456
21
-76.556
0
LINE
8
BLACK
6
CONTINUOUS
10
192.456
20
-76.556
11
224.968
21
-76.556
0
LINE
8
BLACK
6
CONTINUOUS
10
192.456
20
-76.606
11
192.349
21
-76.606
0
LINE
8
BLACK
6
CONTINUOUS
10
192.349
20
-76.606
11
192.137
21
-76.6365
0
LINE
8
BLACK
6
CONTINUOUS
10
192.137
20
-76.6365
11
191.931
21
-76.6969
0
LINE
8
BLACK
6
CONTINUOUS
10
191.931
20
-76.6969
11
191.736
21
-76.786
0
LINE
8
BLACK
6
CONTINUOUS
10
191.736
20
-76.786
11
191.555
21
-76.9019
0
LINE
8
BLACK
6
CONTINUOUS
10
191.555
20
-76.9019
11
191.393
21
-77.0423
0
LINE
8
BLACK
6
CONTINUOUS
10
191.393
20
-77.0423
11
191.253
21
-77.2044
0
LINE
8
BLACK
6
CONTINUOUS
10
191.253
20
-77.2044
11
191.137
21
-77.3848
0
LINE
8
BLACK
6
CONTINUOUS
10
191.137
20
-77.3848
11
191.048
21
-77.5798
0
LINE
8
BLACK
6
CONTINUOUS
10
191.048
20
-77.5798
11
190.988
21
-77.7856
0
LINE
8
BLACK
6
CONTINUOUS
10
190.988
20
-77.7856
11
190.957
21
-77.9978
0
LINE
8
BLACK
6
CONTINUOUS
10
190.957
20
-77.9978
11
190.957
21
-78.105
0
LINE
8
BLACK
6
CONTINUOUS
10
190.957
20
-78.105
11
190.957
21
-94.1724
0
LINE
8
BLACK
6
CONTINUOUS
10
190.957
20
-94.1724
11
190.957
21
-94.1725
0
LINE
8
BLACK
6
CONTINUOUS
10
190.957
20
-94.1725
11
190.957
21
-94.2796
0
LINE
8
BLACK
6
CONTINUOUS
10
190.957
20
-94.2796
11
190.987
21
-94.4918
0
LINE
8
BLACK
6
CONTINUOUS
10
190.987
20
-94.4918
11
191.048
21
-94.6976
0
LINE
8
BLACK
6
CONTINUOUS
10
191.048
20
-94.6976
11
191.137
21
-94.8926
0
LINE
8
BLACK
6
CONTINUOUS
10
191.137
20
-94.8926
11
191.253
21
-95.073
0
LINE
8
BLACK
6
CONTINUOUS
10
191.253
20
-95.073
11
191.393
21
-95.235
0
LINE
8
BLACK
6
CONTINUOUS
10
191.393
20
-95.235
11
191.555
21
-95.3754
0
LINE
8
BLACK
6
CONTINUOUS
10
191.555
20
-95.3754
11
191.736
21
-95.4914
0
LINE
8
BLACK
6
CONTINUOUS
10
191.736
20
-95.4914
11
191.931
21
-95.5804
0
LINE
8
BLACK
6
CONTINUOUS
10
191.931
20
-95.5804
11
192.137
21
-95.6409
0
LINE
8
BLACK
6
CONTINUOUS
10
192.137
20
-95.6409
11
192.349
21
-95.6714
0
LINE
8
BLACK
6
CONTINUOUS
10
192.349
20
-95.6714
11
192.456
21
-95.6714
0
LINE
8
BLACK
6
CONTINUOUS
10
192.456
20
-95.6714
11
224.968
21
-95.6714
0
LINE
8
BLACK
6
CONTINUOUS
10
224.968
20
-95.6714
11
224.968
21
-95.6714
0
LINE
8
BLACK
6
CONTINUOUS
10
224.968
20
-95.6714
11
224.968
21
-95.6713
0
LINE
8
BLACK
6
CONTINUOUS
10
224.968
20
-95.6713
11
225.075
21
-95.6713
0
LINE
8
BLACK
6
CONTINUOUS
10
225.075
20
-95.6713
11
225.287
21
-95.6408
0
LINE
8
BLACK
6
CONTINUOUS
10
225.287
20
-95.6408
11
225.493
21
-95.5804
0
LINE
8
BLACK
6
CONTINUOUS
10
225.493
20
-95.5804
11
225.688
21
-95.4913
0
LINE
8
BLACK
6
CONTINUOUS
10
225.688
20
-95.4913
11
225.869
21
-95.3754
0
LINE
8
BLACK
6
CONTINUOUS
10
225.869
20
-95.3754
11
226.031
21
-95.235
0
LINE
8
BLACK
6
CONTINUOUS
10
226.031
20
-95.235
11
226.171
21
-95.073
0
LINE
8
BLACK
6
CONTINUOUS
10
226.171
20
-95.073
11
226.287
21
-94.8926
0
LINE
8
BLACK
6
CONTINUOUS
10
226.287
20
-94.8926
11
226.376
21
-94.6975
0
LINE
8
BLACK
6
CONTINUOUS
10
226.376
20
-94.6975
11
226.436
21
-94.4918
0
LINE
8
BLACK
6
CONTINUOUS
10
226.436
20
-94.4918
11
226.467
21
-94.2796
0
LINE
8
BLACK
6
CONTINUOUS
10
226.467
20
-94.2796
11
226.467
21
-94.1724
0
LINE
8
BLACK
6
CONTINUOUS
10
226.467
20
-94.1724
11
226.467
21
-94.1724
0
LINE
8
BLACK
6
CONTINUOUS
10
226.467
20
-94.1724
11
226.467
21
-78.105
0
LINE
8
BLACK
6
CONTINUOUS
10
226.467
20
-78.105
11
226.467
21
-78.105
0
LINE
8
BLACK
6
CONTINUOUS
10
226.467
20
-78.105
11
226.467
21
-77.9978
0
LINE
8
BLACK
6
CONTINUOUS
10
226.467
20
-77.9978
11
226.436
21
-77.7856
0
LINE
8
BLACK
6
CONTINUOUS
10
226.436
20
-77.7856
11
226.376
21
-77.5798
0
LINE
8
BLACK
6
CONTINUOUS
10
226.376
20
-77.5798
11
226.287
21
-77.3848
0
LINE
8
BLACK
6
CONTINUOUS
10
226.287
20
-77.3848
11
226.171
21
-77.2044
0
LINE
8
BLACK
6
CONTINUOUS
10
226.171
20
-77.2044
11
226.031
21
-77.0423
0
LINE
8
BLACK
6
CONTINUOUS
10
226.031
20
-77.0423
11
225.869
21
-76.9019
0
LINE
8
BLACK
6
CONTINUOUS
10
225.869
20
-76.9019
11
225.688
21
-76.786
0
LINE
8
BLACK
6
CONTINUOUS
10
225.688
20
-76.786
11
225.493
21
-76.6969
0
LINE
8
BLACK
6
CONTINUOUS
10
225.493
20
-76.6969
11
225.287
21
-76.6365
0
LINE
8
BLACK
6
CONTINUOUS
10
225.287
20
-76.6365
11
225.075
21
-76.606
0
LINE
8
BLACK
6
CONTINUOUS
10
225.075
20
-76.606
11
224.968
21
-76.606
0
LINE
8
BLACK
6
CONTINUOUS
10
224.968
20
-76.606
11
192.456
21
-76.606
  0
ENDSEC
  0
EOF
