  0
SECTION
  2
HEADER
  9
$ANGBASE
  50
0.0
  9
$ANGDIR
  70
1
  9
$MEASUREMENT
  70
1
  0
ENDSEC
  0
SECTION
  2
TABLES
  0
TABLE
  2
LTYPE
  70
4
  0
LTYPE
  5
40F
  2
CONTINUOUS
  70
0
  3
Solid line
  72
65
  73
0
  40
0.0
  0
LTYPE
  5
410
  2
DASHDOT
 70
0
  3
Dash Dot ____ _ ____ _
 72
65
 73
4
 40
2.0
 49
1.25
 49
-0.25
 49
0.25
 49
-0.25
  0
LTYPE
  5
411
  2
DASHED
 70
0
  3
Dashed __ __ __ __ __
 72
65
 73
2
 40
0.75
 49
0.5
 49
-0.25
  0
LTYPE
  5
43B
  2
DOTTED
 70
0
  3
Dotted .  .  .  .
 72
65
 73
2
 40
0.2
 49
0.0
 49
-0.2
  0
ENDTAB
  0
TABLE
  2
STYLE
  70
4
  0
STYLE
  2
KICAD
  70
0
  40
0
  41
1
  42
1
  50
0
  71
0
  3
isocp.shx
  0
STYLE
  2
KICADB
  70
0
  40
0
  41
1
  42
1
  50
0
  71
0
  3
isocp.shx
  0
STYLE
  2
KICADI
  70
0
  40
0
  41
1
  42
1
  50
15
  71
0
  3
isocp.shx
  0
STYLE
  2
KICADBI
  70
0
  40
0
  41
1
  42
1
  50
15
  71
0
  3
isocp.shx
  0
ENDTAB
  0
TABLE
  2
LAYER
  70
1
  0
LAYER
  2
BLACK
  70
0
  62
7
  6
CONTINUOUS
  0
ENDTAB
  0
ENDSEC
  0
SECTION
  2
ENTITIES
0
LINE
8
BLACK
6
CONTINUOUS
10
192.924
20
-77.0991
11
192.949
21
-77.1436
0
LINE
8
BLACK
6
CONTINUOUS
10
192.949
20
-77.1436
11
192.94
21
-77.1943
0
LINE
8
BLACK
6
CONTINUOUS
10
192.94
20
-77.1943
11
192.919
21
-77.218
0
LINE
8
BLACK
6
CONTINUOUS
10
192.919
20
-77.218
11
192.86
21
-77.2595
0
LINE
8
BLACK
6
CONTINUOUS
10
192.86
20
-77.2595
11
192.86
21
-77.2595
0
LINE
8
BLACK
6
CONTINUOUS
10
192.86
20
-77.2595
11
193.22
21
-77.619
0
LINE
8
BLACK
6
CONTINUOUS
10
193.22
20
-77.619
11
193.487
21
-77.4574
0
LINE
8
BLACK
6
CONTINUOUS
10
193.487
20
-77.4574
11
193.785
21
-77.3236
0
LINE
8
BLACK
6
CONTINUOUS
10
193.785
20
-77.3236
11
194.096
21
-77.2266
0
LINE
8
BLACK
6
CONTINUOUS
10
194.096
20
-77.2266
11
194.417
21
-77.1678
0
LINE
8
BLACK
6
CONTINUOUS
10
194.417
20
-77.1678
11
194.742
21
-77.1481
0
LINE
8
BLACK
6
CONTINUOUS
10
194.742
20
-77.1481
11
195.067
21
-77.1678
0
LINE
8
BLACK
6
CONTINUOUS
10
195.067
20
-77.1678
11
195.388
21
-77.2266
0
LINE
8
BLACK
6
CONTINUOUS
10
195.388
20
-77.2266
11
195.699
21
-77.3236
0
LINE
8
BLACK
6
CONTINUOUS
10
195.699
20
-77.3236
11
195.997
21
-77.4574
0
LINE
8
BLACK
6
CONTINUOUS
10
195.997
20
-77.4574
11
196.264
21
-77.619
0
LINE
8
BLACK
6
CONTINUOUS
10
196.264
20
-77.619
11
196.624
21
-77.2595
0
LINE
8
BLACK
6
CONTINUOUS
10
196.624
20
-77.2595
11
196.624
21
-77.2595
0
LINE
8
BLACK
6
CONTINUOUS
10
196.624
20
-77.2595
11
196.565
21
-77.218
0
LINE
8
BLACK
6
CONTINUOUS
10
196.565
20
-77.218
11
196.536
21
-77.1757
0
LINE
8
BLACK
6
CONTINUOUS
10
196.536
20
-77.1757
11
196.541
21
-77.1245
0
LINE
8
BLACK
6
CONTINUOUS
10
196.541
20
-77.1245
11
196.577
21
-77.0883
0
LINE
8
BLACK
6
CONTINUOUS
10
196.577
20
-77.0883
11
196.609
21
-77.0815
0
LINE
8
BLACK
6
CONTINUOUS
10
196.609
20
-77.0815
11
221.589
21
-77.0815
0
LINE
8
BLACK
6
CONTINUOUS
10
221.589
20
-77.0815
11
221.637
21
-77.0991
0
LINE
8
BLACK
6
CONTINUOUS
10
221.637
20
-77.0991
11
221.663
21
-77.1436
0
LINE
8
BLACK
6
CONTINUOUS
10
221.663
20
-77.1436
11
221.654
21
-77.1943
0
LINE
8
BLACK
6
CONTINUOUS
10
221.654
20
-77.1943
11
221.625
21
-77.2225
0
LINE
8
BLACK
6
CONTINUOUS
10
221.625
20
-77.2225
11
221.494
21
-77.2952
0
LINE
8
BLACK
6
CONTINUOUS
10
221.494
20
-77.2952
11
221.49
21
-77.2974
0
LINE
8
BLACK
6
CONTINUOUS
10
221.49
20
-77.2974
11
221.315
21
-77.4213
0
LINE
8
BLACK
6
CONTINUOUS
10
221.315
20
-77.4213
11
221.315
21
-77.4213
0
LINE
8
BLACK
6
CONTINUOUS
10
221.315
20
-77.4213
11
221.675
21
-77.7809
0
LINE
8
BLACK
6
CONTINUOUS
10
221.675
20
-77.7809
11
221.942
21
-77.6193
0
LINE
8
BLACK
6
CONTINUOUS
10
221.942
20
-77.6193
11
222.24
21
-77.4855
0
LINE
8
BLACK
6
CONTINUOUS
10
222.24
20
-77.4855
11
222.551
21
-77.3885
0
LINE
8
BLACK
6
CONTINUOUS
10
222.551
20
-77.3885
11
222.872
21
-77.3297
0
LINE
8
BLACK
6
CONTINUOUS
10
222.872
20
-77.3297
11
223.197
21
-77.31
0
LINE
8
BLACK
6
CONTINUOUS
10
223.197
20
-77.31
11
223.522
21
-77.3297
0
LINE
8
BLACK
6
CONTINUOUS
10
223.522
20
-77.3297
11
223.843
21
-77.3885
0
LINE
8
BLACK
6
CONTINUOUS
10
223.843
20
-77.3885
11
224.154
21
-77.4855
0
LINE
8
BLACK
6
CONTINUOUS
10
224.154
20
-77.4855
11
224.452
21
-77.6193
0
LINE
8
BLACK
6
CONTINUOUS
10
224.452
20
-77.6193
11
224.719
21
-77.7809
0
LINE
8
BLACK
6
CONTINUOUS
10
224.719
20
-77.7809
11
225.079
21
-77.4213
0
LINE
8
BLACK
6
CONTINUOUS
10
225.079
20
-77.4213
11
225.079
21
-77.4213
0
LINE
8
BLACK
6
CONTINUOUS
10
225.079
20
-77.4213
11
224.904
21
-77.2974
0
LINE
8
BLACK
6
CONTINUOUS
10
224.904
20
-77.2974
11
224.9
21
-77.2952
0
LINE
8
BLACK
6
CONTINUOUS
10
224.9
20
-77.2952
11
224.769
21
-77.2225
0
LINE
8
BLACK
6
CONTINUOUS
10
224.769
20
-77.2225
11
224.735
21
-77.1837
0
LINE
8
BLACK
6
CONTINUOUS
10
224.735
20
-77.1837
11
224.734
21
-77.1323
0
LINE
8
BLACK
6
CONTINUOUS
10
224.734
20
-77.1323
11
224.766
21
-77.0923
0
LINE
8
BLACK
6
CONTINUOUS
10
224.766
20
-77.0923
11
224.805
21
-77.0815
0
LINE
8
BLACK
6
CONTINUOUS
10
224.805
20
-77.0815
11
224.902
21
-77.0815
0
LINE
8
BLACK
6
CONTINUOUS
10
224.902
20
-77.0815
11
224.965
21
-77.0815
0
LINE
8
BLACK
6
CONTINUOUS
10
224.965
20
-77.0815
11
224.971
21
-77.0818
0
LINE
8
BLACK
6
CONTINUOUS
10
224.971
20
-77.0818
11
225.139
21
-77.0965
0
LINE
8
BLACK
6
CONTINUOUS
10
225.139
20
-77.0965
11
225.152
21
-77.0987
0
LINE
8
BLACK
6
CONTINUOUS
10
225.152
20
-77.0987
11
225.312
21
-77.1415
0
LINE
8
BLACK
6
CONTINUOUS
10
225.312
20
-77.1415
11
225.324
21
-77.146
0
LINE
8
BLACK
6
CONTINUOUS
10
225.324
20
-77.146
11
225.388
21
-77.1757
0
LINE
8
BLACK
6
CONTINUOUS
10
225.388
20
-77.1757
11
225.474
21
-77.2158
0
LINE
8
BLACK
6
CONTINUOUS
10
225.474
20
-77.2158
11
225.485
21
-77.2224
0
LINE
8
BLACK
6
CONTINUOUS
10
225.485
20
-77.2224
11
225.621
21
-77.3172
0
LINE
8
BLACK
6
CONTINUOUS
10
225.621
20
-77.3172
11
225.631
21
-77.3256
0
LINE
8
BLACK
6
CONTINUOUS
10
225.631
20
-77.3256
11
225.747
21
-77.4425
0
LINE
8
BLACK
6
CONTINUOUS
10
225.747
20
-77.4425
11
225.756
21
-77.4525
0
LINE
8
BLACK
6
CONTINUOUS
10
225.756
20
-77.4525
11
225.851
21
-77.5879
0
LINE
8
BLACK
6
CONTINUOUS
10
225.851
20
-77.5879
11
225.857
21
-77.5992
0
LINE
8
BLACK
6
CONTINUOUS
10
225.857
20
-77.5992
11
225.927
21
-77.749
0
LINE
8
BLACK
6
CONTINUOUS
10
225.927
20
-77.749
11
225.931
21
-77.7613
0
LINE
8
BLACK
6
CONTINUOUS
10
225.931
20
-77.7613
11
225.974
21
-77.9209
0
LINE
8
BLACK
6
CONTINUOUS
10
225.974
20
-77.9209
11
225.977
21
-77.9338
0
LINE
8
BLACK
6
CONTINUOUS
10
225.977
20
-77.9338
11
225.991
21
-78.1017
0
LINE
8
BLACK
6
CONTINUOUS
10
225.991
20
-78.1017
11
225.992
21
-78.1083
0
LINE
8
BLACK
6
CONTINUOUS
10
225.992
20
-78.1083
11
225.992
21
-78.1826
0
LINE
8
BLACK
6
CONTINUOUS
10
225.992
20
-78.1826
11
225.974
21
-78.231
0
LINE
8
BLACK
6
CONTINUOUS
10
225.974
20
-78.231
11
225.929
21
-78.2567
0
LINE
8
BLACK
6
CONTINUOUS
10
225.929
20
-78.2567
11
225.879
21
-78.2478
0
LINE
8
BLACK
6
CONTINUOUS
10
225.879
20
-78.2478
11
225.855
21
-78.2261
0
LINE
8
BLACK
6
CONTINUOUS
10
225.855
20
-78.2261
11
225.786
21
-78.1285
0
LINE
8
BLACK
6
CONTINUOUS
10
225.786
20
-78.1285
11
225.786
21
-78.1285
0
LINE
8
BLACK
6
CONTINUOUS
10
225.786
20
-78.1285
11
225.426
21
-78.488
0
LINE
8
BLACK
6
CONTINUOUS
10
225.426
20
-78.488
11
225.588
21
-78.7552
0
LINE
8
BLACK
6
CONTINUOUS
10
225.588
20
-78.7552
11
225.722
21
-79.0526
0
LINE
8
BLACK
6
CONTINUOUS
10
225.722
20
-79.0526
11
225.819
21
-79.3638
0
LINE
8
BLACK
6
CONTINUOUS
10
225.819
20
-79.3638
11
225.877
21
-79.6846
0
LINE
8
BLACK
6
CONTINUOUS
10
225.877
20
-79.6846
11
225.897
21
-80.01
0
LINE
8
BLACK
6
CONTINUOUS
10
225.897
20
-80.01
11
225.877
21
-80.3354
0
LINE
8
BLACK
6
CONTINUOUS
10
225.877
20
-80.3354
11
225.819
21
-80.6562
0
LINE
8
BLACK
6
CONTINUOUS
10
225.819
20
-80.6562
11
225.722
21
-80.9674
0
LINE
8
BLACK
6
CONTINUOUS
10
225.722
20
-80.9674
11
225.588
21
-81.2648
0
LINE
8
BLACK
6
CONTINUOUS
10
225.588
20
-81.2648
11
225.426
21
-81.532
0
LINE
8
BLACK
6
CONTINUOUS
10
225.426
20
-81.532
11
225.786
21
-81.8915
0
LINE
8
BLACK
6
CONTINUOUS
10
225.786
20
-81.8915
11
225.786
21
-81.8915
0
LINE
8
BLACK
6
CONTINUOUS
10
225.786
20
-81.8915
11
225.855
21
-81.7939
0
LINE
8
BLACK
6
CONTINUOUS
10
225.855
20
-81.7939
11
225.897
21
-81.7646
0
LINE
8
BLACK
6
CONTINUOUS
10
225.897
20
-81.7646
11
225.949
21
-81.7694
0
LINE
8
BLACK
6
CONTINUOUS
10
225.949
20
-81.7694
11
225.985
21
-81.806
0
LINE
8
BLACK
6
CONTINUOUS
10
225.985
20
-81.806
11
225.992
21
-81.8374
0
LINE
8
BLACK
6
CONTINUOUS
10
225.992
20
-81.8374
11
225.992
21
-90.0857
0
LINE
8
BLACK
6
CONTINUOUS
10
225.992
20
-90.0857
11
225.974
21
-90.1341
0
LINE
8
BLACK
6
CONTINUOUS
10
225.974
20
-90.1341
11
225.929
21
-90.1598
0
LINE
8
BLACK
6
CONTINUOUS
10
225.929
20
-90.1598
11
225.879
21
-90.1509
0
LINE
8
BLACK
6
CONTINUOUS
10
225.879
20
-90.1509
11
225.855
21
-90.1293
0
LINE
8
BLACK
6
CONTINUOUS
10
225.855
20
-90.1293
11
225.786
21
-90.0316
0
LINE
8
BLACK
6
CONTINUOUS
10
225.786
20
-90.0316
11
225.786
21
-90.0316
0
LINE
8
BLACK
6
CONTINUOUS
10
225.786
20
-90.0316
11
225.426
21
-90.3911
0
LINE
8
BLACK
6
CONTINUOUS
10
225.426
20
-90.3911
11
225.588
21
-90.6584
0
LINE
8
BLACK
6
CONTINUOUS
10
225.588
20
-90.6584
11
225.722
21
-90.9557
0
LINE
8
BLACK
6
CONTINUOUS
10
225.722
20
-90.9557
11
225.819
21
-91.267
0
LINE
8
BLACK
6
CONTINUOUS
10
225.819
20
-91.267
11
225.877
21
-91.5877
0
LINE
8
BLACK
6
CONTINUOUS
10
225.877
20
-91.5877
11
225.897
21
-91.9131
0
LINE
8
BLACK
6
CONTINUOUS
10
225.897
20
-91.9131
11
225.877
21
-92.2386
0
LINE
8
BLACK
6
CONTINUOUS
10
225.877
20
-92.2386
11
225.819
21
-92.5593
0
LINE
8
BLACK
6
CONTINUOUS
10
225.819
20
-92.5593
11
225.722
21
-92.8705
0
LINE
8
BLACK
6
CONTINUOUS
10
225.722
20
-92.8705
11
225.588
21
-93.1679
0
LINE
8
BLACK
6
CONTINUOUS
10
225.588
20
-93.1679
11
225.426
21
-93.4352
0
LINE
8
BLACK
6
CONTINUOUS
10
225.426
20
-93.4352
11
225.786
21
-93.7947
0
LINE
8
BLACK
6
CONTINUOUS
10
225.786
20
-93.7947
11
225.786
21
-93.7947
0
LINE
8
BLACK
6
CONTINUOUS
10
225.786
20
-93.7947
11
225.855
21
-93.697
0
LINE
8
BLACK
6
CONTINUOUS
10
225.855
20
-93.697
11
225.897
21
-93.6677
0
LINE
8
BLACK
6
CONTINUOUS
10
225.897
20
-93.6677
11
225.949
21
-93.6725
0
LINE
8
BLACK
6
CONTINUOUS
10
225.949
20
-93.6725
11
225.985
21
-93.7091
0
LINE
8
BLACK
6
CONTINUOUS
10
225.985
20
-93.7091
11
225.992
21
-93.7405
0
LINE
8
BLACK
6
CONTINUOUS
10
225.992
20
-93.7405
11
225.992
21
-94.0972
0
LINE
8
BLACK
6
CONTINUOUS
10
225.992
20
-94.0972
11
225.991
21
-94.0972
0
LINE
8
BLACK
6
CONTINUOUS
10
225.991
20
-94.0972
11
225.991
21
-94.1691
0
LINE
8
BLACK
6
CONTINUOUS
10
225.991
20
-94.1691
11
225.991
21
-94.1756
0
LINE
8
BLACK
6
CONTINUOUS
10
225.991
20
-94.1756
11
225.977
21
-94.3435
0
LINE
8
BLACK
6
CONTINUOUS
10
225.977
20
-94.3435
11
225.974
21
-94.3565
0
LINE
8
BLACK
6
CONTINUOUS
10
225.974
20
-94.3565
11
225.931
21
-94.5161
0
LINE
8
BLACK
6
CONTINUOUS
10
225.931
20
-94.5161
11
225.927
21
-94.5284
0
LINE
8
BLACK
6
CONTINUOUS
10
225.927
20
-94.5284
11
225.857
21
-94.6781
0
LINE
8
BLACK
6
CONTINUOUS
10
225.857
20
-94.6781
11
225.851
21
-94.6895
0
LINE
8
BLACK
6
CONTINUOUS
10
225.851
20
-94.6895
11
225.756
21
-94.8249
0
LINE
8
BLACK
6
CONTINUOUS
10
225.756
20
-94.8249
11
225.747
21
-94.8349
0
LINE
8
BLACK
6
CONTINUOUS
10
225.747
20
-94.8349
11
225.631
21
-94.9517
0
LINE
8
BLACK
6
CONTINUOUS
10
225.631
20
-94.9517
11
225.621
21
-94.9602
0
LINE
8
BLACK
6
CONTINUOUS
10
225.621
20
-94.9602
11
225.485
21
-95.0549
0
LINE
8
BLACK
6
CONTINUOUS
10
225.485
20
-95.0549
11
225.474
21
-95.0615
0
LINE
8
BLACK
6
CONTINUOUS
10
225.474
20
-95.0615
11
225.324
21
-95.1313
0
LINE
8
BLACK
6
CONTINUOUS
10
225.324
20
-95.1313
11
225.312
21
-95.1358
0
LINE
8
BLACK
6
CONTINUOUS
10
225.312
20
-95.1358
11
225.152
21
-95.1786
0
LINE
8
BLACK
6
CONTINUOUS
10
225.152
20
-95.1786
11
225.139
21
-95.1808
0
LINE
8
BLACK
6
CONTINUOUS
10
225.139
20
-95.1808
11
224.971
21
-95.1956
0
LINE
8
BLACK
6
CONTINUOUS
10
224.971
20
-95.1956
11
224.964
21
-95.1959
0
LINE
8
BLACK
6
CONTINUOUS
10
224.964
20
-95.1959
11
224.892
21
-95.1959
0
LINE
8
BLACK
6
CONTINUOUS
10
224.892
20
-95.1959
11
224.892
21
-95.1959
0
LINE
8
BLACK
6
CONTINUOUS
10
224.892
20
-95.1959
11
223.871
21
-95.1959
0
LINE
8
BLACK
6
CONTINUOUS
10
223.871
20
-95.1959
11
223.823
21
-95.1783
0
LINE
8
BLACK
6
CONTINUOUS
10
223.823
20
-95.1783
11
223.797
21
-95.1337
0
LINE
8
BLACK
6
CONTINUOUS
10
223.797
20
-95.1337
11
223.806
21
-95.0831
0
LINE
8
BLACK
6
CONTINUOUS
10
223.806
20
-95.0831
11
223.846
21
-95.05
0
LINE
8
BLACK
6
CONTINUOUS
10
223.846
20
-95.05
11
223.859
21
-95.0465
0
LINE
8
BLACK
6
CONTINUOUS
10
223.859
20
-95.0465
11
223.908
21
-95.0381
0
LINE
8
BLACK
6
CONTINUOUS
10
223.908
20
-95.0381
11
223.912
21
-95.0372
0
LINE
8
BLACK
6
CONTINUOUS
10
223.912
20
-95.0372
11
224.254
21
-94.9389
0
LINE
8
BLACK
6
CONTINUOUS
10
224.254
20
-94.9389
11
224.258
21
-94.9375
0
LINE
8
BLACK
6
CONTINUOUS
10
224.258
20
-94.9375
11
224.586
21
-94.8016
0
LINE
8
BLACK
6
CONTINUOUS
10
224.586
20
-94.8016
11
224.589
21
-94.7997
0
LINE
8
BLACK
6
CONTINUOUS
10
224.589
20
-94.7997
11
224.9
21
-94.6279
0
LINE
8
BLACK
6
CONTINUOUS
10
224.9
20
-94.6279
11
224.904
21
-94.6257
0
LINE
8
BLACK
6
CONTINUOUS
10
224.904
20
-94.6257
11
225.079
21
-94.5018
0
LINE
8
BLACK
6
CONTINUOUS
10
225.079
20
-94.5018
11
225.079
21
-94.5018
0
LINE
8
BLACK
6
CONTINUOUS
10
225.079
20
-94.5018
11
224.719
21
-94.1423
0
LINE
8
BLACK
6
CONTINUOUS
10
224.719
20
-94.1423
11
224.452
21
-94.3038
0
LINE
8
BLACK
6
CONTINUOUS
10
224.452
20
-94.3038
11
224.154
21
-94.4377
0
LINE
8
BLACK
6
CONTINUOUS
10
224.154
20
-94.4377
11
223.843
21
-94.5347
0
LINE
8
BLACK
6
CONTINUOUS
10
223.843
20
-94.5347
11
223.522
21
-94.5934
0
LINE
8
BLACK
6
CONTINUOUS
10
223.522
20
-94.5934
11
223.197
21
-94.6131
0
LINE
8
BLACK
6
CONTINUOUS
10
223.197
20
-94.6131
11
222.872
21
-94.5934
0
LINE
8
BLACK
6
CONTINUOUS
10
222.872
20
-94.5934
11
222.551
21
-94.5347
0
LINE
8
BLACK
6
CONTINUOUS
10
222.551
20
-94.5347
11
222.24
21
-94.4377
0
LINE
8
BLACK
6
CONTINUOUS
10
222.24
20
-94.4377
11
221.942
21
-94.3038
0
LINE
8
BLACK
6
CONTINUOUS
10
221.942
20
-94.3038
11
221.675
21
-94.1423
0
LINE
8
BLACK
6
CONTINUOUS
10
221.675
20
-94.1423
11
221.315
21
-94.5018
0
LINE
8
BLACK
6
CONTINUOUS
10
221.315
20
-94.5018
11
221.315
21
-94.5018
0
LINE
8
BLACK
6
CONTINUOUS
10
221.315
20
-94.5018
11
221.49
21
-94.6257
0
LINE
8
BLACK
6
CONTINUOUS
10
221.49
20
-94.6257
11
221.494
21
-94.6279
0
LINE
8
BLACK
6
CONTINUOUS
10
221.494
20
-94.6279
11
221.805
21
-94.7997
0
LINE
8
BLACK
6
CONTINUOUS
10
221.805
20
-94.7997
11
221.808
21
-94.8016
0
LINE
8
BLACK
6
CONTINUOUS
10
221.808
20
-94.8016
11
222.136
21
-94.9375
0
LINE
8
BLACK
6
CONTINUOUS
10
222.136
20
-94.9375
11
222.14
21
-94.9389
0
LINE
8
BLACK
6
CONTINUOUS
10
222.14
20
-94.9389
11
222.482
21
-95.0372
0
LINE
8
BLACK
6
CONTINUOUS
10
222.482
20
-95.0372
11
222.486
21
-95.0381
0
LINE
8
BLACK
6
CONTINUOUS
10
222.486
20
-95.0381
11
222.535
21
-95.0465
0
LINE
8
BLACK
6
CONTINUOUS
10
222.535
20
-95.0465
11
222.58
21
-95.072
0
LINE
8
BLACK
6
CONTINUOUS
10
222.58
20
-95.072
11
222.598
21
-95.1202
0
LINE
8
BLACK
6
CONTINUOUS
10
222.598
20
-95.1202
11
222.581
21
-95.1686
0
LINE
8
BLACK
6
CONTINUOUS
10
222.581
20
-95.1686
11
222.536
21
-95.1946
0
LINE
8
BLACK
6
CONTINUOUS
10
222.536
20
-95.1946
11
222.523
21
-95.1959
0
LINE
8
BLACK
6
CONTINUOUS
10
222.523
20
-95.1959
11
205.716
21
-95.1959
0
LINE
8
BLACK
6
CONTINUOUS
10
205.716
20
-95.1959
11
205.668
21
-95.1783
0
LINE
8
BLACK
6
CONTINUOUS
10
205.668
20
-95.1783
11
205.642
21
-95.1337
0
LINE
8
BLACK
6
CONTINUOUS
10
205.642
20
-95.1337
11
205.651
21
-95.0831
0
LINE
8
BLACK
6
CONTINUOUS
10
205.651
20
-95.0831
11
205.676
21
-95.0567
0
LINE
8
BLACK
6
CONTINUOUS
10
205.676
20
-95.0567
11
205.741
21
-95.0167
0
LINE
8
BLACK
6
CONTINUOUS
10
205.741
20
-95.0167
11
205.902
21
-94.87
0
LINE
8
BLACK
6
CONTINUOUS
10
205.902
20
-94.87
11
206.033
21
-94.6962
0
LINE
8
BLACK
6
CONTINUOUS
10
206.033
20
-94.6962
11
206.101
21
-94.5592
0
LINE
8
BLACK
6
CONTINUOUS
10
206.101
20
-94.5592
11
206.139
21
-94.5238
0
LINE
8
BLACK
6
CONTINUOUS
10
206.139
20
-94.5238
11
206.19
21
-94.5206
0
LINE
8
BLACK
6
CONTINUOUS
10
206.19
20
-94.5206
11
206.231
21
-94.5512
0
LINE
8
BLACK
6
CONTINUOUS
10
206.231
20
-94.5512
11
206.234
21
-94.5552
0
LINE
8
BLACK
6
CONTINUOUS
10
206.234
20
-94.5552
11
206.274
21
-94.6244
0
LINE
8
BLACK
6
CONTINUOUS
10
206.274
20
-94.6244
11
206.405
21
-94.7696
0
LINE
8
BLACK
6
CONTINUOUS
10
206.405
20
-94.7696
11
206.563
21
-94.8844
0
LINE
8
BLACK
6
CONTINUOUS
10
206.563
20
-94.8844
11
206.741
21
-94.9639
0
LINE
8
BLACK
6
CONTINUOUS
10
206.741
20
-94.9639
11
206.932
21
-95.0045
0
LINE
8
BLACK
6
CONTINUOUS
10
206.932
20
-95.0045
11
206.932
21
-95.0045
0
LINE
8
BLACK
6
CONTINUOUS
10
206.932
20
-95.0045
11
207.128
21
-95.0045
0
LINE
8
BLACK
6
CONTINUOUS
10
207.128
20
-95.0045
11
207.128
21
-95.0045
0
LINE
8
BLACK
6
CONTINUOUS
10
207.128
20
-95.0045
11
207.319
21
-94.9639
0
LINE
8
BLACK
6
CONTINUOUS
10
207.319
20
-94.9639
11
207.497
21
-94.8844
0
LINE
8
BLACK
6
CONTINUOUS
10
207.497
20
-94.8844
11
207.655
21
-94.7696
0
LINE
8
BLACK
6
CONTINUOUS
10
207.655
20
-94.7696
11
207.786
21
-94.6244
0
LINE
8
BLACK
6
CONTINUOUS
10
207.786
20
-94.6244
11
207.884
21
-94.4551
0
LINE
8
BLACK
6
CONTINUOUS
10
207.884
20
-94.4551
11
207.933
21
-94.3051
0
LINE
8
BLACK
6
CONTINUOUS
10
207.933
20
-94.3051
11
207.944
21
-94.2693
0
LINE
8
BLACK
6
CONTINUOUS
10
207.944
20
-94.2693
11
207.954
21
-94.1736
0
LINE
8
BLACK
6
CONTINUOUS
10
207.954
20
-94.1736
11
207.955
21
-94.1645
0
LINE
8
BLACK
6
CONTINUOUS
10
207.955
20
-94.1645
11
207.978
21
-94.1183
0
LINE
8
BLACK
6
CONTINUOUS
10
207.978
20
-94.1183
11
208.025
21
-94.0974
0
LINE
8
BLACK
6
CONTINUOUS
10
208.025
20
-94.0974
11
208.074
21
-94.1115
0
LINE
8
BLACK
6
CONTINUOUS
10
208.074
20
-94.1115
11
208.103
21
-94.1542
0
LINE
8
BLACK
6
CONTINUOUS
10
208.103
20
-94.1542
11
208.105
21
-94.1645
0
LINE
8
BLACK
6
CONTINUOUS
10
208.105
20
-94.1645
11
208.116
21
-94.2693
0
LINE
8
BLACK
6
CONTINUOUS
10
208.116
20
-94.2693
11
208.176
21
-94.4551
0
LINE
8
BLACK
6
CONTINUOUS
10
208.176
20
-94.4551
11
208.176
21
-94.4551
0
LINE
8
BLACK
6
CONTINUOUS
10
208.176
20
-94.4551
11
208.274
21
-94.6244
0
LINE
8
BLACK
6
CONTINUOUS
10
208.274
20
-94.6244
11
208.405
21
-94.7696
0
LINE
8
BLACK
6
CONTINUOUS
10
208.405
20
-94.7696
11
208.563
21
-94.8844
0
LINE
8
BLACK
6
CONTINUOUS
10
208.563
20
-94.8844
11
208.741
21
-94.9639
0
LINE
8
BLACK
6
CONTINUOUS
10
208.741
20
-94.9639
11
208.932
21
-95.0045
0
LINE
8
BLACK
6
CONTINUOUS
10
208.932
20
-95.0045
11
208.932
21
-95.0045
0
LINE
8
BLACK
6
CONTINUOUS
10
208.932
20
-95.0045
11
209.128
21
-95.0045
0
LINE
8
BLACK
6
CONTINUOUS
10
209.128
20
-95.0045
11
209.128
21
-95.0045
0
LINE
8
BLACK
6
CONTINUOUS
10
209.128
20
-95.0045
11
209.319
21
-94.9639
0
LINE
8
BLACK
6
CONTINUOUS
10
209.319
20
-94.9639
11
209.497
21
-94.8844
0
LINE
8
BLACK
6
CONTINUOUS
10
209.497
20
-94.8844
11
209.655
21
-94.7696
0
LINE
8
BLACK
6
CONTINUOUS
10
209.655
20
-94.7696
11
209.786
21
-94.6244
0
LINE
8
BLACK
6
CONTINUOUS
10
209.786
20
-94.6244
11
209.884
21
-94.4551
0
LINE
8
BLACK
6
CONTINUOUS
10
209.884
20
-94.4551
11
209.933
21
-94.3051
0
LINE
8
BLACK
6
CONTINUOUS
10
209.933
20
-94.3051
11
209.944
21
-94.2693
0
LINE
8
BLACK
6
CONTINUOUS
10
209.944
20
-94.2693
11
209.954
21
-94.1736
0
LINE
8
BLACK
6
CONTINUOUS
10
209.954
20
-94.1736
11
209.955
21
-94.1645
0
LINE
8
BLACK
6
CONTINUOUS
10
209.955
20
-94.1645
11
209.978
21
-94.1183
0
LINE
8
BLACK
6
CONTINUOUS
10
209.978
20
-94.1183
11
210.025
21
-94.0974
0
LINE
8
BLACK
6
CONTINUOUS
10
210.025
20
-94.0974
11
210.074
21
-94.1115
0
LINE
8
BLACK
6
CONTINUOUS
10
210.074
20
-94.1115
11
210.103
21
-94.1542
0
LINE
8
BLACK
6
CONTINUOUS
10
210.103
20
-94.1542
11
210.105
21
-94.1645
0
LINE
8
BLACK
6
CONTINUOUS
10
210.105
20
-94.1645
11
210.116
21
-94.2693
0
LINE
8
BLACK
6
CONTINUOUS
10
210.116
20
-94.2693
11
210.176
21
-94.4551
0
LINE
8
BLACK
6
CONTINUOUS
10
210.176
20
-94.4551
11
210.176
21
-94.4551
0
LINE
8
BLACK
6
CONTINUOUS
10
210.176
20
-94.4551
11
210.274
21
-94.6244
0
LINE
8
BLACK
6
CONTINUOUS
10
210.274
20
-94.6244
11
210.405
21
-94.7696
0
LINE
8
BLACK
6
CONTINUOUS
10
210.405
20
-94.7696
11
210.563
21
-94.8844
0
LINE
8
BLACK
6
CONTINUOUS
10
210.563
20
-94.8844
11
210.741
21
-94.9639
0
LINE
8
BLACK
6
CONTINUOUS
10
210.741
20
-94.9639
11
210.932
21
-95.0045
0
LINE
8
BLACK
6
CONTINUOUS
10
210.932
20
-95.0045
11
210.932
21
-95.0045
0
LINE
8
BLACK
6
CONTINUOUS
10
210.932
20
-95.0045
11
211.128
21
-95.0045
0
LINE
8
BLACK
6
CONTINUOUS
10
211.128
20
-95.0045
11
211.128
21
-95.0045
0
LINE
8
BLACK
6
CONTINUOUS
10
211.128
20
-95.0045
11
211.319
21
-94.9639
0
LINE
8
BLACK
6
CONTINUOUS
10
211.319
20
-94.9639
11
211.497
21
-94.8844
0
LINE
8
BLACK
6
CONTINUOUS
10
211.497
20
-94.8844
11
211.655
21
-94.7696
0
LINE
8
BLACK
6
CONTINUOUS
10
211.655
20
-94.7696
11
211.786
21
-94.6244
0
LINE
8
BLACK
6
CONTINUOUS
10
211.786
20
-94.6244
11
211.884
21
-94.4551
0
LINE
8
BLACK
6
CONTINUOUS
10
211.884
20
-94.4551
11
211.933
21
-94.3051
0
LINE
8
BLACK
6
CONTINUOUS
10
211.933
20
-94.3051
11
211.944
21
-94.2693
0
LINE
8
BLACK
6
CONTINUOUS
10
211.944
20
-94.2693
11
211.954
21
-94.1736
0
LINE
8
BLACK
6
CONTINUOUS
10
211.954
20
-94.1736
11
211.955
21
-94.1645
0
LINE
8
BLACK
6
CONTINUOUS
10
211.955
20
-94.1645
11
211.978
21
-94.1183
0
LINE
8
BLACK
6
CONTINUOUS
10
211.978
20
-94.1183
11
212.025
21
-94.0974
0
LINE
8
BLACK
6
CONTINUOUS
10
212.025
20
-94.0974
11
212.074
21
-94.1115
0
LINE
8
BLACK
6
CONTINUOUS
10
212.074
20
-94.1115
11
212.103
21
-94.1542
0
LINE
8
BLACK
6
CONTINUOUS
10
212.103
20
-94.1542
11
212.105
21
-94.1645
0
LINE
8
BLACK
6
CONTINUOUS
10
212.105
20
-94.1645
11
212.116
21
-94.2693
0
LINE
8
BLACK
6
CONTINUOUS
10
212.116
20
-94.2693
11
212.176
21
-94.4551
0
LINE
8
BLACK
6
CONTINUOUS
10
212.176
20
-94.4551
11
212.176
21
-94.4551
0
LINE
8
BLACK
6
CONTINUOUS
10
212.176
20
-94.4551
11
212.274
21
-94.6244
0
LINE
8
BLACK
6
CONTINUOUS
10
212.274
20
-94.6244
11
212.405
21
-94.7696
0
LINE
8
BLACK
6
CONTINUOUS
10
212.405
20
-94.7696
11
212.563
21
-94.8844
0
LINE
8
BLACK
6
CONTINUOUS
10
212.563
20
-94.8844
11
212.741
21
-94.9639
0
LINE
8
BLACK
6
CONTINUOUS
10
212.741
20
-94.9639
11
212.932
21
-95.0045
0
LINE
8
BLACK
6
CONTINUOUS
10
212.932
20
-95.0045
11
212.932
21
-95.0045
0
LINE
8
BLACK
6
CONTINUOUS
10
212.932
20
-95.0045
11
213.128
21
-95.0045
0
LINE
8
BLACK
6
CONTINUOUS
10
213.128
20
-95.0045
11
213.128
21
-95.0045
0
LINE
8
BLACK
6
CONTINUOUS
10
213.128
20
-95.0045
11
213.319
21
-94.9639
0
LINE
8
BLACK
6
CONTINUOUS
10
213.319
20
-94.9639
11
213.497
21
-94.8844
0
LINE
8
BLACK
6
CONTINUOUS
10
213.497
20
-94.8844
11
213.655
21
-94.7696
0
LINE
8
BLACK
6
CONTINUOUS
10
213.655
20
-94.7696
11
213.786
21
-94.6244
0
LINE
8
BLACK
6
CONTINUOUS
10
213.786
20
-94.6244
11
213.884
21
-94.4551
0
LINE
8
BLACK
6
CONTINUOUS
10
213.884
20
-94.4551
11
213.944
21
-94.2693
0
LINE
8
BLACK
6
CONTINUOUS
10
213.944
20
-94.2693
11
213.965
21
-94.075
0
LINE
8
BLACK
6
CONTINUOUS
10
213.965
20
-94.075
11
213.944
21
-93.8807
0
LINE
8
BLACK
6
CONTINUOUS
10
213.944
20
-93.8807
11
213.884
21
-93.6949
0
LINE
8
BLACK
6
CONTINUOUS
10
213.884
20
-93.6949
11
213.786
21
-93.5256
0
LINE
8
BLACK
6
CONTINUOUS
10
213.786
20
-93.5256
11
213.655
21
-93.3804
0
LINE
8
BLACK
6
CONTINUOUS
10
213.655
20
-93.3804
11
213.497
21
-93.2656
0
LINE
8
BLACK
6
CONTINUOUS
10
213.497
20
-93.2656
11
213.497
21
-93.2656
0
LINE
8
BLACK
6
CONTINUOUS
10
213.497
20
-93.2656
11
213.319
21
-93.1861
0
LINE
8
BLACK
6
CONTINUOUS
10
213.319
20
-93.1861
11
213.319
21
-93.1861
0
LINE
8
BLACK
6
CONTINUOUS
10
213.319
20
-93.1861
11
213.164
21
-93.1533
0
LINE
8
BLACK
6
CONTINUOUS
10
213.164
20
-93.1533
11
213.121
21
-93.126
0
LINE
8
BLACK
6
CONTINUOUS
10
213.121
20
-93.126
11
213.105
21
-93.0771
0
LINE
8
BLACK
6
CONTINUOUS
10
213.105
20
-93.0771
11
213.124
21
-93.0294
0
LINE
8
BLACK
6
CONTINUOUS
10
213.124
20
-93.0294
11
213.169
21
-93.0052
0
LINE
8
BLACK
6
CONTINUOUS
10
213.169
20
-93.0052
11
213.18
21
-93.0045
0
LINE
8
BLACK
6
CONTINUOUS
10
213.18
20
-93.0045
11
213.73
21
-93.0045
0
LINE
8
BLACK
6
CONTINUOUS
10
213.73
20
-93.0045
11
213.73
21
-93.0045
0
LINE
8
BLACK
6
CONTINUOUS
10
213.73
20
-93.0045
11
213.745
21
-93.0014
0
LINE
8
BLACK
6
CONTINUOUS
10
213.745
20
-93.0014
11
213.804
21
-92.9897
0
LINE
8
BLACK
6
CONTINUOUS
10
213.804
20
-92.9897
11
213.888
21
-92.9335
0
LINE
8
BLACK
6
CONTINUOUS
10
213.888
20
-92.9335
11
213.945
21
-92.8493
0
LINE
8
BLACK
6
CONTINUOUS
10
213.945
20
-92.8493
11
213.959
21
-92.7751
0
LINE
8
BLACK
6
CONTINUOUS
10
213.959
20
-92.7751
11
213.959
21
-91.3749
0
LINE
8
BLACK
6
CONTINUOUS
10
213.959
20
-91.3749
11
213.945
21
-91.3007
0
LINE
8
BLACK
6
CONTINUOUS
10
213.945
20
-91.3007
11
213.89
21
-91.2193
0
LINE
8
BLACK
6
CONTINUOUS
10
213.89
20
-91.2193
11
213.888
21
-91.2165
0
LINE
8
BLACK
6
CONTINUOUS
10
213.888
20
-91.2165
11
213.804
21
-91.1603
0
LINE
8
BLACK
6
CONTINUOUS
10
213.804
20
-91.1603
11
213.73
21
-91.1455
0
LINE
8
BLACK
6
CONTINUOUS
10
213.73
20
-91.1455
11
212.33
21
-91.1455
0
LINE
8
BLACK
6
CONTINUOUS
10
212.33
20
-91.1455
11
212.256
21
-91.1603
0
LINE
8
BLACK
6
CONTINUOUS
10
212.256
20
-91.1603
11
212.172
21
-91.2165
0
LINE
8
BLACK
6
CONTINUOUS
10
212.172
20
-91.2165
11
212.115
21
-91.3007
0
LINE
8
BLACK
6
CONTINUOUS
10
212.115
20
-91.3007
11
212.1
21
-91.3749
0
LINE
8
BLACK
6
CONTINUOUS
10
212.1
20
-91.3749
11
212.1
21
-91.9329
0
LINE
8
BLACK
6
CONTINUOUS
10
212.1
20
-91.9329
11
212.083
21
-91.9813
0
LINE
8
BLACK
6
CONTINUOUS
10
212.083
20
-91.9813
11
212.038
21
-92.007
0
LINE
8
BLACK
6
CONTINUOUS
10
212.038
20
-92.007
11
211.988
21
-91.998
0
LINE
8
BLACK
6
CONTINUOUS
10
211.988
20
-91.998
11
211.955
21
-91.9586
0
LINE
8
BLACK
6
CONTINUOUS
10
211.955
20
-91.9586
11
211.951
21
-91.9408
0
LINE
8
BLACK
6
CONTINUOUS
10
211.951
20
-91.9408
11
211.948
21
-91.9131
0
LINE
8
BLACK
6
CONTINUOUS
10
211.948
20
-91.9131
11
211.944
21
-91.8807
0
LINE
8
BLACK
6
CONTINUOUS
10
211.944
20
-91.8807
11
211.884
21
-91.6949
0
LINE
8
BLACK
6
CONTINUOUS
10
211.884
20
-91.6949
11
211.786
21
-91.5256
0
LINE
8
BLACK
6
CONTINUOUS
10
211.786
20
-91.5256
11
211.655
21
-91.3804
0
LINE
8
BLACK
6
CONTINUOUS
10
211.655
20
-91.3804
11
211.497
21
-91.2656
0
LINE
8
BLACK
6
CONTINUOUS
10
211.497
20
-91.2656
11
211.497
21
-91.2656
0
LINE
8
BLACK
6
CONTINUOUS
10
211.497
20
-91.2656
11
211.319
21
-91.1861
0
LINE
8
BLACK
6
CONTINUOUS
10
211.319
20
-91.1861
11
211.261
21
-91.1738
0
LINE
8
BLACK
6
CONTINUOUS
10
211.261
20
-91.1738
11
211.128
21
-91.1455
0
LINE
8
BLACK
6
CONTINUOUS
10
211.128
20
-91.1455
11
211.128
21
-91.1455
0
LINE
8
BLACK
6
CONTINUOUS
10
211.128
20
-91.1455
11
211.007
21
-91.1455
0
LINE
8
BLACK
6
CONTINUOUS
10
211.007
20
-91.1455
11
210.959
21
-91.1279
0
LINE
8
BLACK
6
CONTINUOUS
10
210.959
20
-91.1279
11
210.933
21
-91.0834
0
LINE
8
BLACK
6
CONTINUOUS
10
210.933
20
-91.0834
11
210.932
21
-91.0703
0
LINE
8
BLACK
6
CONTINUOUS
10
210.932
20
-91.0703
11
210.932
21
-87.9436
0
LINE
8
BLACK
6
CONTINUOUS
10
210.932
20
-87.9436
11
210.95
21
-87.8953
0
LINE
8
BLACK
6
CONTINUOUS
10
210.95
20
-87.8953
11
210.994
21
-87.8696
0
LINE
8
BLACK
6
CONTINUOUS
10
210.994
20
-87.8696
11
211.045
21
-87.8785
0
LINE
8
BLACK
6
CONTINUOUS
10
211.045
20
-87.8785
11
211.055
21
-87.8855
0
LINE
8
BLACK
6
CONTINUOUS
10
211.055
20
-87.8855
11
211.058
21
-87.8879
0
LINE
8
BLACK
6
CONTINUOUS
10
211.058
20
-87.8879
11
211.115
21
-87.9181
0
LINE
8
BLACK
6
CONTINUOUS
10
211.115
20
-87.9181
11
211.162
21
-87.9436
0
LINE
8
BLACK
6
CONTINUOUS
10
211.162
20
-87.9436
11
211.228
21
-87.9787
0
LINE
8
BLACK
6
CONTINUOUS
10
211.228
20
-87.9787
11
211.397
21
-88.0299
0
LINE
8
BLACK
6
CONTINUOUS
10
211.397
20
-88.0299
11
211.412
21
-88.0346
0
LINE
8
BLACK
6
CONTINUOUS
10
211.412
20
-88.0346
11
211.604
21
-88.0534
0
LINE
8
BLACK
6
CONTINUOUS
10
211.604
20
-88.0534
11
211.604
21
-88.0534
0
LINE
8
BLACK
6
CONTINUOUS
10
211.604
20
-88.0534
11
211.604
21
-88.0534
0
LINE
8
BLACK
6
CONTINUOUS
10
211.604
20
-88.0534
11
211.795
21
-88.0346
0
LINE
8
BLACK
6
CONTINUOUS
10
211.795
20
-88.0346
11
211.811
21
-88.0299
0
LINE
8
BLACK
6
CONTINUOUS
10
211.811
20
-88.0299
11
211.979
21
-87.9787
0
LINE
8
BLACK
6
CONTINUOUS
10
211.979
20
-87.9787
11
212.149
21
-87.8879
0
LINE
8
BLACK
6
CONTINUOUS
10
212.149
20
-87.8879
11
212.298
21
-87.7657
0
LINE
8
BLACK
6
CONTINUOUS
10
212.298
20
-87.7657
11
212.42
21
-87.6169
0
LINE
8
BLACK
6
CONTINUOUS
10
212.42
20
-87.6169
11
212.511
21
-87.4471
0
LINE
8
BLACK
6
CONTINUOUS
10
212.511
20
-87.4471
11
212.567
21
-87.2628
0
LINE
8
BLACK
6
CONTINUOUS
10
212.567
20
-87.2628
11
212.586
21
-87.0712
0
LINE
8
BLACK
6
CONTINUOUS
10
212.586
20
-87.0712
11
212.567
21
-86.8796
0
LINE
8
BLACK
6
CONTINUOUS
10
212.567
20
-86.8796
11
212.511
21
-86.6953
0
LINE
8
BLACK
6
CONTINUOUS
10
212.511
20
-86.6953
11
212.439
21
-86.5606
0
LINE
8
BLACK
6
CONTINUOUS
10
212.439
20
-86.5606
11
212.42
21
-86.5255
0
LINE
8
BLACK
6
CONTINUOUS
10
212.42
20
-86.5255
11
212.298
21
-86.3767
0
LINE
8
BLACK
6
CONTINUOUS
10
212.298
20
-86.3767
11
212.149
21
-86.2545
0
LINE
8
BLACK
6
CONTINUOUS
10
212.149
20
-86.2545
11
211.979
21
-86.1637
0
LINE
8
BLACK
6
CONTINUOUS
10
211.979
20
-86.1637
11
211.979
21
-86.1637
0
LINE
8
BLACK
6
CONTINUOUS
10
211.979
20
-86.1637
11
211.958
21
-86.1573
0
LINE
8
BLACK
6
CONTINUOUS
10
211.958
20
-86.1573
11
211.795
21
-86.1078
0
LINE
8
BLACK
6
CONTINUOUS
10
211.795
20
-86.1078
11
211.604
21
-86.089
0
LINE
8
BLACK
6
CONTINUOUS
10
211.604
20
-86.089
11
211.412
21
-86.1078
0
LINE
8
BLACK
6
CONTINUOUS
10
211.412
20
-86.1078
11
211.228
21
-86.1637
0
LINE
8
BLACK
6
CONTINUOUS
10
211.228
20
-86.1637
11
211.058
21
-86.2545
0
LINE
8
BLACK
6
CONTINUOUS
10
211.058
20
-86.2545
11
210.974
21
-86.3237
0
LINE
8
BLACK
6
CONTINUOUS
10
210.974
20
-86.3237
11
210.925
21
-86.3408
0
LINE
8
BLACK
6
CONTINUOUS
10
210.925
20
-86.3408
11
210.877
21
-86.3226
0
LINE
8
BLACK
6
CONTINUOUS
10
210.877
20
-86.3226
11
210.873
21
-86.3187
0
LINE
8
BLACK
6
CONTINUOUS
10
210.873
20
-86.3187
11
210.87
21
-86.3159
0
LINE
8
BLACK
6
CONTINUOUS
10
210.87
20
-86.3159
11
210.86
21
-86.3029
0
LINE
8
BLACK
6
CONTINUOUS
10
210.86
20
-86.3029
11
210.858
21
-86.3012
0
LINE
8
BLACK
6
CONTINUOUS
10
210.858
20
-86.3012
11
210.858
21
-86.3012
0
LINE
8
BLACK
6
CONTINUOUS
10
210.858
20
-86.3012
11
210.82
21
-86.2658
0
LINE
8
BLACK
6
CONTINUOUS
10
210.82
20
-86.2658
11
210.818
21
-86.2636
0
LINE
8
BLACK
6
CONTINUOUS
10
210.818
20
-86.2636
11
210.093
21
-85.5387
0
LINE
8
BLACK
6
CONTINUOUS
10
210.093
20
-85.5387
11
210.071
21
-85.492
0
LINE
8
BLACK
6
CONTINUOUS
10
210.071
20
-85.492
11
210.084
21
-85.4424
0
LINE
8
BLACK
6
CONTINUOUS
10
210.084
20
-85.4424
11
210.126
21
-85.4129
0
LINE
8
BLACK
6
CONTINUOUS
10
210.126
20
-85.4129
11
210.178
21
-85.4173
0
LINE
8
BLACK
6
CONTINUOUS
10
210.178
20
-85.4173
11
210.181
21
-85.4192
0
LINE
8
BLACK
6
CONTINUOUS
10
210.181
20
-85.4192
11
210.218
21
-85.4387
0
LINE
8
BLACK
6
CONTINUOUS
10
210.218
20
-85.4387
11
210.402
21
-85.4946
0
LINE
8
BLACK
6
CONTINUOUS
10
210.402
20
-85.4946
11
210.594
21
-85.5134
0
LINE
8
BLACK
6
CONTINUOUS
10
210.594
20
-85.5134
11
210.785
21
-85.4946
0
LINE
8
BLACK
6
CONTINUOUS
10
210.785
20
-85.4946
11
210.969
21
-85.4387
0
LINE
8
BLACK
6
CONTINUOUS
10
210.969
20
-85.4387
11
211.139
21
-85.3479
0
LINE
8
BLACK
6
CONTINUOUS
10
211.139
20
-85.3479
11
211.288
21
-85.2257
0
LINE
8
BLACK
6
CONTINUOUS
10
211.288
20
-85.2257
11
211.41
21
-85.0769
0
LINE
8
BLACK
6
CONTINUOUS
10
211.41
20
-85.0769
11
211.422
21
-85.0542
0
LINE
8
BLACK
6
CONTINUOUS
10
211.422
20
-85.0542
11
211.505
21
-84.9006
0
LINE
8
BLACK
6
CONTINUOUS
10
211.505
20
-84.9006
11
211.508
21
-84.9023
0
LINE
8
BLACK
6
CONTINUOUS
10
211.508
20
-84.9023
11
211.529
21
-84.8734
0
LINE
8
BLACK
6
CONTINUOUS
10
211.529
20
-84.8734
11
211.579
21
-84.8612
0
LINE
8
BLACK
6
CONTINUOUS
10
211.579
20
-84.8612
11
211.625
21
-84.8839
0
LINE
8
BLACK
6
CONTINUOUS
10
211.625
20
-84.8839
11
211.646
21
-84.931
0
LINE
8
BLACK
6
CONTINUOUS
10
211.646
20
-84.931
11
211.646
21
-84.9359
0
LINE
8
BLACK
6
CONTINUOUS
10
211.646
20
-84.9359
11
211.646
21
-85.2793
0
LINE
8
BLACK
6
CONTINUOUS
10
211.646
20
-85.2793
11
211.661
21
-85.3535
0
LINE
8
BLACK
6
CONTINUOUS
10
211.661
20
-85.3535
11
211.717
21
-85.4377
0
LINE
8
BLACK
6
CONTINUOUS
10
211.717
20
-85.4377
11
211.801
21
-85.4939
0
LINE
8
BLACK
6
CONTINUOUS
10
211.801
20
-85.4939
11
211.816
21
-85.4969
0
LINE
8
BLACK
6
CONTINUOUS
10
211.816
20
-85.4969
11
211.876
21
-85.5087
0
LINE
8
BLACK
6
CONTINUOUS
10
211.876
20
-85.5087
11
213.372
21
-85.5087
0
LINE
8
BLACK
6
CONTINUOUS
10
213.372
20
-85.5087
11
213.372
21
-85.5087
0
LINE
8
BLACK
6
CONTINUOUS
10
213.372
20
-85.5087
11
213.384
21
-85.5062
0
LINE
8
BLACK
6
CONTINUOUS
10
213.384
20
-85.5062
11
213.446
21
-85.4939
0
LINE
8
BLACK
6
CONTINUOUS
10
213.446
20
-85.4939
11
213.53
21
-85.4377
0
LINE
8
BLACK
6
CONTINUOUS
10
213.53
20
-85.4377
11
213.586
21
-85.3535
0
LINE
8
BLACK
6
CONTINUOUS
10
213.586
20
-85.3535
11
213.601
21
-85.2793
0
LINE
8
BLACK
6
CONTINUOUS
10
213.601
20
-85.2793
11
213.601
21
-83.7831
0
LINE
8
BLACK
6
CONTINUOUS
10
213.601
20
-83.7831
11
213.589
21
-83.7212
0
LINE
8
BLACK
6
CONTINUOUS
10
213.589
20
-83.7212
11
213.586
21
-83.7089
0
LINE
8
BLACK
6
CONTINUOUS
10
213.586
20
-83.7089
11
213.568
21
-83.681
0
LINE
8
BLACK
6
CONTINUOUS
10
213.568
20
-83.681
11
213.53
21
-83.6247
0
LINE
8
BLACK
6
CONTINUOUS
10
213.53
20
-83.6247
11
213.446
21
-83.5685
0
LINE
8
BLACK
6
CONTINUOUS
10
213.446
20
-83.5685
11
213.372
21
-83.5537
0
LINE
8
BLACK
6
CONTINUOUS
10
213.372
20
-83.5537
11
211.876
21
-83.5537
0
LINE
8
BLACK
6
CONTINUOUS
10
211.876
20
-83.5537
11
211.801
21
-83.5685
0
LINE
8
BLACK
6
CONTINUOUS
10
211.801
20
-83.5685
11
211.717
21
-83.6247
0
LINE
8
BLACK
6
CONTINUOUS
10
211.717
20
-83.6247
11
211.661
21
-83.7089
0
LINE
8
BLACK
6
CONTINUOUS
10
211.661
20
-83.7089
11
211.646
21
-83.7831
0
LINE
8
BLACK
6
CONTINUOUS
10
211.646
20
-83.7831
11
211.646
21
-84.1265
0
LINE
8
BLACK
6
CONTINUOUS
10
211.646
20
-84.1265
11
211.629
21
-84.1748
0
LINE
8
BLACK
6
CONTINUOUS
10
211.629
20
-84.1748
11
211.584
21
-84.2005
0
LINE
8
BLACK
6
CONTINUOUS
10
211.584
20
-84.2005
11
211.533
21
-84.1916
0
LINE
8
BLACK
6
CONTINUOUS
10
211.533
20
-84.1916
11
211.507
21
-84.1605
0
LINE
8
BLACK
6
CONTINUOUS
10
211.507
20
-84.1605
11
211.505
21
-84.1618
0
LINE
8
BLACK
6
CONTINUOUS
10
211.505
20
-84.1618
11
211.41
21
-83.9855
0
LINE
8
BLACK
6
CONTINUOUS
10
211.41
20
-83.9855
11
211.288
21
-83.8367
0
LINE
8
BLACK
6
CONTINUOUS
10
211.288
20
-83.8367
11
211.139
21
-83.7145
0
LINE
8
BLACK
6
CONTINUOUS
10
211.139
20
-83.7145
11
210.969
21
-83.6237
0
LINE
8
BLACK
6
CONTINUOUS
10
210.969
20
-83.6237
11
210.785
21
-83.5678
0
LINE
8
BLACK
6
CONTINUOUS
10
210.785
20
-83.5678
11
210.594
21
-83.549
0
LINE
8
BLACK
6
CONTINUOUS
10
210.594
20
-83.549
11
210.402
21
-83.5678
0
LINE
8
BLACK
6
CONTINUOUS
10
210.402
20
-83.5678
11
210.218
21
-83.6237
0
LINE
8
BLACK
6
CONTINUOUS
10
210.218
20
-83.6237
11
210.048
21
-83.7145
0
LINE
8
BLACK
6
CONTINUOUS
10
210.048
20
-83.7145
11
209.899
21
-83.8367
0
LINE
8
BLACK
6
CONTINUOUS
10
209.899
20
-83.8367
11
209.777
21
-83.9855
0
LINE
8
BLACK
6
CONTINUOUS
10
209.777
20
-83.9855
11
209.686
21
-84.1553
0
LINE
8
BLACK
6
CONTINUOUS
10
209.686
20
-84.1553
11
209.651
21
-84.2726
0
LINE
8
BLACK
6
CONTINUOUS
10
209.651
20
-84.2726
11
209.62
21
-84.3137
0
LINE
8
BLACK
6
CONTINUOUS
10
209.62
20
-84.3137
11
209.57
21
-84.3254
0
LINE
8
BLACK
6
CONTINUOUS
10
209.57
20
-84.3254
11
209.524
21
-84.3022
0
LINE
8
BLACK
6
CONTINUOUS
10
209.524
20
-84.3022
11
209.507
21
-84.2726
0
LINE
8
BLACK
6
CONTINUOUS
10
209.507
20
-84.2726
11
209.489
21
-84.2137
0
LINE
8
BLACK
6
CONTINUOUS
10
209.489
20
-84.2137
11
209.471
21
-84.1553
0
LINE
8
BLACK
6
CONTINUOUS
10
209.471
20
-84.1553
11
209.456
21
-84.1265
0
LINE
8
BLACK
6
CONTINUOUS
10
209.456
20
-84.1265
11
209.38
21
-83.9855
0
LINE
8
BLACK
6
CONTINUOUS
10
209.38
20
-83.9855
11
209.258
21
-83.8367
0
LINE
8
BLACK
6
CONTINUOUS
10
209.258
20
-83.8367
11
209.109
21
-83.7145
0
LINE
8
BLACK
6
CONTINUOUS
10
209.109
20
-83.7145
11
208.939
21
-83.6237
0
LINE
8
BLACK
6
CONTINUOUS
10
208.939
20
-83.6237
11
208.755
21
-83.5678
0
LINE
8
BLACK
6
CONTINUOUS
10
208.755
20
-83.5678
11
208.564
21
-83.549
0
LINE
8
BLACK
6
CONTINUOUS
10
208.564
20
-83.549
11
208.372
21
-83.5678
0
LINE
8
BLACK
6
CONTINUOUS
10
208.372
20
-83.5678
11
208.188
21
-83.6237
0
LINE
8
BLACK
6
CONTINUOUS
10
208.188
20
-83.6237
11
208.018
21
-83.7145
0
LINE
8
BLACK
6
CONTINUOUS
10
208.018
20
-83.7145
11
207.869
21
-83.8367
0
LINE
8
BLACK
6
CONTINUOUS
10
207.869
20
-83.8367
11
207.747
21
-83.9855
0
LINE
8
BLACK
6
CONTINUOUS
10
207.747
20
-83.9855
11
207.656
21
-84.1553
0
LINE
8
BLACK
6
CONTINUOUS
10
207.656
20
-84.1553
11
207.621
21
-84.2726
0
LINE
8
BLACK
6
CONTINUOUS
10
207.621
20
-84.2726
11
207.59
21
-84.3137
0
LINE
8
BLACK
6
CONTINUOUS
10
207.59
20
-84.3137
11
207.54
21
-84.3254
0
LINE
8
BLACK
6
CONTINUOUS
10
207.54
20
-84.3254
11
207.494
21
-84.3022
0
LINE
8
BLACK
6
CONTINUOUS
10
207.494
20
-84.3022
11
207.477
21
-84.2726
0
LINE
8
BLACK
6
CONTINUOUS
10
207.477
20
-84.2726
11
207.459
21
-84.2137
0
LINE
8
BLACK
6
CONTINUOUS
10
207.459
20
-84.2137
11
207.441
21
-84.1553
0
LINE
8
BLACK
6
CONTINUOUS
10
207.441
20
-84.1553
11
207.426
21
-84.1265
0
LINE
8
BLACK
6
CONTINUOUS
10
207.426
20
-84.1265
11
207.35
21
-83.9855
0
LINE
8
BLACK
6
CONTINUOUS
10
207.35
20
-83.9855
11
207.228
21
-83.8367
0
LINE
8
BLACK
6
CONTINUOUS
10
207.228
20
-83.8367
11
207.079
21
-83.7145
0
LINE
8
BLACK
6
CONTINUOUS
10
207.079
20
-83.7145
11
206.909
21
-83.6237
0
LINE
8
BLACK
6
CONTINUOUS
10
206.909
20
-83.6237
11
206.725
21
-83.5678
0
LINE
8
BLACK
6
CONTINUOUS
10
206.725
20
-83.5678
11
206.534
21
-83.549
0
LINE
8
BLACK
6
CONTINUOUS
10
206.534
20
-83.549
11
206.342
21
-83.5678
0
LINE
8
BLACK
6
CONTINUOUS
10
206.342
20
-83.5678
11
206.158
21
-83.6237
0
LINE
8
BLACK
6
CONTINUOUS
10
206.158
20
-83.6237
11
205.988
21
-83.7145
0
LINE
8
BLACK
6
CONTINUOUS
10
205.988
20
-83.7145
11
205.839
21
-83.8367
0
LINE
8
BLACK
6
CONTINUOUS
10
205.839
20
-83.8367
11
205.717
21
-83.9855
0
LINE
8
BLACK
6
CONTINUOUS
10
205.717
20
-83.9855
11
205.626
21
-84.1553
0
LINE
8
BLACK
6
CONTINUOUS
10
205.626
20
-84.1553
11
205.57
21
-84.3396
0
LINE
8
BLACK
6
CONTINUOUS
10
205.57
20
-84.3396
11
205.551
21
-84.5312
0
LINE
8
BLACK
6
CONTINUOUS
10
205.551
20
-84.5312
11
205.57
21
-84.7228
0
LINE
8
BLACK
6
CONTINUOUS
10
205.57
20
-84.7228
11
205.626
21
-84.9071
0
LINE
8
BLACK
6
CONTINUOUS
10
205.626
20
-84.9071
11
205.717
21
-85.0769
0
LINE
8
BLACK
6
CONTINUOUS
10
205.717
20
-85.0769
11
205.839
21
-85.2257
0
LINE
8
BLACK
6
CONTINUOUS
10
205.839
20
-85.2257
11
205.988
21
-85.3479
0
LINE
8
BLACK
6
CONTINUOUS
10
205.988
20
-85.3479
11
205.988
21
-85.3479
0
LINE
8
BLACK
6
CONTINUOUS
10
205.988
20
-85.3479
11
205.988
21
-85.3479
0
LINE
8
BLACK
6
CONTINUOUS
10
205.988
20
-85.3479
11
206.125
21
-85.4212
0
LINE
8
BLACK
6
CONTINUOUS
10
206.125
20
-85.4212
11
206.159
21
-85.4595
0
LINE
8
BLACK
6
CONTINUOUS
10
206.159
20
-85.4595
11
206.165
21
-85.4875
0
LINE
8
BLACK
6
CONTINUOUS
10
206.165
20
-85.4875
11
206.165
21
-86.1854
0
LINE
8
BLACK
6
CONTINUOUS
10
206.165
20
-86.1854
11
206.147
21
-86.2338
0
LINE
8
BLACK
6
CONTINUOUS
10
206.147
20
-86.2338
11
206.103
21
-86.2595
0
LINE
8
BLACK
6
CONTINUOUS
10
206.103
20
-86.2595
11
206.054
21
-86.2518
0
LINE
8
BLACK
6
CONTINUOUS
10
206.054
20
-86.2518
11
205.92
21
-86.1801
0
LINE
8
BLACK
6
CONTINUOUS
10
205.92
20
-86.1801
11
205.889
21
-86.1637
0
LINE
8
BLACK
6
CONTINUOUS
10
205.889
20
-86.1637
11
205.889
21
-86.1637
0
LINE
8
BLACK
6
CONTINUOUS
10
205.889
20
-86.1637
11
205.889
21
-86.1637
0
LINE
8
BLACK
6
CONTINUOUS
10
205.889
20
-86.1637
11
205.705
21
-86.1078
0
LINE
8
BLACK
6
CONTINUOUS
10
205.705
20
-86.1078
11
205.514
21
-86.089
0
LINE
8
BLACK
6
CONTINUOUS
10
205.514
20
-86.089
11
205.322
21
-86.1078
0
LINE
8
BLACK
6
CONTINUOUS
10
205.322
20
-86.1078
11
205.138
21
-86.1637
0
LINE
8
BLACK
6
CONTINUOUS
10
205.138
20
-86.1637
11
204.968
21
-86.2545
0
LINE
8
BLACK
6
CONTINUOUS
10
204.968
20
-86.2545
11
204.819
21
-86.3767
0
LINE
8
BLACK
6
CONTINUOUS
10
204.819
20
-86.3767
11
204.697
21
-86.5255
0
LINE
8
BLACK
6
CONTINUOUS
10
204.697
20
-86.5255
11
204.606
21
-86.6953
0
LINE
8
BLACK
6
CONTINUOUS
10
204.606
20
-86.6953
11
204.55
21
-86.8796
0
LINE
8
BLACK
6
CONTINUOUS
10
204.55
20
-86.8796
11
204.532
21
-87.0646
0
LINE
8
BLACK
6
CONTINUOUS
10
204.532
20
-87.0646
11
204.51
21
-87.111
0
LINE
8
BLACK
6
CONTINUOUS
10
204.51
20
-87.111
11
204.463
21
-87.1322
0
LINE
8
BLACK
6
CONTINUOUS
10
204.463
20
-87.1322
11
204.413
21
-87.1183
0
LINE
8
BLACK
6
CONTINUOUS
10
204.413
20
-87.1183
11
204.393
21
-87.0964
0
LINE
8
BLACK
6
CONTINUOUS
10
204.393
20
-87.0964
11
204.253
21
-86.867
0
LINE
8
BLACK
6
CONTINUOUS
10
204.253
20
-86.867
11
204.253
21
-86.867
0
LINE
8
BLACK
6
CONTINUOUS
10
204.253
20
-86.867
11
204.077
21
-86.656
0
LINE
8
BLACK
6
CONTINUOUS
10
204.077
20
-86.656
11
203.873
21
-86.4728
0
LINE
8
BLACK
6
CONTINUOUS
10
203.873
20
-86.4728
11
203.644
21
-86.3213
0
LINE
8
BLACK
6
CONTINUOUS
10
203.644
20
-86.3213
11
203.395
21
-86.2048
0
LINE
8
BLACK
6
CONTINUOUS
10
203.395
20
-86.2048
11
203.248
21
-86.1604
0
LINE
8
BLACK
6
CONTINUOUS
10
203.248
20
-86.1604
11
203.132
21
-86.1257
0
LINE
8
BLACK
6
CONTINUOUS
10
203.132
20
-86.1257
11
202.861
21
-86.0857
0
LINE
8
BLACK
6
CONTINUOUS
10
202.861
20
-86.0857
11
202.655
21
-86.0857
0
LINE
8
BLACK
6
CONTINUOUS
10
202.655
20
-86.0857
11
202.654
21
-86.0858
0
LINE
8
BLACK
6
CONTINUOUS
10
202.654
20
-86.0858
11
202.654
21
-86.0858
0
LINE
8
BLACK
6
CONTINUOUS
10
202.654
20
-86.0858
11
202.45
21
-86.1007
0
LINE
8
BLACK
6
CONTINUOUS
10
202.45
20
-86.1007
11
202.182
21
-86.1604
0
LINE
8
BLACK
6
CONTINUOUS
10
202.182
20
-86.1604
11
201.925
21
-86.2585
0
LINE
8
BLACK
6
CONTINUOUS
10
201.925
20
-86.2585
11
201.686
21
-86.3929
0
LINE
8
BLACK
6
CONTINUOUS
10
201.686
20
-86.3929
11
201.469
21
-86.5606
0
LINE
8
BLACK
6
CONTINUOUS
10
201.469
20
-86.5606
11
201.278
21
-86.7583
0
LINE
8
BLACK
6
CONTINUOUS
10
201.278
20
-86.7583
11
201.118
21
-86.9816
0
LINE
8
BLACK
6
CONTINUOUS
10
201.118
20
-86.9816
11
200.993
21
-87.2257
0
LINE
8
BLACK
6
CONTINUOUS
10
200.993
20
-87.2257
11
200.904
21
-87.4856
0
LINE
8
BLACK
6
CONTINUOUS
10
200.904
20
-87.4856
11
200.854
21
-87.7555
0
LINE
8
BLACK
6
CONTINUOUS
10
200.854
20
-87.7555
11
200.844
21
-88.0299
0
LINE
8
BLACK
6
CONTINUOUS
10
200.844
20
-88.0299
11
200.874
21
-88.3028
0
LINE
8
BLACK
6
CONTINUOUS
10
200.874
20
-88.3028
11
200.944
21
-88.5684
0
LINE
8
BLACK
6
CONTINUOUS
10
200.944
20
-88.5684
11
201.051
21
-88.8211
0
LINE
8
BLACK
6
CONTINUOUS
10
201.051
20
-88.8211
11
201.194
21
-89.0554
0
LINE
8
BLACK
6
CONTINUOUS
10
201.194
20
-89.0554
11
201.37
21
-89.2664
0
LINE
8
BLACK
6
CONTINUOUS
10
201.37
20
-89.2664
11
201.574
21
-89.4496
0
LINE
8
BLACK
6
CONTINUOUS
10
201.574
20
-89.4496
11
201.574
21
-89.4496
0
LINE
8
BLACK
6
CONTINUOUS
10
201.574
20
-89.4496
11
201.574
21
-89.4496
0
LINE
8
BLACK
6
CONTINUOUS
10
201.574
20
-89.4496
11
201.803
21
-89.6011
0
LINE
8
BLACK
6
CONTINUOUS
10
201.803
20
-89.6011
11
202.052
21
-89.7176
0
LINE
8
BLACK
6
CONTINUOUS
10
202.052
20
-89.7176
11
202.315
21
-89.7967
0
LINE
8
BLACK
6
CONTINUOUS
10
202.315
20
-89.7967
11
202.586
21
-89.8367
0
LINE
8
BLACK
6
CONTINUOUS
10
202.586
20
-89.8367
11
202.586
21
-89.8367
0
LINE
8
BLACK
6
CONTINUOUS
10
202.586
20
-89.8367
11
202.791
21
-89.8367
0
LINE
8
BLACK
6
CONTINUOUS
10
202.791
20
-89.8367
11
202.792
21
-89.8367
0
LINE
8
BLACK
6
CONTINUOUS
10
202.792
20
-89.8367
11
202.868
21
-89.8311
0
LINE
8
BLACK
6
CONTINUOUS
10
202.868
20
-89.8311
11
202.997
21
-89.8217
0
LINE
8
BLACK
6
CONTINUOUS
10
202.997
20
-89.8217
11
203.024
21
-89.8158
0
LINE
8
BLACK
6
CONTINUOUS
10
203.024
20
-89.8158
11
203.265
21
-89.762
0
LINE
8
BLACK
6
CONTINUOUS
10
203.265
20
-89.762
11
203.522
21
-89.6639
0
LINE
8
BLACK
6
CONTINUOUS
10
203.522
20
-89.6639
11
203.761
21
-89.5295
0
LINE
8
BLACK
6
CONTINUOUS
10
203.761
20
-89.5295
11
203.979
21
-89.3618
0
LINE
8
BLACK
6
CONTINUOUS
10
203.979
20
-89.3618
11
204.169
21
-89.1641
0
LINE
8
BLACK
6
CONTINUOUS
10
204.169
20
-89.1641
11
204.329
21
-88.9408
0
LINE
8
BLACK
6
CONTINUOUS
10
204.329
20
-88.9408
11
204.454
21
-88.6967
0
LINE
8
BLACK
6
CONTINUOUS
10
204.454
20
-88.6967
11
204.543
21
-88.4368
0
LINE
8
BLACK
6
CONTINUOUS
10
204.543
20
-88.4368
11
204.593
21
-88.1669
0
LINE
8
BLACK
6
CONTINUOUS
10
204.593
20
-88.1669
11
204.603
21
-87.8925
0
LINE
8
BLACK
6
CONTINUOUS
10
204.603
20
-87.8925
11
204.581
21
-87.6935
0
LINE
8
BLACK
6
CONTINUOUS
10
204.581
20
-87.6935
11
204.593
21
-87.6435
0
LINE
8
BLACK
6
CONTINUOUS
10
204.593
20
-87.6435
11
204.635
21
-87.6131
0
LINE
8
BLACK
6
CONTINUOUS
10
204.635
20
-87.6131
11
204.686
21
-87.6164
0
LINE
8
BLACK
6
CONTINUOUS
10
204.686
20
-87.6164
11
204.714
21
-87.6375
0
LINE
8
BLACK
6
CONTINUOUS
10
204.714
20
-87.6375
11
204.819
21
-87.7657
0
LINE
8
BLACK
6
CONTINUOUS
10
204.819
20
-87.7657
11
204.968
21
-87.8879
0
LINE
8
BLACK
6
CONTINUOUS
10
204.968
20
-87.8879
11
204.968
21
-87.8879
0
LINE
8
BLACK
6
CONTINUOUS
10
204.968
20
-87.8879
11
204.968
21
-87.8879
0
LINE
8
BLACK
6
CONTINUOUS
10
204.968
20
-87.8879
11
205.105
21
-87.9612
0
LINE
8
BLACK
6
CONTINUOUS
10
205.105
20
-87.9612
11
205.139
21
-87.9995
0
LINE
8
BLACK
6
CONTINUOUS
10
205.139
20
-87.9995
11
205.145
21
-88.0275
0
LINE
8
BLACK
6
CONTINUOUS
10
205.145
20
-88.0275
11
205.145
21
-88.6363
0
LINE
8
BLACK
6
CONTINUOUS
10
205.145
20
-88.6363
11
205.127
21
-88.6847
0
LINE
8
BLACK
6
CONTINUOUS
10
205.127
20
-88.6847
11
205.086
21
-88.7097
0
LINE
8
BLACK
6
CONTINUOUS
10
205.086
20
-88.7097
11
205.004
21
-88.7285
0
LINE
8
BLACK
6
CONTINUOUS
10
205.004
20
-88.7285
11
204.87
21
-88.793
0
LINE
8
BLACK
6
CONTINUOUS
10
204.87
20
-88.793
11
204.754
21
-88.8857
0
LINE
8
BLACK
6
CONTINUOUS
10
204.754
20
-88.8857
11
204.661
21
-89.0019
0
LINE
8
BLACK
6
CONTINUOUS
10
204.661
20
-89.0019
11
204.596
21
-89.1358
0
LINE
8
BLACK
6
CONTINUOUS
10
204.596
20
-89.1358
11
204.563
21
-89.2807
0
LINE
8
BLACK
6
CONTINUOUS
10
204.563
20
-89.2807
11
204.563
21
-89.2935
0
LINE
8
BLACK
6
CONTINUOUS
10
204.563
20
-89.2935
11
204.563
21
-89.3423
0
LINE
8
BLACK
6
CONTINUOUS
10
204.563
20
-89.3423
11
204.563
21
-89.3423
0
LINE
8
BLACK
6
CONTINUOUS
10
204.563
20
-89.3423
11
204.563
21
-89.3423
0
LINE
8
BLACK
6
CONTINUOUS
10
204.563
20
-89.3423
11
204.563
21
-89.4478
0
LINE
8
BLACK
6
CONTINUOUS
10
204.563
20
-89.4478
11
204.596
21
-89.5927
0
LINE
8
BLACK
6
CONTINUOUS
10
204.596
20
-89.5927
11
204.631
21
-89.6639
0
LINE
8
BLACK
6
CONTINUOUS
10
204.631
20
-89.6639
11
204.661
21
-89.7266
0
LINE
8
BLACK
6
CONTINUOUS
10
204.661
20
-89.7266
11
204.753
21
-89.8428
0
LINE
8
BLACK
6
CONTINUOUS
10
204.753
20
-89.8428
11
204.87
21
-89.9355
0
LINE
8
BLACK
6
CONTINUOUS
10
204.87
20
-89.9355
11
205.004
21
-90
0
LINE
8
BLACK
6
CONTINUOUS
10
205.004
20
-90
11
205.086
21
-90.0188
0
LINE
8
BLACK
6
CONTINUOUS
10
205.086
20
-90.0188
11
205.13
21
-90.0467
0
LINE
8
BLACK
6
CONTINUOUS
10
205.13
20
-90.0467
11
205.145
21
-90.0922
0
LINE
8
BLACK
6
CONTINUOUS
10
205.145
20
-90.0922
11
205.145
21
-91.0642
0
LINE
8
BLACK
6
CONTINUOUS
10
205.145
20
-91.0642
11
205.143
21
-91.0796
0
LINE
8
BLACK
6
CONTINUOUS
10
205.143
20
-91.0796
11
205.14
21
-91.0948
0
LINE
8
BLACK
6
CONTINUOUS
10
205.14
20
-91.0948
11
205.144
21
-91.1285
0
LINE
8
BLACK
6
CONTINUOUS
10
205.144
20
-91.1285
11
205.145
21
-91.1378
0
LINE
8
BLACK
6
CONTINUOUS
10
205.145
20
-91.1378
11
205.145
21
-91.1408
0
LINE
8
BLACK
6
CONTINUOUS
10
205.145
20
-91.1408
11
205.148
21
-91.1619
0
LINE
8
BLACK
6
CONTINUOUS
10
205.148
20
-91.1619
11
205.149
21
-91.165
0
LINE
8
BLACK
6
CONTINUOUS
10
205.149
20
-91.165
11
205.156
21
-91.2193
0
LINE
8
BLACK
6
CONTINUOUS
10
205.156
20
-91.2193
11
205.159
21
-91.2295
0
LINE
8
BLACK
6
CONTINUOUS
10
205.159
20
-91.2295
11
205.185
21
-91.2777
0
LINE
8
BLACK
6
CONTINUOUS
10
205.185
20
-91.2777
11
205.186
21
-91.2804
0
LINE
8
BLACK
6
CONTINUOUS
10
205.186
20
-91.2804
11
205.21
21
-91.3297
0
LINE
8
BLACK
6
CONTINUOUS
10
205.21
20
-91.3297
11
205.217
21
-91.3382
0
LINE
8
BLACK
6
CONTINUOUS
10
205.217
20
-91.3382
11
205.257
21
-91.3754
0
LINE
8
BLACK
6
CONTINUOUS
10
205.257
20
-91.3754
11
205.259
21
-91.3775
0
LINE
8
BLACK
6
CONTINUOUS
10
205.259
20
-91.3775
11
205.388
21
-91.5061
0
LINE
8
BLACK
6
CONTINUOUS
10
205.388
20
-91.5061
11
205.413
21
-91.5195
0
LINE
8
BLACK
6
CONTINUOUS
10
205.413
20
-91.5195
11
205.535
21
-91.6274
0
LINE
8
BLACK
6
CONTINUOUS
10
205.535
20
-91.6274
11
205.628
21
-91.7613
0
LINE
8
BLACK
6
CONTINUOUS
10
205.628
20
-91.7613
11
205.685
21
-91.9135
0
LINE
8
BLACK
6
CONTINUOUS
10
205.685
20
-91.9135
11
205.705
21
-92.075
0
LINE
8
BLACK
6
CONTINUOUS
10
205.705
20
-92.075
11
205.685
21
-92.2365
0
LINE
8
BLACK
6
CONTINUOUS
10
205.685
20
-92.2365
11
205.628
21
-92.3887
0
LINE
8
BLACK
6
CONTINUOUS
10
205.628
20
-92.3887
11
205.535
21
-92.5226
0
LINE
8
BLACK
6
CONTINUOUS
10
205.535
20
-92.5226
11
205.53
21
-92.5273
0
LINE
8
BLACK
6
CONTINUOUS
10
205.53
20
-92.5273
11
205.53
21
-93.6227
0
LINE
8
BLACK
6
CONTINUOUS
10
205.53
20
-93.6227
11
205.535
21
-93.6274
0
LINE
8
BLACK
6
CONTINUOUS
10
205.535
20
-93.6274
11
205.628
21
-93.7613
0
LINE
8
BLACK
6
CONTINUOUS
10
205.628
20
-93.7613
11
205.685
21
-93.9135
0
LINE
8
BLACK
6
CONTINUOUS
10
205.685
20
-93.9135
11
205.705
21
-94.075
0
LINE
8
BLACK
6
CONTINUOUS
10
205.705
20
-94.075
11
205.685
21
-94.2365
0
LINE
8
BLACK
6
CONTINUOUS
10
205.685
20
-94.2365
11
205.628
21
-94.3887
0
LINE
8
BLACK
6
CONTINUOUS
10
205.628
20
-94.3887
11
205.535
21
-94.5226
0
LINE
8
BLACK
6
CONTINUOUS
10
205.535
20
-94.5226
11
205.515
21
-94.5403
0
LINE
8
BLACK
6
CONTINUOUS
10
205.515
20
-94.5403
11
205.512
21
-94.5481
0
LINE
8
BLACK
6
CONTINUOUS
10
205.512
20
-94.5481
11
205.495
21
-94.558
0
LINE
8
BLACK
6
CONTINUOUS
10
205.495
20
-94.558
11
205.413
21
-94.6305
0
LINE
8
BLACK
6
CONTINUOUS
10
205.413
20
-94.6305
11
205.269
21
-94.7061
0
LINE
8
BLACK
6
CONTINUOUS
10
205.269
20
-94.7061
11
205.111
21
-94.7451
0
LINE
8
BLACK
6
CONTINUOUS
10
205.111
20
-94.7451
11
204.949
21
-94.7451
0
LINE
8
BLACK
6
CONTINUOUS
10
204.949
20
-94.7451
11
204.791
21
-94.7061
0
LINE
8
BLACK
6
CONTINUOUS
10
204.791
20
-94.7061
11
204.647
21
-94.6305
0
LINE
8
BLACK
6
CONTINUOUS
10
204.647
20
-94.6305
11
204.584
21
-94.575
0
LINE
8
BLACK
6
CONTINUOUS
10
204.584
20
-94.575
11
203.966
21
-94.575
0
LINE
8
BLACK
6
CONTINUOUS
10
203.966
20
-94.575
11
204.027
21
-94.6962
0
LINE
8
BLACK
6
CONTINUOUS
10
204.027
20
-94.6962
11
204.158
21
-94.87
0
LINE
8
BLACK
6
CONTINUOUS
10
204.158
20
-94.87
11
204.319
21
-95.0167
0
LINE
8
BLACK
6
CONTINUOUS
10
204.319
20
-95.0167
11
204.384
21
-95.0567
0
LINE
8
BLACK
6
CONTINUOUS
10
204.384
20
-95.0567
11
204.415
21
-95.0971
0
LINE
8
BLACK
6
CONTINUOUS
10
204.415
20
-95.0971
11
204.414
21
-95.1486
0
LINE
8
BLACK
6
CONTINUOUS
10
204.414
20
-95.1486
11
204.38
21
-95.1869
0
LINE
8
BLACK
6
CONTINUOUS
10
204.38
20
-95.1869
11
204.344
21
-95.1959
0
LINE
8
BLACK
6
CONTINUOUS
10
204.344
20
-95.1959
11
195.416
21
-95.1959
0
LINE
8
BLACK
6
CONTINUOUS
10
195.416
20
-95.1959
11
195.368
21
-95.1783
0
LINE
8
BLACK
6
CONTINUOUS
10
195.368
20
-95.1783
11
195.342
21
-95.1337
0
LINE
8
BLACK
6
CONTINUOUS
10
195.342
20
-95.1337
11
195.351
21
-95.0831
0
LINE
8
BLACK
6
CONTINUOUS
10
195.351
20
-95.0831
11
195.391
21
-95.05
0
LINE
8
BLACK
6
CONTINUOUS
10
195.391
20
-95.05
11
195.404
21
-95.0465
0
LINE
8
BLACK
6
CONTINUOUS
10
195.404
20
-95.0465
11
195.453
21
-95.0381
0
LINE
8
BLACK
6
CONTINUOUS
10
195.453
20
-95.0381
11
195.457
21
-95.0372
0
LINE
8
BLACK
6
CONTINUOUS
10
195.457
20
-95.0372
11
195.799
21
-94.9389
0
LINE
8
BLACK
6
CONTINUOUS
10
195.799
20
-94.9389
11
195.803
21
-94.9375
0
LINE
8
BLACK
6
CONTINUOUS
10
195.803
20
-94.9375
11
196.131
21
-94.8016
0
LINE
8
BLACK
6
CONTINUOUS
10
196.131
20
-94.8016
11
196.134
21
-94.7997
0
LINE
8
BLACK
6
CONTINUOUS
10
196.134
20
-94.7997
11
196.445
21
-94.6279
0
LINE
8
BLACK
6
CONTINUOUS
10
196.445
20
-94.6279
11
196.449
21
-94.6257
0
LINE
8
BLACK
6
CONTINUOUS
10
196.449
20
-94.6257
11
196.624
21
-94.5018
0
LINE
8
BLACK
6
CONTINUOUS
10
196.624
20
-94.5018
11
196.624
21
-94.5018
0
LINE
8
BLACK
6
CONTINUOUS
10
196.624
20
-94.5018
11
196.264
21
-94.1423
0
LINE
8
BLACK
6
CONTINUOUS
10
196.264
20
-94.1423
11
195.997
21
-94.3038
0
LINE
8
BLACK
6
CONTINUOUS
10
195.997
20
-94.3038
11
195.699
21
-94.4377
0
LINE
8
BLACK
6
CONTINUOUS
10
195.699
20
-94.4377
11
195.388
21
-94.5347
0
LINE
8
BLACK
6
CONTINUOUS
10
195.388
20
-94.5347
11
195.067
21
-94.5934
0
LINE
8
BLACK
6
CONTINUOUS
10
195.067
20
-94.5934
11
194.742
21
-94.6131
0
LINE
8
BLACK
6
CONTINUOUS
10
194.742
20
-94.6131
11
194.417
21
-94.5934
0
LINE
8
BLACK
6
CONTINUOUS
10
194.417
20
-94.5934
11
194.096
21
-94.5347
0
LINE
8
BLACK
6
CONTINUOUS
10
194.096
20
-94.5347
11
193.785
21
-94.4377
0
LINE
8
BLACK
6
CONTINUOUS
10
193.785
20
-94.4377
11
193.487
21
-94.3038
0
LINE
8
BLACK
6
CONTINUOUS
10
193.487
20
-94.3038
11
193.22
21
-94.1423
0
LINE
8
BLACK
6
CONTINUOUS
10
193.22
20
-94.1423
11
192.86
21
-94.5018
0
LINE
8
BLACK
6
CONTINUOUS
10
192.86
20
-94.5018
11
192.86
21
-94.5018
0
LINE
8
BLACK
6
CONTINUOUS
10
192.86
20
-94.5018
11
193.035
21
-94.6257
0
LINE
8
BLACK
6
CONTINUOUS
10
193.035
20
-94.6257
11
193.039
21
-94.6279
0
LINE
8
BLACK
6
CONTINUOUS
10
193.039
20
-94.6279
11
193.35
21
-94.7997
0
LINE
8
BLACK
6
CONTINUOUS
10
193.35
20
-94.7997
11
193.353
21
-94.8016
0
LINE
8
BLACK
6
CONTINUOUS
10
193.353
20
-94.8016
11
193.681
21
-94.9375
0
LINE
8
BLACK
6
CONTINUOUS
10
193.681
20
-94.9375
11
193.685
21
-94.9389
0
LINE
8
BLACK
6
CONTINUOUS
10
193.685
20
-94.9389
11
194.027
21
-95.0372
0
LINE
8
BLACK
6
CONTINUOUS
10
194.027
20
-95.0372
11
194.031
21
-95.0381
0
LINE
8
BLACK
6
CONTINUOUS
10
194.031
20
-95.0381
11
194.08
21
-95.0465
0
LINE
8
BLACK
6
CONTINUOUS
10
194.08
20
-95.0465
11
194.125
21
-95.072
0
LINE
8
BLACK
6
CONTINUOUS
10
194.125
20
-95.072
11
194.143
21
-95.1202
0
LINE
8
BLACK
6
CONTINUOUS
10
194.143
20
-95.1202
11
194.126
21
-95.1686
0
LINE
8
BLACK
6
CONTINUOUS
10
194.126
20
-95.1686
11
194.081
21
-95.1946
0
LINE
8
BLACK
6
CONTINUOUS
10
194.081
20
-95.1946
11
194.068
21
-95.1959
0
LINE
8
BLACK
6
CONTINUOUS
10
194.068
20
-95.1959
11
192.459
21
-95.1959
0
LINE
8
BLACK
6
CONTINUOUS
10
192.459
20
-95.1959
11
192.453
21
-95.1956
0
LINE
8
BLACK
6
CONTINUOUS
10
192.453
20
-95.1956
11
192.285
21
-95.1809
0
LINE
8
BLACK
6
CONTINUOUS
10
192.285
20
-95.1809
11
192.272
21
-95.1786
0
LINE
8
BLACK
6
CONTINUOUS
10
192.272
20
-95.1786
11
192.112
21
-95.1358
0
LINE
8
BLACK
6
CONTINUOUS
10
192.112
20
-95.1358
11
192.1
21
-95.1314
0
LINE
8
BLACK
6
CONTINUOUS
10
192.1
20
-95.1314
11
191.95
21
-95.0615
0
LINE
8
BLACK
6
CONTINUOUS
10
191.95
20
-95.0615
11
191.939
21
-95.055
0
LINE
8
BLACK
6
CONTINUOUS
10
191.939
20
-95.055
11
191.803
21
-94.9602
0
LINE
8
BLACK
6
CONTINUOUS
10
191.803
20
-94.9602
11
191.793
21
-94.9518
0
LINE
8
BLACK
6
CONTINUOUS
10
191.793
20
-94.9518
11
191.677
21
-94.8349
0
LINE
8
BLACK
6
CONTINUOUS
10
191.677
20
-94.8349
11
191.668
21
-94.8249
0
LINE
8
BLACK
6
CONTINUOUS
10
191.668
20
-94.8249
11
191.668
21
-94.8249
0
LINE
8
BLACK
6
CONTINUOUS
10
191.668
20
-94.8249
11
191.573
21
-94.6895
0
LINE
8
BLACK
6
CONTINUOUS
10
191.573
20
-94.6895
11
191.567
21
-94.6781
0
LINE
8
BLACK
6
CONTINUOUS
10
191.567
20
-94.6781
11
191.567
21
-94.6781
0
LINE
8
BLACK
6
CONTINUOUS
10
191.567
20
-94.6781
11
191.497
21
-94.5284
0
LINE
8
BLACK
6
CONTINUOUS
10
191.497
20
-94.5284
11
191.492
21
-94.5161
0
LINE
8
BLACK
6
CONTINUOUS
10
191.492
20
-94.5161
11
191.489
21
-94.5018
0
LINE
8
BLACK
6
CONTINUOUS
10
191.489
20
-94.5018
11
191.45
21
-94.3564
0
LINE
8
BLACK
6
CONTINUOUS
10
191.45
20
-94.3564
11
191.447
21
-94.3435
0
LINE
8
BLACK
6
CONTINUOUS
10
191.447
20
-94.3435
11
191.444
21
-94.3051
0
LINE
8
BLACK
6
CONTINUOUS
10
191.444
20
-94.3051
11
191.433
21
-94.1764
0
LINE
8
BLACK
6
CONTINUOUS
10
191.433
20
-94.1764
11
191.433
21
-94.1698
0
LINE
8
BLACK
6
CONTINUOUS
10
191.433
20
-94.1698
11
191.433
21
-92.4301
0
LINE
8
BLACK
6
CONTINUOUS
10
191.433
20
-92.4301
11
191.45
21
-92.3818
0
LINE
8
BLACK
6
CONTINUOUS
10
191.45
20
-92.3818
11
191.495
21
-92.356
0
LINE
8
BLACK
6
CONTINUOUS
10
191.495
20
-92.356
11
191.545
21
-92.365
0
LINE
8
BLACK
6
CONTINUOUS
10
191.545
20
-92.365
11
191.578
21
-92.4044
0
LINE
8
BLACK
6
CONTINUOUS
10
191.578
20
-92.4044
11
191.582
21
-92.4175
0
LINE
8
BLACK
6
CONTINUOUS
10
191.582
20
-92.4175
11
191.617
21
-92.6242
0
LINE
8
BLACK
6
CONTINUOUS
10
191.617
20
-92.6242
11
191.618
21
-92.6283
0
LINE
8
BLACK
6
CONTINUOUS
10
191.618
20
-92.6283
11
191.716
21
-92.9696
0
LINE
8
BLACK
6
CONTINUOUS
10
191.716
20
-92.9696
11
191.718
21
-92.9736
0
LINE
8
BLACK
6
CONTINUOUS
10
191.718
20
-92.9736
11
191.854
21
-93.3018
0
LINE
8
BLACK
6
CONTINUOUS
10
191.854
20
-93.3018
11
191.855
21
-93.3056
0
LINE
8
BLACK
6
CONTINUOUS
10
191.855
20
-93.3056
11
192.027
21
-93.6165
0
LINE
8
BLACK
6
CONTINUOUS
10
192.027
20
-93.6165
11
192.029
21
-93.62
0
LINE
8
BLACK
6
CONTINUOUS
10
192.029
20
-93.62
11
192.153
21
-93.7947
0
LINE
8
BLACK
6
CONTINUOUS
10
192.153
20
-93.7947
11
192.153
21
-93.7947
0
LINE
8
BLACK
6
CONTINUOUS
10
192.153
20
-93.7947
11
192.513
21
-93.4351
0
LINE
8
BLACK
6
CONTINUOUS
10
192.513
20
-93.4351
11
192.351
21
-93.1679
0
LINE
8
BLACK
6
CONTINUOUS
10
192.351
20
-93.1679
11
192.217
21
-92.8705
0
LINE
8
BLACK
6
CONTINUOUS
10
192.217
20
-92.8705
11
192.12
21
-92.5593
0
LINE
8
BLACK
6
CONTINUOUS
10
192.12
20
-92.5593
11
192.062
21
-92.2386
0
LINE
8
BLACK
6
CONTINUOUS
10
192.062
20
-92.2386
11
192.042
21
-91.9131
0
LINE
8
BLACK
6
CONTINUOUS
10
192.042
20
-91.9131
11
192.062
21
-91.5877
0
LINE
8
BLACK
6
CONTINUOUS
10
192.062
20
-91.5877
11
192.12
21
-91.267
0
LINE
8
BLACK
6
CONTINUOUS
10
192.12
20
-91.267
11
192.217
21
-90.9557
0
LINE
8
BLACK
6
CONTINUOUS
10
192.217
20
-90.9557
11
192.351
21
-90.6584
0
LINE
8
BLACK
6
CONTINUOUS
10
192.351
20
-90.6584
11
192.513
21
-90.3911
0
LINE
8
BLACK
6
CONTINUOUS
10
192.513
20
-90.3911
11
192.153
21
-90.0316
0
LINE
8
BLACK
6
CONTINUOUS
10
192.153
20
-90.0316
11
192.153
21
-90.0316
0
LINE
8
BLACK
6
CONTINUOUS
10
192.153
20
-90.0316
11
192.029
21
-90.2062
0
LINE
8
BLACK
6
CONTINUOUS
10
192.029
20
-90.2062
11
192.027
21
-90.2098
0
LINE
8
BLACK
6
CONTINUOUS
10
192.027
20
-90.2098
11
191.855
21
-90.5206
0
LINE
8
BLACK
6
CONTINUOUS
10
191.855
20
-90.5206
11
191.854
21
-90.5244
0
LINE
8
BLACK
6
CONTINUOUS
10
191.854
20
-90.5244
11
191.718
21
-90.8526
0
LINE
8
BLACK
6
CONTINUOUS
10
191.718
20
-90.8526
11
191.716
21
-90.8566
0
LINE
8
BLACK
6
CONTINUOUS
10
191.716
20
-90.8566
11
191.618
21
-91.1979
0
LINE
8
BLACK
6
CONTINUOUS
10
191.618
20
-91.1979
11
191.617
21
-91.202
0
LINE
8
BLACK
6
CONTINUOUS
10
191.617
20
-91.202
11
191.582
21
-91.4087
0
LINE
8
BLACK
6
CONTINUOUS
10
191.582
20
-91.4087
11
191.556
21
-91.4534
0
LINE
8
BLACK
6
CONTINUOUS
10
191.556
20
-91.4534
11
191.508
21
-91.4713
0
LINE
8
BLACK
6
CONTINUOUS
10
191.508
20
-91.4713
11
191.46
21
-91.454
0
LINE
8
BLACK
6
CONTINUOUS
10
191.46
20
-91.454
11
191.434
21
-91.4096
0
LINE
8
BLACK
6
CONTINUOUS
10
191.434
20
-91.4096
11
191.433
21
-91.3961
0
LINE
8
BLACK
6
CONTINUOUS
10
191.433
20
-91.3961
11
191.433
21
-83.7212
0
LINE
8
BLACK
6
CONTINUOUS
10
191.433
20
-83.7212
11
191.433
21
-80.3651
0
LINE
8
BLACK
6
CONTINUOUS
10
191.433
20
-80.3651
11
191.45
21
-80.3168
0
LINE
8
BLACK
6
CONTINUOUS
10
191.45
20
-80.3168
11
191.495
21
-80.291
0
LINE
8
BLACK
6
CONTINUOUS
10
191.495
20
-80.291
11
191.545
21
-80.3
0
LINE
8
BLACK
6
CONTINUOUS
10
191.545
20
-80.3
11
191.578
21
-80.3394
0
LINE
8
BLACK
6
CONTINUOUS
10
191.578
20
-80.3394
11
191.582
21
-80.3525
0
LINE
8
BLACK
6
CONTINUOUS
10
191.582
20
-80.3525
11
191.617
21
-80.5592
0
LINE
8
BLACK
6
CONTINUOUS
10
191.617
20
-80.5592
11
191.618
21
-80.5633
0
LINE
8
BLACK
6
CONTINUOUS
10
191.618
20
-80.5633
11
191.716
21
-80.9046
0
LINE
8
BLACK
6
CONTINUOUS
10
191.716
20
-80.9046
11
191.718
21
-80.9086
0
LINE
8
BLACK
6
CONTINUOUS
10
191.718
20
-80.9086
11
191.854
21
-81.2368
0
LINE
8
BLACK
6
CONTINUOUS
10
191.854
20
-81.2368
11
191.855
21
-81.2406
0
LINE
8
BLACK
6
CONTINUOUS
10
191.855
20
-81.2406
11
192.027
21
-81.5515
0
LINE
8
BLACK
6
CONTINUOUS
10
192.027
20
-81.5515
11
192.029
21
-81.555
0
LINE
8
BLACK
6
CONTINUOUS
10
192.029
20
-81.555
11
192.153
21
-81.7297
0
LINE
8
BLACK
6
CONTINUOUS
10
192.153
20
-81.7297
11
192.153
21
-81.7297
0
LINE
8
BLACK
6
CONTINUOUS
10
192.153
20
-81.7297
11
192.513
21
-81.3701
0
LINE
8
BLACK
6
CONTINUOUS
10
192.513
20
-81.3701
11
192.351
21
-81.1029
0
LINE
8
BLACK
6
CONTINUOUS
10
192.351
20
-81.1029
11
192.217
21
-80.8055
0
LINE
8
BLACK
6
CONTINUOUS
10
192.217
20
-80.8055
11
192.12
21
-80.4943
0
LINE
8
BLACK
6
CONTINUOUS
10
192.12
20
-80.4943
11
192.062
21
-80.1736
0
LINE
8
BLACK
6
CONTINUOUS
10
192.062
20
-80.1736
11
192.042
21
-79.8481
0
LINE
8
BLACK
6
CONTINUOUS
10
192.042
20
-79.8481
11
192.062
21
-79.5227
0
LINE
8
BLACK
6
CONTINUOUS
10
192.062
20
-79.5227
11
192.12
21
-79.202
0
LINE
8
BLACK
6
CONTINUOUS
10
192.12
20
-79.202
11
192.217
21
-78.8907
0
LINE
8
BLACK
6
CONTINUOUS
10
192.217
20
-78.8907
11
192.351
21
-78.5934
0
LINE
8
BLACK
6
CONTINUOUS
10
192.351
20
-78.5934
11
192.513
21
-78.3261
0
LINE
8
BLACK
6
CONTINUOUS
10
192.513
20
-78.3261
11
192.153
21
-77.9666
0
LINE
8
BLACK
6
CONTINUOUS
10
192.153
20
-77.9666
11
192.153
21
-77.9666
0
LINE
8
BLACK
6
CONTINUOUS
10
192.153
20
-77.9666
11
192.029
21
-78.1412
0
LINE
8
BLACK
6
CONTINUOUS
10
192.029
20
-78.1412
11
192.027
21
-78.1448
0
LINE
8
BLACK
6
CONTINUOUS
10
192.027
20
-78.1448
11
191.855
21
-78.4556
0
LINE
8
BLACK
6
CONTINUOUS
10
191.855
20
-78.4556
11
191.854
21
-78.4594
0
LINE
8
BLACK
6
CONTINUOUS
10
191.854
20
-78.4594
11
191.718
21
-78.7876
0
LINE
8
BLACK
6
CONTINUOUS
10
191.718
20
-78.7876
11
191.716
21
-78.7916
0
LINE
8
BLACK
6
CONTINUOUS
10
191.716
20
-78.7916
11
191.618
21
-79.1329
0
LINE
8
BLACK
6
CONTINUOUS
10
191.618
20
-79.1329
11
191.617
21
-79.137
0
LINE
8
BLACK
6
CONTINUOUS
10
191.617
20
-79.137
11
191.582
21
-79.3437
0
LINE
8
BLACK
6
CONTINUOUS
10
191.582
20
-79.3437
11
191.556
21
-79.3884
0
LINE
8
BLACK
6
CONTINUOUS
10
191.556
20
-79.3884
11
191.508
21
-79.4063
0
LINE
8
BLACK
6
CONTINUOUS
10
191.508
20
-79.4063
11
191.46
21
-79.389
0
LINE
8
BLACK
6
CONTINUOUS
10
191.46
20
-79.389
11
191.434
21
-79.3446
0
LINE
8
BLACK
6
CONTINUOUS
10
191.434
20
-79.3446
11
191.433
21
-79.3311
0
LINE
8
BLACK
6
CONTINUOUS
10
191.433
20
-79.3311
11
191.433
21
-78.1083
0
LINE
8
BLACK
6
CONTINUOUS
10
191.433
20
-78.1083
11
191.433
21
-78.1017
0
LINE
8
BLACK
6
CONTINUOUS
10
191.433
20
-78.1017
11
191.447
21
-77.9338
0
LINE
8
BLACK
6
CONTINUOUS
10
191.447
20
-77.9338
11
191.45
21
-77.9209
0
LINE
8
BLACK
6
CONTINUOUS
10
191.45
20
-77.9209
11
191.493
21
-77.7613
0
LINE
8
BLACK
6
CONTINUOUS
10
191.493
20
-77.7613
11
191.497
21
-77.749
0
LINE
8
BLACK
6
CONTINUOUS
10
191.497
20
-77.749
11
191.567
21
-77.5992
0
LINE
8
BLACK
6
CONTINUOUS
10
191.567
20
-77.5992
11
191.573
21
-77.5879
0
LINE
8
BLACK
6
CONTINUOUS
10
191.573
20
-77.5879
11
191.574
21
-77.5876
0
LINE
8
BLACK
6
CONTINUOUS
10
191.574
20
-77.5876
11
191.668
21
-77.4525
0
LINE
8
BLACK
6
CONTINUOUS
10
191.668
20
-77.4525
11
191.677
21
-77.4425
0
LINE
8
BLACK
6
CONTINUOUS
10
191.677
20
-77.4425
11
191.793
21
-77.3256
0
LINE
8
BLACK
6
CONTINUOUS
10
191.793
20
-77.3256
11
191.803
21
-77.3172
0
LINE
8
BLACK
6
CONTINUOUS
10
191.803
20
-77.3172
11
191.939
21
-77.2224
0
LINE
8
BLACK
6
CONTINUOUS
10
191.939
20
-77.2224
11
191.95
21
-77.2158
0
LINE
8
BLACK
6
CONTINUOUS
10
191.95
20
-77.2158
11
192.1
21
-77.146
0
LINE
8
BLACK
6
CONTINUOUS
10
192.1
20
-77.146
11
192.112
21
-77.1415
0
LINE
8
BLACK
6
CONTINUOUS
10
192.112
20
-77.1415
11
192.272
21
-77.0987
0
LINE
8
BLACK
6
CONTINUOUS
10
192.272
20
-77.0987
11
192.285
21
-77.0965
0
LINE
8
BLACK
6
CONTINUOUS
10
192.285
20
-77.0965
11
192.453
21
-77.0818
0
LINE
8
BLACK
6
CONTINUOUS
10
192.453
20
-77.0818
11
192.459
21
-77.0815
0
LINE
8
BLACK
6
CONTINUOUS
10
192.459
20
-77.0815
11
192.522
21
-77.0815
0
LINE
8
BLACK
6
CONTINUOUS
10
192.522
20
-77.0815
11
192.875
21
-77.0815
0
LINE
8
BLACK
6
CONTINUOUS
10
192.875
20
-77.0815
11
192.924
21
-77.0991
0
LINE
8
BLACK
6
CONTINUOUS
10
196.971
20
-90.3911
11
197.133
21
-90.6584
0
LINE
8
BLACK
6
CONTINUOUS
10
197.133
20
-90.6584
11
197.267
21
-90.9557
0
LINE
8
BLACK
6
CONTINUOUS
10
197.267
20
-90.9557
11
197.364
21
-91.267
0
LINE
8
BLACK
6
CONTINUOUS
10
197.364
20
-91.267
11
197.422
21
-91.5877
0
LINE
8
BLACK
6
CONTINUOUS
10
197.422
20
-91.5877
11
197.442
21
-91.9131
0
LINE
8
BLACK
6
CONTINUOUS
10
197.442
20
-91.9131
11
197.422
21
-92.2386
0
LINE
8
BLACK
6
CONTINUOUS
10
197.422
20
-92.2386
11
197.364
21
-92.5593
0
LINE
8
BLACK
6
CONTINUOUS
10
197.364
20
-92.5593
11
197.267
21
-92.8705
0
LINE
8
BLACK
6
CONTINUOUS
10
197.267
20
-92.8705
11
197.133
21
-93.1679
0
LINE
8
BLACK
6
CONTINUOUS
10
197.133
20
-93.1679
11
196.971
21
-93.4352
0
LINE
8
BLACK
6
CONTINUOUS
10
196.971
20
-93.4352
11
197.331
21
-93.7947
0
LINE
8
BLACK
6
CONTINUOUS
10
197.331
20
-93.7947
11
197.331
21
-93.7947
0
LINE
8
BLACK
6
CONTINUOUS
10
197.331
20
-93.7947
11
197.455
21
-93.62
0
LINE
8
BLACK
6
CONTINUOUS
10
197.455
20
-93.62
11
197.457
21
-93.6165
0
LINE
8
BLACK
6
CONTINUOUS
10
197.457
20
-93.6165
11
197.629
21
-93.3056
0
LINE
8
BLACK
6
CONTINUOUS
10
197.629
20
-93.3056
11
197.63
21
-93.3018
0
LINE
8
BLACK
6
CONTINUOUS
10
197.63
20
-93.3018
11
197.766
21
-92.9736
0
LINE
8
BLACK
6
CONTINUOUS
10
197.766
20
-92.9736
11
197.768
21
-92.9696
0
LINE
8
BLACK
6
CONTINUOUS
10
197.768
20
-92.9696
11
197.866
21
-92.6283
0
LINE
8
BLACK
6
CONTINUOUS
10
197.866
20
-92.6283
11
197.867
21
-92.6242
0
LINE
8
BLACK
6
CONTINUOUS
10
197.867
20
-92.6242
11
197.875
21
-92.575
0
LINE
8
BLACK
6
CONTINUOUS
10
197.875
20
-92.575
11
197.927
21
-92.274
0
LINE
8
BLACK
6
CONTINUOUS
10
197.927
20
-92.274
11
197.927
21
-92.2699
0
LINE
8
BLACK
6
CONTINUOUS
10
197.927
20
-92.2699
11
197.938
21
-92.075
0
LINE
8
BLACK
6
CONTINUOUS
10
197.938
20
-92.075
11
197.947
21
-91.9152
0
LINE
8
BLACK
6
CONTINUOUS
10
197.947
20
-91.9152
11
197.947
21
-91.911
0
LINE
8
BLACK
6
CONTINUOUS
10
197.947
20
-91.911
11
197.928
21
-91.575
0
LINE
8
BLACK
6
CONTINUOUS
10
197.928
20
-91.575
11
197.927
21
-91.5564
0
LINE
8
BLACK
6
CONTINUOUS
10
197.927
20
-91.5564
11
197.927
21
-91.5522
0
LINE
8
BLACK
6
CONTINUOUS
10
197.927
20
-91.5522
11
197.867
21
-91.202
0
LINE
8
BLACK
6
CONTINUOUS
10
197.867
20
-91.202
11
197.866
21
-91.1979
0
LINE
8
BLACK
6
CONTINUOUS
10
197.866
20
-91.1979
11
197.768
21
-90.8566
0
LINE
8
BLACK
6
CONTINUOUS
10
197.768
20
-90.8566
11
197.766
21
-90.8526
0
LINE
8
BLACK
6
CONTINUOUS
10
197.766
20
-90.8526
11
197.63
21
-90.5244
0
LINE
8
BLACK
6
CONTINUOUS
10
197.63
20
-90.5244
11
197.629
21
-90.5206
0
LINE
8
BLACK
6
CONTINUOUS
10
197.629
20
-90.5206
11
197.457
21
-90.2098
0
LINE
8
BLACK
6
CONTINUOUS
10
197.457
20
-90.2098
11
197.455
21
-90.2062
0
LINE
8
BLACK
6
CONTINUOUS
10
197.455
20
-90.2062
11
197.331
21
-90.0316
0
LINE
8
BLACK
6
CONTINUOUS
10
197.331
20
-90.0316
11
197.331
21
-90.0316
0
LINE
8
BLACK
6
CONTINUOUS
10
197.331
20
-90.0316
11
196.971
21
-90.3911
0
LINE
8
BLACK
6
CONTINUOUS
10
220.484
20
-90.2062
11
220.482
21
-90.2098
0
LINE
8
BLACK
6
CONTINUOUS
10
220.482
20
-90.2098
11
220.31
21
-90.5206
0
LINE
8
BLACK
6
CONTINUOUS
10
220.31
20
-90.5206
11
220.309
21
-90.5244
0
LINE
8
BLACK
6
CONTINUOUS
10
220.309
20
-90.5244
11
220.173
21
-90.8526
0
LINE
8
BLACK
6
CONTINUOUS
10
220.173
20
-90.8526
11
220.171
21
-90.8566
0
LINE
8
BLACK
6
CONTINUOUS
10
220.171
20
-90.8566
11
220.073
21
-91.1979
0
LINE
8
BLACK
6
CONTINUOUS
10
220.073
20
-91.1979
11
220.072
21
-91.202
0
LINE
8
BLACK
6
CONTINUOUS
10
220.072
20
-91.202
11
220.012
21
-91.5522
0
LINE
8
BLACK
6
CONTINUOUS
10
220.012
20
-91.5522
11
220.012
21
-91.5564
0
LINE
8
BLACK
6
CONTINUOUS
10
220.012
20
-91.5564
11
219.992
21
-91.911
0
LINE
8
BLACK
6
CONTINUOUS
10
219.992
20
-91.911
11
219.992
21
-91.9152
0
LINE
8
BLACK
6
CONTINUOUS
10
219.992
20
-91.9152
11
220.012
21
-92.2699
0
LINE
8
BLACK
6
CONTINUOUS
10
220.012
20
-92.2699
11
220.012
21
-92.274
0
LINE
8
BLACK
6
CONTINUOUS
10
220.012
20
-92.274
11
220.072
21
-92.6242
0
LINE
8
BLACK
6
CONTINUOUS
10
220.072
20
-92.6242
11
220.073
21
-92.6283
0
LINE
8
BLACK
6
CONTINUOUS
10
220.073
20
-92.6283
11
220.171
21
-92.9696
0
LINE
8
BLACK
6
CONTINUOUS
10
220.171
20
-92.9696
11
220.173
21
-92.9736
0
LINE
8
BLACK
6
CONTINUOUS
10
220.173
20
-92.9736
11
220.309
21
-93.3018
0
LINE
8
BLACK
6
CONTINUOUS
10
220.309
20
-93.3018
11
220.31
21
-93.3056
0
LINE
8
BLACK
6
CONTINUOUS
10
220.31
20
-93.3056
11
220.482
21
-93.6165
0
LINE
8
BLACK
6
CONTINUOUS
10
220.482
20
-93.6165
11
220.484
21
-93.62
0
LINE
8
BLACK
6
CONTINUOUS
10
220.484
20
-93.62
11
220.608
21
-93.7947
0
LINE
8
BLACK
6
CONTINUOUS
10
220.608
20
-93.7947
11
220.608
21
-93.7947
0
LINE
8
BLACK
6
CONTINUOUS
10
220.608
20
-93.7947
11
220.968
21
-93.4351
0
LINE
8
BLACK
6
CONTINUOUS
10
220.968
20
-93.4351
11
220.806
21
-93.1679
0
LINE
8
BLACK
6
CONTINUOUS
10
220.806
20
-93.1679
11
220.672
21
-92.8705
0
LINE
8
BLACK
6
CONTINUOUS
10
220.672
20
-92.8705
11
220.575
21
-92.5593
0
LINE
8
BLACK
6
CONTINUOUS
10
220.575
20
-92.5593
11
220.517
21
-92.2386
0
LINE
8
BLACK
6
CONTINUOUS
10
220.517
20
-92.2386
11
220.497
21
-91.9131
0
LINE
8
BLACK
6
CONTINUOUS
10
220.497
20
-91.9131
11
220.517
21
-91.5877
0
LINE
8
BLACK
6
CONTINUOUS
10
220.517
20
-91.5877
11
220.575
21
-91.267
0
LINE
8
BLACK
6
CONTINUOUS
10
220.575
20
-91.267
11
220.672
21
-90.9557
0
LINE
8
BLACK
6
CONTINUOUS
10
220.672
20
-90.9557
11
220.806
21
-90.6584
0
LINE
8
BLACK
6
CONTINUOUS
10
220.806
20
-90.6584
11
220.968
21
-90.3911
0
LINE
8
BLACK
6
CONTINUOUS
10
220.968
20
-90.3911
11
220.608
21
-90.0316
0
LINE
8
BLACK
6
CONTINUOUS
10
220.608
20
-90.0316
11
220.608
21
-90.0316
0
LINE
8
BLACK
6
CONTINUOUS
10
220.608
20
-90.0316
11
220.484
21
-90.2062
0
LINE
8
BLACK
6
CONTINUOUS
10
204.027
20
-92.6962
11
204.158
21
-92.87
0
LINE
8
BLACK
6
CONTINUOUS
10
204.158
20
-92.87
11
204.322
21
-93.0194
0
LINE
8
BLACK
6
CONTINUOUS
10
204.322
20
-93.0194
11
204.346
21
-93.065
0
LINE
8
BLACK
6
CONTINUOUS
10
204.346
20
-93.065
11
204.335
21
-93.1152
0
LINE
8
BLACK
6
CONTINUOUS
10
204.335
20
-93.1152
11
204.322
21
-93.1306
0
LINE
8
BLACK
6
CONTINUOUS
10
204.322
20
-93.1306
11
204.158
21
-93.28
0
LINE
8
BLACK
6
CONTINUOUS
10
204.158
20
-93.28
11
204.027
21
-93.4538
0
LINE
8
BLACK
6
CONTINUOUS
10
204.027
20
-93.4538
11
203.966
21
-93.575
0
LINE
8
BLACK
6
CONTINUOUS
10
203.966
20
-93.575
11
204.53
21
-93.575
0
LINE
8
BLACK
6
CONTINUOUS
10
204.53
20
-93.575
11
204.53
21
-92.575
0
LINE
8
BLACK
6
CONTINUOUS
10
204.53
20
-92.575
11
203.966
21
-92.575
0
LINE
8
BLACK
6
CONTINUOUS
10
203.966
20
-92.575
11
204.027
21
-92.6962
0
LINE
8
BLACK
6
CONTINUOUS
10
194.385
20
-88.7281
11
194.381
21
-88.7286
0
LINE
8
BLACK
6
CONTINUOUS
10
194.381
20
-88.7286
11
194.031
21
-88.7881
0
LINE
8
BLACK
6
CONTINUOUS
10
194.031
20
-88.7881
11
194.027
21
-88.789
0
LINE
8
BLACK
6
CONTINUOUS
10
194.027
20
-88.789
11
193.685
21
-88.8873
0
LINE
8
BLACK
6
CONTINUOUS
10
193.685
20
-88.8873
11
193.681
21
-88.8887
0
LINE
8
BLACK
6
CONTINUOUS
10
193.681
20
-88.8887
11
193.353
21
-89.0247
0
LINE
8
BLACK
6
CONTINUOUS
10
193.353
20
-89.0247
11
193.35
21
-89.0265
0
LINE
8
BLACK
6
CONTINUOUS
10
193.35
20
-89.0265
11
193.039
21
-89.1983
0
LINE
8
BLACK
6
CONTINUOUS
10
193.039
20
-89.1983
11
193.035
21
-89.2005
0
LINE
8
BLACK
6
CONTINUOUS
10
193.035
20
-89.2005
11
192.86
21
-89.3245
0
LINE
8
BLACK
6
CONTINUOUS
10
192.86
20
-89.3245
11
192.86
21
-89.3245
0
LINE
8
BLACK
6
CONTINUOUS
10
192.86
20
-89.3245
11
193.22
21
-89.684
0
LINE
8
BLACK
6
CONTINUOUS
10
193.22
20
-89.684
11
193.487
21
-89.5224
0
LINE
8
BLACK
6
CONTINUOUS
10
193.487
20
-89.5224
11
193.785
21
-89.3886
0
LINE
8
BLACK
6
CONTINUOUS
10
193.785
20
-89.3886
11
194.096
21
-89.2916
0
LINE
8
BLACK
6
CONTINUOUS
10
194.096
20
-89.2916
11
194.417
21
-89.2328
0
LINE
8
BLACK
6
CONTINUOUS
10
194.417
20
-89.2328
11
194.742
21
-89.2131
0
LINE
8
BLACK
6
CONTINUOUS
10
194.742
20
-89.2131
11
195.067
21
-89.2328
0
LINE
8
BLACK
6
CONTINUOUS
10
195.067
20
-89.2328
11
195.388
21
-89.2916
0
LINE
8
BLACK
6
CONTINUOUS
10
195.388
20
-89.2916
11
195.699
21
-89.3886
0
LINE
8
BLACK
6
CONTINUOUS
10
195.699
20
-89.3886
11
195.997
21
-89.5224
0
LINE
8
BLACK
6
CONTINUOUS
10
195.997
20
-89.5224
11
196.264
21
-89.684
0
LINE
8
BLACK
6
CONTINUOUS
10
196.264
20
-89.684
11
196.624
21
-89.3245
0
LINE
8
BLACK
6
CONTINUOUS
10
196.624
20
-89.3245
11
196.624
21
-89.3245
0
LINE
8
BLACK
6
CONTINUOUS
10
196.624
20
-89.3245
11
196.449
21
-89.2005
0
LINE
8
BLACK
6
CONTINUOUS
10
196.449
20
-89.2005
11
196.445
21
-89.1983
0
LINE
8
BLACK
6
CONTINUOUS
10
196.445
20
-89.1983
11
196.134
21
-89.0265
0
LINE
8
BLACK
6
CONTINUOUS
10
196.134
20
-89.0265
11
196.131
21
-89.0247
0
LINE
8
BLACK
6
CONTINUOUS
10
196.131
20
-89.0247
11
195.803
21
-88.8887
0
LINE
8
BLACK
6
CONTINUOUS
10
195.803
20
-88.8887
11
195.799
21
-88.8873
0
LINE
8
BLACK
6
CONTINUOUS
10
195.799
20
-88.8873
11
195.457
21
-88.789
0
LINE
8
BLACK
6
CONTINUOUS
10
195.457
20
-88.789
11
195.453
21
-88.7881
0
LINE
8
BLACK
6
CONTINUOUS
10
195.453
20
-88.7881
11
195.103
21
-88.7286
0
LINE
8
BLACK
6
CONTINUOUS
10
195.103
20
-88.7286
11
195.099
21
-88.7281
0
LINE
8
BLACK
6
CONTINUOUS
10
195.099
20
-88.7281
11
194.744
21
-88.7082
0
LINE
8
BLACK
6
CONTINUOUS
10
194.744
20
-88.7082
11
194.74
21
-88.7082
0
LINE
8
BLACK
6
CONTINUOUS
10
194.74
20
-88.7082
11
194.385
21
-88.7281
0
LINE
8
BLACK
6
CONTINUOUS
10
222.84
20
-88.7281
11
222.836
21
-88.7286
0
LINE
8
BLACK
6
CONTINUOUS
10
222.836
20
-88.7286
11
222.486
21
-88.7881
0
LINE
8
BLACK
6
CONTINUOUS
10
222.486
20
-88.7881
11
222.482
21
-88.789
0
LINE
8
BLACK
6
CONTINUOUS
10
222.482
20
-88.789
11
222.14
21
-88.8873
0
LINE
8
BLACK
6
CONTINUOUS
10
222.14
20
-88.8873
11
222.136
21
-88.8887
0
LINE
8
BLACK
6
CONTINUOUS
10
222.136
20
-88.8887
11
221.808
21
-89.0247
0
LINE
8
BLACK
6
CONTINUOUS
10
221.808
20
-89.0247
11
221.805
21
-89.0265
0
LINE
8
BLACK
6
CONTINUOUS
10
221.805
20
-89.0265
11
221.494
21
-89.1983
0
LINE
8
BLACK
6
CONTINUOUS
10
221.494
20
-89.1983
11
221.49
21
-89.2005
0
LINE
8
BLACK
6
CONTINUOUS
10
221.49
20
-89.2005
11
221.315
21
-89.3245
0
LINE
8
BLACK
6
CONTINUOUS
10
221.315
20
-89.3245
11
221.315
21
-89.3245
0
LINE
8
BLACK
6
CONTINUOUS
10
221.315
20
-89.3245
11
221.675
21
-89.684
0
LINE
8
BLACK
6
CONTINUOUS
10
221.675
20
-89.684
11
221.942
21
-89.5224
0
LINE
8
BLACK
6
CONTINUOUS
10
221.942
20
-89.5224
11
222.24
21
-89.3886
0
LINE
8
BLACK
6
CONTINUOUS
10
222.24
20
-89.3886
11
222.551
21
-89.2916
0
LINE
8
BLACK
6
CONTINUOUS
10
222.551
20
-89.2916
11
222.872
21
-89.2328
0
LINE
8
BLACK
6
CONTINUOUS
10
222.872
20
-89.2328
11
223.197
21
-89.2131
0
LINE
8
BLACK
6
CONTINUOUS
10
223.197
20
-89.2131
11
223.522
21
-89.2328
0
LINE
8
BLACK
6
CONTINUOUS
10
223.522
20
-89.2328
11
223.843
21
-89.2916
0
LINE
8
BLACK
6
CONTINUOUS
10
223.843
20
-89.2916
11
224.154
21
-89.3886
0
LINE
8
BLACK
6
CONTINUOUS
10
224.154
20
-89.3886
11
224.452
21
-89.5224
0
LINE
8
BLACK
6
CONTINUOUS
10
224.452
20
-89.5224
11
224.719
21
-89.684
0
LINE
8
BLACK
6
CONTINUOUS
10
224.719
20
-89.684
11
225.079
21
-89.3245
0
LINE
8
BLACK
6
CONTINUOUS
10
225.079
20
-89.3245
11
225.079
21
-89.3245
0
LINE
8
BLACK
6
CONTINUOUS
10
225.079
20
-89.3245
11
224.904
21
-89.2005
0
LINE
8
BLACK
6
CONTINUOUS
10
224.904
20
-89.2005
11
224.9
21
-89.1983
0
LINE
8
BLACK
6
CONTINUOUS
10
224.9
20
-89.1983
11
224.589
21
-89.0265
0
LINE
8
BLACK
6
CONTINUOUS
10
224.589
20
-89.0265
11
224.586
21
-89.0247
0
LINE
8
BLACK
6
CONTINUOUS
10
224.586
20
-89.0247
11
224.258
21
-88.8887
0
LINE
8
BLACK
6
CONTINUOUS
10
224.258
20
-88.8887
11
224.254
21
-88.8873
0
LINE
8
BLACK
6
CONTINUOUS
10
224.254
20
-88.8873
11
223.912
21
-88.789
0
LINE
8
BLACK
6
CONTINUOUS
10
223.912
20
-88.789
11
223.908
21
-88.7881
0
LINE
8
BLACK
6
CONTINUOUS
10
223.908
20
-88.7881
11
223.558
21
-88.7286
0
LINE
8
BLACK
6
CONTINUOUS
10
223.558
20
-88.7286
11
223.554
21
-88.7281
0
LINE
8
BLACK
6
CONTINUOUS
10
223.554
20
-88.7281
11
223.199
21
-88.7082
0
LINE
8
BLACK
6
CONTINUOUS
10
223.199
20
-88.7082
11
223.195
21
-88.7082
0
LINE
8
BLACK
6
CONTINUOUS
10
223.195
20
-88.7082
11
222.84
21
-88.7281
0
LINE
8
BLACK
6
CONTINUOUS
10
201.136
20
-84.8537
11
200.922
21
-84.8937
0
LINE
8
BLACK
6
CONTINUOUS
10
200.922
20
-84.8937
11
200.705
21
-84.8937
0
LINE
8
BLACK
6
CONTINUOUS
10
200.705
20
-84.8937
11
200.491
21
-84.8537
0
LINE
8
BLACK
6
CONTINUOUS
10
200.491
20
-84.8537
11
200.417
21
-84.8249
0
LINE
8
BLACK
6
CONTINUOUS
10
200.417
20
-84.8249
11
200.034
21
-85.2077
0
LINE
8
BLACK
6
CONTINUOUS
10
200.034
20
-85.2077
11
200.034
21
-85.2077
0
LINE
8
BLACK
6
CONTINUOUS
10
200.034
20
-85.2077
11
200.199
21
-85.2871
0
LINE
8
BLACK
6
CONTINUOUS
10
200.199
20
-85.2871
11
200.439
21
-85.3612
0
LINE
8
BLACK
6
CONTINUOUS
10
200.439
20
-85.3612
11
200.688
21
-85.3987
0
LINE
8
BLACK
6
CONTINUOUS
10
200.688
20
-85.3987
11
200.939
21
-85.3987
0
LINE
8
BLACK
6
CONTINUOUS
10
200.939
20
-85.3987
11
201.188
21
-85.3612
0
LINE
8
BLACK
6
CONTINUOUS
10
201.188
20
-85.3612
11
201.428
21
-85.2871
0
LINE
8
BLACK
6
CONTINUOUS
10
201.428
20
-85.2871
11
201.593
21
-85.2077
0
LINE
8
BLACK
6
CONTINUOUS
10
201.593
20
-85.2077
11
201.21
21
-84.8249
0
LINE
8
BLACK
6
CONTINUOUS
10
201.21
20
-84.8249
11
201.136
21
-84.8537
0
LINE
8
BLACK
6
CONTINUOUS
10
217.396
20
-84.8537
11
217.182
21
-84.8937
0
LINE
8
BLACK
6
CONTINUOUS
10
217.182
20
-84.8937
11
216.965
21
-84.8937
0
LINE
8
BLACK
6
CONTINUOUS
10
216.965
20
-84.8937
11
216.751
21
-84.8537
0
LINE
8
BLACK
6
CONTINUOUS
10
216.751
20
-84.8537
11
216.677
21
-84.8249
0
LINE
8
BLACK
6
CONTINUOUS
10
216.677
20
-84.8249
11
216.294
21
-85.2077
0
LINE
8
BLACK
6
CONTINUOUS
10
216.294
20
-85.2077
11
216.294
21
-85.2077
0
LINE
8
BLACK
6
CONTINUOUS
10
216.294
20
-85.2077
11
216.459
21
-85.2871
0
LINE
8
BLACK
6
CONTINUOUS
10
216.459
20
-85.2871
11
216.699
21
-85.3612
0
LINE
8
BLACK
6
CONTINUOUS
10
216.699
20
-85.3612
11
216.948
21
-85.3987
0
LINE
8
BLACK
6
CONTINUOUS
10
216.948
20
-85.3987
11
217.199
21
-85.3987
0
LINE
8
BLACK
6
CONTINUOUS
10
217.199
20
-85.3987
11
217.448
21
-85.3612
0
LINE
8
BLACK
6
CONTINUOUS
10
217.448
20
-85.3612
11
217.688
21
-85.2871
0
LINE
8
BLACK
6
CONTINUOUS
10
217.688
20
-85.2871
11
217.853
21
-85.2077
0
LINE
8
BLACK
6
CONTINUOUS
10
217.853
20
-85.2077
11
217.47
21
-84.8249
0
LINE
8
BLACK
6
CONTINUOUS
10
217.47
20
-84.8249
11
217.396
21
-84.8537
0
LINE
8
BLACK
6
CONTINUOUS
10
201.919
20
-83.3227
11
201.971
21
-83.5048
0
LINE
8
BLACK
6
CONTINUOUS
10
201.971
20
-83.5048
11
201.991
21
-83.7212
0
LINE
8
BLACK
6
CONTINUOUS
10
201.991
20
-83.7212
11
201.971
21
-83.9376
0
LINE
8
BLACK
6
CONTINUOUS
10
201.971
20
-83.9376
11
201.919
21
-84.1197
0
LINE
8
BLACK
6
CONTINUOUS
10
201.919
20
-84.1197
11
202.3
21
-84.5009
0
LINE
8
BLACK
6
CONTINUOUS
10
202.3
20
-84.5009
11
202.3
21
-84.5009
0
LINE
8
BLACK
6
CONTINUOUS
10
202.3
20
-84.5009
11
202.329
21
-84.4511
0
LINE
8
BLACK
6
CONTINUOUS
10
202.329
20
-84.4511
11
202.421
21
-84.217
0
LINE
8
BLACK
6
CONTINUOUS
10
202.421
20
-84.217
11
202.477
21
-83.9719
0
LINE
8
BLACK
6
CONTINUOUS
10
202.477
20
-83.9719
11
202.496
21
-83.7212
0
LINE
8
BLACK
6
CONTINUOUS
10
202.496
20
-83.7212
11
202.477
21
-83.4705
0
LINE
8
BLACK
6
CONTINUOUS
10
202.477
20
-83.4705
11
202.421
21
-83.2254
0
LINE
8
BLACK
6
CONTINUOUS
10
202.421
20
-83.2254
11
202.329
21
-82.9913
0
LINE
8
BLACK
6
CONTINUOUS
10
202.329
20
-82.9913
11
202.3
21
-82.9415
0
LINE
8
BLACK
6
CONTINUOUS
10
202.3
20
-82.9415
11
202.3
21
-82.9415
0
LINE
8
BLACK
6
CONTINUOUS
10
202.3
20
-82.9415
11
201.919
21
-83.3227
0
LINE
8
BLACK
6
CONTINUOUS
10
218.179
20
-83.3227
11
218.231
21
-83.5048
0
LINE
8
BLACK
6
CONTINUOUS
10
218.231
20
-83.5048
11
218.251
21
-83.7212
0
LINE
8
BLACK
6
CONTINUOUS
10
218.251
20
-83.7212
11
218.231
21
-83.9376
0
LINE
8
BLACK
6
CONTINUOUS
10
218.231
20
-83.9376
11
218.179
21
-84.1197
0
LINE
8
BLACK
6
CONTINUOUS
10
218.179
20
-84.1197
11
218.56
21
-84.5009
0
LINE
8
BLACK
6
CONTINUOUS
10
218.56
20
-84.5009
11
218.56
21
-84.5009
0
LINE
8
BLACK
6
CONTINUOUS
10
218.56
20
-84.5009
11
218.589
21
-84.4511
0
LINE
8
BLACK
6
CONTINUOUS
10
218.589
20
-84.4511
11
218.681
21
-84.217
0
LINE
8
BLACK
6
CONTINUOUS
10
218.681
20
-84.217
11
218.737
21
-83.9719
0
LINE
8
BLACK
6
CONTINUOUS
10
218.737
20
-83.9719
11
218.756
21
-83.7212
0
LINE
8
BLACK
6
CONTINUOUS
10
218.756
20
-83.7212
11
218.737
21
-83.4705
0
LINE
8
BLACK
6
CONTINUOUS
10
218.737
20
-83.4705
11
218.681
21
-83.2254
0
LINE
8
BLACK
6
CONTINUOUS
10
218.681
20
-83.2254
11
218.589
21
-82.9913
0
LINE
8
BLACK
6
CONTINUOUS
10
218.589
20
-82.9913
11
218.56
21
-82.9415
0
LINE
8
BLACK
6
CONTINUOUS
10
218.56
20
-82.9415
11
218.56
21
-82.9415
0
LINE
8
BLACK
6
CONTINUOUS
10
218.56
20
-82.9415
11
218.179
21
-83.3227
0
LINE
8
BLACK
6
CONTINUOUS
10
200.439
20
-82.0812
11
200.199
21
-82.1553
0
LINE
8
BLACK
6
CONTINUOUS
10
200.199
20
-82.1553
11
200.034
21
-82.2347
0
LINE
8
BLACK
6
CONTINUOUS
10
200.034
20
-82.2347
11
200.034
21
-82.2347
0
LINE
8
BLACK
6
CONTINUOUS
10
200.034
20
-82.2347
11
200.417
21
-82.6175
0
LINE
8
BLACK
6
CONTINUOUS
10
200.417
20
-82.6175
11
200.491
21
-82.5887
0
LINE
8
BLACK
6
CONTINUOUS
10
200.491
20
-82.5887
11
200.705
21
-82.5487
0
LINE
8
BLACK
6
CONTINUOUS
10
200.705
20
-82.5487
11
200.922
21
-82.5487
0
LINE
8
BLACK
6
CONTINUOUS
10
200.922
20
-82.5487
11
201.136
21
-82.5887
0
LINE
8
BLACK
6
CONTINUOUS
10
201.136
20
-82.5887
11
201.21
21
-82.6175
0
LINE
8
BLACK
6
CONTINUOUS
10
201.21
20
-82.6175
11
201.593
21
-82.2347
0
LINE
8
BLACK
6
CONTINUOUS
10
201.593
20
-82.2347
11
201.593
21
-82.2347
0
LINE
8
BLACK
6
CONTINUOUS
10
201.593
20
-82.2347
11
201.428
21
-82.1553
0
LINE
8
BLACK
6
CONTINUOUS
10
201.428
20
-82.1553
11
201.188
21
-82.0812
0
LINE
8
BLACK
6
CONTINUOUS
10
201.188
20
-82.0812
11
200.939
21
-82.0437
0
LINE
8
BLACK
6
CONTINUOUS
10
200.939
20
-82.0437
11
200.688
21
-82.0437
0
LINE
8
BLACK
6
CONTINUOUS
10
200.688
20
-82.0437
11
200.439
21
-82.0812
0
LINE
8
BLACK
6
CONTINUOUS
10
216.699
20
-82.0812
11
216.459
21
-82.1553
0
LINE
8
BLACK
6
CONTINUOUS
10
216.459
20
-82.1553
11
216.294
21
-82.2347
0
LINE
8
BLACK
6
CONTINUOUS
10
216.294
20
-82.2347
11
216.294
21
-82.2347
0
LINE
8
BLACK
6
CONTINUOUS
10
216.294
20
-82.2347
11
216.677
21
-82.6175
0
LINE
8
BLACK
6
CONTINUOUS
10
216.677
20
-82.6175
11
216.751
21
-82.5887
0
LINE
8
BLACK
6
CONTINUOUS
10
216.751
20
-82.5887
11
216.965
21
-82.5487
0
LINE
8
BLACK
6
CONTINUOUS
10
216.965
20
-82.5487
11
217.182
21
-82.5487
0
LINE
8
BLACK
6
CONTINUOUS
10
217.182
20
-82.5487
11
217.396
21
-82.5887
0
LINE
8
BLACK
6
CONTINUOUS
10
217.396
20
-82.5887
11
217.47
21
-82.6175
0
LINE
8
BLACK
6
CONTINUOUS
10
217.47
20
-82.6175
11
217.853
21
-82.2347
0
LINE
8
BLACK
6
CONTINUOUS
10
217.853
20
-82.2347
11
217.853
21
-82.2347
0
LINE
8
BLACK
6
CONTINUOUS
10
217.853
20
-82.2347
11
217.688
21
-82.1553
0
LINE
8
BLACK
6
CONTINUOUS
10
217.688
20
-82.1553
11
217.448
21
-82.0812
0
LINE
8
BLACK
6
CONTINUOUS
10
217.448
20
-82.0812
11
217.199
21
-82.0437
0
LINE
8
BLACK
6
CONTINUOUS
10
217.199
20
-82.0437
11
216.948
21
-82.0437
0
LINE
8
BLACK
6
CONTINUOUS
10
216.948
20
-82.0437
11
216.699
21
-82.0812
0
LINE
8
BLACK
6
CONTINUOUS
10
221.315
20
-82.5987
11
221.315
21
-82.5987
0
LINE
8
BLACK
6
CONTINUOUS
10
221.315
20
-82.5987
11
221.49
21
-82.7226
0
LINE
8
BLACK
6
CONTINUOUS
10
221.49
20
-82.7226
11
221.494
21
-82.7248
0
LINE
8
BLACK
6
CONTINUOUS
10
221.494
20
-82.7248
11
221.805
21
-82.8966
0
LINE
8
BLACK
6
CONTINUOUS
10
221.805
20
-82.8966
11
221.808
21
-82.8984
0
LINE
8
BLACK
6
CONTINUOUS
10
221.808
20
-82.8984
11
222.136
21
-83.0344
0
LINE
8
BLACK
6
CONTINUOUS
10
222.136
20
-83.0344
11
222.14
21
-83.0358
0
LINE
8
BLACK
6
CONTINUOUS
10
222.14
20
-83.0358
11
222.482
21
-83.1341
0
LINE
8
BLACK
6
CONTINUOUS
10
222.482
20
-83.1341
11
222.486
21
-83.135
0
LINE
8
BLACK
6
CONTINUOUS
10
222.486
20
-83.135
11
222.836
21
-83.1945
0
LINE
8
BLACK
6
CONTINUOUS
10
222.836
20
-83.1945
11
222.84
21
-83.195
0
LINE
8
BLACK
6
CONTINUOUS
10
222.84
20
-83.195
11
223.195
21
-83.2149
0
LINE
8
BLACK
6
CONTINUOUS
10
223.195
20
-83.2149
11
223.199
21
-83.2149
0
LINE
8
BLACK
6
CONTINUOUS
10
223.199
20
-83.2149
11
223.554
21
-83.195
0
LINE
8
BLACK
6
CONTINUOUS
10
223.554
20
-83.195
11
223.558
21
-83.1945
0
LINE
8
BLACK
6
CONTINUOUS
10
223.558
20
-83.1945
11
223.908
21
-83.135
0
LINE
8
BLACK
6
CONTINUOUS
10
223.908
20
-83.135
11
223.912
21
-83.1341
0
LINE
8
BLACK
6
CONTINUOUS
10
223.912
20
-83.1341
11
224.254
21
-83.0358
0
LINE
8
BLACK
6
CONTINUOUS
10
224.254
20
-83.0358
11
224.258
21
-83.0344
0
LINE
8
BLACK
6
CONTINUOUS
10
224.258
20
-83.0344
11
224.586
21
-82.8984
0
LINE
8
BLACK
6
CONTINUOUS
10
224.586
20
-82.8984
11
224.589
21
-82.8966
0
LINE
8
BLACK
6
CONTINUOUS
10
224.589
20
-82.8966
11
224.9
21
-82.7248
0
LINE
8
BLACK
6
CONTINUOUS
10
224.9
20
-82.7248
11
224.904
21
-82.7226
0
LINE
8
BLACK
6
CONTINUOUS
10
224.904
20
-82.7226
11
225.079
21
-82.5987
0
LINE
8
BLACK
6
CONTINUOUS
10
225.079
20
-82.5987
11
225.079
21
-82.5987
0
LINE
8
BLACK
6
CONTINUOUS
10
225.079
20
-82.5987
11
224.719
21
-82.2391
0
LINE
8
BLACK
6
CONTINUOUS
10
224.719
20
-82.2391
11
224.452
21
-82.4007
0
LINE
8
BLACK
6
CONTINUOUS
10
224.452
20
-82.4007
11
224.154
21
-82.5345
0
LINE
8
BLACK
6
CONTINUOUS
10
224.154
20
-82.5345
11
223.843
21
-82.6315
0
LINE
8
BLACK
6
CONTINUOUS
10
223.843
20
-82.6315
11
223.522
21
-82.6903
0
LINE
8
BLACK
6
CONTINUOUS
10
223.522
20
-82.6903
11
223.197
21
-82.71
0
LINE
8
BLACK
6
CONTINUOUS
10
223.197
20
-82.71
11
222.872
21
-82.6903
0
LINE
8
BLACK
6
CONTINUOUS
10
222.872
20
-82.6903
11
222.551
21
-82.6315
0
LINE
8
BLACK
6
CONTINUOUS
10
222.551
20
-82.6315
11
222.24
21
-82.5345
0
LINE
8
BLACK
6
CONTINUOUS
10
222.24
20
-82.5345
11
221.942
21
-82.4007
0
LINE
8
BLACK
6
CONTINUOUS
10
221.942
20
-82.4007
11
221.675
21
-82.2391
0
LINE
8
BLACK
6
CONTINUOUS
10
221.675
20
-82.2391
11
221.315
21
-82.5987
0
LINE
8
BLACK
6
CONTINUOUS
10
192.86
20
-82.4368
11
192.86
21
-82.4368
0
LINE
8
BLACK
6
CONTINUOUS
10
192.86
20
-82.4368
11
193.035
21
-82.5607
0
LINE
8
BLACK
6
CONTINUOUS
10
193.035
20
-82.5607
11
193.039
21
-82.5629
0
LINE
8
BLACK
6
CONTINUOUS
10
193.039
20
-82.5629
11
193.35
21
-82.7347
0
LINE
8
BLACK
6
CONTINUOUS
10
193.35
20
-82.7347
11
193.353
21
-82.7366
0
LINE
8
BLACK
6
CONTINUOUS
10
193.353
20
-82.7366
11
193.681
21
-82.8725
0
LINE
8
BLACK
6
CONTINUOUS
10
193.681
20
-82.8725
11
193.685
21
-82.8739
0
LINE
8
BLACK
6
CONTINUOUS
10
193.685
20
-82.8739
11
194.027
21
-82.9722
0
LINE
8
BLACK
6
CONTINUOUS
10
194.027
20
-82.9722
11
194.031
21
-82.9731
0
LINE
8
BLACK
6
CONTINUOUS
10
194.031
20
-82.9731
11
194.381
21
-83.0326
0
LINE
8
BLACK
6
CONTINUOUS
10
194.381
20
-83.0326
11
194.385
21
-83.0331
0
LINE
8
BLACK
6
CONTINUOUS
10
194.385
20
-83.0331
11
194.74
21
-83.053
0
LINE
8
BLACK
6
CONTINUOUS
10
194.74
20
-83.053
11
194.744
21
-83.053
0
LINE
8
BLACK
6
CONTINUOUS
10
194.744
20
-83.053
11
195.099
21
-83.0331
0
LINE
8
BLACK
6
CONTINUOUS
10
195.099
20
-83.0331
11
195.103
21
-83.0326
0
LINE
8
BLACK
6
CONTINUOUS
10
195.103
20
-83.0326
11
195.453
21
-82.9731
0
LINE
8
BLACK
6
CONTINUOUS
10
195.453
20
-82.9731
11
195.457
21
-82.9722
0
LINE
8
BLACK
6
CONTINUOUS
10
195.457
20
-82.9722
11
195.799
21
-82.8739
0
LINE
8
BLACK
6
CONTINUOUS
10
195.799
20
-82.8739
11
195.803
21
-82.8725
0
LINE
8
BLACK
6
CONTINUOUS
10
195.803
20
-82.8725
11
196.131
21
-82.7366
0
LINE
8
BLACK
6
CONTINUOUS
10
196.131
20
-82.7366
11
196.134
21
-82.7347
0
LINE
8
BLACK
6
CONTINUOUS
10
196.134
20
-82.7347
11
196.445
21
-82.5629
0
LINE
8
BLACK
6
CONTINUOUS
10
196.445
20
-82.5629
11
196.449
21
-82.5607
0
LINE
8
BLACK
6
CONTINUOUS
10
196.449
20
-82.5607
11
196.624
21
-82.4368
0
LINE
8
BLACK
6
CONTINUOUS
10
196.624
20
-82.4368
11
196.624
21
-82.4368
0
LINE
8
BLACK
6
CONTINUOUS
10
196.624
20
-82.4368
11
196.264
21
-82.0773
0
LINE
8
BLACK
6
CONTINUOUS
10
196.264
20
-82.0773
11
195.997
21
-82.2388
0
LINE
8
BLACK
6
CONTINUOUS
10
195.997
20
-82.2388
11
195.699
21
-82.3727
0
LINE
8
BLACK
6
CONTINUOUS
10
195.699
20
-82.3727
11
195.388
21
-82.4697
0
LINE
8
BLACK
6
CONTINUOUS
10
195.388
20
-82.4697
11
195.067
21
-82.5284
0
LINE
8
BLACK
6
CONTINUOUS
10
195.067
20
-82.5284
11
194.742
21
-82.5481
0
LINE
8
BLACK
6
CONTINUOUS
10
194.742
20
-82.5481
11
194.417
21
-82.5284
0
LINE
8
BLACK
6
CONTINUOUS
10
194.417
20
-82.5284
11
194.096
21
-82.4697
0
LINE
8
BLACK
6
CONTINUOUS
10
194.096
20
-82.4697
11
193.785
21
-82.3727
0
LINE
8
BLACK
6
CONTINUOUS
10
193.785
20
-82.3727
11
193.487
21
-82.2388
0
LINE
8
BLACK
6
CONTINUOUS
10
193.487
20
-82.2388
11
193.22
21
-82.0773
0
LINE
8
BLACK
6
CONTINUOUS
10
193.22
20
-82.0773
11
192.86
21
-82.4368
0
LINE
8
BLACK
6
CONTINUOUS
10
196.971
20
-78.3261
11
197.133
21
-78.5934
0
LINE
8
BLACK
6
CONTINUOUS
10
197.133
20
-78.5934
11
197.267
21
-78.8907
0
LINE
8
BLACK
6
CONTINUOUS
10
197.267
20
-78.8907
11
197.364
21
-79.202
0
LINE
8
BLACK
6
CONTINUOUS
10
197.364
20
-79.202
11
197.422
21
-79.5227
0
LINE
8
BLACK
6
CONTINUOUS
10
197.422
20
-79.5227
11
197.442
21
-79.8481
0
LINE
8
BLACK
6
CONTINUOUS
10
197.442
20
-79.8481
11
197.422
21
-80.1736
0
LINE
8
BLACK
6
CONTINUOUS
10
197.422
20
-80.1736
11
197.364
21
-80.4943
0
LINE
8
BLACK
6
CONTINUOUS
10
197.364
20
-80.4943
11
197.267
21
-80.8055
0
LINE
8
BLACK
6
CONTINUOUS
10
197.267
20
-80.8055
11
197.133
21
-81.1029
0
LINE
8
BLACK
6
CONTINUOUS
10
197.133
20
-81.1029
11
196.971
21
-81.3702
0
LINE
8
BLACK
6
CONTINUOUS
10
196.971
20
-81.3702
11
197.331
21
-81.7297
0
LINE
8
BLACK
6
CONTINUOUS
10
197.331
20
-81.7297
11
197.331
21
-81.7297
0
LINE
8
BLACK
6
CONTINUOUS
10
197.331
20
-81.7297
11
197.455
21
-81.555
0
LINE
8
BLACK
6
CONTINUOUS
10
197.455
20
-81.555
11
197.457
21
-81.5515
0
LINE
8
BLACK
6
CONTINUOUS
10
197.457
20
-81.5515
11
197.629
21
-81.2406
0
LINE
8
BLACK
6
CONTINUOUS
10
197.629
20
-81.2406
11
197.63
21
-81.2368
0
LINE
8
BLACK
6
CONTINUOUS
10
197.63
20
-81.2368
11
197.766
21
-80.9086
0
LINE
8
BLACK
6
CONTINUOUS
10
197.766
20
-80.9086
11
197.768
21
-80.9046
0
LINE
8
BLACK
6
CONTINUOUS
10
197.768
20
-80.9046
11
197.866
21
-80.5633
0
LINE
8
BLACK
6
CONTINUOUS
10
197.866
20
-80.5633
11
197.867
21
-80.5592
0
LINE
8
BLACK
6
CONTINUOUS
10
197.867
20
-80.5592
11
197.927
21
-80.209
0
LINE
8
BLACK
6
CONTINUOUS
10
197.927
20
-80.209
11
197.927
21
-80.2049
0
LINE
8
BLACK
6
CONTINUOUS
10
197.927
20
-80.2049
11
197.947
21
-79.8502
0
LINE
8
BLACK
6
CONTINUOUS
10
197.947
20
-79.8502
11
197.947
21
-79.846
0
LINE
8
BLACK
6
CONTINUOUS
10
197.947
20
-79.846
11
197.927
21
-79.4914
0
LINE
8
BLACK
6
CONTINUOUS
10
197.927
20
-79.4914
11
197.927
21
-79.4872
0
LINE
8
BLACK
6
CONTINUOUS
10
197.927
20
-79.4872
11
197.867
21
-79.137
0
LINE
8
BLACK
6
CONTINUOUS
10
197.867
20
-79.137
11
197.866
21
-79.1329
0
LINE
8
BLACK
6
CONTINUOUS
10
197.866
20
-79.1329
11
197.768
21
-78.7916
0
LINE
8
BLACK
6
CONTINUOUS
10
197.768
20
-78.7916
11
197.766
21
-78.7876
0
LINE
8
BLACK
6
CONTINUOUS
10
197.766
20
-78.7876
11
197.63
21
-78.4594
0
LINE
8
BLACK
6
CONTINUOUS
10
197.63
20
-78.4594
11
197.629
21
-78.4556
0
LINE
8
BLACK
6
CONTINUOUS
10
197.629
20
-78.4556
11
197.457
21
-78.1448
0
LINE
8
BLACK
6
CONTINUOUS
10
197.457
20
-78.1448
11
197.455
21
-78.1412
0
LINE
8
BLACK
6
CONTINUOUS
10
197.455
20
-78.1412
11
197.331
21
-77.9666
0
LINE
8
BLACK
6
CONTINUOUS
10
197.331
20
-77.9666
11
197.331
21
-77.9666
0
LINE
8
BLACK
6
CONTINUOUS
10
197.331
20
-77.9666
11
196.971
21
-78.3261
0
LINE
8
BLACK
6
CONTINUOUS
10
220.484
20
-78.3031
11
220.482
21
-78.3067
0
LINE
8
BLACK
6
CONTINUOUS
10
220.482
20
-78.3067
11
220.31
21
-78.6175
0
LINE
8
BLACK
6
CONTINUOUS
10
220.31
20
-78.6175
11
220.309
21
-78.6213
0
LINE
8
BLACK
6
CONTINUOUS
10
220.309
20
-78.6213
11
220.173
21
-78.9495
0
LINE
8
BLACK
6
CONTINUOUS
10
220.173
20
-78.9495
11
220.171
21
-78.9535
0
LINE
8
BLACK
6
CONTINUOUS
10
220.171
20
-78.9535
11
220.073
21
-79.2948
0
LINE
8
BLACK
6
CONTINUOUS
10
220.073
20
-79.2948
11
220.072
21
-79.2989
0
LINE
8
BLACK
6
CONTINUOUS
10
220.072
20
-79.2989
11
220.012
21
-79.6491
0
LINE
8
BLACK
6
CONTINUOUS
10
220.012
20
-79.6491
11
220.012
21
-79.6532
0
LINE
8
BLACK
6
CONTINUOUS
10
220.012
20
-79.6532
11
219.992
21
-80.0079
0
LINE
8
BLACK
6
CONTINUOUS
10
219.992
20
-80.0079
11
219.992
21
-80.0121
0
LINE
8
BLACK
6
CONTINUOUS
10
219.992
20
-80.0121
11
220.012
21
-80.3668
0
LINE
8
BLACK
6
CONTINUOUS
10
220.012
20
-80.3668
11
220.012
21
-80.3709
0
LINE
8
BLACK
6
CONTINUOUS
10
220.012
20
-80.3709
11
220.072
21
-80.7211
0
LINE
8
BLACK
6
CONTINUOUS
10
220.072
20
-80.7211
11
220.073
21
-80.7252
0
LINE
8
BLACK
6
CONTINUOUS
10
220.073
20
-80.7252
11
220.171
21
-81.0665
0
LINE
8
BLACK
6
CONTINUOUS
10
220.171
20
-81.0665
11
220.173
21
-81.0705
0
LINE
8
BLACK
6
CONTINUOUS
10
220.173
20
-81.0705
11
220.309
21
-81.3987
0
LINE
8
BLACK
6
CONTINUOUS
10
220.309
20
-81.3987
11
220.31
21
-81.4025
0
LINE
8
BLACK
6
CONTINUOUS
10
220.31
20
-81.4025
11
220.482
21
-81.7133
0
LINE
8
BLACK
6
CONTINUOUS
10
220.482
20
-81.7133
11
220.484
21
-81.7169
0
LINE
8
BLACK
6
CONTINUOUS
10
220.484
20
-81.7169
11
220.608
21
-81.8915
0
LINE
8
BLACK
6
CONTINUOUS
10
220.608
20
-81.8915
11
220.608
21
-81.8915
0
LINE
8
BLACK
6
CONTINUOUS
10
220.608
20
-81.8915
11
220.968
21
-81.532
0
LINE
8
BLACK
6
CONTINUOUS
10
220.968
20
-81.532
11
220.806
21
-81.2648
0
LINE
8
BLACK
6
CONTINUOUS
10
220.806
20
-81.2648
11
220.672
21
-80.9674
0
LINE
8
BLACK
6
CONTINUOUS
10
220.672
20
-80.9674
11
220.575
21
-80.6562
0
LINE
8
BLACK
6
CONTINUOUS
10
220.575
20
-80.6562
11
220.517
21
-80.3354
0
LINE
8
BLACK
6
CONTINUOUS
10
220.517
20
-80.3354
11
220.497
21
-80.01
0
LINE
8
BLACK
6
CONTINUOUS
10
220.497
20
-80.01
11
220.517
21
-79.6846
0
LINE
8
BLACK
6
CONTINUOUS
10
220.517
20
-79.6846
11
220.575
21
-79.3638
0
LINE
8
BLACK
6
CONTINUOUS
10
220.575
20
-79.3638
11
220.672
21
-79.0526
0
LINE
8
BLACK
6
CONTINUOUS
10
220.672
20
-79.0526
11
220.806
21
-78.7552
0
LINE
8
BLACK
6
CONTINUOUS
10
220.806
20
-78.7552
11
220.968
21
-78.488
0
LINE
8
BLACK
6
CONTINUOUS
10
220.968
20
-78.488
11
220.608
21
-78.1285
0
LINE
8
BLACK
6
CONTINUOUS
10
220.608
20
-78.1285
11
220.608
21
-78.1285
0
LINE
8
BLACK
6
CONTINUOUS
10
220.608
20
-78.1285
11
220.484
21
-78.3031
0
LINE
8
BLACK
6
CONTINUOUS
10
204.53
20
-91.575
11
204.53
21
-91.0086
0
LINE
8
BLACK
6
CONTINUOUS
10
204.53
20
-91.0086
11
204.504
21
-91.0187
0
LINE
8
BLACK
6
CONTINUOUS
10
204.504
20
-91.0187
11
204.319
21
-91.1333
0
LINE
8
BLACK
6
CONTINUOUS
10
204.319
20
-91.1333
11
204.158
21
-91.28
0
LINE
8
BLACK
6
CONTINUOUS
10
204.158
20
-91.28
11
204.027
21
-91.4538
0
LINE
8
BLACK
6
CONTINUOUS
10
204.027
20
-91.4538
11
203.966
21
-91.575
0
LINE
8
BLACK
6
CONTINUOUS
10
203.966
20
-91.575
11
204.53
21
-91.575
0
LINE
8
BLACK
6
CONTINUOUS
10
213.574
20
-88.3028
11
213.644
21
-88.5684
0
LINE
8
BLACK
6
CONTINUOUS
10
213.644
20
-88.5684
11
213.751
21
-88.8211
0
LINE
8
BLACK
6
CONTINUOUS
10
213.751
20
-88.8211
11
213.894
21
-89.0554
0
LINE
8
BLACK
6
CONTINUOUS
10
213.894
20
-89.0554
11
214.07
21
-89.2664
0
LINE
8
BLACK
6
CONTINUOUS
10
214.07
20
-89.2664
11
214.274
21
-89.4496
0
LINE
8
BLACK
6
CONTINUOUS
10
214.274
20
-89.4496
11
214.274
21
-89.4496
0
LINE
8
BLACK
6
CONTINUOUS
10
214.274
20
-89.4496
11
214.274
21
-89.4496
0
LINE
8
BLACK
6
CONTINUOUS
10
214.274
20
-89.4496
11
214.503
21
-89.6011
0
LINE
8
BLACK
6
CONTINUOUS
10
214.503
20
-89.6011
11
214.752
21
-89.7176
0
LINE
8
BLACK
6
CONTINUOUS
10
214.752
20
-89.7176
11
215.015
21
-89.7967
0
LINE
8
BLACK
6
CONTINUOUS
10
215.015
20
-89.7967
11
215.286
21
-89.8367
0
LINE
8
BLACK
6
CONTINUOUS
10
215.286
20
-89.8367
11
215.286
21
-89.8367
0
LINE
8
BLACK
6
CONTINUOUS
10
215.286
20
-89.8367
11
215.491
21
-89.8367
0
LINE
8
BLACK
6
CONTINUOUS
10
215.491
20
-89.8367
11
215.492
21
-89.8367
0
LINE
8
BLACK
6
CONTINUOUS
10
215.492
20
-89.8367
11
215.568
21
-89.8311
0
LINE
8
BLACK
6
CONTINUOUS
10
215.568
20
-89.8311
11
215.697
21
-89.8217
0
LINE
8
BLACK
6
CONTINUOUS
10
215.697
20
-89.8217
11
215.724
21
-89.8158
0
LINE
8
BLACK
6
CONTINUOUS
10
215.724
20
-89.8158
11
215.965
21
-89.762
0
LINE
8
BLACK
6
CONTINUOUS
10
215.965
20
-89.762
11
216.222
21
-89.6639
0
LINE
8
BLACK
6
CONTINUOUS
10
216.222
20
-89.6639
11
216.461
21
-89.5295
0
LINE
8
BLACK
6
CONTINUOUS
10
216.461
20
-89.5295
11
216.679
21
-89.3618
0
LINE
8
BLACK
6
CONTINUOUS
10
216.679
20
-89.3618
11
216.869
21
-89.1641
0
LINE
8
BLACK
6
CONTINUOUS
10
216.869
20
-89.1641
11
217.029
21
-88.9408
0
LINE
8
BLACK
6
CONTINUOUS
10
217.029
20
-88.9408
11
217.154
21
-88.6967
0
LINE
8
BLACK
6
CONTINUOUS
10
217.154
20
-88.6967
11
217.243
21
-88.4368
0
LINE
8
BLACK
6
CONTINUOUS
10
217.243
20
-88.4368
11
217.293
21
-88.1669
0
LINE
8
BLACK
6
CONTINUOUS
10
217.293
20
-88.1669
11
217.303
21
-87.8925
0
LINE
8
BLACK
6
CONTINUOUS
10
217.303
20
-87.8925
11
217.301
21
-87.8779
0
LINE
8
BLACK
6
CONTINUOUS
10
217.301
20
-87.8779
11
217.273
21
-87.6196
0
LINE
8
BLACK
6
CONTINUOUS
10
217.273
20
-87.6196
11
217.203
21
-87.354
0
LINE
8
BLACK
6
CONTINUOUS
10
217.203
20
-87.354
11
217.109
21
-87.1322
0
LINE
8
BLACK
6
CONTINUOUS
10
217.109
20
-87.1322
11
217.096
21
-87.1013
0
LINE
8
BLACK
6
CONTINUOUS
10
217.096
20
-87.1013
11
216.953
21
-86.867
0
LINE
8
BLACK
6
CONTINUOUS
10
216.953
20
-86.867
11
216.953
21
-86.867
0
LINE
8
BLACK
6
CONTINUOUS
10
216.953
20
-86.867
11
216.777
21
-86.656
0
LINE
8
BLACK
6
CONTINUOUS
10
216.777
20
-86.656
11
216.573
21
-86.4728
0
LINE
8
BLACK
6
CONTINUOUS
10
216.573
20
-86.4728
11
216.344
21
-86.3213
0
LINE
8
BLACK
6
CONTINUOUS
10
216.344
20
-86.3213
11
216.095
21
-86.2048
0
LINE
8
BLACK
6
CONTINUOUS
10
216.095
20
-86.2048
11
215.948
21
-86.1604
0
LINE
8
BLACK
6
CONTINUOUS
10
215.948
20
-86.1604
11
215.832
21
-86.1257
0
LINE
8
BLACK
6
CONTINUOUS
10
215.832
20
-86.1257
11
215.561
21
-86.0857
0
LINE
8
BLACK
6
CONTINUOUS
10
215.561
20
-86.0857
11
215.355
21
-86.0857
0
LINE
8
BLACK
6
CONTINUOUS
10
215.355
20
-86.0857
11
215.354
21
-86.0858
0
LINE
8
BLACK
6
CONTINUOUS
10
215.354
20
-86.0858
11
215.354
21
-86.0858
0
LINE
8
BLACK
6
CONTINUOUS
10
215.354
20
-86.0858
11
215.15
21
-86.1007
0
LINE
8
BLACK
6
CONTINUOUS
10
215.15
20
-86.1007
11
214.882
21
-86.1604
0
LINE
8
BLACK
6
CONTINUOUS
10
214.882
20
-86.1604
11
214.625
21
-86.2585
0
LINE
8
BLACK
6
CONTINUOUS
10
214.625
20
-86.2585
11
214.386
21
-86.3929
0
LINE
8
BLACK
6
CONTINUOUS
10
214.386
20
-86.3929
11
214.169
21
-86.5606
0
LINE
8
BLACK
6
CONTINUOUS
10
214.169
20
-86.5606
11
213.978
21
-86.7583
0
LINE
8
BLACK
6
CONTINUOUS
10
213.978
20
-86.7583
11
213.818
21
-86.9816
0
LINE
8
BLACK
6
CONTINUOUS
10
213.818
20
-86.9816
11
213.693
21
-87.2257
0
LINE
8
BLACK
6
CONTINUOUS
10
213.693
20
-87.2257
11
213.604
21
-87.4856
0
LINE
8
BLACK
6
CONTINUOUS
10
213.604
20
-87.4856
11
213.554
21
-87.7555
0
LINE
8
BLACK
6
CONTINUOUS
10
213.554
20
-87.7555
11
213.544
21
-88.0299
0
LINE
8
BLACK
6
CONTINUOUS
10
213.544
20
-88.0299
11
213.574
21
-88.3028
0
LINE
8
BLACK
6
CONTINUOUS
10
199.15
20
-83.9719
11
199.206
21
-84.217
0
LINE
8
BLACK
6
CONTINUOUS
10
199.206
20
-84.217
11
199.298
21
-84.4511
0
LINE
8
BLACK
6
CONTINUOUS
10
199.298
20
-84.4511
11
199.327
21
-84.5009
0
LINE
8
BLACK
6
CONTINUOUS
10
199.327
20
-84.5009
11
199.327
21
-84.5009
0
LINE
8
BLACK
6
CONTINUOUS
10
199.327
20
-84.5009
11
199.708
21
-84.1197
0
LINE
8
BLACK
6
CONTINUOUS
10
199.708
20
-84.1197
11
199.656
21
-83.9376
0
LINE
8
BLACK
6
CONTINUOUS
10
199.656
20
-83.9376
11
199.636
21
-83.7212
0
LINE
8
BLACK
6
CONTINUOUS
10
199.636
20
-83.7212
11
199.656
21
-83.5048
0
LINE
8
BLACK
6
CONTINUOUS
10
199.656
20
-83.5048
11
199.708
21
-83.3227
0
LINE
8
BLACK
6
CONTINUOUS
10
199.708
20
-83.3227
11
199.327
21
-82.9415
0
LINE
8
BLACK
6
CONTINUOUS
10
199.327
20
-82.9415
11
199.327
21
-82.9415
0
LINE
8
BLACK
6
CONTINUOUS
10
199.327
20
-82.9415
11
199.298
21
-82.9913
0
LINE
8
BLACK
6
CONTINUOUS
10
199.298
20
-82.9913
11
199.206
21
-83.2254
0
LINE
8
BLACK
6
CONTINUOUS
10
199.206
20
-83.2254
11
199.15
21
-83.4705
0
LINE
8
BLACK
6
CONTINUOUS
10
199.15
20
-83.4705
11
199.131
21
-83.7212
0
LINE
8
BLACK
6
CONTINUOUS
10
199.131
20
-83.7212
11
199.15
21
-83.9719
0
LINE
8
BLACK
6
CONTINUOUS
10
215.41
20
-83.9719
11
215.466
21
-84.217
0
LINE
8
BLACK
6
CONTINUOUS
10
215.466
20
-84.217
11
215.558
21
-84.4511
0
LINE
8
BLACK
6
CONTINUOUS
10
215.558
20
-84.4511
11
215.587
21
-84.5009
0
LINE
8
BLACK
6
CONTINUOUS
10
215.587
20
-84.5009
11
215.587
21
-84.5009
0
LINE
8
BLACK
6
CONTINUOUS
10
215.587
20
-84.5009
11
215.968
21
-84.1197
0
LINE
8
BLACK
6
CONTINUOUS
10
215.968
20
-84.1197
11
215.916
21
-83.9376
0
LINE
8
BLACK
6
CONTINUOUS
10
215.916
20
-83.9376
11
215.896
21
-83.7212
0
LINE
8
BLACK
6
CONTINUOUS
10
215.896
20
-83.7212
11
215.916
21
-83.5048
0
LINE
8
BLACK
6
CONTINUOUS
10
215.916
20
-83.5048
11
215.968
21
-83.3227
0
LINE
8
BLACK
6
CONTINUOUS
10
215.968
20
-83.3227
11
215.587
21
-82.9415
0
LINE
8
BLACK
6
CONTINUOUS
10
215.587
20
-82.9415
11
215.587
21
-82.9415
0
LINE
8
BLACK
6
CONTINUOUS
10
215.587
20
-82.9415
11
215.558
21
-82.9913
0
LINE
8
BLACK
6
CONTINUOUS
10
215.558
20
-82.9913
11
215.466
21
-83.2254
0
LINE
8
BLACK
6
CONTINUOUS
10
215.466
20
-83.2254
11
215.41
21
-83.4705
0
LINE
8
BLACK
6
CONTINUOUS
10
215.41
20
-83.4705
11
215.391
21
-83.7212
0
LINE
8
BLACK
6
CONTINUOUS
10
215.391
20
-83.7212
11
215.41
21
-83.9719
0
LINE
8
BLACK
6
CONTINUOUS
10
205.674
20
-86.3663
11
205.827
21
-86.4198
0
LINE
8
BLACK
6
CONTINUOUS
10
205.827
20
-86.4198
11
205.964
21
-86.5059
0
LINE
8
BLACK
6
CONTINUOUS
10
205.964
20
-86.5059
11
206.079
21
-86.6204
0
LINE
8
BLACK
6
CONTINUOUS
10
206.079
20
-86.6204
11
206.165
21
-86.7575
0
LINE
8
BLACK
6
CONTINUOUS
10
206.165
20
-86.7575
11
206.218
21
-86.9103
0
LINE
8
BLACK
6
CONTINUOUS
10
206.218
20
-86.9103
11
206.237
21
-87.0712
0
LINE
8
BLACK
6
CONTINUOUS
10
206.237
20
-87.0712
11
206.218
21
-87.2321
0
LINE
8
BLACK
6
CONTINUOUS
10
206.218
20
-87.2321
11
206.165
21
-87.3849
0
LINE
8
BLACK
6
CONTINUOUS
10
206.165
20
-87.3849
11
206.079
21
-87.522
0
LINE
8
BLACK
6
CONTINUOUS
10
206.079
20
-87.522
11
205.964
21
-87.6365
0
LINE
8
BLACK
6
CONTINUOUS
10
205.964
20
-87.6365
11
205.827
21
-87.7226
0
LINE
8
BLACK
6
CONTINUOUS
10
205.827
20
-87.7226
11
205.674
21
-87.7761
0
LINE
8
BLACK
6
CONTINUOUS
10
205.674
20
-87.7761
11
205.628
21
-87.7813
0
LINE
8
BLACK
6
CONTINUOUS
10
205.628
20
-87.7813
11
205.628
21
-88.755
0
LINE
8
BLACK
6
CONTINUOUS
10
205.628
20
-88.755
11
205.628
21
-88.7735
0
LINE
8
BLACK
6
CONTINUOUS
10
205.628
20
-88.7735
11
205.628
21
-88.7736
0
LINE
8
BLACK
6
CONTINUOUS
10
205.628
20
-88.7736
11
205.614
21
-88.8783
0
LINE
8
BLACK
6
CONTINUOUS
10
205.614
20
-88.8783
11
205.574
21
-88.976
0
LINE
8
BLACK
6
CONTINUOUS
10
205.574
20
-88.976
11
205.509
21
-89.0599
0
LINE
8
BLACK
6
CONTINUOUS
10
205.509
20
-89.0599
11
205.425
21
-89.1243
0
LINE
8
BLACK
6
CONTINUOUS
10
205.425
20
-89.1243
11
205.328
21
-89.1648
0
LINE
8
BLACK
6
CONTINUOUS
10
205.328
20
-89.1648
11
205.223
21
-89.1786
0
LINE
8
BLACK
6
CONTINUOUS
10
205.223
20
-89.1786
11
205.223
21
-89.1785
0
LINE
8
BLACK
6
CONTINUOUS
10
205.223
20
-89.1785
11
205.223
21
-89.1785
0
LINE
8
BLACK
6
CONTINUOUS
10
205.223
20
-89.1785
11
205.223
21
-89.1785
0
LINE
8
BLACK
6
CONTINUOUS
10
205.223
20
-89.1785
11
205.223
21
-89.1785
0
LINE
8
BLACK
6
CONTINUOUS
10
205.223
20
-89.1785
11
205.223
21
-89.1785
0
LINE
8
BLACK
6
CONTINUOUS
10
205.223
20
-89.1785
11
205.223
21
-89.1785
0
LINE
8
BLACK
6
CONTINUOUS
10
205.223
20
-89.1785
11
205.223
21
-89.1786
0
LINE
8
BLACK
6
CONTINUOUS
10
205.223
20
-89.1786
11
205.188
21
-89.1786
0
LINE
8
BLACK
6
CONTINUOUS
10
205.188
20
-89.1786
11
205.123
21
-89.2054
0
LINE
8
BLACK
6
CONTINUOUS
10
205.123
20
-89.2054
11
205.073
21
-89.2551
0
LINE
8
BLACK
6
CONTINUOUS
10
205.073
20
-89.2551
11
205.046
21
-89.3199
0
LINE
8
BLACK
6
CONTINUOUS
10
205.046
20
-89.3199
11
205.046
21
-89.355
0
LINE
8
BLACK
6
CONTINUOUS
10
205.046
20
-89.355
11
205.046
21
-89.3735
0
LINE
8
BLACK
6
CONTINUOUS
10
205.046
20
-89.3735
11
205.046
21
-89.3735
0
LINE
8
BLACK
6
CONTINUOUS
10
205.046
20
-89.3735
11
205.046
21
-89.3735
0
LINE
8
BLACK
6
CONTINUOUS
10
205.046
20
-89.3735
11
205.046
21
-89.3735
0
LINE
8
BLACK
6
CONTINUOUS
10
205.046
20
-89.3735
11
205.046
21
-89.3735
0
LINE
8
BLACK
6
CONTINUOUS
10
205.046
20
-89.3735
11
205.046
21
-89.4086
0
LINE
8
BLACK
6
CONTINUOUS
10
205.046
20
-89.4086
11
205.073
21
-89.4734
0
LINE
8
BLACK
6
CONTINUOUS
10
205.073
20
-89.4734
11
205.123
21
-89.5231
0
LINE
8
BLACK
6
CONTINUOUS
10
205.123
20
-89.5231
11
205.188
21
-89.5499
0
LINE
8
BLACK
6
CONTINUOUS
10
205.188
20
-89.5499
11
205.223
21
-89.5499
0
LINE
8
BLACK
6
CONTINUOUS
10
205.223
20
-89.5499
11
205.223
21
-89.5499
0
LINE
8
BLACK
6
CONTINUOUS
10
205.223
20
-89.5499
11
205.223
21
-89.5499
0
LINE
8
BLACK
6
CONTINUOUS
10
205.223
20
-89.5499
11
205.223
21
-89.5499
0
LINE
8
BLACK
6
CONTINUOUS
10
205.223
20
-89.5499
11
205.223
21
-89.5499
0
LINE
8
BLACK
6
CONTINUOUS
10
205.223
20
-89.5499
11
205.223
21
-89.5499
0
LINE
8
BLACK
6
CONTINUOUS
10
205.223
20
-89.5499
11
205.328
21
-89.5637
0
LINE
8
BLACK
6
CONTINUOUS
10
205.328
20
-89.5637
11
205.425
21
-89.6042
0
LINE
8
BLACK
6
CONTINUOUS
10
205.425
20
-89.6042
11
205.509
21
-89.6686
0
LINE
8
BLACK
6
CONTINUOUS
10
205.509
20
-89.6686
11
205.574
21
-89.7525
0
LINE
8
BLACK
6
CONTINUOUS
10
205.574
20
-89.7525
11
205.614
21
-89.8502
0
LINE
8
BLACK
6
CONTINUOUS
10
205.614
20
-89.8502
11
205.628
21
-89.9548
0
LINE
8
BLACK
6
CONTINUOUS
10
205.628
20
-89.9548
11
205.628
21
-89.955
0
LINE
8
BLACK
6
CONTINUOUS
10
205.628
20
-89.955
11
205.628
21
-91.0629
0
LINE
8
BLACK
6
CONTINUOUS
10
205.628
20
-91.0629
11
206.169
21
-91.6041
0
LINE
8
BLACK
6
CONTINUOUS
10
206.169
20
-91.6041
11
206.181
21
-91.6205
0
LINE
8
BLACK
6
CONTINUOUS
10
206.181
20
-91.6205
11
206.184
21
-91.6231
0
LINE
8
BLACK
6
CONTINUOUS
10
206.184
20
-91.6231
11
206.185
21
-91.6255
0
LINE
8
BLACK
6
CONTINUOUS
10
206.185
20
-91.6255
11
206.189
21
-91.6302
0
LINE
8
BLACK
6
CONTINUOUS
10
206.189
20
-91.6302
11
206.195
21
-91.6578
0
LINE
8
BLACK
6
CONTINUOUS
10
206.195
20
-91.6578
11
206.203
21
-91.6849
0
LINE
8
BLACK
6
CONTINUOUS
10
206.203
20
-91.6849
11
206.203
21
-93.086
0
LINE
8
BLACK
6
CONTINUOUS
10
206.203
20
-93.086
11
206.641
21
-93.5244
0
LINE
8
BLACK
6
CONTINUOUS
10
206.641
20
-93.5244
11
206.647
21
-93.5195
0
LINE
8
BLACK
6
CONTINUOUS
10
206.647
20
-93.5195
11
206.791
21
-93.4439
0
LINE
8
BLACK
6
CONTINUOUS
10
206.791
20
-93.4439
11
206.949
21
-93.4049
0
LINE
8
BLACK
6
CONTINUOUS
10
206.949
20
-93.4049
11
207.111
21
-93.4049
0
LINE
8
BLACK
6
CONTINUOUS
10
207.111
20
-93.4049
11
207.269
21
-93.4439
0
LINE
8
BLACK
6
CONTINUOUS
10
207.269
20
-93.4439
11
207.413
21
-93.5195
0
LINE
8
BLACK
6
CONTINUOUS
10
207.413
20
-93.5195
11
207.535
21
-93.6274
0
LINE
8
BLACK
6
CONTINUOUS
10
207.535
20
-93.6274
11
207.628
21
-93.7613
0
LINE
8
BLACK
6
CONTINUOUS
10
207.628
20
-93.7613
11
207.685
21
-93.9135
0
LINE
8
BLACK
6
CONTINUOUS
10
207.685
20
-93.9135
11
207.705
21
-94.075
0
LINE
8
BLACK
6
CONTINUOUS
10
207.705
20
-94.075
11
207.685
21
-94.2365
0
LINE
8
BLACK
6
CONTINUOUS
10
207.685
20
-94.2365
11
207.628
21
-94.3887
0
LINE
8
BLACK
6
CONTINUOUS
10
207.628
20
-94.3887
11
207.535
21
-94.5226
0
LINE
8
BLACK
6
CONTINUOUS
10
207.535
20
-94.5226
11
207.413
21
-94.6305
0
LINE
8
BLACK
6
CONTINUOUS
10
207.413
20
-94.6305
11
207.269
21
-94.7061
0
LINE
8
BLACK
6
CONTINUOUS
10
207.269
20
-94.7061
11
207.111
21
-94.7451
0
LINE
8
BLACK
6
CONTINUOUS
10
207.111
20
-94.7451
11
206.949
21
-94.7451
0
LINE
8
BLACK
6
CONTINUOUS
10
206.949
20
-94.7451
11
206.791
21
-94.7061
0
LINE
8
BLACK
6
CONTINUOUS
10
206.791
20
-94.7061
11
206.647
21
-94.6305
0
LINE
8
BLACK
6
CONTINUOUS
10
206.647
20
-94.6305
11
206.525
21
-94.5226
0
LINE
8
BLACK
6
CONTINUOUS
10
206.525
20
-94.5226
11
206.432
21
-94.3887
0
LINE
8
BLACK
6
CONTINUOUS
10
206.432
20
-94.3887
11
206.375
21
-94.2365
0
LINE
8
BLACK
6
CONTINUOUS
10
206.375
20
-94.2365
11
206.355
21
-94.075
0
LINE
8
BLACK
6
CONTINUOUS
10
206.355
20
-94.075
11
206.375
21
-93.9135
0
LINE
8
BLACK
6
CONTINUOUS
10
206.375
20
-93.9135
11
206.432
21
-93.7613
0
LINE
8
BLACK
6
CONTINUOUS
10
206.432
20
-93.7613
11
206.482
21
-93.6889
0
LINE
8
BLACK
6
CONTINUOUS
10
206.482
20
-93.6889
11
206.007
21
-93.2141
0
LINE
8
BLACK
6
CONTINUOUS
10
206.007
20
-93.2141
11
205.995
21
-93.1978
0
LINE
8
BLACK
6
CONTINUOUS
10
205.995
20
-93.1978
11
205.992
21
-93.1951
0
LINE
8
BLACK
6
CONTINUOUS
10
205.992
20
-93.1951
11
205.991
21
-93.1927
0
LINE
8
BLACK
6
CONTINUOUS
10
205.991
20
-93.1927
11
205.988
21
-93.1881
0
LINE
8
BLACK
6
CONTINUOUS
10
205.988
20
-93.1881
11
205.982
21
-93.1604
0
LINE
8
BLACK
6
CONTINUOUS
10
205.982
20
-93.1604
11
205.974
21
-93.1333
0
LINE
8
BLACK
6
CONTINUOUS
10
205.974
20
-93.1333
11
205.974
21
-91.7323
0
LINE
8
BLACK
6
CONTINUOUS
10
205.974
20
-91.7323
11
205.433
21
-91.1911
0
LINE
8
BLACK
6
CONTINUOUS
10
205.433
20
-91.1911
11
205.421
21
-91.1747
0
LINE
8
BLACK
6
CONTINUOUS
10
205.421
20
-91.1747
11
205.417
21
-91.172
0
LINE
8
BLACK
6
CONTINUOUS
10
205.417
20
-91.172
11
205.417
21
-91.1696
0
LINE
8
BLACK
6
CONTINUOUS
10
205.417
20
-91.1696
11
205.413
21
-91.165
0
LINE
8
BLACK
6
CONTINUOUS
10
205.413
20
-91.165
11
205.407
21
-91.1374
0
LINE
8
BLACK
6
CONTINUOUS
10
205.407
20
-91.1374
11
205.399
21
-91.1102
0
LINE
8
BLACK
6
CONTINUOUS
10
205.399
20
-91.1102
11
205.399
21
-89.955
0
LINE
8
BLACK
6
CONTINUOUS
10
205.399
20
-89.955
11
205.399
21
-89.955
0
LINE
8
BLACK
6
CONTINUOUS
10
205.399
20
-89.955
11
205.399
21
-89.9199
0
LINE
8
BLACK
6
CONTINUOUS
10
205.399
20
-89.9199
11
205.372
21
-89.855
0
LINE
8
BLACK
6
CONTINUOUS
10
205.372
20
-89.855
11
205.323
21
-89.8054
0
LINE
8
BLACK
6
CONTINUOUS
10
205.323
20
-89.8054
11
205.258
21
-89.7785
0
LINE
8
BLACK
6
CONTINUOUS
10
205.258
20
-89.7785
11
205.223
21
-89.7785
0
LINE
8
BLACK
6
CONTINUOUS
10
205.223
20
-89.7785
11
205.223
21
-89.7785
0
LINE
8
BLACK
6
CONTINUOUS
10
205.223
20
-89.7785
11
205.223
21
-89.7785
0
LINE
8
BLACK
6
CONTINUOUS
10
205.223
20
-89.7785
11
205.118
21
-89.7647
0
LINE
8
BLACK
6
CONTINUOUS
10
205.118
20
-89.7647
11
205.02
21
-89.7243
0
LINE
8
BLACK
6
CONTINUOUS
10
205.02
20
-89.7243
11
204.936
21
-89.6599
0
LINE
8
BLACK
6
CONTINUOUS
10
204.936
20
-89.6599
11
204.872
21
-89.576
0
LINE
8
BLACK
6
CONTINUOUS
10
204.872
20
-89.576
11
204.832
21
-89.4783
0
LINE
8
BLACK
6
CONTINUOUS
10
204.832
20
-89.4783
11
204.818
21
-89.3735
0
LINE
8
BLACK
6
CONTINUOUS
10
204.818
20
-89.3735
11
204.818
21
-89.3735
0
LINE
8
BLACK
6
CONTINUOUS
10
204.818
20
-89.3735
11
204.818
21
-89.355
0
LINE
8
BLACK
6
CONTINUOUS
10
204.818
20
-89.355
11
204.832
21
-89.2502
0
LINE
8
BLACK
6
CONTINUOUS
10
204.832
20
-89.2502
11
204.872
21
-89.1525
0
LINE
8
BLACK
6
CONTINUOUS
10
204.872
20
-89.1525
11
204.936
21
-89.0686
0
LINE
8
BLACK
6
CONTINUOUS
10
204.936
20
-89.0686
11
205.02
21
-89.0042
0
LINE
8
BLACK
6
CONTINUOUS
10
205.02
20
-89.0042
11
205.118
21
-88.9638
0
LINE
8
BLACK
6
CONTINUOUS
10
205.118
20
-88.9638
11
205.223
21
-88.95
0
LINE
8
BLACK
6
CONTINUOUS
10
205.223
20
-88.95
11
205.223
21
-88.9499
0
LINE
8
BLACK
6
CONTINUOUS
10
205.223
20
-88.9499
11
205.223
21
-88.9499
0
LINE
8
BLACK
6
CONTINUOUS
10
205.223
20
-88.9499
11
205.223
21
-88.9499
0
LINE
8
BLACK
6
CONTINUOUS
10
205.223
20
-88.9499
11
205.223
21
-88.9499
0
LINE
8
BLACK
6
CONTINUOUS
10
205.223
20
-88.9499
11
205.223
21
-88.9499
0
LINE
8
BLACK
6
CONTINUOUS
10
205.223
20
-88.9499
11
205.223
21
-88.9499
0
LINE
8
BLACK
6
CONTINUOUS
10
205.223
20
-88.9499
11
205.223
21
-88.9499
0
LINE
8
BLACK
6
CONTINUOUS
10
205.223
20
-88.9499
11
205.223
21
-88.95
0
LINE
8
BLACK
6
CONTINUOUS
10
205.223
20
-88.95
11
205.258
21
-88.95
0
LINE
8
BLACK
6
CONTINUOUS
10
205.258
20
-88.95
11
205.323
21
-88.9231
0
LINE
8
BLACK
6
CONTINUOUS
10
205.323
20
-88.9231
11
205.372
21
-88.8735
0
LINE
8
BLACK
6
CONTINUOUS
10
205.372
20
-88.8735
11
205.399
21
-88.8086
0
LINE
8
BLACK
6
CONTINUOUS
10
205.399
20
-88.8086
11
205.399
21
-88.7735
0
LINE
8
BLACK
6
CONTINUOUS
10
205.399
20
-88.7735
11
205.399
21
-88.7735
0
LINE
8
BLACK
6
CONTINUOUS
10
205.399
20
-88.7735
11
205.399
21
-88.7735
0
LINE
8
BLACK
6
CONTINUOUS
10
205.399
20
-88.7735
11
205.399
21
-88.755
0
LINE
8
BLACK
6
CONTINUOUS
10
205.399
20
-88.755
11
205.399
21
-87.7813
0
LINE
8
BLACK
6
CONTINUOUS
10
205.399
20
-87.7813
11
205.353
21
-87.7761
0
LINE
8
BLACK
6
CONTINUOUS
10
205.353
20
-87.7761
11
205.2
21
-87.7226
0
LINE
8
BLACK
6
CONTINUOUS
10
205.2
20
-87.7226
11
205.063
21
-87.6365
0
LINE
8
BLACK
6
CONTINUOUS
10
205.063
20
-87.6365
11
204.948
21
-87.522
0
LINE
8
BLACK
6
CONTINUOUS
10
204.948
20
-87.522
11
204.862
21
-87.3849
0
LINE
8
BLACK
6
CONTINUOUS
10
204.862
20
-87.3849
11
204.809
21
-87.2321
0
LINE
8
BLACK
6
CONTINUOUS
10
204.809
20
-87.2321
11
204.791
21
-87.0712
0
LINE
8
BLACK
6
CONTINUOUS
10
204.791
20
-87.0712
11
204.809
21
-86.9103
0
LINE
8
BLACK
6
CONTINUOUS
10
204.809
20
-86.9103
11
204.862
21
-86.7575
0
LINE
8
BLACK
6
CONTINUOUS
10
204.862
20
-86.7575
11
204.948
21
-86.6204
0
LINE
8
BLACK
6
CONTINUOUS
10
204.948
20
-86.6204
11
205.063
21
-86.5059
0
LINE
8
BLACK
6
CONTINUOUS
10
205.063
20
-86.5059
11
205.2
21
-86.4198
0
LINE
8
BLACK
6
CONTINUOUS
10
205.2
20
-86.4198
11
205.353
21
-86.3663
0
LINE
8
BLACK
6
CONTINUOUS
10
205.353
20
-86.3663
11
205.514
21
-86.3482
0
LINE
8
BLACK
6
CONTINUOUS
10
205.514
20
-86.3482
11
205.674
21
-86.3663
0
LINE
8
BLACK
6
CONTINUOUS
10
208.724
20
-83.8263
11
208.877
21
-83.8798
0
LINE
8
BLACK
6
CONTINUOUS
10
208.877
20
-83.8798
11
209.014
21
-83.9659
0
LINE
8
BLACK
6
CONTINUOUS
10
209.014
20
-83.9659
11
209.129
21
-84.0804
0
LINE
8
BLACK
6
CONTINUOUS
10
209.129
20
-84.0804
11
209.215
21
-84.2175
0
LINE
8
BLACK
6
CONTINUOUS
10
209.215
20
-84.2175
11
209.268
21
-84.3703
0
LINE
8
BLACK
6
CONTINUOUS
10
209.268
20
-84.3703
11
209.287
21
-84.5312
0
LINE
8
BLACK
6
CONTINUOUS
10
209.287
20
-84.5312
11
209.268
21
-84.6921
0
LINE
8
BLACK
6
CONTINUOUS
10
209.268
20
-84.6921
11
209.215
21
-84.8449
0
LINE
8
BLACK
6
CONTINUOUS
10
209.215
20
-84.8449
11
209.147
21
-84.953
0
LINE
8
BLACK
6
CONTINUOUS
10
209.147
20
-84.953
11
210.644
21
-86.4501
0
LINE
8
BLACK
6
CONTINUOUS
10
210.644
20
-86.4501
11
210.656
21
-86.4664
0
LINE
8
BLACK
6
CONTINUOUS
10
210.656
20
-86.4664
11
210.659
21
-86.4691
0
LINE
8
BLACK
6
CONTINUOUS
10
210.659
20
-86.4691
11
210.66
21
-86.4715
0
LINE
8
BLACK
6
CONTINUOUS
10
210.66
20
-86.4715
11
210.664
21
-86.4761
0
LINE
8
BLACK
6
CONTINUOUS
10
210.664
20
-86.4761
11
210.67
21
-86.5038
0
LINE
8
BLACK
6
CONTINUOUS
10
210.67
20
-86.5038
11
210.678
21
-86.5309
0
LINE
8
BLACK
6
CONTINUOUS
10
210.678
20
-86.5309
11
210.678
21
-91.0933
0
LINE
8
BLACK
6
CONTINUOUS
10
210.678
20
-91.0933
11
210.675
21
-91.1135
0
LINE
8
BLACK
6
CONTINUOUS
10
210.675
20
-91.1135
11
210.675
21
-91.1176
0
LINE
8
BLACK
6
CONTINUOUS
10
210.675
20
-91.1176
11
210.674
21
-91.1198
0
LINE
8
BLACK
6
CONTINUOUS
10
210.674
20
-91.1198
11
210.673
21
-91.1255
0
LINE
8
BLACK
6
CONTINUOUS
10
210.673
20
-91.1255
11
210.658
21
-91.1493
0
LINE
8
BLACK
6
CONTINUOUS
10
210.658
20
-91.1493
11
210.644
21
-91.1742
0
LINE
8
BLACK
6
CONTINUOUS
10
210.644
20
-91.1742
11
210.086
21
-91.7323
0
LINE
8
BLACK
6
CONTINUOUS
10
210.086
20
-91.7323
11
210.086
21
-92.4651
0
LINE
8
BLACK
6
CONTINUOUS
10
210.086
20
-92.4651
11
210.083
21
-92.4853
0
LINE
8
BLACK
6
CONTINUOUS
10
210.083
20
-92.4853
11
210.083
21
-92.4894
0
LINE
8
BLACK
6
CONTINUOUS
10
210.083
20
-92.4894
11
210.082
21
-92.4916
0
LINE
8
BLACK
6
CONTINUOUS
10
210.082
20
-92.4916
11
210.081
21
-92.4973
0
LINE
8
BLACK
6
CONTINUOUS
10
210.081
20
-92.4973
11
210.066
21
-92.5211
0
LINE
8
BLACK
6
CONTINUOUS
10
210.066
20
-92.5211
11
210.053
21
-92.5459
0
LINE
8
BLACK
6
CONTINUOUS
10
210.053
20
-92.5459
11
209.551
21
-93.0477
0
LINE
8
BLACK
6
CONTINUOUS
10
209.551
20
-93.0477
11
209.551
21
-93.6498
0
LINE
8
BLACK
6
CONTINUOUS
10
209.551
20
-93.6498
11
209.628
21
-93.7613
0
LINE
8
BLACK
6
CONTINUOUS
10
209.628
20
-93.7613
11
209.685
21
-93.9135
0
LINE
8
BLACK
6
CONTINUOUS
10
209.685
20
-93.9135
11
209.705
21
-94.075
0
LINE
8
BLACK
6
CONTINUOUS
10
209.705
20
-94.075
11
209.685
21
-94.2365
0
LINE
8
BLACK
6
CONTINUOUS
10
209.685
20
-94.2365
11
209.628
21
-94.3887
0
LINE
8
BLACK
6
CONTINUOUS
10
209.628
20
-94.3887
11
209.535
21
-94.5226
0
LINE
8
BLACK
6
CONTINUOUS
10
209.535
20
-94.5226
11
209.413
21
-94.6305
0
LINE
8
BLACK
6
CONTINUOUS
10
209.413
20
-94.6305
11
209.269
21
-94.7061
0
LINE
8
BLACK
6
CONTINUOUS
10
209.269
20
-94.7061
11
209.111
21
-94.7451
0
LINE
8
BLACK
6
CONTINUOUS
10
209.111
20
-94.7451
11
208.949
21
-94.7451
0
LINE
8
BLACK
6
CONTINUOUS
10
208.949
20
-94.7451
11
208.791
21
-94.7061
0
LINE
8
BLACK
6
CONTINUOUS
10
208.791
20
-94.7061
11
208.647
21
-94.6305
0
LINE
8
BLACK
6
CONTINUOUS
10
208.647
20
-94.6305
11
208.525
21
-94.5226
0
LINE
8
BLACK
6
CONTINUOUS
10
208.525
20
-94.5226
11
208.432
21
-94.3887
0
LINE
8
BLACK
6
CONTINUOUS
10
208.432
20
-94.3887
11
208.375
21
-94.2365
0
LINE
8
BLACK
6
CONTINUOUS
10
208.375
20
-94.2365
11
208.355
21
-94.075
0
LINE
8
BLACK
6
CONTINUOUS
10
208.355
20
-94.075
11
208.375
21
-93.9135
0
LINE
8
BLACK
6
CONTINUOUS
10
208.375
20
-93.9135
11
208.432
21
-93.7613
0
LINE
8
BLACK
6
CONTINUOUS
10
208.432
20
-93.7613
11
208.525
21
-93.6274
0
LINE
8
BLACK
6
CONTINUOUS
10
208.525
20
-93.6274
11
208.647
21
-93.5195
0
LINE
8
BLACK
6
CONTINUOUS
10
208.647
20
-93.5195
11
208.791
21
-93.4439
0
LINE
8
BLACK
6
CONTINUOUS
10
208.791
20
-93.4439
11
208.949
21
-93.4049
0
LINE
8
BLACK
6
CONTINUOUS
10
208.949
20
-93.4049
11
209.111
21
-93.4049
0
LINE
8
BLACK
6
CONTINUOUS
10
209.111
20
-93.4049
11
209.269
21
-93.4439
0
LINE
8
BLACK
6
CONTINUOUS
10
209.269
20
-93.4439
11
209.322
21
-93.4715
0
LINE
8
BLACK
6
CONTINUOUS
10
209.322
20
-93.4715
11
209.322
21
-93.0004
0
LINE
8
BLACK
6
CONTINUOUS
10
209.322
20
-93.0004
11
209.325
21
-92.9802
0
LINE
8
BLACK
6
CONTINUOUS
10
209.325
20
-92.9802
11
209.325
21
-92.9761
0
LINE
8
BLACK
6
CONTINUOUS
10
209.325
20
-92.9761
11
209.326
21
-92.9739
0
LINE
8
BLACK
6
CONTINUOUS
10
209.326
20
-92.9739
11
209.327
21
-92.9682
0
LINE
8
BLACK
6
CONTINUOUS
10
209.327
20
-92.9682
11
209.342
21
-92.9444
0
LINE
8
BLACK
6
CONTINUOUS
10
209.342
20
-92.9444
11
209.356
21
-92.9195
0
LINE
8
BLACK
6
CONTINUOUS
10
209.356
20
-92.9195
11
209.857
21
-92.4177
0
LINE
8
BLACK
6
CONTINUOUS
10
209.857
20
-92.4177
11
209.857
21
-91.6849
0
LINE
8
BLACK
6
CONTINUOUS
10
209.857
20
-91.6849
11
209.86
21
-91.6647
0
LINE
8
BLACK
6
CONTINUOUS
10
209.86
20
-91.6647
11
209.86
21
-91.6606
0
LINE
8
BLACK
6
CONTINUOUS
10
209.86
20
-91.6606
11
209.861
21
-91.6584
0
LINE
8
BLACK
6
CONTINUOUS
10
209.861
20
-91.6584
11
209.862
21
-91.6527
0
LINE
8
BLACK
6
CONTINUOUS
10
209.862
20
-91.6527
11
209.877
21
-91.6289
0
LINE
8
BLACK
6
CONTINUOUS
10
209.877
20
-91.6289
11
209.891
21
-91.6041
0
LINE
8
BLACK
6
CONTINUOUS
10
209.891
20
-91.6041
11
210.449
21
-91.046
0
LINE
8
BLACK
6
CONTINUOUS
10
210.449
20
-91.046
11
210.449
21
-86.5782
0
LINE
8
BLACK
6
CONTINUOUS
10
210.449
20
-86.5782
11
208.985
21
-85.1147
0
LINE
8
BLACK
6
CONTINUOUS
10
208.985
20
-85.1147
11
208.877
21
-85.1826
0
LINE
8
BLACK
6
CONTINUOUS
10
208.877
20
-85.1826
11
208.724
21
-85.2361
0
LINE
8
BLACK
6
CONTINUOUS
10
208.724
20
-85.2361
11
208.564
21
-85.2542
0
LINE
8
BLACK
6
CONTINUOUS
10
208.564
20
-85.2542
11
208.403
21
-85.2361
0
LINE
8
BLACK
6
CONTINUOUS
10
208.403
20
-85.2361
11
208.25
21
-85.1826
0
LINE
8
BLACK
6
CONTINUOUS
10
208.25
20
-85.1826
11
208.113
21
-85.0965
0
LINE
8
BLACK
6
CONTINUOUS
10
208.113
20
-85.0965
11
207.998
21
-84.982
0
LINE
8
BLACK
6
CONTINUOUS
10
207.998
20
-84.982
11
207.912
21
-84.8449
0
LINE
8
BLACK
6
CONTINUOUS
10
207.912
20
-84.8449
11
207.859
21
-84.6921
0
LINE
8
BLACK
6
CONTINUOUS
10
207.859
20
-84.6921
11
207.841
21
-84.5312
0
LINE
8
BLACK
6
CONTINUOUS
10
207.841
20
-84.5312
11
207.859
21
-84.3703
0
LINE
8
BLACK
6
CONTINUOUS
10
207.859
20
-84.3703
11
207.912
21
-84.2175
0
LINE
8
BLACK
6
CONTINUOUS
10
207.912
20
-84.2175
11
207.998
21
-84.0804
0
LINE
8
BLACK
6
CONTINUOUS
10
207.998
20
-84.0804
11
208.113
21
-83.9659
0
LINE
8
BLACK
6
CONTINUOUS
10
208.113
20
-83.9659
11
208.25
21
-83.8798
0
LINE
8
BLACK
6
CONTINUOUS
10
208.25
20
-83.8798
11
208.403
21
-83.8263
0
LINE
8
BLACK
6
CONTINUOUS
10
208.403
20
-83.8263
11
208.564
21
-83.8082
0
LINE
8
BLACK
6
CONTINUOUS
10
208.564
20
-83.8082
11
208.724
21
-83.8263
0
LINE
8
BLACK
6
CONTINUOUS
10
211.269
20
-93.4439
11
211.413
21
-93.5195
0
LINE
8
BLACK
6
CONTINUOUS
10
211.413
20
-93.5195
11
211.535
21
-93.6274
0
LINE
8
BLACK
6
CONTINUOUS
10
211.535
20
-93.6274
11
211.628
21
-93.7613
0
LINE
8
BLACK
6
CONTINUOUS
10
211.628
20
-93.7613
11
211.685
21
-93.9135
0
LINE
8
BLACK
6
CONTINUOUS
10
211.685
20
-93.9135
11
211.705
21
-94.075
0
LINE
8
BLACK
6
CONTINUOUS
10
211.705
20
-94.075
11
211.685
21
-94.2365
0
LINE
8
BLACK
6
CONTINUOUS
10
211.685
20
-94.2365
11
211.628
21
-94.3887
0
LINE
8
BLACK
6
CONTINUOUS
10
211.628
20
-94.3887
11
211.535
21
-94.5226
0
LINE
8
BLACK
6
CONTINUOUS
10
211.535
20
-94.5226
11
211.413
21
-94.6305
0
LINE
8
BLACK
6
CONTINUOUS
10
211.413
20
-94.6305
11
211.269
21
-94.7061
0
LINE
8
BLACK
6
CONTINUOUS
10
211.269
20
-94.7061
11
211.111
21
-94.7451
0
LINE
8
BLACK
6
CONTINUOUS
10
211.111
20
-94.7451
11
210.949
21
-94.7451
0
LINE
8
BLACK
6
CONTINUOUS
10
210.949
20
-94.7451
11
210.791
21
-94.7061
0
LINE
8
BLACK
6
CONTINUOUS
10
210.791
20
-94.7061
11
210.647
21
-94.6305
0
LINE
8
BLACK
6
CONTINUOUS
10
210.647
20
-94.6305
11
210.525
21
-94.5226
0
LINE
8
BLACK
6
CONTINUOUS
10
210.525
20
-94.5226
11
210.432
21
-94.3887
0
LINE
8
BLACK
6
CONTINUOUS
10
210.432
20
-94.3887
11
210.375
21
-94.2365
0
LINE
8
BLACK
6
CONTINUOUS
10
210.375
20
-94.2365
11
210.355
21
-94.075
0
LINE
8
BLACK
6
CONTINUOUS
10
210.355
20
-94.075
11
210.375
21
-93.9135
0
LINE
8
BLACK
6
CONTINUOUS
10
210.375
20
-93.9135
11
210.432
21
-93.7613
0
LINE
8
BLACK
6
CONTINUOUS
10
210.432
20
-93.7613
11
210.525
21
-93.6274
0
LINE
8
BLACK
6
CONTINUOUS
10
210.525
20
-93.6274
11
210.647
21
-93.5195
0
LINE
8
BLACK
6
CONTINUOUS
10
210.647
20
-93.5195
11
210.791
21
-93.4439
0
LINE
8
BLACK
6
CONTINUOUS
10
210.791
20
-93.4439
11
210.949
21
-93.4049
0
LINE
8
BLACK
6
CONTINUOUS
10
210.949
20
-93.4049
11
211.111
21
-93.4049
0
LINE
8
BLACK
6
CONTINUOUS
10
211.111
20
-93.4049
11
211.269
21
-93.4439
0
LINE
8
BLACK
6
CONTINUOUS
10
213.269
20
-93.4439
11
213.413
21
-93.5195
0
LINE
8
BLACK
6
CONTINUOUS
10
213.413
20
-93.5195
11
213.535
21
-93.6274
0
LINE
8
BLACK
6
CONTINUOUS
10
213.535
20
-93.6274
11
213.628
21
-93.7613
0
LINE
8
BLACK
6
CONTINUOUS
10
213.628
20
-93.7613
11
213.685
21
-93.9135
0
LINE
8
BLACK
6
CONTINUOUS
10
213.685
20
-93.9135
11
213.705
21
-94.075
0
LINE
8
BLACK
6
CONTINUOUS
10
213.705
20
-94.075
11
213.685
21
-94.2365
0
LINE
8
BLACK
6
CONTINUOUS
10
213.685
20
-94.2365
11
213.628
21
-94.3887
0
LINE
8
BLACK
6
CONTINUOUS
10
213.628
20
-94.3887
11
213.535
21
-94.5226
0
LINE
8
BLACK
6
CONTINUOUS
10
213.535
20
-94.5226
11
213.413
21
-94.6305
0
LINE
8
BLACK
6
CONTINUOUS
10
213.413
20
-94.6305
11
213.269
21
-94.7061
0
LINE
8
BLACK
6
CONTINUOUS
10
213.269
20
-94.7061
11
213.111
21
-94.7451
0
LINE
8
BLACK
6
CONTINUOUS
10
213.111
20
-94.7451
11
212.949
21
-94.7451
0
LINE
8
BLACK
6
CONTINUOUS
10
212.949
20
-94.7451
11
212.791
21
-94.7061
0
LINE
8
BLACK
6
CONTINUOUS
10
212.791
20
-94.7061
11
212.647
21
-94.6305
0
LINE
8
BLACK
6
CONTINUOUS
10
212.647
20
-94.6305
11
212.525
21
-94.5226
0
LINE
8
BLACK
6
CONTINUOUS
10
212.525
20
-94.5226
11
212.432
21
-94.3887
0
LINE
8
BLACK
6
CONTINUOUS
10
212.432
20
-94.3887
11
212.375
21
-94.2365
0
LINE
8
BLACK
6
CONTINUOUS
10
212.375
20
-94.2365
11
212.355
21
-94.075
0
LINE
8
BLACK
6
CONTINUOUS
10
212.355
20
-94.075
11
212.375
21
-93.9135
0
LINE
8
BLACK
6
CONTINUOUS
10
212.375
20
-93.9135
11
212.432
21
-93.7613
0
LINE
8
BLACK
6
CONTINUOUS
10
212.432
20
-93.7613
11
212.525
21
-93.6274
0
LINE
8
BLACK
6
CONTINUOUS
10
212.525
20
-93.6274
11
212.647
21
-93.5195
0
LINE
8
BLACK
6
CONTINUOUS
10
212.647
20
-93.5195
11
212.791
21
-93.4439
0
LINE
8
BLACK
6
CONTINUOUS
10
212.791
20
-93.4439
11
212.949
21
-93.4049
0
LINE
8
BLACK
6
CONTINUOUS
10
212.949
20
-93.4049
11
213.111
21
-93.4049
0
LINE
8
BLACK
6
CONTINUOUS
10
213.111
20
-93.4049
11
213.269
21
-93.4439
0
LINE
8
BLACK
6
CONTINUOUS
10
213.705
20
-92.75
11
212.355
21
-92.75
0
LINE
8
BLACK
6
CONTINUOUS
10
212.355
20
-92.75
11
212.355
21
-91.4
0
LINE
8
BLACK
6
CONTINUOUS
10
212.355
20
-91.4
11
213.705
21
-91.4
0
LINE
8
BLACK
6
CONTINUOUS
10
213.705
20
-91.4
11
213.705
21
-92.75
0
LINE
8
BLACK
6
CONTINUOUS
10
206.694
20
-83.8263
11
206.847
21
-83.8798
0
LINE
8
BLACK
6
CONTINUOUS
10
206.847
20
-83.8798
11
206.984
21
-83.9659
0
LINE
8
BLACK
6
CONTINUOUS
10
206.984
20
-83.9659
11
207.099
21
-84.0804
0
LINE
8
BLACK
6
CONTINUOUS
10
207.099
20
-84.0804
11
207.185
21
-84.2175
0
LINE
8
BLACK
6
CONTINUOUS
10
207.185
20
-84.2175
11
207.238
21
-84.3703
0
LINE
8
BLACK
6
CONTINUOUS
10
207.238
20
-84.3703
11
207.257
21
-84.5312
0
LINE
8
BLACK
6
CONTINUOUS
10
207.257
20
-84.5312
11
207.238
21
-84.6921
0
LINE
8
BLACK
6
CONTINUOUS
10
207.238
20
-84.6921
11
207.185
21
-84.8449
0
LINE
8
BLACK
6
CONTINUOUS
10
207.185
20
-84.8449
11
207.099
21
-84.982
0
LINE
8
BLACK
6
CONTINUOUS
10
207.099
20
-84.982
11
206.984
21
-85.0965
0
LINE
8
BLACK
6
CONTINUOUS
10
206.984
20
-85.0965
11
206.847
21
-85.1826
0
LINE
8
BLACK
6
CONTINUOUS
10
206.847
20
-85.1826
11
206.694
21
-85.2361
0
LINE
8
BLACK
6
CONTINUOUS
10
206.694
20
-85.2361
11
206.648
21
-85.2413
0
LINE
8
BLACK
6
CONTINUOUS
10
206.648
20
-85.2413
11
206.648
21
-87.4508
0
LINE
8
BLACK
6
CONTINUOUS
10
206.648
20
-87.4508
11
206.645
21
-87.471
0
LINE
8
BLACK
6
CONTINUOUS
10
206.645
20
-87.471
11
206.645
21
-87.4751
0
LINE
8
BLACK
6
CONTINUOUS
10
206.645
20
-87.4751
11
206.644
21
-87.4773
0
LINE
8
BLACK
6
CONTINUOUS
10
206.644
20
-87.4773
11
206.643
21
-87.483
0
LINE
8
BLACK
6
CONTINUOUS
10
206.643
20
-87.483
11
206.628
21
-87.5068
0
LINE
8
BLACK
6
CONTINUOUS
10
206.628
20
-87.5068
11
206.614
21
-87.5317
0
LINE
8
BLACK
6
CONTINUOUS
10
206.614
20
-87.5317
11
206.009
21
-88.1372
0
LINE
8
BLACK
6
CONTINUOUS
10
206.009
20
-88.1372
11
206.009
21
-90.8923
0
LINE
8
BLACK
6
CONTINUOUS
10
206.009
20
-90.8923
11
206.641
21
-91.5244
0
LINE
8
BLACK
6
CONTINUOUS
10
206.641
20
-91.5244
11
206.647
21
-91.5195
0
LINE
8
BLACK
6
CONTINUOUS
10
206.647
20
-91.5195
11
206.791
21
-91.4439
0
LINE
8
BLACK
6
CONTINUOUS
10
206.791
20
-91.4439
11
206.949
21
-91.4049
0
LINE
8
BLACK
6
CONTINUOUS
10
206.949
20
-91.4049
11
207.111
21
-91.4049
0
LINE
8
BLACK
6
CONTINUOUS
10
207.111
20
-91.4049
11
207.269
21
-91.4439
0
LINE
8
BLACK
6
CONTINUOUS
10
207.269
20
-91.4439
11
207.413
21
-91.5195
0
LINE
8
BLACK
6
CONTINUOUS
10
207.413
20
-91.5195
11
207.535
21
-91.6274
0
LINE
8
BLACK
6
CONTINUOUS
10
207.535
20
-91.6274
11
207.628
21
-91.7613
0
LINE
8
BLACK
6
CONTINUOUS
10
207.628
20
-91.7613
11
207.685
21
-91.9135
0
LINE
8
BLACK
6
CONTINUOUS
10
207.685
20
-91.9135
11
207.705
21
-92.075
0
LINE
8
BLACK
6
CONTINUOUS
10
207.705
20
-92.075
11
207.685
21
-92.2365
0
LINE
8
BLACK
6
CONTINUOUS
10
207.685
20
-92.2365
11
207.628
21
-92.3887
0
LINE
8
BLACK
6
CONTINUOUS
10
207.628
20
-92.3887
11
207.535
21
-92.5226
0
LINE
8
BLACK
6
CONTINUOUS
10
207.535
20
-92.5226
11
207.413
21
-92.6305
0
LINE
8
BLACK
6
CONTINUOUS
10
207.413
20
-92.6305
11
207.269
21
-92.7061
0
LINE
8
BLACK
6
CONTINUOUS
10
207.269
20
-92.7061
11
207.111
21
-92.7451
0
LINE
8
BLACK
6
CONTINUOUS
10
207.111
20
-92.7451
11
206.949
21
-92.7451
0
LINE
8
BLACK
6
CONTINUOUS
10
206.949
20
-92.7451
11
206.791
21
-92.7061
0
LINE
8
BLACK
6
CONTINUOUS
10
206.791
20
-92.7061
11
206.647
21
-92.6305
0
LINE
8
BLACK
6
CONTINUOUS
10
206.647
20
-92.6305
11
206.525
21
-92.5226
0
LINE
8
BLACK
6
CONTINUOUS
10
206.525
20
-92.5226
11
206.432
21
-92.3887
0
LINE
8
BLACK
6
CONTINUOUS
10
206.432
20
-92.3887
11
206.375
21
-92.2365
0
LINE
8
BLACK
6
CONTINUOUS
10
206.375
20
-92.2365
11
206.355
21
-92.075
0
LINE
8
BLACK
6
CONTINUOUS
10
206.355
20
-92.075
11
206.375
21
-91.9135
0
LINE
8
BLACK
6
CONTINUOUS
10
206.375
20
-91.9135
11
206.432
21
-91.7613
0
LINE
8
BLACK
6
CONTINUOUS
10
206.432
20
-91.7613
11
206.482
21
-91.6889
0
LINE
8
BLACK
6
CONTINUOUS
10
206.482
20
-91.6889
11
205.814
21
-91.0204
0
LINE
8
BLACK
6
CONTINUOUS
10
205.814
20
-91.0204
11
205.802
21
-91.0041
0
LINE
8
BLACK
6
CONTINUOUS
10
205.802
20
-91.0041
11
205.798
21
-91.0014
0
LINE
8
BLACK
6
CONTINUOUS
10
205.798
20
-91.0014
11
205.798
21
-90.999
0
LINE
8
BLACK
6
CONTINUOUS
10
205.798
20
-90.999
11
205.794
21
-90.9944
0
LINE
8
BLACK
6
CONTINUOUS
10
205.794
20
-90.9944
11
205.788
21
-90.9667
0
LINE
8
BLACK
6
CONTINUOUS
10
205.788
20
-90.9667
11
205.78
21
-90.9396
0
LINE
8
BLACK
6
CONTINUOUS
10
205.78
20
-90.9396
11
205.78
21
-88.0609
0
LINE
8
BLACK
6
CONTINUOUS
10
205.78
20
-88.0609
11
205.785
21
-88.0287
0
LINE
8
BLACK
6
CONTINUOUS
10
205.785
20
-88.0287
11
205.789
21
-88.0217
0
LINE
8
BLACK
6
CONTINUOUS
10
205.789
20
-88.0217
11
205.791
21
-88.0134
0
LINE
8
BLACK
6
CONTINUOUS
10
205.791
20
-88.0134
11
205.807
21
-87.995
0
LINE
8
BLACK
6
CONTINUOUS
10
205.807
20
-87.995
11
205.82
21
-87.9745
0
LINE
8
BLACK
6
CONTINUOUS
10
205.82
20
-87.9745
11
205.827
21
-87.971
0
LINE
8
BLACK
6
CONTINUOUS
10
205.827
20
-87.971
11
205.833
21
-87.9647
0
LINE
8
BLACK
6
CONTINUOUS
10
205.833
20
-87.9647
11
205.856
21
-87.9579
0
LINE
8
BLACK
6
CONTINUOUS
10
205.856
20
-87.9579
11
205.872
21
-87.9505
0
LINE
8
BLACK
6
CONTINUOUS
10
205.872
20
-87.9505
11
206.419
21
-87.4035
0
LINE
8
BLACK
6
CONTINUOUS
10
206.419
20
-87.4035
11
206.419
21
-85.2413
0
LINE
8
BLACK
6
CONTINUOUS
10
206.419
20
-85.2413
11
206.373
21
-85.2361
0
LINE
8
BLACK
6
CONTINUOUS
10
206.373
20
-85.2361
11
206.22
21
-85.1826
0
LINE
8
BLACK
6
CONTINUOUS
10
206.22
20
-85.1826
11
206.083
21
-85.0965
0
LINE
8
BLACK
6
CONTINUOUS
10
206.083
20
-85.0965
11
205.968
21
-84.982
0
LINE
8
BLACK
6
CONTINUOUS
10
205.968
20
-84.982
11
205.882
21
-84.8449
0
LINE
8
BLACK
6
CONTINUOUS
10
205.882
20
-84.8449
11
205.829
21
-84.6921
0
LINE
8
BLACK
6
CONTINUOUS
10
205.829
20
-84.6921
11
205.811
21
-84.5312
0
LINE
8
BLACK
6
CONTINUOUS
10
205.811
20
-84.5312
11
205.829
21
-84.3703
0
LINE
8
BLACK
6
CONTINUOUS
10
205.829
20
-84.3703
11
205.882
21
-84.2175
0
LINE
8
BLACK
6
CONTINUOUS
10
205.882
20
-84.2175
11
205.968
21
-84.0804
0
LINE
8
BLACK
6
CONTINUOUS
10
205.968
20
-84.0804
11
206.083
21
-83.9659
0
LINE
8
BLACK
6
CONTINUOUS
10
206.083
20
-83.9659
11
206.22
21
-83.8798
0
LINE
8
BLACK
6
CONTINUOUS
10
206.22
20
-83.8798
11
206.373
21
-83.8263
0
LINE
8
BLACK
6
CONTINUOUS
10
206.373
20
-83.8263
11
206.534
21
-83.8082
0
LINE
8
BLACK
6
CONTINUOUS
10
206.534
20
-83.8082
11
206.694
21
-83.8263
0
LINE
8
BLACK
6
CONTINUOUS
10
209.734
20
-86.3663
11
209.887
21
-86.4198
0
LINE
8
BLACK
6
CONTINUOUS
10
209.887
20
-86.4198
11
210.024
21
-86.5059
0
LINE
8
BLACK
6
CONTINUOUS
10
210.024
20
-86.5059
11
210.139
21
-86.6204
0
LINE
8
BLACK
6
CONTINUOUS
10
210.139
20
-86.6204
11
210.225
21
-86.7575
0
LINE
8
BLACK
6
CONTINUOUS
10
210.225
20
-86.7575
11
210.278
21
-86.9103
0
LINE
8
BLACK
6
CONTINUOUS
10
210.278
20
-86.9103
11
210.297
21
-87.0712
0
LINE
8
BLACK
6
CONTINUOUS
10
210.297
20
-87.0712
11
210.278
21
-87.2321
0
LINE
8
BLACK
6
CONTINUOUS
10
210.278
20
-87.2321
11
210.225
21
-87.3849
0
LINE
8
BLACK
6
CONTINUOUS
10
210.225
20
-87.3849
11
210.157
21
-87.493
0
LINE
8
BLACK
6
CONTINUOUS
10
210.157
20
-87.493
11
210.263
21
-87.5991
0
LINE
8
BLACK
6
CONTINUOUS
10
210.263
20
-87.5991
11
210.275
21
-87.6154
0
LINE
8
BLACK
6
CONTINUOUS
10
210.275
20
-87.6154
11
210.278
21
-87.6181
0
LINE
8
BLACK
6
CONTINUOUS
10
210.278
20
-87.6181
11
210.279
21
-87.6205
0
LINE
8
BLACK
6
CONTINUOUS
10
210.279
20
-87.6205
11
210.283
21
-87.6251
0
LINE
8
BLACK
6
CONTINUOUS
10
210.283
20
-87.6251
11
210.289
21
-87.6528
0
LINE
8
BLACK
6
CONTINUOUS
10
210.289
20
-87.6528
11
210.297
21
-87.6799
0
LINE
8
BLACK
6
CONTINUOUS
10
210.297
20
-87.6799
11
210.297
21
-88.08
0
LINE
8
BLACK
6
CONTINUOUS
10
210.297
20
-88.08
11
210.297
21
-88.08
0
LINE
8
BLACK
6
CONTINUOUS
10
210.297
20
-88.08
11
210.282
21
-88.1872
0
LINE
8
BLACK
6
CONTINUOUS
10
210.282
20
-88.1872
11
210.241
21
-88.2871
0
LINE
8
BLACK
6
CONTINUOUS
10
210.241
20
-88.2871
11
210.175
21
-88.373
0
LINE
8
BLACK
6
CONTINUOUS
10
210.175
20
-88.373
11
210.089
21
-88.4388
0
LINE
8
BLACK
6
CONTINUOUS
10
210.089
20
-88.4388
11
209.99
21
-88.4802
0
LINE
8
BLACK
6
CONTINUOUS
10
209.99
20
-88.4802
11
209.882
21
-88.4943
0
LINE
8
BLACK
6
CONTINUOUS
10
209.882
20
-88.4943
11
208.914
21
-88.4943
0
LINE
8
BLACK
6
CONTINUOUS
10
208.914
20
-88.4943
11
208.914
21
-88.4943
0
LINE
8
BLACK
6
CONTINUOUS
10
208.914
20
-88.4943
11
208.914
21
-88.4943
0
LINE
8
BLACK
6
CONTINUOUS
10
208.914
20
-88.4943
11
208.877
21
-88.4943
0
LINE
8
BLACK
6
CONTINUOUS
10
208.877
20
-88.4943
11
208.809
21
-88.5225
0
LINE
8
BLACK
6
CONTINUOUS
10
208.809
20
-88.5225
11
208.757
21
-88.5748
0
LINE
8
BLACK
6
CONTINUOUS
10
208.757
20
-88.5748
11
208.728
21
-88.6431
0
LINE
8
BLACK
6
CONTINUOUS
10
208.728
20
-88.6431
11
208.728
21
-88.68
0
LINE
8
BLACK
6
CONTINUOUS
10
208.728
20
-88.68
11
208.728
21
-88.68
0
LINE
8
BLACK
6
CONTINUOUS
10
208.728
20
-88.68
11
208.728
21
-88.7169
0
LINE
8
BLACK
6
CONTINUOUS
10
208.728
20
-88.7169
11
208.757
21
-88.7852
0
LINE
8
BLACK
6
CONTINUOUS
10
208.757
20
-88.7852
11
208.809
21
-88.8374
0
LINE
8
BLACK
6
CONTINUOUS
10
208.809
20
-88.8374
11
208.877
21
-88.8657
0
LINE
8
BLACK
6
CONTINUOUS
10
208.877
20
-88.8657
11
208.914
21
-88.8657
0
LINE
8
BLACK
6
CONTINUOUS
10
208.914
20
-88.8657
11
209.882
21
-88.8657
0
LINE
8
BLACK
6
CONTINUOUS
10
209.882
20
-88.8657
11
209.99
21
-88.8798
0
LINE
8
BLACK
6
CONTINUOUS
10
209.99
20
-88.8798
11
210.089
21
-88.9212
0
LINE
8
BLACK
6
CONTINUOUS
10
210.089
20
-88.9212
11
210.175
21
-88.987
0
LINE
8
BLACK
6
CONTINUOUS
10
210.175
20
-88.987
11
210.241
21
-89.0729
0
LINE
8
BLACK
6
CONTINUOUS
10
210.241
20
-89.0729
11
210.282
21
-89.1728
0
LINE
8
BLACK
6
CONTINUOUS
10
210.282
20
-89.1728
11
210.297
21
-89.28
0
LINE
8
BLACK
6
CONTINUOUS
10
210.297
20
-89.28
11
210.282
21
-89.3872
0
LINE
8
BLACK
6
CONTINUOUS
10
210.282
20
-89.3872
11
210.241
21
-89.4871
0
LINE
8
BLACK
6
CONTINUOUS
10
210.241
20
-89.4871
11
210.175
21
-89.573
0
LINE
8
BLACK
6
CONTINUOUS
10
210.175
20
-89.573
11
210.089
21
-89.6388
0
LINE
8
BLACK
6
CONTINUOUS
10
210.089
20
-89.6388
11
209.99
21
-89.6802
0
LINE
8
BLACK
6
CONTINUOUS
10
209.99
20
-89.6802
11
209.882
21
-89.6943
0
LINE
8
BLACK
6
CONTINUOUS
10
209.882
20
-89.6943
11
208.914
21
-89.6943
0
LINE
8
BLACK
6
CONTINUOUS
10
208.914
20
-89.6943
11
208.914
21
-89.6943
0
LINE
8
BLACK
6
CONTINUOUS
10
208.914
20
-89.6943
11
208.914
21
-89.6942
0
LINE
8
BLACK
6
CONTINUOUS
10
208.914
20
-89.6942
11
208.877
21
-89.6943
0
LINE
8
BLACK
6
CONTINUOUS
10
208.877
20
-89.6943
11
208.809
21
-89.7225
0
LINE
8
BLACK
6
CONTINUOUS
10
208.809
20
-89.7225
11
208.757
21
-89.7748
0
LINE
8
BLACK
6
CONTINUOUS
10
208.757
20
-89.7748
11
208.728
21
-89.8431
0
LINE
8
BLACK
6
CONTINUOUS
10
208.728
20
-89.8431
11
208.728
21
-89.88
0
LINE
8
BLACK
6
CONTINUOUS
10
208.728
20
-89.88
11
208.728
21
-89.88
0
LINE
8
BLACK
6
CONTINUOUS
10
208.728
20
-89.88
11
208.728
21
-89.9169
0
LINE
8
BLACK
6
CONTINUOUS
10
208.728
20
-89.9169
11
208.757
21
-89.9852
0
LINE
8
BLACK
6
CONTINUOUS
10
208.757
20
-89.9852
11
208.809
21
-90.0374
0
LINE
8
BLACK
6
CONTINUOUS
10
208.809
20
-90.0374
11
208.877
21
-90.0657
0
LINE
8
BLACK
6
CONTINUOUS
10
208.877
20
-90.0657
11
208.914
21
-90.0657
0
LINE
8
BLACK
6
CONTINUOUS
10
208.914
20
-90.0657
11
209.882
21
-90.0657
0
LINE
8
BLACK
6
CONTINUOUS
10
209.882
20
-90.0657
11
209.99
21
-90.0798
0
LINE
8
BLACK
6
CONTINUOUS
10
209.99
20
-90.0798
11
210.089
21
-90.1212
0
LINE
8
BLACK
6
CONTINUOUS
10
210.089
20
-90.1212
11
210.175
21
-90.187
0
LINE
8
BLACK
6
CONTINUOUS
10
210.175
20
-90.187
11
210.241
21
-90.2728
0
LINE
8
BLACK
6
CONTINUOUS
10
210.241
20
-90.2728
11
210.282
21
-90.3728
0
LINE
8
BLACK
6
CONTINUOUS
10
210.282
20
-90.3728
11
210.297
21
-90.48
0
LINE
8
BLACK
6
CONTINUOUS
10
210.297
20
-90.48
11
210.297
21
-90.9227
0
LINE
8
BLACK
6
CONTINUOUS
10
210.297
20
-90.9227
11
210.294
21
-90.9429
0
LINE
8
BLACK
6
CONTINUOUS
10
210.294
20
-90.9429
11
210.294
21
-90.947
0
LINE
8
BLACK
6
CONTINUOUS
10
210.294
20
-90.947
11
210.293
21
-90.9492
0
LINE
8
BLACK
6
CONTINUOUS
10
210.293
20
-90.9492
11
210.292
21
-90.9549
0
LINE
8
BLACK
6
CONTINUOUS
10
210.292
20
-90.9549
11
210.277
21
-90.9787
0
LINE
8
BLACK
6
CONTINUOUS
10
210.277
20
-90.9787
11
210.263
21
-91.0035
0
LINE
8
BLACK
6
CONTINUOUS
10
210.263
20
-91.0035
11
209.578
21
-91.6889
0
LINE
8
BLACK
6
CONTINUOUS
10
209.578
20
-91.6889
11
209.628
21
-91.7613
0
LINE
8
BLACK
6
CONTINUOUS
10
209.628
20
-91.7613
11
209.685
21
-91.9135
0
LINE
8
BLACK
6
CONTINUOUS
10
209.685
20
-91.9135
11
209.705
21
-92.075
0
LINE
8
BLACK
6
CONTINUOUS
10
209.705
20
-92.075
11
209.685
21
-92.2365
0
LINE
8
BLACK
6
CONTINUOUS
10
209.685
20
-92.2365
11
209.628
21
-92.3887
0
LINE
8
BLACK
6
CONTINUOUS
10
209.628
20
-92.3887
11
209.535
21
-92.5226
0
LINE
8
BLACK
6
CONTINUOUS
10
209.535
20
-92.5226
11
209.413
21
-92.6305
0
LINE
8
BLACK
6
CONTINUOUS
10
209.413
20
-92.6305
11
209.269
21
-92.7061
0
LINE
8
BLACK
6
CONTINUOUS
10
209.269
20
-92.7061
11
209.111
21
-92.7451
0
LINE
8
BLACK
6
CONTINUOUS
10
209.111
20
-92.7451
11
208.949
21
-92.7451
0
LINE
8
BLACK
6
CONTINUOUS
10
208.949
20
-92.7451
11
208.791
21
-92.7061
0
LINE
8
BLACK
6
CONTINUOUS
10
208.791
20
-92.7061
11
208.647
21
-92.6305
0
LINE
8
BLACK
6
CONTINUOUS
10
208.647
20
-92.6305
11
208.525
21
-92.5226
0
LINE
8
BLACK
6
CONTINUOUS
10
208.525
20
-92.5226
11
208.432
21
-92.3887
0
LINE
8
BLACK
6
CONTINUOUS
10
208.432
20
-92.3887
11
208.375
21
-92.2365
0
LINE
8
BLACK
6
CONTINUOUS
10
208.375
20
-92.2365
11
208.355
21
-92.075
0
LINE
8
BLACK
6
CONTINUOUS
10
208.355
20
-92.075
11
208.375
21
-91.9135
0
LINE
8
BLACK
6
CONTINUOUS
10
208.375
20
-91.9135
11
208.432
21
-91.7613
0
LINE
8
BLACK
6
CONTINUOUS
10
208.432
20
-91.7613
11
208.525
21
-91.6274
0
LINE
8
BLACK
6
CONTINUOUS
10
208.525
20
-91.6274
11
208.647
21
-91.5195
0
LINE
8
BLACK
6
CONTINUOUS
10
208.647
20
-91.5195
11
208.791
21
-91.4439
0
LINE
8
BLACK
6
CONTINUOUS
10
208.791
20
-91.4439
11
208.949
21
-91.4049
0
LINE
8
BLACK
6
CONTINUOUS
10
208.949
20
-91.4049
11
209.111
21
-91.4049
0
LINE
8
BLACK
6
CONTINUOUS
10
209.111
20
-91.4049
11
209.269
21
-91.4439
0
LINE
8
BLACK
6
CONTINUOUS
10
209.269
20
-91.4439
11
209.413
21
-91.5195
0
LINE
8
BLACK
6
CONTINUOUS
10
209.413
20
-91.5195
11
209.419
21
-91.5244
0
LINE
8
BLACK
6
CONTINUOUS
10
209.419
20
-91.5244
11
210.068
21
-90.8754
0
LINE
8
BLACK
6
CONTINUOUS
10
210.068
20
-90.8754
11
210.068
21
-90.48
0
LINE
8
BLACK
6
CONTINUOUS
10
210.068
20
-90.48
11
210.068
21
-90.4431
0
LINE
8
BLACK
6
CONTINUOUS
10
210.068
20
-90.4431
11
210.04
21
-90.3748
0
LINE
8
BLACK
6
CONTINUOUS
10
210.04
20
-90.3748
11
209.987
21
-90.3226
0
LINE
8
BLACK
6
CONTINUOUS
10
209.987
20
-90.3226
11
209.919
21
-90.2943
0
LINE
8
BLACK
6
CONTINUOUS
10
209.919
20
-90.2943
11
209.882
21
-90.2943
0
LINE
8
BLACK
6
CONTINUOUS
10
209.882
20
-90.2943
11
208.914
21
-90.2943
0
LINE
8
BLACK
6
CONTINUOUS
10
208.914
20
-90.2943
11
208.914
21
-90.2943
0
LINE
8
BLACK
6
CONTINUOUS
10
208.914
20
-90.2943
11
208.914
21
-90.2943
0
LINE
8
BLACK
6
CONTINUOUS
10
208.914
20
-90.2943
11
208.807
21
-90.2802
0
LINE
8
BLACK
6
CONTINUOUS
10
208.807
20
-90.2802
11
208.707
21
-90.2388
0
LINE
8
BLACK
6
CONTINUOUS
10
208.707
20
-90.2388
11
208.621
21
-90.1729
0
LINE
8
BLACK
6
CONTINUOUS
10
208.621
20
-90.1729
11
208.555
21
-90.0871
0
LINE
8
BLACK
6
CONTINUOUS
10
208.555
20
-90.0871
11
208.514
21
-89.9872
0
LINE
8
BLACK
6
CONTINUOUS
10
208.514
20
-89.9872
11
208.5
21
-89.8804
0
LINE
8
BLACK
6
CONTINUOUS
10
208.5
20
-89.8804
11
208.5
21
-89.88
0
LINE
8
BLACK
6
CONTINUOUS
10
208.5
20
-89.88
11
208.514
21
-89.7728
0
LINE
8
BLACK
6
CONTINUOUS
10
208.514
20
-89.7728
11
208.555
21
-89.6728
0
LINE
8
BLACK
6
CONTINUOUS
10
208.555
20
-89.6728
11
208.621
21
-89.587
0
LINE
8
BLACK
6
CONTINUOUS
10
208.621
20
-89.587
11
208.707
21
-89.5212
0
LINE
8
BLACK
6
CONTINUOUS
10
208.707
20
-89.5212
11
208.807
21
-89.4798
0
LINE
8
BLACK
6
CONTINUOUS
10
208.807
20
-89.4798
11
208.914
21
-89.4656
0
LINE
8
BLACK
6
CONTINUOUS
10
208.914
20
-89.4656
11
208.914
21
-89.4657
0
LINE
8
BLACK
6
CONTINUOUS
10
208.914
20
-89.4657
11
208.914
21
-89.4657
0
LINE
8
BLACK
6
CONTINUOUS
10
208.914
20
-89.4657
11
208.914
21
-89.4657
0
LINE
8
BLACK
6
CONTINUOUS
10
208.914
20
-89.4657
11
209.882
21
-89.4657
0
LINE
8
BLACK
6
CONTINUOUS
10
209.882
20
-89.4657
11
209.919
21
-89.4657
0
LINE
8
BLACK
6
CONTINUOUS
10
209.919
20
-89.4657
11
209.987
21
-89.4374
0
LINE
8
BLACK
6
CONTINUOUS
10
209.987
20
-89.4374
11
210.04
21
-89.3852
0
LINE
8
BLACK
6
CONTINUOUS
10
210.04
20
-89.3852
11
210.068
21
-89.3169
0
LINE
8
BLACK
6
CONTINUOUS
10
210.068
20
-89.3169
11
210.068
21
-89.28
0
LINE
8
BLACK
6
CONTINUOUS
10
210.068
20
-89.28
11
210.068
21
-89.2431
0
LINE
8
BLACK
6
CONTINUOUS
10
210.068
20
-89.2431
11
210.04
21
-89.1748
0
LINE
8
BLACK
6
CONTINUOUS
10
210.04
20
-89.1748
11
209.987
21
-89.1226
0
LINE
8
BLACK
6
CONTINUOUS
10
209.987
20
-89.1226
11
209.919
21
-89.0943
0
LINE
8
BLACK
6
CONTINUOUS
10
209.919
20
-89.0943
11
209.882
21
-89.0943
0
LINE
8
BLACK
6
CONTINUOUS
10
209.882
20
-89.0943
11
208.914
21
-89.0943
0
LINE
8
BLACK
6
CONTINUOUS
10
208.914
20
-89.0943
11
208.914
21
-89.0943
0
LINE
8
BLACK
6
CONTINUOUS
10
208.914
20
-89.0943
11
208.914
21
-89.0943
0
LINE
8
BLACK
6
CONTINUOUS
10
208.914
20
-89.0943
11
208.807
21
-89.0802
0
LINE
8
BLACK
6
CONTINUOUS
10
208.807
20
-89.0802
11
208.707
21
-89.0388
0
LINE
8
BLACK
6
CONTINUOUS
10
208.707
20
-89.0388
11
208.621
21
-88.9729
0
LINE
8
BLACK
6
CONTINUOUS
10
208.621
20
-88.9729
11
208.555
21
-88.8871
0
LINE
8
BLACK
6
CONTINUOUS
10
208.555
20
-88.8871
11
208.514
21
-88.7872
0
LINE
8
BLACK
6
CONTINUOUS
10
208.514
20
-88.7872
11
208.5
21
-88.6803
0
LINE
8
BLACK
6
CONTINUOUS
10
208.5
20
-88.6803
11
208.5
21
-88.68
0
LINE
8
BLACK
6
CONTINUOUS
10
208.5
20
-88.68
11
208.514
21
-88.5728
0
LINE
8
BLACK
6
CONTINUOUS
10
208.514
20
-88.5728
11
208.555
21
-88.4728
0
LINE
8
BLACK
6
CONTINUOUS
10
208.555
20
-88.4728
11
208.621
21
-88.387
0
LINE
8
BLACK
6
CONTINUOUS
10
208.621
20
-88.387
11
208.707
21
-88.3212
0
LINE
8
BLACK
6
CONTINUOUS
10
208.707
20
-88.3212
11
208.807
21
-88.2798
0
LINE
8
BLACK
6
CONTINUOUS
10
208.807
20
-88.2798
11
208.914
21
-88.2657
0
LINE
8
BLACK
6
CONTINUOUS
10
208.914
20
-88.2657
11
208.914
21
-88.2657
0
LINE
8
BLACK
6
CONTINUOUS
10
208.914
20
-88.2657
11
208.914
21
-88.2657
0
LINE
8
BLACK
6
CONTINUOUS
10
208.914
20
-88.2657
11
208.914
21
-88.2657
0
LINE
8
BLACK
6
CONTINUOUS
10
208.914
20
-88.2657
11
209.882
21
-88.2657
0
LINE
8
BLACK
6
CONTINUOUS
10
209.882
20
-88.2657
11
209.919
21
-88.2657
0
LINE
8
BLACK
6
CONTINUOUS
10
209.919
20
-88.2657
11
209.987
21
-88.2374
0
LINE
8
BLACK
6
CONTINUOUS
10
209.987
20
-88.2374
11
210.04
21
-88.1852
0
LINE
8
BLACK
6
CONTINUOUS
10
210.04
20
-88.1852
11
210.068
21
-88.1169
0
LINE
8
BLACK
6
CONTINUOUS
10
210.068
20
-88.1169
11
210.068
21
-88.08
0
LINE
8
BLACK
6
CONTINUOUS
10
210.068
20
-88.08
11
210.068
21
-88.08
0
LINE
8
BLACK
6
CONTINUOUS
10
210.068
20
-88.08
11
210.068
21
-87.7272
0
LINE
8
BLACK
6
CONTINUOUS
10
210.068
20
-87.7272
11
209.995
21
-87.6547
0
LINE
8
BLACK
6
CONTINUOUS
10
209.995
20
-87.6547
11
209.887
21
-87.7226
0
LINE
8
BLACK
6
CONTINUOUS
10
209.887
20
-87.7226
11
209.734
21
-87.7761
0
LINE
8
BLACK
6
CONTINUOUS
10
209.734
20
-87.7761
11
209.574
21
-87.7942
0
LINE
8
BLACK
6
CONTINUOUS
10
209.574
20
-87.7942
11
209.413
21
-87.7761
0
LINE
8
BLACK
6
CONTINUOUS
10
209.413
20
-87.7761
11
209.26
21
-87.7226
0
LINE
8
BLACK
6
CONTINUOUS
10
209.26
20
-87.7226
11
209.123
21
-87.6365
0
LINE
8
BLACK
6
CONTINUOUS
10
209.123
20
-87.6365
11
209.008
21
-87.522
0
LINE
8
BLACK
6
CONTINUOUS
10
209.008
20
-87.522
11
208.922
21
-87.3849
0
LINE
8
BLACK
6
CONTINUOUS
10
208.922
20
-87.3849
11
208.869
21
-87.2321
0
LINE
8
BLACK
6
CONTINUOUS
10
208.869
20
-87.2321
11
208.851
21
-87.0712
0
LINE
8
BLACK
6
CONTINUOUS
10
208.851
20
-87.0712
11
208.869
21
-86.9103
0
LINE
8
BLACK
6
CONTINUOUS
10
208.869
20
-86.9103
11
208.922
21
-86.7575
0
LINE
8
BLACK
6
CONTINUOUS
10
208.922
20
-86.7575
11
209.008
21
-86.6204
0
LINE
8
BLACK
6
CONTINUOUS
10
209.008
20
-86.6204
11
209.123
21
-86.5059
0
LINE
8
BLACK
6
CONTINUOUS
10
209.123
20
-86.5059
11
209.26
21
-86.4198
0
LINE
8
BLACK
6
CONTINUOUS
10
209.26
20
-86.4198
11
209.413
21
-86.3663
0
LINE
8
BLACK
6
CONTINUOUS
10
209.413
20
-86.3663
11
209.574
21
-86.3482
0
LINE
8
BLACK
6
CONTINUOUS
10
209.574
20
-86.3482
11
209.734
21
-86.3663
0
LINE
8
BLACK
6
CONTINUOUS
10
211.269
20
-91.4439
11
211.413
21
-91.5195
0
LINE
8
BLACK
6
CONTINUOUS
10
211.413
20
-91.5195
11
211.535
21
-91.6274
0
LINE
8
BLACK
6
CONTINUOUS
10
211.535
20
-91.6274
11
211.628
21
-91.7613
0
LINE
8
BLACK
6
CONTINUOUS
10
211.628
20
-91.7613
11
211.685
21
-91.9135
0
LINE
8
BLACK
6
CONTINUOUS
10
211.685
20
-91.9135
11
211.705
21
-92.075
0
LINE
8
BLACK
6
CONTINUOUS
10
211.705
20
-92.075
11
211.685
21
-92.2365
0
LINE
8
BLACK
6
CONTINUOUS
10
211.685
20
-92.2365
11
211.628
21
-92.3887
0
LINE
8
BLACK
6
CONTINUOUS
10
211.628
20
-92.3887
11
211.535
21
-92.5226
0
LINE
8
BLACK
6
CONTINUOUS
10
211.535
20
-92.5226
11
211.413
21
-92.6305
0
LINE
8
BLACK
6
CONTINUOUS
10
211.413
20
-92.6305
11
211.269
21
-92.7061
0
LINE
8
BLACK
6
CONTINUOUS
10
211.269
20
-92.7061
11
211.111
21
-92.7451
0
LINE
8
BLACK
6
CONTINUOUS
10
211.111
20
-92.7451
11
210.949
21
-92.7451
0
LINE
8
BLACK
6
CONTINUOUS
10
210.949
20
-92.7451
11
210.791
21
-92.7061
0
LINE
8
BLACK
6
CONTINUOUS
10
210.791
20
-92.7061
11
210.647
21
-92.6305
0
LINE
8
BLACK
6
CONTINUOUS
10
210.647
20
-92.6305
11
210.525
21
-92.5226
0
LINE
8
BLACK
6
CONTINUOUS
10
210.525
20
-92.5226
11
210.432
21
-92.3887
0
LINE
8
BLACK
6
CONTINUOUS
10
210.432
20
-92.3887
11
210.375
21
-92.2365
0
LINE
8
BLACK
6
CONTINUOUS
10
210.375
20
-92.2365
11
210.355
21
-92.075
0
LINE
8
BLACK
6
CONTINUOUS
10
210.355
20
-92.075
11
210.375
21
-91.9135
0
LINE
8
BLACK
6
CONTINUOUS
10
210.375
20
-91.9135
11
210.432
21
-91.7613
0
LINE
8
BLACK
6
CONTINUOUS
10
210.432
20
-91.7613
11
210.525
21
-91.6274
0
LINE
8
BLACK
6
CONTINUOUS
10
210.525
20
-91.6274
11
210.647
21
-91.5195
0
LINE
8
BLACK
6
CONTINUOUS
10
210.647
20
-91.5195
11
210.791
21
-91.4439
0
LINE
8
BLACK
6
CONTINUOUS
10
210.791
20
-91.4439
11
210.949
21
-91.4049
0
LINE
8
BLACK
6
CONTINUOUS
10
210.949
20
-91.4049
11
211.111
21
-91.4049
0
LINE
8
BLACK
6
CONTINUOUS
10
211.111
20
-91.4049
11
211.269
21
-91.4439
0
LINE
8
BLACK
6
CONTINUOUS
10
207.704
20
-86.3663
11
207.857
21
-86.4198
0
LINE
8
BLACK
6
CONTINUOUS
10
207.857
20
-86.4198
11
207.994
21
-86.5059
0
LINE
8
BLACK
6
CONTINUOUS
10
207.994
20
-86.5059
11
208.109
21
-86.6204
0
LINE
8
BLACK
6
CONTINUOUS
10
208.109
20
-86.6204
11
208.195
21
-86.7575
0
LINE
8
BLACK
6
CONTINUOUS
10
208.195
20
-86.7575
11
208.248
21
-86.9103
0
LINE
8
BLACK
6
CONTINUOUS
10
208.248
20
-86.9103
11
208.267
21
-87.0712
0
LINE
8
BLACK
6
CONTINUOUS
10
208.267
20
-87.0712
11
208.248
21
-87.2321
0
LINE
8
BLACK
6
CONTINUOUS
10
208.248
20
-87.2321
11
208.195
21
-87.3849
0
LINE
8
BLACK
6
CONTINUOUS
10
208.195
20
-87.3849
11
208.109
21
-87.522
0
LINE
8
BLACK
6
CONTINUOUS
10
208.109
20
-87.522
11
207.994
21
-87.6365
0
LINE
8
BLACK
6
CONTINUOUS
10
207.994
20
-87.6365
11
207.857
21
-87.7226
0
LINE
8
BLACK
6
CONTINUOUS
10
207.857
20
-87.7226
11
207.704
21
-87.7761
0
LINE
8
BLACK
6
CONTINUOUS
10
207.704
20
-87.7761
11
207.544
21
-87.7942
0
LINE
8
BLACK
6
CONTINUOUS
10
207.544
20
-87.7942
11
207.383
21
-87.7761
0
LINE
8
BLACK
6
CONTINUOUS
10
207.383
20
-87.7761
11
207.23
21
-87.7226
0
LINE
8
BLACK
6
CONTINUOUS
10
207.23
20
-87.7226
11
207.093
21
-87.6365
0
LINE
8
BLACK
6
CONTINUOUS
10
207.093
20
-87.6365
11
206.978
21
-87.522
0
LINE
8
BLACK
6
CONTINUOUS
10
206.978
20
-87.522
11
206.892
21
-87.3849
0
LINE
8
BLACK
6
CONTINUOUS
10
206.892
20
-87.3849
11
206.839
21
-87.2321
0
LINE
8
BLACK
6
CONTINUOUS
10
206.839
20
-87.2321
11
206.821
21
-87.0712
0
LINE
8
BLACK
6
CONTINUOUS
10
206.821
20
-87.0712
11
206.839
21
-86.9103
0
LINE
8
BLACK
6
CONTINUOUS
10
206.839
20
-86.9103
11
206.892
21
-86.7575
0
LINE
8
BLACK
6
CONTINUOUS
10
206.892
20
-86.7575
11
206.978
21
-86.6204
0
LINE
8
BLACK
6
CONTINUOUS
10
206.978
20
-86.6204
11
207.093
21
-86.5059
0
LINE
8
BLACK
6
CONTINUOUS
10
207.093
20
-86.5059
11
207.23
21
-86.4198
0
LINE
8
BLACK
6
CONTINUOUS
10
207.23
20
-86.4198
11
207.383
21
-86.3663
0
LINE
8
BLACK
6
CONTINUOUS
10
207.383
20
-86.3663
11
207.544
21
-86.3482
0
LINE
8
BLACK
6
CONTINUOUS
10
207.544
20
-86.3482
11
207.704
21
-86.3663
0
LINE
8
BLACK
6
CONTINUOUS
10
211.764
20
-86.3663
11
211.917
21
-86.4198
0
LINE
8
BLACK
6
CONTINUOUS
10
211.917
20
-86.4198
11
212.054
21
-86.5059
0
LINE
8
BLACK
6
CONTINUOUS
10
212.054
20
-86.5059
11
212.169
21
-86.6204
0
LINE
8
BLACK
6
CONTINUOUS
10
212.169
20
-86.6204
11
212.255
21
-86.7575
0
LINE
8
BLACK
6
CONTINUOUS
10
212.255
20
-86.7575
11
212.308
21
-86.9103
0
LINE
8
BLACK
6
CONTINUOUS
10
212.308
20
-86.9103
11
212.327
21
-87.0712
0
LINE
8
BLACK
6
CONTINUOUS
10
212.327
20
-87.0712
11
212.308
21
-87.2321
0
LINE
8
BLACK
6
CONTINUOUS
10
212.308
20
-87.2321
11
212.255
21
-87.3849
0
LINE
8
BLACK
6
CONTINUOUS
10
212.255
20
-87.3849
11
212.169
21
-87.522
0
LINE
8
BLACK
6
CONTINUOUS
10
212.169
20
-87.522
11
212.054
21
-87.6365
0
LINE
8
BLACK
6
CONTINUOUS
10
212.054
20
-87.6365
11
211.917
21
-87.7226
0
LINE
8
BLACK
6
CONTINUOUS
10
211.917
20
-87.7226
11
211.764
21
-87.7761
0
LINE
8
BLACK
6
CONTINUOUS
10
211.764
20
-87.7761
11
211.604
21
-87.7942
0
LINE
8
BLACK
6
CONTINUOUS
10
211.604
20
-87.7942
11
211.443
21
-87.7761
0
LINE
8
BLACK
6
CONTINUOUS
10
211.443
20
-87.7761
11
211.29
21
-87.7226
0
LINE
8
BLACK
6
CONTINUOUS
10
211.29
20
-87.7226
11
211.153
21
-87.6365
0
LINE
8
BLACK
6
CONTINUOUS
10
211.153
20
-87.6365
11
211.038
21
-87.522
0
LINE
8
BLACK
6
CONTINUOUS
10
211.038
20
-87.522
11
210.952
21
-87.3849
0
LINE
8
BLACK
6
CONTINUOUS
10
210.952
20
-87.3849
11
210.899
21
-87.2321
0
LINE
8
BLACK
6
CONTINUOUS
10
210.899
20
-87.2321
11
210.881
21
-87.0712
0
LINE
8
BLACK
6
CONTINUOUS
10
210.881
20
-87.0712
11
210.899
21
-86.9103
0
LINE
8
BLACK
6
CONTINUOUS
10
210.899
20
-86.9103
11
210.952
21
-86.7575
0
LINE
8
BLACK
6
CONTINUOUS
10
210.952
20
-86.7575
11
211.038
21
-86.6204
0
LINE
8
BLACK
6
CONTINUOUS
10
211.038
20
-86.6204
11
211.153
21
-86.5059
0
LINE
8
BLACK
6
CONTINUOUS
10
211.153
20
-86.5059
11
211.29
21
-86.4198
0
LINE
8
BLACK
6
CONTINUOUS
10
211.29
20
-86.4198
11
211.443
21
-86.3663
0
LINE
8
BLACK
6
CONTINUOUS
10
211.443
20
-86.3663
11
211.604
21
-86.3482
0
LINE
8
BLACK
6
CONTINUOUS
10
211.604
20
-86.3482
11
211.764
21
-86.3663
0
LINE
8
BLACK
6
CONTINUOUS
10
210.754
20
-83.8263
11
210.907
21
-83.8798
0
LINE
8
BLACK
6
CONTINUOUS
10
210.907
20
-83.8798
11
211.044
21
-83.9659
0
LINE
8
BLACK
6
CONTINUOUS
10
211.044
20
-83.9659
11
211.159
21
-84.0804
0
LINE
8
BLACK
6
CONTINUOUS
10
211.159
20
-84.0804
11
211.245
21
-84.2175
0
LINE
8
BLACK
6
CONTINUOUS
10
211.245
20
-84.2175
11
211.298
21
-84.3703
0
LINE
8
BLACK
6
CONTINUOUS
10
211.298
20
-84.3703
11
211.317
21
-84.5312
0
LINE
8
BLACK
6
CONTINUOUS
10
211.317
20
-84.5312
11
211.298
21
-84.6921
0
LINE
8
BLACK
6
CONTINUOUS
10
211.298
20
-84.6921
11
211.245
21
-84.8449
0
LINE
8
BLACK
6
CONTINUOUS
10
211.245
20
-84.8449
11
211.159
21
-84.982
0
LINE
8
BLACK
6
CONTINUOUS
10
211.159
20
-84.982
11
211.044
21
-85.0965
0
LINE
8
BLACK
6
CONTINUOUS
10
211.044
20
-85.0965
11
210.907
21
-85.1826
0
LINE
8
BLACK
6
CONTINUOUS
10
210.907
20
-85.1826
11
210.754
21
-85.2361
0
LINE
8
BLACK
6
CONTINUOUS
10
210.754
20
-85.2361
11
210.594
21
-85.2542
0
LINE
8
BLACK
6
CONTINUOUS
10
210.594
20
-85.2542
11
210.433
21
-85.2361
0
LINE
8
BLACK
6
CONTINUOUS
10
210.433
20
-85.2361
11
210.28
21
-85.1826
0
LINE
8
BLACK
6
CONTINUOUS
10
210.28
20
-85.1826
11
210.143
21
-85.0965
0
LINE
8
BLACK
6
CONTINUOUS
10
210.143
20
-85.0965
11
210.028
21
-84.982
0
LINE
8
BLACK
6
CONTINUOUS
10
210.028
20
-84.982
11
209.942
21
-84.8449
0
LINE
8
BLACK
6
CONTINUOUS
10
209.942
20
-84.8449
11
209.889
21
-84.6921
0
LINE
8
BLACK
6
CONTINUOUS
10
209.889
20
-84.6921
11
209.871
21
-84.5312
0
LINE
8
BLACK
6
CONTINUOUS
10
209.871
20
-84.5312
11
209.889
21
-84.3703
0
LINE
8
BLACK
6
CONTINUOUS
10
209.889
20
-84.3703
11
209.942
21
-84.2175
0
LINE
8
BLACK
6
CONTINUOUS
10
209.942
20
-84.2175
11
210.028
21
-84.0804
0
LINE
8
BLACK
6
CONTINUOUS
10
210.028
20
-84.0804
11
210.143
21
-83.9659
0
LINE
8
BLACK
6
CONTINUOUS
10
210.143
20
-83.9659
11
210.28
21
-83.8798
0
LINE
8
BLACK
6
CONTINUOUS
10
210.28
20
-83.8798
11
210.433
21
-83.8263
0
LINE
8
BLACK
6
CONTINUOUS
10
210.433
20
-83.8263
11
210.594
21
-83.8082
0
LINE
8
BLACK
6
CONTINUOUS
10
210.594
20
-83.8082
11
210.754
21
-83.8263
0
LINE
8
BLACK
6
CONTINUOUS
10
213.347
20
-85.2542
11
211.901
21
-85.2542
0
LINE
8
BLACK
6
CONTINUOUS
10
211.901
20
-85.2542
11
211.901
21
-83.8082
0
LINE
8
BLACK
6
CONTINUOUS
10
211.901
20
-83.8082
11
213.347
21
-83.8082
0
LINE
8
BLACK
6
CONTINUOUS
10
213.347
20
-83.8082
11
213.347
21
-85.2542
0
CIRCLE
8
BLACK
10
202.724
20
-87.9612
40
1.625
0
CIRCLE
8
BLACK
10
215.424
20
-87.9612
40
1.625
0
CIRCLE
8
BLACK
10
212.624
20
-84.5312
40
0.445
0
CIRCLE
8
BLACK
10
211.604
20
-87.0712
40
0.445
0
CIRCLE
8
BLACK
10
210.594
20
-84.5312
40
0.445
0
CIRCLE
8
BLACK
10
209.574
20
-87.0712
40
0.445
0
CIRCLE
8
BLACK
10
208.564
20
-84.5312
40
0.445
0
CIRCLE
8
BLACK
10
207.544
20
-87.0712
40
0.445
0
CIRCLE
8
BLACK
10
206.534
20
-84.5312
40
0.445
0
CIRCLE
8
BLACK
10
205.514
20
-87.0712
40
0.445
0
CIRCLE
8
BLACK
10
200.814
20
-83.7212
40
0.785
0
CIRCLE
8
BLACK
10
217.074
20
-83.7212
40
0.785
0
CIRCLE
8
BLACK
10
221.172
20
-80.01
40
0.25
0
CIRCLE
8
BLACK
10
221.765
20
-78.5781
40
0.25
0
CIRCLE
8
BLACK
10
221.765
20
-81.4419
40
0.25
0
CIRCLE
8
BLACK
10
223.197
20
-77.985
40
0.25
0
CIRCLE
8
BLACK
10
223.197
20
-80.01
40
1.35
0
CIRCLE
8
BLACK
10
223.197
20
-82.035
40
0.25
0
CIRCLE
8
BLACK
10
224.629
20
-78.5781
40
0.25
0
CIRCLE
8
BLACK
10
224.629
20
-81.4419
40
0.25
0
CIRCLE
8
BLACK
10
225.222
20
-80.01
40
0.25
0
CIRCLE
8
BLACK
10
192.717
20
-91.9131
40
0.25
0
CIRCLE
8
BLACK
10
193.31
20
-90.4812
40
0.25
0
CIRCLE
8
BLACK
10
193.31
20
-93.345
40
0.25
0
CIRCLE
8
BLACK
10
194.742
20
-89.8881
40
0.25
0
CIRCLE
8
BLACK
10
194.742
20
-91.9131
40
1.35
0
CIRCLE
8
BLACK
10
194.742
20
-93.9381
40
0.25
0
CIRCLE
8
BLACK
10
196.174
20
-90.4812
40
0.25
0
CIRCLE
8
BLACK
10
196.174
20
-93.345
40
0.25
0
CIRCLE
8
BLACK
10
196.767
20
-91.9131
40
0.25
0
CIRCLE
8
BLACK
10
192.717
20
-79.8481
40
0.25
0
CIRCLE
8
BLACK
10
193.31
20
-78.4162
40
0.25
0
CIRCLE
8
BLACK
10
193.31
20
-81.28
40
0.25
0
CIRCLE
8
BLACK
10
194.742
20
-77.8231
40
0.25
0
CIRCLE
8
BLACK
10
194.742
20
-79.8481
40
1.35
0
CIRCLE
8
BLACK
10
194.742
20
-81.8731
40
0.25
0
CIRCLE
8
BLACK
10
196.174
20
-78.4162
40
0.25
0
CIRCLE
8
BLACK
10
196.174
20
-81.28
40
0.25
0
CIRCLE
8
BLACK
10
196.767
20
-79.8481
40
0.25
0
CIRCLE
8
BLACK
10
221.172
20
-91.9131
40
0.25
0
CIRCLE
8
BLACK
10
221.765
20
-90.4812
40
0.25
0
CIRCLE
8
BLACK
10
221.765
20
-93.345
40
0.25
0
CIRCLE
8
BLACK
10
223.197
20
-89.8881
40
0.25
0
CIRCLE
8
BLACK
10
223.197
20
-91.9131
40
1.35
0
CIRCLE
8
BLACK
10
223.197
20
-93.9381
40
0.25
0
CIRCLE
8
BLACK
10
224.629
20
-90.4812
40
0.25
0
CIRCLE
8
BLACK
10
224.629
20
-93.345
40
0.25
0
CIRCLE
8
BLACK
10
225.222
20
-91.9131
40
0.25
0
CIRCLE
8
BLACK
10
213.03
20
-92.075
40
0.4
0
CIRCLE
8
BLACK
10
213.03
20
-94.075
40
0.4
0
CIRCLE
8
BLACK
10
211.03
20
-92.075
40
0.4
0
CIRCLE
8
BLACK
10
211.03
20
-94.075
40
0.4
0
CIRCLE
8
BLACK
10
209.03
20
-92.075
40
0.4
0
CIRCLE
8
BLACK
10
209.03
20
-94.075
40
0.4
0
CIRCLE
8
BLACK
10
207.03
20
-92.075
40
0.4
0
CIRCLE
8
BLACK
10
207.03
20
-94.075
40
0.4
0
CIRCLE
8
BLACK
10
205.03
20
-92.075
40
0.4
0
CIRCLE
8
BLACK
10
205.03
20
-94.075
40
0.4
0
LINE
8
BLACK
6
CONTINUOUS
10
224.968
20
-76.556
11
225.188
21
-76.5718
0
LINE
8
BLACK
6
CONTINUOUS
10
225.188
20
-76.5718
11
225.404
21
-76.6187
0
LINE
8
BLACK
6
CONTINUOUS
10
225.404
20
-76.6187
11
225.611
21
-76.696
0
LINE
8
BLACK
6
CONTINUOUS
10
225.611
20
-76.696
11
225.805
21
-76.8019
0
LINE
8
BLACK
6
CONTINUOUS
10
225.805
20
-76.8019
11
225.982
21
-76.9343
0
LINE
8
BLACK
6
CONTINUOUS
10
225.982
20
-76.9343
11
226.139
21
-77.0906
0
LINE
8
BLACK
6
CONTINUOUS
10
226.139
20
-77.0906
11
226.271
21
-77.2675
0
LINE
8
BLACK
6
CONTINUOUS
10
226.271
20
-77.2675
11
226.377
21
-77.4615
0
LINE
8
BLACK
6
CONTINUOUS
10
226.377
20
-77.4615
11
226.454
21
-77.6686
0
LINE
8
BLACK
6
CONTINUOUS
10
226.454
20
-77.6686
11
226.501
21
-77.8846
0
LINE
8
BLACK
6
CONTINUOUS
10
226.501
20
-77.8846
11
226.517
21
-78.105
0
LINE
8
BLACK
6
CONTINUOUS
10
226.517
20
-78.105
11
226.517
21
-94.1724
0
LINE
8
BLACK
6
CONTINUOUS
10
226.517
20
-94.1724
11
226.501
21
-94.3928
0
LINE
8
BLACK
6
CONTINUOUS
10
226.501
20
-94.3928
11
226.454
21
-94.6088
0
LINE
8
BLACK
6
CONTINUOUS
10
226.454
20
-94.6088
11
226.377
21
-94.8158
0
LINE
8
BLACK
6
CONTINUOUS
10
226.377
20
-94.8158
11
226.271
21
-95.0098
0
LINE
8
BLACK
6
CONTINUOUS
10
226.271
20
-95.0098
11
226.139
21
-95.1867
0
LINE
8
BLACK
6
CONTINUOUS
10
226.139
20
-95.1867
11
225.982
21
-95.343
0
LINE
8
BLACK
6
CONTINUOUS
10
225.982
20
-95.343
11
225.805
21
-95.4754
0
LINE
8
BLACK
6
CONTINUOUS
10
225.805
20
-95.4754
11
225.611
21
-95.5814
0
LINE
8
BLACK
6
CONTINUOUS
10
225.611
20
-95.5814
11
225.404
21
-95.6586
0
LINE
8
BLACK
6
CONTINUOUS
10
225.404
20
-95.6586
11
225.188
21
-95.7055
0
LINE
8
BLACK
6
CONTINUOUS
10
225.188
20
-95.7055
11
224.968
21
-95.7213
0
LINE
8
BLACK
6
CONTINUOUS
10
224.968
20
-95.7213
11
224.968
21
-95.7214
0
LINE
8
BLACK
6
CONTINUOUS
10
224.968
20
-95.7214
11
224.968
21
-95.7214
0
LINE
8
BLACK
6
CONTINUOUS
10
224.968
20
-95.7214
11
192.456
21
-95.7214
0
LINE
8
BLACK
6
CONTINUOUS
10
192.456
20
-95.7214
11
192.236
21
-95.7056
0
LINE
8
BLACK
6
CONTINUOUS
10
192.236
20
-95.7056
11
192.02
21
-95.6586
0
LINE
8
BLACK
6
CONTINUOUS
10
192.02
20
-95.6586
11
191.813
21
-95.5814
0
LINE
8
BLACK
6
CONTINUOUS
10
191.813
20
-95.5814
11
191.619
21
-95.4755
0
LINE
8
BLACK
6
CONTINUOUS
10
191.619
20
-95.4755
11
191.442
21
-95.343
0
LINE
8
BLACK
6
CONTINUOUS
10
191.442
20
-95.343
11
191.285
21
-95.1868
0
LINE
8
BLACK
6
CONTINUOUS
10
191.285
20
-95.1868
11
191.153
21
-95.0098
0
LINE
8
BLACK
6
CONTINUOUS
10
191.153
20
-95.0098
11
191.047
21
-94.8159
0
LINE
8
BLACK
6
CONTINUOUS
10
191.047
20
-94.8159
11
190.97
21
-94.6088
0
LINE
8
BLACK
6
CONTINUOUS
10
190.97
20
-94.6088
11
190.923
21
-94.3928
0
LINE
8
BLACK
6
CONTINUOUS
10
190.923
20
-94.3928
11
190.907
21
-94.1724
0
LINE
8
BLACK
6
CONTINUOUS
10
190.907
20
-94.1724
11
190.907
21
-94.1724
0
LINE
8
BLACK
6
CONTINUOUS
10
190.907
20
-94.1724
11
190.907
21
-94.1724
0
LINE
8
BLACK
6
CONTINUOUS
10
190.907
20
-94.1724
11
190.907
21
-78.105
0
LINE
8
BLACK
6
CONTINUOUS
10
190.907
20
-78.105
11
190.923
21
-77.8846
0
LINE
8
BLACK
6
CONTINUOUS
10
190.923
20
-77.8846
11
190.97
21
-77.6686
0
LINE
8
BLACK
6
CONTINUOUS
10
190.97
20
-77.6686
11
191.047
21
-77.4615
0
LINE
8
BLACK
6
CONTINUOUS
10
191.047
20
-77.4615
11
191.153
21
-77.2675
0
LINE
8
BLACK
6
CONTINUOUS
10
191.153
20
-77.2675
11
191.285
21
-77.0906
0
LINE
8
BLACK
6
CONTINUOUS
10
191.285
20
-77.0906
11
191.442
21
-76.9343
0
LINE
8
BLACK
6
CONTINUOUS
10
191.442
20
-76.9343
11
191.619
21
-76.8019
0
LINE
8
BLACK
6
CONTINUOUS
10
191.619
20
-76.8019
11
191.813
21
-76.696
0
LINE
8
BLACK
6
CONTINUOUS
10
191.813
20
-76.696
11
192.02
21
-76.6187
0
LINE
8
BLACK
6
CONTINUOUS
10
192.02
20
-76.6187
11
192.236
21
-76.5718
0
LINE
8
BLACK
6
CONTINUOUS
10
192.236
20
-76.5718
11
192.456
21
-76.556
0
LINE
8
BLACK
6
CONTINUOUS
10
192.456
20
-76.556
11
224.968
21
-76.556
0
LINE
8
BLACK
6
CONTINUOUS
10
192.456
20
-76.606
11
192.349
21
-76.606
0
LINE
8
BLACK
6
CONTINUOUS
10
192.349
20
-76.606
11
192.137
21
-76.6365
0
LINE
8
BLACK
6
CONTINUOUS
10
192.137
20
-76.6365
11
191.931
21
-76.6969
0
LINE
8
BLACK
6
CONTINUOUS
10
191.931
20
-76.6969
11
191.736
21
-76.786
0
LINE
8
BLACK
6
CONTINUOUS
10
191.736
20
-76.786
11
191.555
21
-76.9019
0
LINE
8
BLACK
6
CONTINUOUS
10
191.555
20
-76.9019
11
191.393
21
-77.0423
0
LINE
8
BLACK
6
CONTINUOUS
10
191.393
20
-77.0423
11
191.253
21
-77.2044
0
LINE
8
BLACK
6
CONTINUOUS
10
191.253
20
-77.2044
11
191.137
21
-77.3848
0
LINE
8
BLACK
6
CONTINUOUS
10
191.137
20
-77.3848
11
191.048
21
-77.5798
0
LINE
8
BLACK
6
CONTINUOUS
10
191.048
20
-77.5798
11
190.988
21
-77.7856
0
LINE
8
BLACK
6
CONTINUOUS
10
190.988
20
-77.7856
11
190.957
21
-77.9978
0
LINE
8
BLACK
6
CONTINUOUS
10
190.957
20
-77.9978
11
190.957
21
-78.105
0
LINE
8
BLACK
6
CONTINUOUS
10
190.957
20
-78.105
11
190.957
21
-94.1724
0
LINE
8
BLACK
6
CONTINUOUS
10
190.957
20
-94.1724
11
190.957
21
-94.1725
0
LINE
8
BLACK
6
CONTINUOUS
10
190.957
20
-94.1725
11
190.957
21
-94.2796
0
LINE
8
BLACK
6
CONTINUOUS
10
190.957
20
-94.2796
11
190.987
21
-94.4918
0
LINE
8
BLACK
6
CONTINUOUS
10
190.987
20
-94.4918
11
191.048
21
-94.6976
0
LINE
8
BLACK
6
CONTINUOUS
10
191.048
20
-94.6976
11
191.137
21
-94.8926
0
LINE
8
BLACK
6
CONTINUOUS
10
191.137
20
-94.8926
11
191.253
21
-95.073
0
LINE
8
BLACK
6
CONTINUOUS
10
191.253
20
-95.073
11
191.393
21
-95.235
0
LINE
8
BLACK
6
CONTINUOUS
10
191.393
20
-95.235
11
191.555
21
-95.3754
0
LINE
8
BLACK
6
CONTINUOUS
10
191.555
20
-95.3754
11
191.736
21
-95.4914
0
LINE
8
BLACK
6
CONTINUOUS
10
191.736
20
-95.4914
11
191.931
21
-95.5804
0
LINE
8
BLACK
6
CONTINUOUS
10
191.931
20
-95.5804
11
192.137
21
-95.6409
0
LINE
8
BLACK
6
CONTINUOUS
10
192.137
20
-95.6409
11
192.349
21
-95.6714
0
LINE
8
BLACK
6
CONTINUOUS
10
192.349
20
-95.6714
11
192.456
21
-95.6714
0
LINE
8
BLACK
6
CONTINUOUS
10
192.456
20
-95.6714
11
224.968
21
-95.6714
0
LINE
8
BLACK
6
CONTINUOUS
10
224.968
20
-95.6714
11
224.968
21
-95.6714
0
LINE
8
BLACK
6
CONTINUOUS
10
224.968
20
-95.6714
11
224.968
21
-95.6713
0
LINE
8
BLACK
6
CONTINUOUS
10
224.968
20
-95.6713
11
225.075
21
-95.6713
0
LINE
8
BLACK
6
CONTINUOUS
10
225.075
20
-95.6713
11
225.287
21
-95.6408
0
LINE
8
BLACK
6
CONTINUOUS
10
225.287
20
-95.6408
11
225.493
21
-95.5804
0
LINE
8
BLACK
6
CONTINUOUS
10
225.493
20
-95.5804
11
225.688
21
-95.4913
0
LINE
8
BLACK
6
CONTINUOUS
10
225.688
20
-95.4913
11
225.869
21
-95.3754
0
LINE
8
BLACK
6
CONTINUOUS
10
225.869
20
-95.3754
11
226.031
21
-95.235
0
LINE
8
BLACK
6
CONTINUOUS
10
226.031
20
-95.235
11
226.171
21
-95.073
0
LINE
8
BLACK
6
CONTINUOUS
10
226.171
20
-95.073
11
226.287
21
-94.8926
0
LINE
8
BLACK
6
CONTINUOUS
10
226.287
20
-94.8926
11
226.376
21
-94.6975
0
LINE
8
BLACK
6
CONTINUOUS
10
226.376
20
-94.6975
11
226.436
21
-94.4918
0
LINE
8
BLACK
6
CONTINUOUS
10
226.436
20
-94.4918
11
226.467
21
-94.2796
0
LINE
8
BLACK
6
CONTINUOUS
10
226.467
20
-94.2796
11
226.467
21
-94.1724
0
LINE
8
BLACK
6
CONTINUOUS
10
226.467
20
-94.1724
11
226.467
21
-94.1724
0
LINE
8
BLACK
6
CONTINUOUS
10
226.467
20
-94.1724
11
226.467
21
-78.105
0
LINE
8
BLACK
6
CONTINUOUS
10
226.467
20
-78.105
11
226.467
21
-78.105
0
LINE
8
BLACK
6
CONTINUOUS
10
226.467
20
-78.105
11
226.467
21
-77.9978
0
LINE
8
BLACK
6
CONTINUOUS
10
226.467
20
-77.9978
11
226.436
21
-77.7856
0
LINE
8
BLACK
6
CONTINUOUS
10
226.436
20
-77.7856
11
226.376
21
-77.5798
0
LINE
8
BLACK
6
CONTINUOUS
10
226.376
20
-77.5798
11
226.287
21
-77.3848
0
LINE
8
BLACK
6
CONTINUOUS
10
226.287
20
-77.3848
11
226.171
21
-77.2044
0
LINE
8
BLACK
6
CONTINUOUS
10
226.171
20
-77.2044
11
226.031
21
-77.0423
0
LINE
8
BLACK
6
CONTINUOUS
10
226.031
20
-77.0423
11
225.869
21
-76.9019
0
LINE
8
BLACK
6
CONTINUOUS
10
225.869
20
-76.9019
11
225.688
21
-76.786
0
LINE
8
BLACK
6
CONTINUOUS
10
225.688
20
-76.786
11
225.493
21
-76.6969
0
LINE
8
BLACK
6
CONTINUOUS
10
225.493
20
-76.6969
11
225.287
21
-76.6365
0
LINE
8
BLACK
6
CONTINUOUS
10
225.287
20
-76.6365
11
225.075
21
-76.606
0
LINE
8
BLACK
6
CONTINUOUS
10
225.075
20
-76.606
11
224.968
21
-76.606
0
LINE
8
BLACK
6
CONTINUOUS
10
224.968
20
-76.606
11
192.456
21
-76.606
  0
ENDSEC
  0
EOF
