G04 #@! TF.GenerationSoftware,KiCad,Pcbnew,7.0.2-0*
G04 #@! TF.CreationDate,2023-08-07T23:17:52+03:00*
G04 #@! TF.ProjectId,RJ45_Module,524a3435-5f4d-46f6-9475-6c652e6b6963,1.0*
G04 #@! TF.SameCoordinates,Original*
G04 #@! TF.FileFunction,Copper,L4,Bot*
G04 #@! TF.FilePolarity,Positive*
%FSLAX46Y46*%
G04 Gerber Fmt 4.6, Leading zero omitted, Abs format (unit mm)*
G04 Created by KiCad (PCBNEW 7.0.2-0) date 2023-08-07 23:17:52*
%MOMM*%
%LPD*%
G01*
G04 APERTURE LIST*
G04 #@! TA.AperFunction,ComponentPad*
%ADD10R,1.446000X1.446000*%
G04 #@! TD*
G04 #@! TA.AperFunction,ComponentPad*
%ADD11C,1.446000*%
G04 #@! TD*
G04 #@! TA.AperFunction,ComponentPad*
%ADD12C,2.355000*%
G04 #@! TD*
G04 #@! TA.AperFunction,SMDPad,CuDef*
%ADD13R,2.300000X3.100000*%
G04 #@! TD*
G04 #@! TA.AperFunction,SMDPad,CuDef*
%ADD14R,0.300000X1.100000*%
G04 #@! TD*
G04 #@! TA.AperFunction,ComponentPad*
%ADD15C,0.800000*%
G04 #@! TD*
G04 #@! TA.AperFunction,ComponentPad*
%ADD16C,6.400000*%
G04 #@! TD*
G04 #@! TA.AperFunction,ViaPad*
%ADD17C,0.600000*%
G04 #@! TD*
G04 #@! TA.AperFunction,Conductor*
%ADD18C,0.228600*%
G04 #@! TD*
G04 #@! TA.AperFunction,Profile*
%ADD19C,0.050000*%
G04 #@! TD*
G04 APERTURE END LIST*
D10*
X212623600Y-84531200D03*
D11*
X211603600Y-87071200D03*
X210593600Y-84531200D03*
X209573600Y-87071200D03*
X208563600Y-84531200D03*
X207543600Y-87071200D03*
X206533600Y-84531200D03*
X205513600Y-87071200D03*
D12*
X200813600Y-83721200D03*
X217073600Y-83721200D03*
D13*
X204142355Y-78630000D03*
X213482355Y-78630000D03*
D14*
X211812355Y-80330000D03*
X211312355Y-80330000D03*
X210812355Y-80330000D03*
X210312355Y-80330000D03*
X209812355Y-80330000D03*
X209312355Y-80330000D03*
X208812355Y-80330000D03*
X208312355Y-80330000D03*
X207812355Y-80330000D03*
X207312355Y-80330000D03*
X206812355Y-80330000D03*
X206312355Y-80330000D03*
X205812355Y-80330000D03*
D15*
X220505000Y-83730000D03*
X221207944Y-85427056D03*
X221207944Y-82032944D03*
X222905000Y-86130000D03*
D16*
X222905000Y-83730000D03*
D15*
X225305000Y-83730000D03*
X224602056Y-82032944D03*
X224602056Y-85427056D03*
X222905000Y-81330000D03*
X194942000Y-81330000D03*
X196639056Y-85427056D03*
X196639056Y-82032944D03*
X197342000Y-83730000D03*
D16*
X194942000Y-83730000D03*
D15*
X194942000Y-86130000D03*
X193244944Y-82032944D03*
X193244944Y-85427056D03*
X192542000Y-83730000D03*
D17*
X206545000Y-85930000D03*
X210555000Y-85950000D03*
X209873956Y-78781118D03*
X211956142Y-78158858D03*
X206873953Y-78799958D03*
X209250265Y-78772087D03*
X207673455Y-78800155D03*
X208451255Y-78800155D03*
X211451255Y-78778772D03*
X210673455Y-78778772D03*
D18*
X206990555Y-82974955D02*
G75*
G03*
X206765555Y-83200000I45J-225045D01*
G01*
X206765600Y-82300000D02*
G75*
G03*
X206990555Y-82525000I225000J0D01*
G01*
X207432252Y-81625000D02*
X206990555Y-81625000D01*
X207432252Y-82074952D02*
G75*
G03*
X207657252Y-81850000I48J224952D01*
G01*
X206533600Y-83660215D02*
X206765555Y-83428260D01*
X207432249Y-82975049D02*
G75*
G03*
X207657249Y-82750000I-49J225049D01*
G01*
X206990555Y-82074955D02*
G75*
G03*
X206765555Y-82300000I45J-225045D01*
G01*
X207657200Y-82750000D02*
G75*
G03*
X207432249Y-82525000I-225000J0D01*
G01*
X206765600Y-81400000D02*
G75*
G03*
X206990555Y-81625000I225000J0D01*
G01*
X206533600Y-84531200D02*
X206533600Y-83660215D01*
X207657300Y-81850000D02*
G75*
G03*
X207432252Y-81625000I-225000J0D01*
G01*
X206765555Y-83428260D02*
X206765555Y-83200000D01*
X207432249Y-82525000D02*
X206990555Y-82525000D01*
X206990555Y-82975000D02*
X207432249Y-82975000D01*
X206990555Y-82075000D02*
X207432252Y-82075000D01*
X206765555Y-81400000D02*
X206765555Y-81201801D01*
X206812355Y-81155001D02*
X206812355Y-80330000D01*
X206765555Y-81201801D02*
X206812355Y-81155001D01*
X206312355Y-80330000D02*
X206312355Y-81155001D01*
X206312355Y-81155001D02*
X206359155Y-81201801D01*
X206359155Y-81201801D02*
X206359155Y-83295845D01*
X205513600Y-84141400D02*
X205513600Y-87071200D01*
X206359155Y-83295845D02*
X205513600Y-84141400D01*
X208312355Y-80330000D02*
X208265556Y-80283201D01*
X207859154Y-80283201D02*
X207859154Y-78985854D01*
X208265556Y-78985854D02*
X208451255Y-78800155D01*
X207859154Y-78985854D02*
X207673455Y-78800155D01*
X208265556Y-80283201D02*
X208265556Y-78985854D01*
X208312355Y-80330000D02*
X208265557Y-80283202D01*
X207812355Y-80330000D02*
X207859154Y-80283201D01*
X210859154Y-80283201D02*
X210859154Y-78964471D01*
X210859154Y-78964471D02*
X210673455Y-78778772D01*
X211265556Y-80283201D02*
X211265556Y-78964471D01*
X211312355Y-80330000D02*
X211265556Y-80283201D01*
X211265556Y-78964471D02*
X211451255Y-78778772D01*
X210812355Y-80330000D02*
X210859154Y-80283201D01*
X210485021Y-82405021D02*
G75*
G03*
X210710021Y-82180000I-21J225021D01*
G01*
X209965155Y-82404955D02*
G75*
G03*
X209740155Y-82630000I45J-225045D01*
G01*
X209740200Y-81730000D02*
G75*
G03*
X209965155Y-81955000I225000J0D01*
G01*
X209740155Y-83530000D02*
X209740155Y-83677755D01*
X209740200Y-82630000D02*
G75*
G03*
X209965155Y-82855000I225000J0D01*
G01*
X210710000Y-82180000D02*
G75*
G03*
X210485021Y-81955000I-225000J0D01*
G01*
X209965155Y-81955000D02*
X210485021Y-81955000D01*
X209965155Y-83304955D02*
G75*
G03*
X209740155Y-83530000I45J-225045D01*
G01*
X209740155Y-81227201D02*
X209740155Y-81730000D01*
X210710000Y-83080000D02*
G75*
G03*
X210484997Y-82855000I-225000J0D01*
G01*
X210484997Y-83304997D02*
G75*
G03*
X210709997Y-83080000I3J224997D01*
G01*
X209812355Y-81155001D02*
X209740155Y-81227201D01*
X209812355Y-80330000D02*
X209812355Y-81155001D01*
X210485021Y-82405000D02*
X209965155Y-82405000D01*
X209965155Y-82855000D02*
X210484997Y-82855000D01*
X210484997Y-83305000D02*
X209965155Y-83305000D01*
X209740155Y-83677755D02*
X210593600Y-84531200D01*
X207543600Y-87071200D02*
X209575000Y-85039800D01*
X209312355Y-81155001D02*
X209312355Y-80330000D01*
X209359155Y-83854155D02*
X209359155Y-81201801D01*
X209359155Y-81201801D02*
X209312355Y-81155001D01*
X209575000Y-84070000D02*
X209359155Y-83854155D01*
X209575000Y-85039800D02*
X209575000Y-84070000D01*
G04 #@! TA.AperFunction,Conductor*
G36*
X193807130Y-84864870D02*
G01*
X193903999Y-84947604D01*
X193487349Y-85364254D01*
X193480439Y-85329511D01*
X193425184Y-85246816D01*
X193342489Y-85191561D01*
X193307743Y-85184649D01*
X193724394Y-84767998D01*
X193807130Y-84864870D01*
G37*
G04 #@! TD.AperFunction*
G04 #@! TA.AperFunction,Conductor*
G36*
X196576254Y-85184649D02*
G01*
X196541511Y-85191561D01*
X196458816Y-85246816D01*
X196403561Y-85329511D01*
X196396650Y-85364254D01*
X195980000Y-84947604D01*
X196076870Y-84864870D01*
X196159604Y-84767999D01*
X196576254Y-85184649D01*
G37*
G04 #@! TD.AperFunction*
G04 #@! TA.AperFunction,Conductor*
G36*
X193904000Y-82512395D02*
G01*
X193807130Y-82595130D01*
X193724395Y-82692000D01*
X193307744Y-82275350D01*
X193342489Y-82268439D01*
X193425184Y-82213184D01*
X193480439Y-82130489D01*
X193487350Y-82095744D01*
X193904000Y-82512395D01*
G37*
G04 #@! TD.AperFunction*
G04 #@! TA.AperFunction,Conductor*
G36*
X196403561Y-82130489D02*
G01*
X196458816Y-82213184D01*
X196541511Y-82268439D01*
X196576253Y-82275349D01*
X196159603Y-82691999D01*
X196076870Y-82595130D01*
X195979999Y-82512395D01*
X196396649Y-82095744D01*
X196403561Y-82130489D01*
G37*
G04 #@! TD.AperFunction*
G04 #@! TA.AperFunction,Conductor*
G36*
X225191269Y-76296786D02*
G01*
X225359177Y-76311475D01*
X225372078Y-76313750D01*
X225531712Y-76356524D01*
X225544017Y-76361004D01*
X225676250Y-76422665D01*
X225693786Y-76430842D01*
X225705138Y-76437396D01*
X225840505Y-76532181D01*
X225850546Y-76540607D01*
X225967392Y-76657453D01*
X225975818Y-76667494D01*
X226070603Y-76802861D01*
X226077157Y-76814213D01*
X226146993Y-76963976D01*
X226151477Y-76976294D01*
X226194248Y-77135917D01*
X226196524Y-77148826D01*
X226211213Y-77316729D01*
X226211499Y-77323283D01*
X226211499Y-82579622D01*
X226193906Y-82627960D01*
X226149357Y-82653680D01*
X226098699Y-82644747D01*
X226066440Y-82607456D01*
X225952783Y-82322199D01*
X225951065Y-82318485D01*
X225782700Y-82000916D01*
X225780604Y-81997434D01*
X225578883Y-81699916D01*
X225576427Y-81696686D01*
X225365840Y-81448763D01*
X224844461Y-81970141D01*
X224837551Y-81935399D01*
X224782296Y-81852704D01*
X224699601Y-81797449D01*
X224664856Y-81790537D01*
X225184138Y-81271256D01*
X225184137Y-81271254D01*
X225079977Y-81172587D01*
X225076858Y-81169937D01*
X224790717Y-80952419D01*
X224787337Y-80950127D01*
X224479333Y-80764807D01*
X224475761Y-80762913D01*
X224149522Y-80611979D01*
X224145742Y-80610473D01*
X223805099Y-80495697D01*
X223801198Y-80494614D01*
X223450148Y-80417342D01*
X223446123Y-80416683D01*
X223088796Y-80377821D01*
X223084717Y-80377600D01*
X222725283Y-80377600D01*
X222721203Y-80377821D01*
X222363876Y-80416683D01*
X222359851Y-80417342D01*
X222008801Y-80494614D01*
X222004900Y-80495697D01*
X221664257Y-80610473D01*
X221660477Y-80611979D01*
X221334238Y-80762913D01*
X221330666Y-80764807D01*
X221022662Y-80950127D01*
X221019282Y-80952419D01*
X220733141Y-81169937D01*
X220730032Y-81172578D01*
X220625861Y-81271255D01*
X220625860Y-81271255D01*
X221145142Y-81790537D01*
X221110399Y-81797449D01*
X221027704Y-81852704D01*
X220972449Y-81935399D01*
X220965537Y-81970143D01*
X220444157Y-81448763D01*
X220233572Y-81696686D01*
X220231116Y-81699916D01*
X220029395Y-81997434D01*
X220027299Y-82000916D01*
X219858934Y-82318485D01*
X219857216Y-82322199D01*
X219724175Y-82656106D01*
X219722875Y-82659964D01*
X219626715Y-83006301D01*
X219625836Y-83010299D01*
X219567688Y-83364987D01*
X219567246Y-83369048D01*
X219547786Y-83727971D01*
X219547786Y-83732028D01*
X219567246Y-84090951D01*
X219567688Y-84095012D01*
X219625836Y-84449700D01*
X219626715Y-84453698D01*
X219722875Y-84800035D01*
X219724175Y-84803893D01*
X219857216Y-85137800D01*
X219858934Y-85141514D01*
X220027299Y-85459083D01*
X220029395Y-85462565D01*
X220231116Y-85760083D01*
X220233572Y-85763313D01*
X220444158Y-86011235D01*
X220965537Y-85489855D01*
X220972449Y-85524601D01*
X221027704Y-85607296D01*
X221110399Y-85662551D01*
X221145141Y-85669461D01*
X220625860Y-86188743D01*
X220625861Y-86188744D01*
X220730022Y-86287412D01*
X220733141Y-86290062D01*
X221019282Y-86507580D01*
X221022662Y-86509872D01*
X221330666Y-86695192D01*
X221334238Y-86697086D01*
X221660477Y-86848020D01*
X221664257Y-86849526D01*
X222004900Y-86964302D01*
X222008801Y-86965385D01*
X222359851Y-87042657D01*
X222363876Y-87043316D01*
X222721203Y-87082178D01*
X222725283Y-87082400D01*
X223084717Y-87082400D01*
X223088796Y-87082178D01*
X223446123Y-87043316D01*
X223450148Y-87042657D01*
X223801198Y-86965385D01*
X223805099Y-86964302D01*
X224145742Y-86849526D01*
X224149522Y-86848020D01*
X224475761Y-86697086D01*
X224479333Y-86695192D01*
X224787337Y-86509872D01*
X224790717Y-86507580D01*
X225076859Y-86290061D01*
X225079967Y-86287421D01*
X225184137Y-86188743D01*
X225184138Y-86188742D01*
X224664857Y-85669461D01*
X224699601Y-85662551D01*
X224782296Y-85607296D01*
X224837551Y-85524601D01*
X224844462Y-85489857D01*
X225365840Y-86011235D01*
X225365841Y-86011235D01*
X225576427Y-85763312D01*
X225578883Y-85760083D01*
X225780604Y-85462565D01*
X225782700Y-85459083D01*
X225951065Y-85141514D01*
X225952783Y-85137800D01*
X226066439Y-84852544D01*
X226100674Y-84814151D01*
X226151578Y-84806747D01*
X226195333Y-84833795D01*
X226211498Y-84880378D01*
X226211498Y-90237235D01*
X226211500Y-90237258D01*
X226211500Y-90268715D01*
X226211214Y-90275269D01*
X226196524Y-90443173D01*
X226194248Y-90456082D01*
X226151477Y-90615705D01*
X226146993Y-90628023D01*
X226077157Y-90777786D01*
X226070603Y-90789138D01*
X225975818Y-90924505D01*
X225967392Y-90934546D01*
X225850546Y-91051392D01*
X225840505Y-91059818D01*
X225705138Y-91154603D01*
X225693786Y-91161157D01*
X225544023Y-91230993D01*
X225531705Y-91235477D01*
X225372082Y-91278248D01*
X225359173Y-91280524D01*
X225191269Y-91295214D01*
X225184715Y-91295500D01*
X192236285Y-91295500D01*
X192229731Y-91295214D01*
X192061826Y-91280524D01*
X192048917Y-91278248D01*
X191889294Y-91235477D01*
X191876976Y-91230993D01*
X191727213Y-91161157D01*
X191715861Y-91154603D01*
X191580494Y-91059818D01*
X191570453Y-91051392D01*
X191453607Y-90934546D01*
X191445181Y-90924505D01*
X191350396Y-90789138D01*
X191343842Y-90777786D01*
X191337591Y-90764381D01*
X191274004Y-90628017D01*
X191269524Y-90615712D01*
X191226750Y-90456078D01*
X191224475Y-90443173D01*
X191209786Y-90275269D01*
X191209500Y-90268715D01*
X191209500Y-90206107D01*
X191209500Y-88029880D01*
X200844337Y-88029880D01*
X200874363Y-88302770D01*
X200943804Y-88568384D01*
X201051177Y-88821052D01*
X201194196Y-89055398D01*
X201369806Y-89266416D01*
X201574274Y-89449621D01*
X201574276Y-89449622D01*
X201574277Y-89449623D01*
X201803241Y-89601104D01*
X202051821Y-89717633D01*
X202314719Y-89796727D01*
X202586331Y-89836700D01*
X202586333Y-89836700D01*
X202790760Y-89836700D01*
X202792147Y-89836700D01*
X202868481Y-89831112D01*
X202997401Y-89821678D01*
X203023730Y-89815812D01*
X203265375Y-89761984D01*
X203521798Y-89663911D01*
X203761209Y-89529547D01*
X203978504Y-89361757D01*
X204169054Y-89164116D01*
X204328796Y-88940837D01*
X204454327Y-88696679D01*
X204542970Y-88436846D01*
X204592836Y-88166874D01*
X204597842Y-88029880D01*
X213544337Y-88029880D01*
X213574363Y-88302770D01*
X213643804Y-88568384D01*
X213751177Y-88821052D01*
X213894196Y-89055398D01*
X214069806Y-89266416D01*
X214274274Y-89449621D01*
X214274276Y-89449622D01*
X214274277Y-89449623D01*
X214503241Y-89601104D01*
X214751821Y-89717633D01*
X215014719Y-89796727D01*
X215286331Y-89836700D01*
X215286333Y-89836700D01*
X215490760Y-89836700D01*
X215492147Y-89836700D01*
X215568481Y-89831112D01*
X215697401Y-89821678D01*
X215723730Y-89815812D01*
X215965375Y-89761984D01*
X216221798Y-89663911D01*
X216461209Y-89529547D01*
X216678504Y-89361757D01*
X216869054Y-89164116D01*
X217028796Y-88940837D01*
X217154327Y-88696679D01*
X217242970Y-88436846D01*
X217292836Y-88166874D01*
X217302862Y-87892520D01*
X217272836Y-87619629D01*
X217203396Y-87354018D01*
X217096023Y-87101348D01*
X216953005Y-86867004D01*
X216938460Y-86849526D01*
X216777393Y-86655983D01*
X216572925Y-86472778D01*
X216343958Y-86321295D01*
X216095380Y-86204767D01*
X215911835Y-86149547D01*
X215832481Y-86125673D01*
X215560869Y-86085700D01*
X215355053Y-86085700D01*
X215353681Y-86085800D01*
X215353664Y-86085801D01*
X215149798Y-86100721D01*
X214881824Y-86160416D01*
X214625400Y-86258489D01*
X214385993Y-86392851D01*
X214168694Y-86560644D01*
X213978145Y-86758284D01*
X213818403Y-86981563D01*
X213692873Y-87225719D01*
X213604230Y-87485554D01*
X213554364Y-87755523D01*
X213544337Y-88029880D01*
X204597842Y-88029880D01*
X204602862Y-87892520D01*
X204572836Y-87619629D01*
X204558959Y-87566549D01*
X204563754Y-87515334D01*
X204600348Y-87479183D01*
X204651619Y-87475011D01*
X204693576Y-87504772D01*
X204696839Y-87509929D01*
X204759754Y-87618901D01*
X204890101Y-87763666D01*
X205047697Y-87878167D01*
X205225656Y-87957399D01*
X205416200Y-87997900D01*
X205416201Y-87997900D01*
X205610999Y-87997900D01*
X205611000Y-87997900D01*
X205801544Y-87957399D01*
X205979503Y-87878167D01*
X206137099Y-87763666D01*
X206267446Y-87618901D01*
X206364846Y-87450199D01*
X206422589Y-87272487D01*
X206425043Y-87264934D01*
X206429164Y-87225721D01*
X206445405Y-87071200D01*
X206445405Y-87071199D01*
X206611795Y-87071199D01*
X206632156Y-87264934D01*
X206692353Y-87450197D01*
X206692354Y-87450199D01*
X206789754Y-87618901D01*
X206920101Y-87763666D01*
X207077697Y-87878167D01*
X207255656Y-87957399D01*
X207446200Y-87997900D01*
X207446201Y-87997900D01*
X207640999Y-87997900D01*
X207641000Y-87997900D01*
X207831544Y-87957399D01*
X208009503Y-87878167D01*
X208167099Y-87763666D01*
X208297446Y-87618901D01*
X208394846Y-87450199D01*
X208452589Y-87272487D01*
X208455043Y-87264934D01*
X208459164Y-87225721D01*
X208475405Y-87071200D01*
X208641795Y-87071200D01*
X208662156Y-87264934D01*
X208722353Y-87450197D01*
X208722354Y-87450199D01*
X208819754Y-87618901D01*
X208950101Y-87763666D01*
X209107697Y-87878167D01*
X209285656Y-87957399D01*
X209476200Y-87997900D01*
X209476201Y-87997900D01*
X209670999Y-87997900D01*
X209671000Y-87997900D01*
X209861544Y-87957399D01*
X210039503Y-87878167D01*
X210197099Y-87763666D01*
X210327446Y-87618901D01*
X210424846Y-87450199D01*
X210482589Y-87272487D01*
X210485043Y-87264934D01*
X210489164Y-87225721D01*
X210505405Y-87071200D01*
X210671795Y-87071200D01*
X210692156Y-87264934D01*
X210752353Y-87450197D01*
X210752354Y-87450199D01*
X210849754Y-87618901D01*
X210980101Y-87763666D01*
X211137697Y-87878167D01*
X211315656Y-87957399D01*
X211506200Y-87997900D01*
X211506201Y-87997900D01*
X211700999Y-87997900D01*
X211701000Y-87997900D01*
X211891544Y-87957399D01*
X212069503Y-87878167D01*
X212227099Y-87763666D01*
X212357446Y-87618901D01*
X212454846Y-87450199D01*
X212512589Y-87272487D01*
X212515043Y-87264934D01*
X212519164Y-87225721D01*
X212535405Y-87071200D01*
X212515043Y-86877467D01*
X212515043Y-86877465D01*
X212454846Y-86692202D01*
X212454846Y-86692201D01*
X212357446Y-86523499D01*
X212227099Y-86378734D01*
X212132826Y-86310240D01*
X212069502Y-86264232D01*
X211891544Y-86185001D01*
X211879829Y-86182511D01*
X211701000Y-86144500D01*
X211506200Y-86144500D01*
X211410927Y-86164750D01*
X211315655Y-86185001D01*
X211137698Y-86264232D01*
X210980099Y-86378735D01*
X210849754Y-86523498D01*
X210752353Y-86692202D01*
X210692156Y-86877465D01*
X210671795Y-87071200D01*
X210505405Y-87071200D01*
X210485043Y-86877467D01*
X210485043Y-86877465D01*
X210424846Y-86692202D01*
X210424846Y-86692201D01*
X210327446Y-86523499D01*
X210197099Y-86378734D01*
X210102826Y-86310240D01*
X210039502Y-86264232D01*
X209861544Y-86185001D01*
X209849829Y-86182511D01*
X209671000Y-86144500D01*
X209476200Y-86144500D01*
X209380928Y-86164750D01*
X209285655Y-86185001D01*
X209107698Y-86264232D01*
X208950099Y-86378735D01*
X208819754Y-86523498D01*
X208722353Y-86692202D01*
X208662156Y-86877465D01*
X208641795Y-87071200D01*
X208475405Y-87071200D01*
X208455043Y-86877467D01*
X208455043Y-86877465D01*
X208403562Y-86719023D01*
X208405357Y-86667615D01*
X208421905Y-86642613D01*
X209787718Y-85276799D01*
X209792531Y-85272388D01*
X209822360Y-85247360D01*
X209836663Y-85222584D01*
X209876067Y-85189519D01*
X209927506Y-85189517D01*
X209957673Y-85209864D01*
X209970099Y-85223664D01*
X209970101Y-85223666D01*
X210127697Y-85338167D01*
X210305656Y-85417399D01*
X210496200Y-85457900D01*
X210496201Y-85457900D01*
X210690999Y-85457900D01*
X210691000Y-85457900D01*
X210881544Y-85417399D01*
X211059503Y-85338167D01*
X211147457Y-85274264D01*
X211696900Y-85274264D01*
X211708718Y-85333679D01*
X211708719Y-85333680D01*
X211753740Y-85401060D01*
X211821120Y-85446081D01*
X211880536Y-85457900D01*
X213366664Y-85457900D01*
X213426080Y-85446081D01*
X213493460Y-85401060D01*
X213538481Y-85333680D01*
X213550300Y-85274264D01*
X213550300Y-83788136D01*
X213538481Y-83728720D01*
X213533456Y-83721200D01*
X215738620Y-83721200D01*
X215758901Y-83953015D01*
X215819130Y-84177793D01*
X215917472Y-84388690D01*
X216044742Y-84570450D01*
X216044743Y-84570451D01*
X216434940Y-84180253D01*
X216455979Y-84213736D01*
X216581064Y-84338821D01*
X216614544Y-84359858D01*
X216224347Y-84750055D01*
X216224348Y-84750056D01*
X216406109Y-84877327D01*
X216617006Y-84975669D01*
X216841784Y-85035898D01*
X217073600Y-85056179D01*
X217305415Y-85035898D01*
X217530193Y-84975669D01*
X217741089Y-84877327D01*
X217922850Y-84750056D01*
X217922851Y-84750055D01*
X217532654Y-84359858D01*
X217566136Y-84338821D01*
X217691221Y-84213736D01*
X217712258Y-84180254D01*
X218102455Y-84570451D01*
X218102456Y-84570450D01*
X218229727Y-84388689D01*
X218328069Y-84177793D01*
X218388298Y-83953015D01*
X218408579Y-83721199D01*
X218388298Y-83489384D01*
X218328069Y-83264606D01*
X218229727Y-83053709D01*
X218102456Y-82871948D01*
X218102455Y-82871947D01*
X217712258Y-83262144D01*
X217691221Y-83228664D01*
X217566136Y-83103579D01*
X217532654Y-83082540D01*
X217922851Y-82692343D01*
X217922850Y-82692342D01*
X217741090Y-82565072D01*
X217530193Y-82466730D01*
X217305415Y-82406501D01*
X217073599Y-82386220D01*
X216841784Y-82406501D01*
X216617006Y-82466730D01*
X216406110Y-82565072D01*
X216224348Y-82692342D01*
X216224347Y-82692343D01*
X216614545Y-83082541D01*
X216581064Y-83103579D01*
X216455979Y-83228664D01*
X216434941Y-83262145D01*
X216044743Y-82871947D01*
X216044742Y-82871948D01*
X215917472Y-83053710D01*
X215819130Y-83264606D01*
X215758901Y-83489384D01*
X215738620Y-83721200D01*
X213533456Y-83721200D01*
X213493460Y-83661340D01*
X213426080Y-83616319D01*
X213426079Y-83616318D01*
X213366664Y-83604500D01*
X211880536Y-83604500D01*
X211821120Y-83616318D01*
X211753740Y-83661340D01*
X211708718Y-83728720D01*
X211696900Y-83788135D01*
X211696900Y-85274264D01*
X211147457Y-85274264D01*
X211217099Y-85223666D01*
X211347446Y-85078901D01*
X211444846Y-84910199D01*
X211496880Y-84750056D01*
X211505043Y-84724934D01*
X211510463Y-84673365D01*
X211525405Y-84531200D01*
X211508579Y-84371115D01*
X211505043Y-84337465D01*
X211444846Y-84152202D01*
X211444846Y-84152201D01*
X211347446Y-83983499D01*
X211217099Y-83838734D01*
X211067441Y-83730000D01*
X211059502Y-83724232D01*
X210965369Y-83682322D01*
X210881544Y-83645001D01*
X210852391Y-83638804D01*
X210808769Y-83611545D01*
X210792874Y-83562623D01*
X210812144Y-83514929D01*
X210821132Y-83506462D01*
X210871384Y-83466389D01*
X210947677Y-83370722D01*
X211000768Y-83260477D01*
X211027997Y-83141182D01*
X211027997Y-83111151D01*
X211028000Y-83111142D01*
X211028000Y-83018820D01*
X211028000Y-83018818D01*
X211000771Y-82899522D01*
X210947679Y-82789276D01*
X210871386Y-82693609D01*
X210871384Y-82693608D01*
X210871384Y-82693607D01*
X210865362Y-82688805D01*
X210838539Y-82644912D01*
X210846205Y-82594047D01*
X210865361Y-82571218D01*
X210871421Y-82566385D01*
X210947708Y-82470717D01*
X211000795Y-82360473D01*
X211028021Y-82241180D01*
X211028021Y-82180000D01*
X211028021Y-82129634D01*
X211028021Y-82118910D01*
X211008400Y-82032944D01*
X211000775Y-81999534D01*
X210947690Y-81889294D01*
X210871407Y-81793629D01*
X210871405Y-81793627D01*
X210871404Y-81793626D01*
X210775753Y-81717339D01*
X210739580Y-81699916D01*
X210665514Y-81664241D01*
X210546228Y-81637005D01*
X210546227Y-81637005D01*
X210519075Y-81637002D01*
X210519045Y-81637000D01*
X210512844Y-81637000D01*
X210485051Y-81637000D01*
X210434684Y-81636995D01*
X210434683Y-81636995D01*
X210422502Y-81636994D01*
X210422466Y-81637000D01*
X210133355Y-81637000D01*
X210085017Y-81619407D01*
X210059297Y-81574858D01*
X210058155Y-81561800D01*
X210058155Y-81385412D01*
X210068228Y-81347815D01*
X210079178Y-81328848D01*
X210082674Y-81323361D01*
X210105007Y-81291467D01*
X210106124Y-81287299D01*
X210113636Y-81269166D01*
X210115787Y-81265441D01*
X210122543Y-81227117D01*
X210123959Y-81220729D01*
X210134032Y-81183144D01*
X210130641Y-81144383D01*
X210130355Y-81137829D01*
X210130355Y-81107600D01*
X210147948Y-81059262D01*
X210172899Y-81044856D01*
X210185355Y-81032400D01*
X210185355Y-79627600D01*
X210147343Y-79627600D01*
X210142118Y-79628639D01*
X210091277Y-79620811D01*
X210085673Y-79617410D01*
X210041834Y-79588118D01*
X209982419Y-79576300D01*
X209642291Y-79576300D01*
X209577026Y-79589282D01*
X209547684Y-79589282D01*
X209482419Y-79576300D01*
X209142291Y-79576300D01*
X209082874Y-79588118D01*
X209039036Y-79617410D01*
X208989070Y-79629636D01*
X208982590Y-79628639D01*
X208977366Y-79627600D01*
X208939355Y-79627600D01*
X208939355Y-81032401D01*
X208950912Y-81043958D01*
X208967493Y-81049993D01*
X208993213Y-81094542D01*
X208994355Y-81107600D01*
X208994355Y-81137830D01*
X208994069Y-81144383D01*
X208990678Y-81183144D01*
X209000749Y-81220731D01*
X209002168Y-81227134D01*
X209008922Y-81265439D01*
X209008922Y-81265440D01*
X209008923Y-81265441D01*
X209011073Y-81269166D01*
X209011076Y-81269170D01*
X209018585Y-81287299D01*
X209019701Y-81291466D01*
X209027554Y-81302680D01*
X209041155Y-81345814D01*
X209041155Y-83613623D01*
X209023562Y-83661961D01*
X208979013Y-83687681D01*
X208935369Y-83682322D01*
X208851545Y-83645001D01*
X208748036Y-83623000D01*
X208661000Y-83604500D01*
X208466200Y-83604500D01*
X208379164Y-83623000D01*
X208275655Y-83645001D01*
X208097698Y-83724232D01*
X207940099Y-83838735D01*
X207809754Y-83983498D01*
X207712353Y-84152202D01*
X207652156Y-84337465D01*
X207631795Y-84531200D01*
X207652156Y-84724934D01*
X207712353Y-84910197D01*
X207809754Y-85078901D01*
X207939127Y-85222585D01*
X207940101Y-85223666D01*
X208097697Y-85338167D01*
X208275656Y-85417399D01*
X208466200Y-85457900D01*
X208466201Y-85457900D01*
X208525632Y-85457900D01*
X208573970Y-85475493D01*
X208599690Y-85520042D01*
X208590757Y-85570700D01*
X208578809Y-85586269D01*
X208079379Y-86085700D01*
X207970865Y-86194214D01*
X207924245Y-86215953D01*
X207887105Y-86209738D01*
X207831545Y-86185001D01*
X207736272Y-86164750D01*
X207641000Y-86144500D01*
X207446200Y-86144500D01*
X207350928Y-86164750D01*
X207255655Y-86185001D01*
X207077698Y-86264232D01*
X206920099Y-86378735D01*
X206789754Y-86523498D01*
X206692353Y-86692202D01*
X206632156Y-86877465D01*
X206611795Y-87071199D01*
X206445405Y-87071199D01*
X206425043Y-86877467D01*
X206425043Y-86877465D01*
X206364846Y-86692202D01*
X206364846Y-86692201D01*
X206267446Y-86523499D01*
X206137099Y-86378734D01*
X205979503Y-86264233D01*
X205876211Y-86218244D01*
X205839210Y-86182511D01*
X205831599Y-86149550D01*
X205831599Y-85314218D01*
X205849192Y-85265881D01*
X205893741Y-85240161D01*
X205944399Y-85249094D01*
X205950990Y-85253374D01*
X206067697Y-85338167D01*
X206245656Y-85417399D01*
X206436200Y-85457900D01*
X206436201Y-85457900D01*
X206630999Y-85457900D01*
X206631000Y-85457900D01*
X206821544Y-85417399D01*
X206999503Y-85338167D01*
X207157099Y-85223666D01*
X207287446Y-85078901D01*
X207384846Y-84910199D01*
X207436880Y-84750056D01*
X207445043Y-84724934D01*
X207450463Y-84673365D01*
X207465405Y-84531200D01*
X207448915Y-84374316D01*
X207445043Y-84337465D01*
X207384846Y-84152202D01*
X207384846Y-84152201D01*
X207287446Y-83983499D01*
X207157099Y-83838734D01*
X207027768Y-83744769D01*
X206999005Y-83702124D01*
X207004382Y-83650966D01*
X207006845Y-83646334D01*
X207014858Y-83632455D01*
X207032375Y-83602113D01*
X207035874Y-83596620D01*
X207058207Y-83564726D01*
X207059322Y-83560560D01*
X207066836Y-83542425D01*
X207067315Y-83541595D01*
X207068987Y-83538700D01*
X207075743Y-83500376D01*
X207077159Y-83493988D01*
X207087232Y-83456403D01*
X207083841Y-83417642D01*
X207083555Y-83411088D01*
X207083555Y-83368200D01*
X207101148Y-83319862D01*
X207145697Y-83294142D01*
X207158755Y-83293000D01*
X207370055Y-83293000D01*
X207370143Y-83293013D01*
X207381951Y-83293010D01*
X207381952Y-83293011D01*
X207393615Y-83293008D01*
X207401114Y-83293007D01*
X207401248Y-83293055D01*
X207432318Y-83293048D01*
X207432318Y-83293049D01*
X207493497Y-83293036D01*
X207612781Y-83265787D01*
X207723012Y-83212681D01*
X207818665Y-83136381D01*
X207894945Y-83040712D01*
X207948027Y-82930468D01*
X207975250Y-82811178D01*
X207975249Y-82750000D01*
X207975249Y-82699634D01*
X207975249Y-82689037D01*
X207968614Y-82659964D01*
X207947980Y-82569548D01*
X207894903Y-82459315D01*
X207894902Y-82459314D01*
X207894902Y-82459313D01*
X207818630Y-82363651D01*
X207812550Y-82358801D01*
X207785735Y-82314903D01*
X207793410Y-82264039D01*
X207812567Y-82241215D01*
X207818613Y-82236396D01*
X207894918Y-82140731D01*
X207948018Y-82030484D01*
X207975251Y-81911184D01*
X207975251Y-81909126D01*
X207975252Y-81909117D01*
X207975252Y-81881197D01*
X207975300Y-81881062D01*
X207975299Y-81788809D01*
X207948064Y-81669501D01*
X207948064Y-81669500D01*
X207894958Y-81559243D01*
X207818647Y-81463570D01*
X207722958Y-81387280D01*
X207612690Y-81334198D01*
X207522011Y-81313518D01*
X207493371Y-81306987D01*
X207432184Y-81307000D01*
X207198847Y-81307000D01*
X207150509Y-81289407D01*
X207124789Y-81244858D01*
X207126210Y-81212335D01*
X207134032Y-81183144D01*
X207130641Y-81144383D01*
X207130355Y-81137829D01*
X207130355Y-81107600D01*
X207147948Y-81059262D01*
X207172899Y-81044856D01*
X207185355Y-81032400D01*
X207185355Y-79627600D01*
X207147343Y-79627600D01*
X207142118Y-79628639D01*
X207091277Y-79620811D01*
X207085673Y-79617410D01*
X207041834Y-79588118D01*
X206982419Y-79576300D01*
X206642291Y-79576300D01*
X206577026Y-79589282D01*
X206547684Y-79589282D01*
X206482419Y-79576300D01*
X206142291Y-79576300D01*
X206082874Y-79588118D01*
X206039036Y-79617410D01*
X205989070Y-79629636D01*
X205982590Y-79628639D01*
X205977366Y-79627600D01*
X205939355Y-79627600D01*
X205939355Y-81032400D01*
X205950912Y-81043958D01*
X205967493Y-81049993D01*
X205993213Y-81094542D01*
X205994355Y-81107600D01*
X205994355Y-81137830D01*
X205994069Y-81144383D01*
X205990678Y-81183144D01*
X206000749Y-81220731D01*
X206002168Y-81227134D01*
X206008922Y-81265439D01*
X206008922Y-81265440D01*
X206008923Y-81265441D01*
X206011073Y-81269166D01*
X206011076Y-81269170D01*
X206018585Y-81287299D01*
X206019701Y-81291466D01*
X206027555Y-81302682D01*
X206041154Y-81345814D01*
X206041154Y-83132976D01*
X206023561Y-83181314D01*
X206019128Y-83186150D01*
X205300888Y-83904390D01*
X205296054Y-83908820D01*
X205266240Y-83933838D01*
X205246789Y-83967527D01*
X205243267Y-83973055D01*
X205220947Y-84004933D01*
X205219831Y-84009099D01*
X205212325Y-84027223D01*
X205210168Y-84030960D01*
X205203413Y-84069266D01*
X205201994Y-84075667D01*
X205191923Y-84113255D01*
X205195314Y-84152016D01*
X205195600Y-84158569D01*
X205195600Y-86149547D01*
X205178007Y-86197885D01*
X205150989Y-86218244D01*
X205085376Y-86247457D01*
X205047697Y-86264233D01*
X204890099Y-86378735D01*
X204759754Y-86523498D01*
X204662353Y-86692202D01*
X204602156Y-86877465D01*
X204581795Y-87071200D01*
X204594527Y-87192340D01*
X204582082Y-87242252D01*
X204540467Y-87272487D01*
X204489152Y-87268899D01*
X204452150Y-87233165D01*
X204450529Y-87229611D01*
X204434690Y-87192340D01*
X204396023Y-87101348D01*
X204253005Y-86867004D01*
X204238460Y-86849526D01*
X204077393Y-86655983D01*
X203872925Y-86472778D01*
X203643958Y-86321295D01*
X203395380Y-86204767D01*
X203211835Y-86149547D01*
X203132481Y-86125673D01*
X202860869Y-86085700D01*
X202655053Y-86085700D01*
X202653681Y-86085800D01*
X202653664Y-86085801D01*
X202449798Y-86100721D01*
X202181824Y-86160416D01*
X201925400Y-86258489D01*
X201685993Y-86392851D01*
X201468694Y-86560644D01*
X201278145Y-86758284D01*
X201118403Y-86981563D01*
X200992873Y-87225719D01*
X200904230Y-87485554D01*
X200854364Y-87755523D01*
X200844337Y-88029880D01*
X191209500Y-88029880D01*
X191209499Y-83732028D01*
X191584786Y-83732028D01*
X191604246Y-84090951D01*
X191604688Y-84095012D01*
X191662836Y-84449700D01*
X191663715Y-84453698D01*
X191759875Y-84800035D01*
X191761175Y-84803893D01*
X191894216Y-85137800D01*
X191895934Y-85141514D01*
X192064299Y-85459083D01*
X192066395Y-85462565D01*
X192268116Y-85760083D01*
X192270572Y-85763313D01*
X192481158Y-86011235D01*
X193002537Y-85489855D01*
X193009449Y-85524601D01*
X193064704Y-85607296D01*
X193147399Y-85662551D01*
X193182142Y-85669461D01*
X192662861Y-86188743D01*
X192662861Y-86188744D01*
X192767022Y-86287412D01*
X192770141Y-86290062D01*
X193056282Y-86507580D01*
X193059662Y-86509872D01*
X193367666Y-86695192D01*
X193371238Y-86697086D01*
X193697477Y-86848020D01*
X193701257Y-86849526D01*
X194041900Y-86964302D01*
X194045801Y-86965385D01*
X194396851Y-87042657D01*
X194400876Y-87043316D01*
X194758203Y-87082178D01*
X194762283Y-87082400D01*
X195121717Y-87082400D01*
X195125796Y-87082178D01*
X195483123Y-87043316D01*
X195487148Y-87042657D01*
X195838198Y-86965385D01*
X195842099Y-86964302D01*
X196182742Y-86849526D01*
X196186522Y-86848020D01*
X196512761Y-86697086D01*
X196516333Y-86695192D01*
X196824337Y-86509872D01*
X196827717Y-86507580D01*
X197113859Y-86290061D01*
X197116967Y-86287421D01*
X197221137Y-86188743D01*
X197221138Y-86188742D01*
X196701857Y-85669461D01*
X196736601Y-85662551D01*
X196819296Y-85607296D01*
X196874551Y-85524601D01*
X196881462Y-85489857D01*
X197402840Y-86011235D01*
X197402841Y-86011235D01*
X197613427Y-85763312D01*
X197615883Y-85760083D01*
X197817604Y-85462565D01*
X197819700Y-85459083D01*
X197988065Y-85141514D01*
X197989783Y-85137800D01*
X198122824Y-84803893D01*
X198124124Y-84800035D01*
X198220284Y-84453698D01*
X198221163Y-84449700D01*
X198279311Y-84095012D01*
X198279753Y-84090951D01*
X198299214Y-83732028D01*
X198299214Y-83727971D01*
X198298847Y-83721200D01*
X199478620Y-83721200D01*
X199498901Y-83953015D01*
X199559130Y-84177793D01*
X199657472Y-84388690D01*
X199784742Y-84570450D01*
X199784743Y-84570451D01*
X200174940Y-84180253D01*
X200195979Y-84213736D01*
X200321064Y-84338821D01*
X200354544Y-84359858D01*
X199964347Y-84750055D01*
X199964348Y-84750056D01*
X200146109Y-84877327D01*
X200357006Y-84975669D01*
X200581784Y-85035898D01*
X200813599Y-85056179D01*
X201045415Y-85035898D01*
X201270193Y-84975669D01*
X201481089Y-84877327D01*
X201662850Y-84750056D01*
X201662851Y-84750055D01*
X201272654Y-84359858D01*
X201306136Y-84338821D01*
X201431221Y-84213736D01*
X201452258Y-84180254D01*
X201842455Y-84570451D01*
X201842456Y-84570450D01*
X201969727Y-84388689D01*
X202068069Y-84177793D01*
X202128298Y-83953015D01*
X202148579Y-83721199D01*
X202128298Y-83489384D01*
X202068069Y-83264606D01*
X201969727Y-83053709D01*
X201842456Y-82871948D01*
X201842455Y-82871947D01*
X201452258Y-83262143D01*
X201431221Y-83228664D01*
X201306136Y-83103579D01*
X201272654Y-83082540D01*
X201662851Y-82692343D01*
X201662850Y-82692342D01*
X201481090Y-82565072D01*
X201270193Y-82466730D01*
X201045415Y-82406501D01*
X200813600Y-82386220D01*
X200581784Y-82406501D01*
X200357006Y-82466730D01*
X200146110Y-82565072D01*
X199964348Y-82692342D01*
X199964347Y-82692343D01*
X200354545Y-83082541D01*
X200321064Y-83103579D01*
X200195979Y-83228664D01*
X200174941Y-83262145D01*
X199784743Y-82871947D01*
X199784742Y-82871948D01*
X199657472Y-83053710D01*
X199559130Y-83264606D01*
X199498901Y-83489384D01*
X199478620Y-83721200D01*
X198298847Y-83721200D01*
X198279753Y-83369048D01*
X198279311Y-83364987D01*
X198221163Y-83010299D01*
X198220284Y-83006301D01*
X198124124Y-82659964D01*
X198122824Y-82656106D01*
X197989783Y-82322199D01*
X197988065Y-82318485D01*
X197819700Y-82000916D01*
X197817604Y-81997434D01*
X197615883Y-81699916D01*
X197613427Y-81696686D01*
X197402840Y-81448763D01*
X196881461Y-81970141D01*
X196874551Y-81935399D01*
X196819296Y-81852704D01*
X196736601Y-81797449D01*
X196701856Y-81790537D01*
X197221138Y-81271256D01*
X197221137Y-81271254D01*
X197116977Y-81172587D01*
X197113858Y-81169937D01*
X196827717Y-80952419D01*
X196824337Y-80950127D01*
X196732735Y-80895012D01*
X205509954Y-80895012D01*
X205518796Y-80939463D01*
X205552481Y-80989873D01*
X205602891Y-81023558D01*
X205647342Y-81032400D01*
X205685355Y-81032400D01*
X205685355Y-80457000D01*
X205509955Y-80457000D01*
X205509954Y-80895012D01*
X196732735Y-80895012D01*
X196516333Y-80764807D01*
X196512761Y-80762913D01*
X196186522Y-80611979D01*
X196182742Y-80610473D01*
X195842099Y-80495697D01*
X195838198Y-80494614D01*
X195487148Y-80417342D01*
X195483123Y-80416683D01*
X195125796Y-80377821D01*
X195121717Y-80377600D01*
X194762283Y-80377600D01*
X194758203Y-80377821D01*
X194400876Y-80416683D01*
X194396851Y-80417342D01*
X194045801Y-80494614D01*
X194041900Y-80495697D01*
X193701257Y-80610473D01*
X193697477Y-80611979D01*
X193371238Y-80762913D01*
X193367666Y-80764807D01*
X193059662Y-80950127D01*
X193056282Y-80952419D01*
X192770141Y-81169937D01*
X192767032Y-81172578D01*
X192662861Y-81271255D01*
X193182143Y-81790537D01*
X193147399Y-81797449D01*
X193064704Y-81852704D01*
X193009449Y-81935399D01*
X193002537Y-81970143D01*
X192481157Y-81448763D01*
X192270572Y-81696686D01*
X192268116Y-81699916D01*
X192066395Y-81997434D01*
X192064299Y-82000916D01*
X191895934Y-82318485D01*
X191894216Y-82322199D01*
X191761175Y-82656106D01*
X191759875Y-82659964D01*
X191663715Y-83006301D01*
X191662836Y-83010299D01*
X191604688Y-83364987D01*
X191604246Y-83369048D01*
X191584786Y-83727971D01*
X191584786Y-83732028D01*
X191209499Y-83732028D01*
X191209499Y-78757000D01*
X202839955Y-78757000D01*
X202839955Y-80195012D01*
X202848796Y-80239463D01*
X202882481Y-80289873D01*
X202932891Y-80323558D01*
X202977342Y-80332400D01*
X204015355Y-80332400D01*
X204015355Y-78757000D01*
X204269355Y-78757000D01*
X204269355Y-80332400D01*
X205307368Y-80332400D01*
X205351818Y-80323558D01*
X205402228Y-80289873D01*
X205437947Y-80236420D01*
X205479431Y-80206004D01*
X205500473Y-80203000D01*
X205685355Y-80203000D01*
X205685355Y-79627600D01*
X205647342Y-79627600D01*
X205602889Y-79636442D01*
X205561734Y-79663942D01*
X205511769Y-79676169D01*
X205465634Y-79653418D01*
X205444916Y-79606335D01*
X205444755Y-79601416D01*
X205444755Y-78800155D01*
X207164575Y-78800155D01*
X207185188Y-78943525D01*
X207245356Y-79075274D01*
X207340210Y-79184742D01*
X207462055Y-79263047D01*
X207462056Y-79263047D01*
X207462059Y-79263049D01*
X207487139Y-79270413D01*
X207528561Y-79300909D01*
X207541153Y-79342566D01*
X207541154Y-79552400D01*
X207523561Y-79600737D01*
X207479013Y-79626457D01*
X207465954Y-79627600D01*
X207439355Y-79627600D01*
X207439355Y-81032400D01*
X207477366Y-81032400D01*
X207482583Y-81031362D01*
X207533424Y-81039184D01*
X207539021Y-81042579D01*
X207582875Y-81071881D01*
X207642291Y-81083700D01*
X207982418Y-81083700D01*
X207982419Y-81083700D01*
X208041835Y-81071881D01*
X208041836Y-81071880D01*
X208047683Y-81070717D01*
X208077027Y-81070717D01*
X208082873Y-81071880D01*
X208082875Y-81071881D01*
X208142291Y-81083700D01*
X208142292Y-81083700D01*
X208482419Y-81083700D01*
X208541835Y-81071881D01*
X208574593Y-81049993D01*
X208585673Y-81042589D01*
X208635638Y-81030363D01*
X208642125Y-81031362D01*
X208647342Y-81032400D01*
X208685355Y-81032400D01*
X208685355Y-79627600D01*
X208658756Y-79627600D01*
X208610418Y-79610007D01*
X208584698Y-79565458D01*
X208583556Y-79552400D01*
X208583556Y-79342566D01*
X208601149Y-79294228D01*
X208637569Y-79270413D01*
X208662651Y-79263049D01*
X208784501Y-79184741D01*
X208879352Y-79075276D01*
X208939522Y-78943523D01*
X208960135Y-78800155D01*
X208957060Y-78778771D01*
X210164575Y-78778771D01*
X210185188Y-78922142D01*
X210245356Y-79053891D01*
X210340210Y-79163359D01*
X210373483Y-79184742D01*
X210462059Y-79241666D01*
X210487139Y-79249029D01*
X210528562Y-79279526D01*
X210541154Y-79321183D01*
X210541154Y-79552400D01*
X210523561Y-79600738D01*
X210479012Y-79626458D01*
X210465954Y-79627600D01*
X210439355Y-79627600D01*
X210439355Y-81032400D01*
X210477366Y-81032400D01*
X210482583Y-81031362D01*
X210533424Y-81039184D01*
X210539021Y-81042579D01*
X210582875Y-81071881D01*
X210642291Y-81083700D01*
X210982418Y-81083700D01*
X210982419Y-81083700D01*
X211041835Y-81071881D01*
X211041836Y-81071880D01*
X211047683Y-81070717D01*
X211077027Y-81070717D01*
X211082873Y-81071880D01*
X211082875Y-81071881D01*
X211142291Y-81083700D01*
X211142292Y-81083700D01*
X211482419Y-81083700D01*
X211541835Y-81071881D01*
X211574593Y-81049993D01*
X211585673Y-81042589D01*
X211635638Y-81030363D01*
X211642125Y-81031362D01*
X211647342Y-81032400D01*
X211685355Y-81032400D01*
X211685355Y-80457000D01*
X211939355Y-80457000D01*
X211939355Y-81032400D01*
X211977368Y-81032400D01*
X212021818Y-81023558D01*
X212072228Y-80989873D01*
X212105913Y-80939463D01*
X212114754Y-80895012D01*
X212114755Y-80457000D01*
X211939355Y-80457000D01*
X211685355Y-80457000D01*
X211685355Y-80203000D01*
X211939355Y-80203000D01*
X212124237Y-80203000D01*
X212172575Y-80220593D01*
X212186763Y-80236420D01*
X212222481Y-80289873D01*
X212272891Y-80323558D01*
X212317342Y-80332400D01*
X213355355Y-80332400D01*
X213355355Y-78757000D01*
X213609355Y-78757000D01*
X213609355Y-80332400D01*
X214647368Y-80332400D01*
X214691818Y-80323558D01*
X214742228Y-80289873D01*
X214775913Y-80239463D01*
X214784755Y-80195012D01*
X214784755Y-78757000D01*
X213609355Y-78757000D01*
X213355355Y-78757000D01*
X212179955Y-78757000D01*
X212179955Y-79601416D01*
X212162362Y-79649754D01*
X212117813Y-79675474D01*
X212067155Y-79666541D01*
X212062976Y-79663942D01*
X212021820Y-79636442D01*
X211977368Y-79627600D01*
X211939355Y-79627600D01*
X211939355Y-80203000D01*
X211685355Y-80203000D01*
X211685355Y-79627600D01*
X211658756Y-79627600D01*
X211610418Y-79610007D01*
X211584698Y-79565458D01*
X211583556Y-79552400D01*
X211583555Y-79321183D01*
X211601148Y-79272846D01*
X211637568Y-79249030D01*
X211662651Y-79241666D01*
X211784501Y-79163358D01*
X211879352Y-79053893D01*
X211939522Y-78922140D01*
X211960135Y-78778772D01*
X211939522Y-78635404D01*
X211889118Y-78525035D01*
X211879353Y-78503652D01*
X211878788Y-78503000D01*
X212179955Y-78503000D01*
X213355355Y-78503000D01*
X213355355Y-76927600D01*
X213609355Y-76927600D01*
X213609355Y-78503000D01*
X214784755Y-78503000D01*
X214784755Y-77064987D01*
X214775913Y-77020536D01*
X214742228Y-76970126D01*
X214691818Y-76936441D01*
X214647368Y-76927600D01*
X213609355Y-76927600D01*
X213355355Y-76927600D01*
X212317342Y-76927600D01*
X212272891Y-76936441D01*
X212222481Y-76970126D01*
X212188796Y-77020536D01*
X212179955Y-77064987D01*
X212179955Y-78503000D01*
X211878788Y-78503000D01*
X211807143Y-78420317D01*
X211784501Y-78394186D01*
X211784500Y-78394185D01*
X211784499Y-78394184D01*
X211662652Y-78315878D01*
X211523676Y-78275072D01*
X211378834Y-78275072D01*
X211239857Y-78315878D01*
X211108913Y-78400031D01*
X211108208Y-78398934D01*
X211074235Y-78417836D01*
X211023725Y-78408100D01*
X211008587Y-78395398D01*
X210884852Y-78315878D01*
X210745876Y-78275072D01*
X210601034Y-78275072D01*
X210462057Y-78315878D01*
X210340210Y-78394184D01*
X210245356Y-78503652D01*
X210185188Y-78635401D01*
X210164575Y-78778771D01*
X208957060Y-78778771D01*
X208939522Y-78656787D01*
X208929757Y-78635404D01*
X208879353Y-78525035D01*
X208821626Y-78458414D01*
X208784501Y-78415569D01*
X208784500Y-78415568D01*
X208784499Y-78415567D01*
X208662652Y-78337261D01*
X208523676Y-78296455D01*
X208378834Y-78296455D01*
X208239857Y-78337261D01*
X208108913Y-78421414D01*
X208108208Y-78420317D01*
X208074235Y-78439219D01*
X208023725Y-78429483D01*
X208008587Y-78416781D01*
X207884852Y-78337261D01*
X207745876Y-78296455D01*
X207601034Y-78296455D01*
X207462057Y-78337261D01*
X207340210Y-78415567D01*
X207245356Y-78525035D01*
X207185188Y-78656784D01*
X207164575Y-78800155D01*
X205444755Y-78800155D01*
X205444755Y-78757000D01*
X204269355Y-78757000D01*
X204015355Y-78757000D01*
X202839955Y-78757000D01*
X191209499Y-78757000D01*
X191209499Y-78503000D01*
X202839955Y-78503000D01*
X204015355Y-78503000D01*
X204015355Y-76927600D01*
X204269355Y-76927600D01*
X204269355Y-78503000D01*
X205444755Y-78503000D01*
X205444755Y-77064987D01*
X205435913Y-77020536D01*
X205402228Y-76970126D01*
X205351818Y-76936441D01*
X205307368Y-76927600D01*
X204269355Y-76927600D01*
X204015355Y-76927600D01*
X202977342Y-76927600D01*
X202932891Y-76936441D01*
X202882481Y-76970126D01*
X202848796Y-77020536D01*
X202839955Y-77064987D01*
X202839955Y-78503000D01*
X191209499Y-78503000D01*
X191209499Y-77323284D01*
X191209785Y-77316730D01*
X191212631Y-77284201D01*
X191224475Y-77148820D01*
X191226749Y-77135923D01*
X191269525Y-76976283D01*
X191274002Y-76963985D01*
X191343844Y-76814209D01*
X191350396Y-76802861D01*
X191445186Y-76667487D01*
X191453601Y-76657459D01*
X191570459Y-76540601D01*
X191580487Y-76532186D01*
X191715864Y-76437393D01*
X191727209Y-76430844D01*
X191876985Y-76361002D01*
X191889283Y-76356525D01*
X192048923Y-76313749D01*
X192061820Y-76311476D01*
X192229730Y-76296786D01*
X192236285Y-76296500D01*
X192298892Y-76296500D01*
X225122108Y-76296500D01*
X225184715Y-76296500D01*
X225191269Y-76296786D01*
G37*
G04 #@! TD.AperFunction*
G04 #@! TA.AperFunction,Conductor*
G36*
X221770130Y-84864870D02*
G01*
X221866999Y-84947604D01*
X221450349Y-85364253D01*
X221443439Y-85329511D01*
X221388184Y-85246816D01*
X221305489Y-85191561D01*
X221270743Y-85184649D01*
X221687394Y-84767998D01*
X221770130Y-84864870D01*
G37*
G04 #@! TD.AperFunction*
G04 #@! TA.AperFunction,Conductor*
G36*
X224539254Y-85184649D02*
G01*
X224504511Y-85191561D01*
X224421816Y-85246816D01*
X224366561Y-85329511D01*
X224359650Y-85364254D01*
X223943000Y-84947604D01*
X224039870Y-84864870D01*
X224122604Y-84767999D01*
X224539254Y-85184649D01*
G37*
G04 #@! TD.AperFunction*
G04 #@! TA.AperFunction,Conductor*
G36*
X221867000Y-82512395D02*
G01*
X221770130Y-82595130D01*
X221687395Y-82692000D01*
X221270744Y-82275350D01*
X221305489Y-82268439D01*
X221388184Y-82213184D01*
X221443439Y-82130489D01*
X221450350Y-82095745D01*
X221867000Y-82512395D01*
G37*
G04 #@! TD.AperFunction*
G04 #@! TA.AperFunction,Conductor*
G36*
X224366561Y-82130489D02*
G01*
X224421816Y-82213184D01*
X224504511Y-82268439D01*
X224539253Y-82275349D01*
X224122603Y-82691999D01*
X224039870Y-82595130D01*
X223942999Y-82512395D01*
X224359649Y-82095744D01*
X224366561Y-82130489D01*
G37*
G04 #@! TD.AperFunction*
D19*
X225185000Y-91796000D02*
X192233000Y-91796000D01*
X225188000Y-91796000D02*
G75*
G03*
X226712000Y-90272000I0J1524000D01*
G01*
X190709000Y-90272000D02*
G75*
G03*
X192233000Y-91796000I1524000J0D01*
G01*
X190709000Y-90272000D02*
X190709000Y-77320000D01*
X226712000Y-77320000D02*
X226712000Y-90272000D01*
X226712000Y-77320000D02*
G75*
G03*
X225188000Y-75796000I-1524000J0D01*
G01*
X192233000Y-75796000D02*
G75*
G03*
X190709000Y-77320000I0J-1524000D01*
G01*
X192232000Y-75796000D02*
X225185000Y-75796000D01*
M02*
