G04 #@! TF.GenerationSoftware,KiCad,Pcbnew,7.0.2-0*
G04 #@! TF.CreationDate,2023-08-07T23:17:52+03:00*
G04 #@! TF.ProjectId,RJ45_Module,524a3435-5f4d-46f6-9475-6c652e6b6963,1.0*
G04 #@! TF.SameCoordinates,Original*
G04 #@! TF.FileFunction,Legend,Bot*
G04 #@! TF.FilePolarity,Positive*
%FSLAX46Y46*%
G04 Gerber Fmt 4.6, Leading zero omitted, Abs format (unit mm)*
G04 Created by KiCad (PCBNEW 7.0.2-0) date 2023-08-07 23:17:52*
%MOMM*%
%LPD*%
G01*
G04 APERTURE LIST*
%ADD10C,0.200000*%
%ADD11C,0.150000*%
%ADD12C,0.300000*%
%ADD13C,0.120000*%
G04 #@! TA.AperFunction,Profile*
%ADD14C,0.050000*%
G04 #@! TD*
G04 APERTURE END LIST*
D10*
X225104523Y-91120095D02*
X225104523Y-90320095D01*
X225104523Y-90320095D02*
X224799761Y-90320095D01*
X224799761Y-90320095D02*
X224723571Y-90358190D01*
X224723571Y-90358190D02*
X224685476Y-90396285D01*
X224685476Y-90396285D02*
X224647380Y-90472476D01*
X224647380Y-90472476D02*
X224647380Y-90586761D01*
X224647380Y-90586761D02*
X224685476Y-90662952D01*
X224685476Y-90662952D02*
X224723571Y-90701047D01*
X224723571Y-90701047D02*
X224799761Y-90739142D01*
X224799761Y-90739142D02*
X225104523Y-90739142D01*
X223733095Y-90282000D02*
X224418809Y-91310571D01*
X223466428Y-91120095D02*
X223466428Y-90320095D01*
X223466428Y-90320095D02*
X223009285Y-91120095D01*
X223009285Y-91120095D02*
X223009285Y-90320095D01*
X222628333Y-91043904D02*
X222590238Y-91082000D01*
X222590238Y-91082000D02*
X222628333Y-91120095D01*
X222628333Y-91120095D02*
X222666429Y-91082000D01*
X222666429Y-91082000D02*
X222628333Y-91043904D01*
X222628333Y-91043904D02*
X222628333Y-91120095D01*
X222628333Y-90624857D02*
X222590238Y-90662952D01*
X222590238Y-90662952D02*
X222628333Y-90701047D01*
X222628333Y-90701047D02*
X222666429Y-90662952D01*
X222666429Y-90662952D02*
X222628333Y-90624857D01*
X222628333Y-90624857D02*
X222628333Y-90701047D01*
X221371191Y-90701047D02*
X221256905Y-90739142D01*
X221256905Y-90739142D02*
X221218810Y-90777238D01*
X221218810Y-90777238D02*
X221180714Y-90853428D01*
X221180714Y-90853428D02*
X221180714Y-90967714D01*
X221180714Y-90967714D02*
X221218810Y-91043904D01*
X221218810Y-91043904D02*
X221256905Y-91082000D01*
X221256905Y-91082000D02*
X221333095Y-91120095D01*
X221333095Y-91120095D02*
X221637857Y-91120095D01*
X221637857Y-91120095D02*
X221637857Y-90320095D01*
X221637857Y-90320095D02*
X221371191Y-90320095D01*
X221371191Y-90320095D02*
X221295000Y-90358190D01*
X221295000Y-90358190D02*
X221256905Y-90396285D01*
X221256905Y-90396285D02*
X221218810Y-90472476D01*
X221218810Y-90472476D02*
X221218810Y-90548666D01*
X221218810Y-90548666D02*
X221256905Y-90624857D01*
X221256905Y-90624857D02*
X221295000Y-90662952D01*
X221295000Y-90662952D02*
X221371191Y-90701047D01*
X221371191Y-90701047D02*
X221637857Y-90701047D01*
X220952143Y-90320095D02*
X220495000Y-90320095D01*
X220723572Y-91120095D02*
X220723572Y-90320095D01*
X220266429Y-91082000D02*
X220152143Y-91120095D01*
X220152143Y-91120095D02*
X219961667Y-91120095D01*
X219961667Y-91120095D02*
X219885476Y-91082000D01*
X219885476Y-91082000D02*
X219847381Y-91043904D01*
X219847381Y-91043904D02*
X219809286Y-90967714D01*
X219809286Y-90967714D02*
X219809286Y-90891523D01*
X219809286Y-90891523D02*
X219847381Y-90815333D01*
X219847381Y-90815333D02*
X219885476Y-90777238D01*
X219885476Y-90777238D02*
X219961667Y-90739142D01*
X219961667Y-90739142D02*
X220114048Y-90701047D01*
X220114048Y-90701047D02*
X220190238Y-90662952D01*
X220190238Y-90662952D02*
X220228333Y-90624857D01*
X220228333Y-90624857D02*
X220266429Y-90548666D01*
X220266429Y-90548666D02*
X220266429Y-90472476D01*
X220266429Y-90472476D02*
X220228333Y-90396285D01*
X220228333Y-90396285D02*
X220190238Y-90358190D01*
X220190238Y-90358190D02*
X220114048Y-90320095D01*
X220114048Y-90320095D02*
X219923571Y-90320095D01*
X219923571Y-90320095D02*
X219809286Y-90358190D01*
X219504524Y-90396285D02*
X219466428Y-90358190D01*
X219466428Y-90358190D02*
X219390238Y-90320095D01*
X219390238Y-90320095D02*
X219199762Y-90320095D01*
X219199762Y-90320095D02*
X219123571Y-90358190D01*
X219123571Y-90358190D02*
X219085476Y-90396285D01*
X219085476Y-90396285D02*
X219047381Y-90472476D01*
X219047381Y-90472476D02*
X219047381Y-90548666D01*
X219047381Y-90548666D02*
X219085476Y-90662952D01*
X219085476Y-90662952D02*
X219542619Y-91120095D01*
X219542619Y-91120095D02*
X219047381Y-91120095D01*
X218742619Y-90396285D02*
X218704523Y-90358190D01*
X218704523Y-90358190D02*
X218628333Y-90320095D01*
X218628333Y-90320095D02*
X218437857Y-90320095D01*
X218437857Y-90320095D02*
X218361666Y-90358190D01*
X218361666Y-90358190D02*
X218323571Y-90396285D01*
X218323571Y-90396285D02*
X218285476Y-90472476D01*
X218285476Y-90472476D02*
X218285476Y-90548666D01*
X218285476Y-90548666D02*
X218323571Y-90662952D01*
X218323571Y-90662952D02*
X218780714Y-91120095D01*
X218780714Y-91120095D02*
X218285476Y-91120095D01*
X218018809Y-90320095D02*
X217523571Y-90320095D01*
X217523571Y-90320095D02*
X217790237Y-90624857D01*
X217790237Y-90624857D02*
X217675952Y-90624857D01*
X217675952Y-90624857D02*
X217599761Y-90662952D01*
X217599761Y-90662952D02*
X217561666Y-90701047D01*
X217561666Y-90701047D02*
X217523571Y-90777238D01*
X217523571Y-90777238D02*
X217523571Y-90967714D01*
X217523571Y-90967714D02*
X217561666Y-91043904D01*
X217561666Y-91043904D02*
X217599761Y-91082000D01*
X217599761Y-91082000D02*
X217675952Y-91120095D01*
X217675952Y-91120095D02*
X217904523Y-91120095D01*
X217904523Y-91120095D02*
X217980714Y-91082000D01*
X217980714Y-91082000D02*
X218018809Y-91043904D01*
X216761666Y-91120095D02*
X217218809Y-91120095D01*
X216990237Y-91120095D02*
X216990237Y-90320095D01*
X216990237Y-90320095D02*
X217066428Y-90434380D01*
X217066428Y-90434380D02*
X217142618Y-90510571D01*
X217142618Y-90510571D02*
X217218809Y-90548666D01*
X216075951Y-90586761D02*
X216075951Y-91120095D01*
X216266427Y-90282000D02*
X216456904Y-90853428D01*
X216456904Y-90853428D02*
X215961665Y-90853428D01*
X215733094Y-90320095D02*
X215237856Y-90320095D01*
X215237856Y-90320095D02*
X215504522Y-90624857D01*
X215504522Y-90624857D02*
X215390237Y-90624857D01*
X215390237Y-90624857D02*
X215314046Y-90662952D01*
X215314046Y-90662952D02*
X215275951Y-90701047D01*
X215275951Y-90701047D02*
X215237856Y-90777238D01*
X215237856Y-90777238D02*
X215237856Y-90967714D01*
X215237856Y-90967714D02*
X215275951Y-91043904D01*
X215275951Y-91043904D02*
X215314046Y-91082000D01*
X215314046Y-91082000D02*
X215390237Y-91120095D01*
X215390237Y-91120095D02*
X215618808Y-91120095D01*
X215618808Y-91120095D02*
X215694999Y-91082000D01*
X215694999Y-91082000D02*
X215733094Y-91043904D01*
X214475951Y-91120095D02*
X214933094Y-91120095D01*
X214704522Y-91120095D02*
X214704522Y-90320095D01*
X214704522Y-90320095D02*
X214780713Y-90434380D01*
X214780713Y-90434380D02*
X214856903Y-90510571D01*
X214856903Y-90510571D02*
X214933094Y-90548666D01*
X213790236Y-90320095D02*
X213942617Y-90320095D01*
X213942617Y-90320095D02*
X214018808Y-90358190D01*
X214018808Y-90358190D02*
X214056903Y-90396285D01*
X214056903Y-90396285D02*
X214133093Y-90510571D01*
X214133093Y-90510571D02*
X214171189Y-90662952D01*
X214171189Y-90662952D02*
X214171189Y-90967714D01*
X214171189Y-90967714D02*
X214133093Y-91043904D01*
X214133093Y-91043904D02*
X214094998Y-91082000D01*
X214094998Y-91082000D02*
X214018808Y-91120095D01*
X214018808Y-91120095D02*
X213866427Y-91120095D01*
X213866427Y-91120095D02*
X213790236Y-91082000D01*
X213790236Y-91082000D02*
X213752141Y-91043904D01*
X213752141Y-91043904D02*
X213714046Y-90967714D01*
X213714046Y-90967714D02*
X213714046Y-90777238D01*
X213714046Y-90777238D02*
X213752141Y-90701047D01*
X213752141Y-90701047D02*
X213790236Y-90662952D01*
X213790236Y-90662952D02*
X213866427Y-90624857D01*
X213866427Y-90624857D02*
X214018808Y-90624857D01*
X214018808Y-90624857D02*
X214094998Y-90662952D01*
X214094998Y-90662952D02*
X214133093Y-90701047D01*
X214133093Y-90701047D02*
X214171189Y-90777238D01*
X213409284Y-90891523D02*
X213028331Y-90891523D01*
X213485474Y-91120095D02*
X213218807Y-90320095D01*
X213218807Y-90320095D02*
X212952141Y-91120095D01*
D11*
X201281666Y-79527380D02*
X201281666Y-78813095D01*
X201281666Y-78813095D02*
X201234047Y-78670238D01*
X201234047Y-78670238D02*
X201138809Y-78575000D01*
X201138809Y-78575000D02*
X200995952Y-78527380D01*
X200995952Y-78527380D02*
X200900714Y-78527380D01*
X201710238Y-79432142D02*
X201757857Y-79479761D01*
X201757857Y-79479761D02*
X201853095Y-79527380D01*
X201853095Y-79527380D02*
X202091190Y-79527380D01*
X202091190Y-79527380D02*
X202186428Y-79479761D01*
X202186428Y-79479761D02*
X202234047Y-79432142D01*
X202234047Y-79432142D02*
X202281666Y-79336904D01*
X202281666Y-79336904D02*
X202281666Y-79241666D01*
X202281666Y-79241666D02*
X202234047Y-79098809D01*
X202234047Y-79098809D02*
X201662619Y-78527380D01*
X201662619Y-78527380D02*
X202281666Y-78527380D01*
D12*
D13*
X202737355Y-76940000D02*
X202737355Y-76340000D01*
X202847355Y-76940000D02*
X202737355Y-76940000D01*
X214887355Y-76940000D02*
X214887355Y-76340000D01*
X206012355Y-79530000D02*
X205612355Y-79530000D01*
X214777355Y-76940000D02*
X214887355Y-76940000D01*
X205812355Y-79130000D02*
X206012355Y-79530000D01*
X205612355Y-79530000D02*
X205812355Y-79130000D01*
G36*
X226260575Y-78509633D02*
G01*
X226266373Y-78522635D01*
X226265536Y-78536907D01*
X226256284Y-78548875D01*
X226252408Y-78551165D01*
X226238436Y-78552429D01*
X226227469Y-78541452D01*
X226222918Y-78530969D01*
X226222481Y-78514403D01*
X226233450Y-78503012D01*
X226236196Y-78501747D01*
X226249923Y-78501479D01*
X226260575Y-78509633D01*
G37*
G36*
X225897607Y-77801768D02*
G01*
X225906256Y-77813287D01*
X225908793Y-77832860D01*
X225899610Y-77854178D01*
X225896743Y-77857809D01*
X225882032Y-77867156D01*
X225865931Y-77867065D01*
X225851097Y-77859477D01*
X225840185Y-77846334D01*
X225835851Y-77829577D01*
X225840750Y-77811148D01*
X225844328Y-77805914D01*
X225860428Y-77794775D01*
X225879768Y-77793133D01*
X225897607Y-77801768D01*
G37*
G36*
X225842607Y-78271604D02*
G01*
X225854614Y-78289466D01*
X225856305Y-78309735D01*
X225845915Y-78328661D01*
X225845408Y-78329193D01*
X225831913Y-78339799D01*
X225819739Y-78344185D01*
X225815166Y-78343651D01*
X225799840Y-78335274D01*
X225787691Y-78320196D01*
X225782745Y-78302910D01*
X225784633Y-78290816D01*
X225794475Y-78274740D01*
X225809710Y-78264981D01*
X225826899Y-78263337D01*
X225842607Y-78271604D01*
G37*
G36*
X225688951Y-78007851D02*
G01*
X225708425Y-78015065D01*
X225721665Y-78030136D01*
X225727563Y-78049833D01*
X225725010Y-78070926D01*
X225712895Y-78090185D01*
X225703956Y-78097214D01*
X225684730Y-78102922D01*
X225665892Y-78098976D01*
X225650186Y-78087031D01*
X225640358Y-78068740D01*
X225639152Y-78045757D01*
X225645979Y-78025394D01*
X225660948Y-78011944D01*
X225684550Y-78007635D01*
X225688951Y-78007851D01*
G37*
G36*
X225519605Y-77322536D02*
G01*
X225535680Y-77330226D01*
X225548750Y-77343139D01*
X225554145Y-77357177D01*
X225551111Y-77370955D01*
X225542706Y-77387910D01*
X225532557Y-77399525D01*
X225526210Y-77402668D01*
X225508269Y-77402709D01*
X225490645Y-77391685D01*
X225481611Y-77378098D01*
X225478560Y-77358880D01*
X225483714Y-77340698D01*
X225495878Y-77327150D01*
X225513855Y-77321835D01*
X225519605Y-77322536D01*
G37*
G36*
X225359816Y-76872318D02*
G01*
X225377047Y-76877850D01*
X225387479Y-76891036D01*
X225389349Y-76895612D01*
X225391235Y-76916380D01*
X225383794Y-76934786D01*
X225368500Y-76946521D01*
X225357237Y-76949313D01*
X225337737Y-76946419D01*
X225324240Y-76933653D01*
X225319195Y-76912696D01*
X225319285Y-76908374D01*
X225324200Y-76886417D01*
X225336848Y-76874423D01*
X225357532Y-76872072D01*
X225359816Y-76872318D01*
G37*
G36*
X226111384Y-78484331D02*
G01*
X226127184Y-78492513D01*
X226139641Y-78507606D01*
X226144695Y-78525160D01*
X226141603Y-78538607D01*
X226131995Y-78553735D01*
X226127076Y-78558048D01*
X226109926Y-78565320D01*
X226093722Y-78562913D01*
X226080610Y-78553054D01*
X226072738Y-78537975D01*
X226072251Y-78519904D01*
X226081297Y-78501072D01*
X226082145Y-78500023D01*
X226094962Y-78488590D01*
X226107056Y-78483885D01*
X226111384Y-78484331D01*
G37*
G36*
X225920638Y-78472480D02*
G01*
X225939325Y-78486355D01*
X225947470Y-78498345D01*
X225954198Y-78522579D01*
X225950678Y-78546606D01*
X225937711Y-78567166D01*
X225916095Y-78581000D01*
X225900378Y-78584445D01*
X225886890Y-78580269D01*
X225871157Y-78566923D01*
X225870569Y-78566331D01*
X225856690Y-78547210D01*
X225852595Y-78526002D01*
X225854378Y-78510667D01*
X225864246Y-78489547D01*
X225880387Y-78475316D01*
X225900088Y-78469214D01*
X225920638Y-78472480D01*
G37*
G36*
X222960630Y-79318253D02*
G01*
X222980786Y-79327701D01*
X222998741Y-79343409D01*
X223012076Y-79365027D01*
X223017025Y-79378698D01*
X223017284Y-79390132D01*
X223011161Y-79402061D01*
X223001125Y-79411748D01*
X222983125Y-79416746D01*
X222962406Y-79413806D01*
X222941672Y-79404278D01*
X222923624Y-79389513D01*
X222910965Y-79370863D01*
X222906397Y-79349680D01*
X222911153Y-79330988D01*
X222923393Y-79319545D01*
X222940692Y-79315417D01*
X222960630Y-79318253D01*
G37*
G36*
X225391372Y-77309035D02*
G01*
X225406857Y-77322149D01*
X225417050Y-77340606D01*
X225420586Y-77362089D01*
X225416102Y-77384283D01*
X225402234Y-77404873D01*
X225397473Y-77409452D01*
X225380697Y-77420890D01*
X225364323Y-77421739D01*
X225344038Y-77412570D01*
X225342728Y-77411771D01*
X225325566Y-77394386D01*
X225317422Y-77371931D01*
X225318215Y-77347983D01*
X225327867Y-77326117D01*
X225346299Y-77309911D01*
X225349981Y-77308098D01*
X225371959Y-77303580D01*
X225391372Y-77309035D01*
G37*
G36*
X225721490Y-77777654D02*
G01*
X225739016Y-77791399D01*
X225752165Y-77810080D01*
X225757345Y-77829835D01*
X225753822Y-77847271D01*
X225738784Y-77868423D01*
X225734654Y-77872321D01*
X225713550Y-77884798D01*
X225692333Y-77884611D01*
X225670531Y-77871783D01*
X225663076Y-77864591D01*
X225654974Y-77850207D01*
X225652859Y-77829835D01*
X225653374Y-77818107D01*
X225658273Y-77801630D01*
X225670531Y-77787886D01*
X225671956Y-77786702D01*
X225688586Y-77776763D01*
X225704213Y-77772685D01*
X225721490Y-77777654D01*
G37*
G36*
X225209876Y-76861848D02*
G01*
X225225526Y-76878646D01*
X225234315Y-76903086D01*
X225235392Y-76914195D01*
X225232180Y-76929534D01*
X225220836Y-76945948D01*
X225217547Y-76949707D01*
X225201537Y-76962498D01*
X225183694Y-76966137D01*
X225182484Y-76966128D01*
X225164617Y-76964193D01*
X225152051Y-76956832D01*
X225139440Y-76941009D01*
X225130270Y-76920122D01*
X225131485Y-76895600D01*
X225145135Y-76871472D01*
X225149256Y-76867043D01*
X225168992Y-76855071D01*
X225190115Y-76853665D01*
X225209876Y-76861848D01*
G37*
G36*
X223055420Y-79506341D02*
G01*
X223139627Y-79736475D01*
X223143529Y-79747144D01*
X223161993Y-79797779D01*
X223178912Y-79844414D01*
X223193811Y-79885727D01*
X223206219Y-79920399D01*
X223215662Y-79947110D01*
X223221668Y-79964541D01*
X223223765Y-79971372D01*
X223218754Y-79973660D01*
X223204209Y-79975449D01*
X223183479Y-79976135D01*
X223143262Y-79976135D01*
X223113005Y-79892126D01*
X223108937Y-79880835D01*
X223096303Y-79845777D01*
X223080919Y-79803105D01*
X223063898Y-79755905D01*
X223046353Y-79707263D01*
X223029397Y-79660265D01*
X223017993Y-79628590D01*
X223004448Y-79590764D01*
X222992897Y-79558273D01*
X222983924Y-79532769D01*
X222978112Y-79515902D01*
X222976045Y-79509324D01*
X222980825Y-79507865D01*
X222995168Y-79506710D01*
X223015733Y-79506288D01*
X223055420Y-79506341D01*
G37*
G36*
X219837475Y-79641172D02*
G01*
X219856000Y-79667517D01*
X219884076Y-79707478D01*
X219910919Y-79745723D01*
X219935009Y-79780087D01*
X219954826Y-79808400D01*
X219968851Y-79828497D01*
X219979553Y-79843811D01*
X219993076Y-79862936D01*
X220002539Y-79876031D01*
X220006362Y-79880888D01*
X220006440Y-79880281D01*
X220006589Y-79870563D01*
X220006587Y-79850197D01*
X220006444Y-79820749D01*
X220006170Y-79783784D01*
X220005772Y-79740867D01*
X220005261Y-79693563D01*
X220003102Y-79506235D01*
X220100084Y-79506235D01*
X220096088Y-79609422D01*
X220095089Y-79635039D01*
X220093203Y-79682889D01*
X220091106Y-79735600D01*
X220088987Y-79788379D01*
X220087039Y-79836435D01*
X220081987Y-79960260D01*
X220098429Y-79984757D01*
X220099497Y-79986327D01*
X220126369Y-80018326D01*
X220162115Y-80050523D01*
X220203434Y-80080251D01*
X220247026Y-80104844D01*
X220302482Y-80131710D01*
X220302589Y-80164992D01*
X220302695Y-80198275D01*
X220261760Y-80182867D01*
X220257763Y-80181347D01*
X220231561Y-80170451D01*
X220206574Y-80158054D01*
X220182090Y-80143418D01*
X220157399Y-80125801D01*
X220131790Y-80104463D01*
X220104551Y-80078665D01*
X220074972Y-80047667D01*
X220042342Y-80010728D01*
X220005951Y-79967109D01*
X219965087Y-79916068D01*
X219919040Y-79856867D01*
X219867098Y-79788765D01*
X219808552Y-79711022D01*
X219655014Y-79506235D01*
X219742549Y-79506235D01*
X219837475Y-79641172D01*
G37*
G36*
X225134493Y-79341795D02*
G01*
X225136254Y-79347613D01*
X225141808Y-79365287D01*
X225145703Y-79376720D01*
X225145910Y-79378827D01*
X225142436Y-79381658D01*
X225132722Y-79383600D01*
X225115154Y-79384802D01*
X225088118Y-79385414D01*
X225050000Y-79385585D01*
X225029536Y-79385705D01*
X224998358Y-79386406D01*
X224973425Y-79387628D01*
X224956886Y-79389251D01*
X224950895Y-79391153D01*
X224950947Y-79391756D01*
X224951918Y-79395790D01*
X224954346Y-79403605D01*
X224958522Y-79416014D01*
X224964739Y-79433831D01*
X224973288Y-79457872D01*
X224984463Y-79488948D01*
X224998556Y-79527876D01*
X225015859Y-79575468D01*
X225036664Y-79632539D01*
X225061263Y-79699903D01*
X225089950Y-79778374D01*
X225100290Y-79806676D01*
X225116523Y-79851222D01*
X225130960Y-79890983D01*
X225143087Y-79924534D01*
X225152387Y-79950445D01*
X225158345Y-79967289D01*
X225160445Y-79973637D01*
X225155332Y-79974847D01*
X225140696Y-79975778D01*
X225119876Y-79976135D01*
X225079306Y-79976135D01*
X225055595Y-79911047D01*
X225052408Y-79902310D01*
X225041681Y-79872975D01*
X225027987Y-79835602D01*
X225012347Y-79792974D01*
X224995782Y-79747874D01*
X224979312Y-79703085D01*
X224974379Y-79689675D01*
X224956914Y-79642187D01*
X224939089Y-79593693D01*
X224922091Y-79547424D01*
X224907106Y-79506611D01*
X224895322Y-79474485D01*
X224863903Y-79388760D01*
X224761349Y-79387015D01*
X224737825Y-79386576D01*
X224706422Y-79385856D01*
X224681372Y-79385117D01*
X224664790Y-79384423D01*
X224658792Y-79383840D01*
X224657626Y-79380178D01*
X224653023Y-79367469D01*
X224646118Y-79349072D01*
X224633447Y-79315735D01*
X225126685Y-79315735D01*
X225134493Y-79341795D01*
G37*
G36*
X219335140Y-79497051D02*
G01*
X219360623Y-79497969D01*
X219380287Y-79500955D01*
X219398973Y-79506974D01*
X219421519Y-79516992D01*
X219439344Y-79526320D01*
X219475376Y-79551609D01*
X219504495Y-79581223D01*
X219525699Y-79613424D01*
X219537984Y-79646472D01*
X219540348Y-79678631D01*
X219531789Y-79708162D01*
X219524760Y-79719047D01*
X219508299Y-79735363D01*
X219483346Y-79752420D01*
X219448049Y-79771620D01*
X219430475Y-79781652D01*
X219411972Y-79795287D01*
X219401369Y-79807161D01*
X219396307Y-79828694D01*
X219401224Y-79852665D01*
X219414501Y-79876417D01*
X219434374Y-79897564D01*
X219459074Y-79913723D01*
X219486835Y-79922509D01*
X219501473Y-79924137D01*
X219538822Y-79923850D01*
X219573709Y-79917889D01*
X219601406Y-79906899D01*
X219622625Y-79894379D01*
X219667509Y-79956855D01*
X219647006Y-79967457D01*
X219646471Y-79967733D01*
X219627540Y-79976606D01*
X219610587Y-79983256D01*
X219595688Y-79986212D01*
X219568019Y-79987621D01*
X219535038Y-79986437D01*
X219500741Y-79982967D01*
X219469119Y-79977520D01*
X219444165Y-79970405D01*
X219435813Y-79966860D01*
X219404799Y-79949141D01*
X219374566Y-79925841D01*
X219348876Y-79900139D01*
X219331492Y-79875214D01*
X219317602Y-79843682D01*
X219309269Y-79808075D01*
X219312144Y-79777347D01*
X219326595Y-79750450D01*
X219352991Y-79726337D01*
X219391701Y-79703961D01*
X219416645Y-79690606D01*
X219438279Y-79674532D01*
X219449983Y-79658070D01*
X219453190Y-79639720D01*
X219450301Y-79621381D01*
X219437129Y-79596028D01*
X219415278Y-79575895D01*
X219386870Y-79561904D01*
X219354027Y-79554977D01*
X219318870Y-79556036D01*
X219283520Y-79566002D01*
X219258120Y-79576771D01*
X219243519Y-79558965D01*
X219234254Y-79547467D01*
X219223554Y-79532044D01*
X219221109Y-79522048D01*
X219226756Y-79514881D01*
X219240334Y-79507941D01*
X219252156Y-79503824D01*
X219281451Y-79498821D01*
X219321620Y-79497049D01*
X219335140Y-79497051D01*
G37*
G36*
X223846525Y-79496971D02*
G01*
X223875780Y-79497727D01*
X223897620Y-79500338D01*
X223916799Y-79505685D01*
X223938070Y-79514652D01*
X223973240Y-79534684D01*
X224006842Y-79562315D01*
X224033592Y-79593829D01*
X224052174Y-79627300D01*
X224061273Y-79660805D01*
X224059574Y-79692418D01*
X224055269Y-79702982D01*
X224038408Y-79724099D01*
X224011240Y-79745946D01*
X223975145Y-79767299D01*
X223966960Y-79771620D01*
X223940549Y-79787967D01*
X223924561Y-79803508D01*
X223917487Y-79820148D01*
X223917820Y-79839793D01*
X223925064Y-79864071D01*
X223943677Y-79891002D01*
X223971245Y-79910602D01*
X224006428Y-79921998D01*
X224047886Y-79924321D01*
X224056973Y-79923625D01*
X224090281Y-79918013D01*
X224117086Y-79908726D01*
X224143701Y-79895546D01*
X224163123Y-79922591D01*
X224170273Y-79932965D01*
X224179098Y-79947405D01*
X224182545Y-79955571D01*
X224179023Y-79959949D01*
X224166285Y-79967756D01*
X224147324Y-79976569D01*
X224125395Y-79984727D01*
X224125221Y-79984782D01*
X224114035Y-79986392D01*
X224094417Y-79987666D01*
X224070502Y-79988333D01*
X224050580Y-79987773D01*
X224002161Y-79980604D01*
X223956202Y-79966263D01*
X223917395Y-79946046D01*
X223911100Y-79941588D01*
X223881565Y-79914566D01*
X223857156Y-79882265D01*
X223839382Y-79847515D01*
X223829756Y-79813146D01*
X223829790Y-79781988D01*
X223832318Y-79773169D01*
X223846831Y-79749691D01*
X223871121Y-79727417D01*
X223903145Y-79708396D01*
X223933567Y-79692503D01*
X223956314Y-79676401D01*
X223969028Y-79660629D01*
X223972972Y-79644024D01*
X223972877Y-79640901D01*
X223965901Y-79614441D01*
X223949782Y-79589299D01*
X223927223Y-79569859D01*
X223926956Y-79569697D01*
X223893693Y-79555865D01*
X223857613Y-79553471D01*
X223817158Y-79562411D01*
X223806681Y-79565846D01*
X223786606Y-79570569D01*
X223772836Y-79568459D01*
X223761498Y-79558149D01*
X223748717Y-79538271D01*
X223737163Y-79518655D01*
X223761417Y-79507788D01*
X223778110Y-79502254D01*
X223805526Y-79498213D01*
X223842820Y-79496963D01*
X223846525Y-79496971D01*
G37*
G36*
X216896491Y-79497946D02*
G01*
X216916229Y-79500891D01*
X216934860Y-79506841D01*
X216957206Y-79516752D01*
X216992888Y-79537136D01*
X217025905Y-79564211D01*
X217051161Y-79594373D01*
X217068085Y-79626107D01*
X217076102Y-79657899D01*
X217074643Y-79688236D01*
X217063133Y-79715603D01*
X217041002Y-79738485D01*
X217028028Y-79747040D01*
X217007000Y-79759572D01*
X216984047Y-79772274D01*
X216956200Y-79790021D01*
X216937185Y-79810449D01*
X216930845Y-79831553D01*
X216931004Y-79834214D01*
X216936831Y-79852455D01*
X216948938Y-79873665D01*
X216964434Y-79893424D01*
X216980426Y-79907310D01*
X216984022Y-79909362D01*
X217010368Y-79918399D01*
X217043235Y-79922807D01*
X217078096Y-79922566D01*
X217110426Y-79917653D01*
X217135699Y-79908047D01*
X217159577Y-79893935D01*
X217181412Y-79923922D01*
X217189757Y-79935877D01*
X217197097Y-79950684D01*
X217195170Y-79961032D01*
X217182958Y-79969439D01*
X217159445Y-79978427D01*
X217132226Y-79985109D01*
X217088304Y-79988500D01*
X217041532Y-79985307D01*
X216996327Y-79975914D01*
X216957107Y-79960710D01*
X216923708Y-79938742D01*
X216894090Y-79910045D01*
X216870346Y-79877330D01*
X216853882Y-79842950D01*
X216846103Y-79809259D01*
X216848415Y-79778613D01*
X216856915Y-79758777D01*
X216871970Y-79740719D01*
X216895450Y-79722774D01*
X216929255Y-79703168D01*
X216930163Y-79702684D01*
X216952670Y-79689259D01*
X216971811Y-79675421D01*
X216983529Y-79664091D01*
X216990098Y-79653717D01*
X216992433Y-79641509D01*
X216988329Y-79624721D01*
X216986400Y-79619819D01*
X216974653Y-79600343D01*
X216959116Y-79583019D01*
X216935364Y-79566547D01*
X216899952Y-79554898D01*
X216860805Y-79555219D01*
X216818337Y-79567556D01*
X216816162Y-79568456D01*
X216802190Y-79573872D01*
X216794830Y-79576085D01*
X216791886Y-79573614D01*
X216783389Y-79563180D01*
X216771990Y-79547357D01*
X216752225Y-79518629D01*
X216776448Y-79507977D01*
X216788577Y-79503766D01*
X216817805Y-79498805D01*
X216857820Y-79497049D01*
X216870823Y-79497048D01*
X216896491Y-79497946D01*
G37*
G36*
X218838206Y-79371012D02*
G01*
X218859810Y-79375300D01*
X218882535Y-79381118D01*
X218897859Y-79388737D01*
X218908774Y-79400665D01*
X218918271Y-79419415D01*
X218929343Y-79447497D01*
X218951828Y-79506235D01*
X219025152Y-79506235D01*
X219034888Y-79534810D01*
X219044625Y-79563385D01*
X219010085Y-79563385D01*
X218996077Y-79563797D01*
X218981285Y-79565530D01*
X218975545Y-79568156D01*
X218976447Y-79571555D01*
X218981024Y-79585534D01*
X218988942Y-79608622D01*
X218999606Y-79639111D01*
X219012420Y-79675289D01*
X219026791Y-79715449D01*
X219034862Y-79738093D01*
X219049255Y-79779482D01*
X219062096Y-79817672D01*
X219072673Y-79850484D01*
X219080275Y-79875739D01*
X219084190Y-79891260D01*
X219086384Y-79908537D01*
X219083764Y-79939798D01*
X219071656Y-79963666D01*
X219050396Y-79979268D01*
X219041791Y-79982110D01*
X219017754Y-79986144D01*
X218988974Y-79987806D01*
X218960644Y-79986911D01*
X218937956Y-79983273D01*
X218925882Y-79975852D01*
X218914627Y-79956919D01*
X218911890Y-79949208D01*
X218906676Y-79930789D01*
X218908204Y-79920996D01*
X218917802Y-79917499D01*
X218936795Y-79917966D01*
X218939211Y-79918128D01*
X218957456Y-79918733D01*
X218972141Y-79917366D01*
X218983168Y-79913132D01*
X218990437Y-79905135D01*
X218993848Y-79892481D01*
X218993304Y-79874275D01*
X218988705Y-79849621D01*
X218979952Y-79817625D01*
X218966946Y-79777391D01*
X218949587Y-79728023D01*
X218927777Y-79668628D01*
X218901417Y-79598310D01*
X218889452Y-79566560D01*
X218827478Y-79564739D01*
X218803073Y-79564024D01*
X218782618Y-79562608D01*
X218769869Y-79559120D01*
X218762094Y-79551989D01*
X218756562Y-79539647D01*
X218750541Y-79520522D01*
X218750178Y-79519348D01*
X218748931Y-79513019D01*
X218751414Y-79509146D01*
X218759869Y-79507127D01*
X218776540Y-79506357D01*
X218803668Y-79506235D01*
X218820661Y-79506238D01*
X218841851Y-79505461D01*
X218854728Y-79502076D01*
X218860126Y-79494203D01*
X218858880Y-79479963D01*
X218851824Y-79457475D01*
X218839793Y-79424862D01*
X218818341Y-79367161D01*
X218838206Y-79371012D01*
G37*
G36*
X222513897Y-79498487D02*
G01*
X222555143Y-79510166D01*
X222596349Y-79529769D01*
X222635764Y-79557219D01*
X222650845Y-79569151D01*
X222663358Y-79577930D01*
X222669046Y-79580400D01*
X222669308Y-79579761D01*
X222667755Y-79571079D01*
X222662565Y-79556422D01*
X222660329Y-79550967D01*
X222651515Y-79528607D01*
X222648362Y-79515301D01*
X222651777Y-79508707D01*
X222662665Y-79506479D01*
X222681930Y-79506275D01*
X222718870Y-79506315D01*
X222746575Y-79587237D01*
X222751312Y-79600926D01*
X222763539Y-79635523D01*
X222778651Y-79677603D01*
X222795590Y-79724243D01*
X222813297Y-79772518D01*
X222830712Y-79819503D01*
X222843824Y-79854737D01*
X222857841Y-79892584D01*
X222869774Y-79924999D01*
X222879030Y-79950364D01*
X222885018Y-79967067D01*
X222887145Y-79973490D01*
X222882057Y-79974769D01*
X222867443Y-79975757D01*
X222846641Y-79976135D01*
X222843670Y-79976132D01*
X222822659Y-79975640D01*
X222810546Y-79973408D01*
X222803906Y-79968173D01*
X222799314Y-79958672D01*
X222798313Y-79956092D01*
X222790362Y-79935059D01*
X222779267Y-79905098D01*
X222765971Y-79868795D01*
X222751417Y-79828735D01*
X222736549Y-79787504D01*
X222722310Y-79747685D01*
X222707630Y-79708697D01*
X222691942Y-79673761D01*
X222675894Y-79646480D01*
X222657954Y-79624299D01*
X222636591Y-79604666D01*
X222611958Y-79587097D01*
X222572298Y-79569241D01*
X222531069Y-79563385D01*
X222525324Y-79563457D01*
X222494830Y-79567490D01*
X222473951Y-79578175D01*
X222461263Y-79596179D01*
X222459983Y-79599507D01*
X222456293Y-79615535D01*
X222455916Y-79635027D01*
X222459157Y-79659338D01*
X222466323Y-79689828D01*
X222477719Y-79727854D01*
X222493653Y-79774774D01*
X222514430Y-79831945D01*
X222568174Y-79976681D01*
X222526155Y-79974820D01*
X222484135Y-79972960D01*
X222441097Y-79855485D01*
X222427746Y-79818855D01*
X222413232Y-79778636D01*
X222399932Y-79741396D01*
X222388911Y-79710113D01*
X222381229Y-79687764D01*
X222372036Y-79655854D01*
X222364979Y-79612260D01*
X222365943Y-79574949D01*
X222375004Y-79545641D01*
X222383551Y-79532577D01*
X222407438Y-79511779D01*
X222438293Y-79499216D01*
X222474363Y-79494812D01*
X222513897Y-79498487D01*
G37*
G36*
X220421754Y-79314541D02*
G01*
X220474621Y-79331394D01*
X220524010Y-79356111D01*
X220567445Y-79388212D01*
X220590418Y-79413316D01*
X220613563Y-79447811D01*
X220631834Y-79484835D01*
X220642444Y-79519511D01*
X220643418Y-79549695D01*
X220633381Y-79583507D01*
X220612048Y-79614930D01*
X220580172Y-79642900D01*
X220538504Y-79666355D01*
X220521781Y-79674171D01*
X220485726Y-79694213D01*
X220460871Y-79714305D01*
X220446209Y-79735729D01*
X220440735Y-79759768D01*
X220443444Y-79787705D01*
X220447355Y-79802264D01*
X220465507Y-79839129D01*
X220492987Y-79869885D01*
X220528098Y-79893781D01*
X220569141Y-79910069D01*
X220614418Y-79917999D01*
X220662231Y-79916820D01*
X220710883Y-79905784D01*
X220730473Y-79898767D01*
X220747570Y-79891667D01*
X220756403Y-79886734D01*
X220758757Y-79884707D01*
X220766672Y-79880885D01*
X220767039Y-79880964D01*
X220773383Y-79887068D01*
X220784353Y-79901090D01*
X220798066Y-79920495D01*
X220812639Y-79942750D01*
X220811929Y-79947697D01*
X220802027Y-79956130D01*
X220784184Y-79965539D01*
X220760884Y-79974665D01*
X220734612Y-79982251D01*
X220720844Y-79984786D01*
X220686901Y-79987563D01*
X220648164Y-79987466D01*
X220609641Y-79984597D01*
X220576336Y-79979057D01*
X220553863Y-79972788D01*
X220502781Y-79951043D01*
X220456361Y-79920988D01*
X220416209Y-79884246D01*
X220383934Y-79842438D01*
X220361143Y-79797186D01*
X220349442Y-79750113D01*
X220348382Y-79730208D01*
X220353263Y-79699737D01*
X220367275Y-79672228D01*
X220391290Y-79646594D01*
X220426183Y-79621747D01*
X220472826Y-79596602D01*
X220476179Y-79594958D01*
X220510445Y-79575510D01*
X220533420Y-79556220D01*
X220546316Y-79535777D01*
X220550345Y-79512873D01*
X220544860Y-79477305D01*
X220528780Y-79444650D01*
X220503823Y-79417039D01*
X220471712Y-79395370D01*
X220434170Y-79380537D01*
X220392920Y-79373436D01*
X220349686Y-79374962D01*
X220306191Y-79386010D01*
X220290365Y-79391306D01*
X220273715Y-79395248D01*
X220264760Y-79395211D01*
X220261142Y-79391882D01*
X220251360Y-79380091D01*
X220239423Y-79363690D01*
X220220436Y-79336094D01*
X220243196Y-79325293D01*
X220267027Y-79315974D01*
X220315482Y-79306351D01*
X220367882Y-79306034D01*
X220421754Y-79314541D01*
G37*
G36*
X223359310Y-79370993D02*
G01*
X223381993Y-79375503D01*
X223404593Y-79381323D01*
X223419727Y-79388868D01*
X223430292Y-79400553D01*
X223439183Y-79418792D01*
X223449300Y-79446000D01*
X223469834Y-79503060D01*
X223507513Y-79504919D01*
X223508348Y-79504961D01*
X223529196Y-79506451D01*
X223541109Y-79509500D01*
X223547734Y-79515939D01*
X223552718Y-79527595D01*
X223558851Y-79547126D01*
X223558106Y-79557938D01*
X223548590Y-79562468D01*
X223528495Y-79563385D01*
X223520193Y-79563537D01*
X223502543Y-79565972D01*
X223496745Y-79571450D01*
X223498028Y-79577040D01*
X223503075Y-79593197D01*
X223511276Y-79617475D01*
X223521908Y-79647744D01*
X223534248Y-79681878D01*
X223534388Y-79682260D01*
X223554471Y-79737408D01*
X223570444Y-79782161D01*
X223582748Y-79817974D01*
X223591826Y-79846299D01*
X223598119Y-79868589D01*
X223602067Y-79886296D01*
X223604112Y-79900874D01*
X223604695Y-79913774D01*
X223604313Y-79927158D01*
X223599848Y-79951621D01*
X223589188Y-79968139D01*
X223570858Y-79979578D01*
X223561829Y-79982495D01*
X223537947Y-79986312D01*
X223509387Y-79987808D01*
X223481278Y-79986817D01*
X223458747Y-79983177D01*
X223453566Y-79981141D01*
X223442013Y-79970115D01*
X223431872Y-79948885D01*
X223420770Y-79918985D01*
X223457544Y-79918985D01*
X223471260Y-79918719D01*
X223494940Y-79915538D01*
X223508805Y-79907520D01*
X223514678Y-79893116D01*
X223514383Y-79870783D01*
X223513923Y-79867791D01*
X223509768Y-79851061D01*
X223502126Y-79825320D01*
X223491748Y-79792770D01*
X223479387Y-79755609D01*
X223465795Y-79716040D01*
X223451725Y-79676261D01*
X223437928Y-79638473D01*
X223425158Y-79604877D01*
X223414166Y-79577672D01*
X223410518Y-79571050D01*
X223404620Y-79566858D01*
X223393866Y-79564556D01*
X223375641Y-79563584D01*
X223347333Y-79563385D01*
X223286547Y-79563385D01*
X223277346Y-79541363D01*
X223276061Y-79538223D01*
X223270432Y-79522572D01*
X223268145Y-79512788D01*
X223268491Y-79511937D01*
X223277296Y-79508893D01*
X223296771Y-79506930D01*
X223325295Y-79506235D01*
X223326772Y-79506234D01*
X223354297Y-79505804D01*
X223371343Y-79504344D01*
X223380022Y-79501513D01*
X223382445Y-79496969D01*
X223381602Y-79492045D01*
X223377252Y-79476422D01*
X223370036Y-79453863D01*
X223360897Y-79427413D01*
X223339349Y-79367123D01*
X223359310Y-79370993D01*
G37*
G36*
X218640796Y-79696916D02*
G01*
X218651138Y-79718481D01*
X218671883Y-79773669D01*
X218682229Y-79823961D01*
X218682287Y-79868811D01*
X218672169Y-79907676D01*
X218651989Y-79940009D01*
X218621857Y-79965266D01*
X218581887Y-79982901D01*
X218579329Y-79983615D01*
X218554904Y-79987104D01*
X218522338Y-79987934D01*
X218485100Y-79986413D01*
X218446660Y-79982852D01*
X218410485Y-79977559D01*
X218380047Y-79970844D01*
X218358814Y-79963016D01*
X218355147Y-79959019D01*
X218349436Y-79945725D01*
X218345139Y-79928583D01*
X218343420Y-79912779D01*
X218345445Y-79903502D01*
X218348028Y-79903353D01*
X218359803Y-79905764D01*
X218377394Y-79910813D01*
X218383783Y-79912535D01*
X218407409Y-79916662D01*
X218436966Y-79919740D01*
X218467545Y-79921203D01*
X218498512Y-79920724D01*
X218533559Y-79916172D01*
X218559446Y-79906413D01*
X218577880Y-79890712D01*
X218590569Y-79868336D01*
X218593564Y-79860443D01*
X218599666Y-79836361D01*
X218599672Y-79812110D01*
X218593792Y-79782096D01*
X218586688Y-79753885D01*
X218250931Y-79753885D01*
X218239081Y-79726897D01*
X218236540Y-79720897D01*
X218223325Y-79678385D01*
X218217425Y-79635474D01*
X218217529Y-79632385D01*
X218296173Y-79632385D01*
X218297365Y-79658569D01*
X218302288Y-79680446D01*
X218308481Y-79696735D01*
X218435638Y-79696735D01*
X218443428Y-79696724D01*
X218481360Y-79696356D01*
X218514153Y-79695524D01*
X218539917Y-79694312D01*
X218556761Y-79692804D01*
X218562795Y-79691083D01*
X218562691Y-79690116D01*
X218557508Y-79679290D01*
X218546133Y-79662550D01*
X218530822Y-79642705D01*
X218513830Y-79622567D01*
X218497411Y-79604946D01*
X218483821Y-79592652D01*
X218462648Y-79578901D01*
X218432858Y-79564501D01*
X218403164Y-79554457D01*
X218378373Y-79550685D01*
X218374903Y-79550766D01*
X218348239Y-79555960D01*
X218323672Y-79567554D01*
X218306450Y-79583177D01*
X218304121Y-79587248D01*
X218298497Y-79606932D01*
X218296173Y-79632385D01*
X218217529Y-79632385D01*
X218218785Y-79594896D01*
X218227349Y-79559385D01*
X218243060Y-79531675D01*
X218257218Y-79519445D01*
X218283937Y-79506005D01*
X218316165Y-79496891D01*
X218349889Y-79493535D01*
X218370345Y-79494923D01*
X218408011Y-79502186D01*
X218447330Y-79514370D01*
X218482945Y-79530007D01*
X218498534Y-79539437D01*
X218529801Y-79563669D01*
X218562497Y-79594532D01*
X218593785Y-79629028D01*
X218620831Y-79664155D01*
X218637241Y-79691083D01*
X218640796Y-79696916D01*
G37*
G36*
X224706479Y-79731220D02*
G01*
X224728272Y-79795160D01*
X224731952Y-79811713D01*
X224734904Y-79856302D01*
X224727224Y-79896368D01*
X224709482Y-79930649D01*
X224682249Y-79957883D01*
X224646095Y-79976810D01*
X224635122Y-79980064D01*
X224601114Y-79985514D01*
X224560581Y-79987321D01*
X224517512Y-79985580D01*
X224475895Y-79980389D01*
X224439720Y-79971841D01*
X224433088Y-79969726D01*
X224415011Y-79963254D01*
X224405185Y-79956873D01*
X224400540Y-79947719D01*
X224398007Y-79932928D01*
X224397167Y-79926041D01*
X224396071Y-79910894D01*
X224396755Y-79903742D01*
X224398581Y-79903409D01*
X224409485Y-79905121D01*
X224426316Y-79909565D01*
X224449342Y-79915387D01*
X224492225Y-79921752D01*
X224534641Y-79923208D01*
X224571137Y-79919386D01*
X224572572Y-79919080D01*
X224606589Y-79906136D01*
X224631597Y-79884834D01*
X224646951Y-79856351D01*
X224652008Y-79821864D01*
X224646121Y-79782550D01*
X224638095Y-79753885D01*
X224471423Y-79753885D01*
X224455439Y-79753873D01*
X224404751Y-79753626D01*
X224365350Y-79753017D01*
X224336127Y-79751996D01*
X224315977Y-79750511D01*
X224303791Y-79748511D01*
X224298463Y-79745947D01*
X224294140Y-79739394D01*
X224284348Y-79716340D01*
X224276168Y-79686150D01*
X224270539Y-79652751D01*
X224269205Y-79632385D01*
X224347723Y-79632385D01*
X224348915Y-79658569D01*
X224353838Y-79680446D01*
X224360031Y-79696735D01*
X224487188Y-79696735D01*
X224495176Y-79696728D01*
X224533011Y-79696512D01*
X224565745Y-79696024D01*
X224591479Y-79695316D01*
X224608312Y-79694436D01*
X224614345Y-79693433D01*
X224614310Y-79692853D01*
X224609631Y-79682029D01*
X224598607Y-79665127D01*
X224583414Y-79645038D01*
X224566228Y-79624656D01*
X224549226Y-79606874D01*
X224527230Y-79588710D01*
X224494155Y-79568857D01*
X224460310Y-79555546D01*
X224429753Y-79550685D01*
X224426244Y-79550769D01*
X224399691Y-79555984D01*
X224375184Y-79567582D01*
X224358000Y-79583177D01*
X224355671Y-79587248D01*
X224350047Y-79606932D01*
X224347723Y-79632385D01*
X224269205Y-79632385D01*
X224268399Y-79620071D01*
X224268841Y-79595347D01*
X224271158Y-79576408D01*
X224276425Y-79561362D01*
X224285706Y-79545635D01*
X224291608Y-79537329D01*
X224313906Y-79515488D01*
X224342083Y-79501977D01*
X224378978Y-79495263D01*
X224392861Y-79494418D01*
X224446902Y-79498779D01*
X224499773Y-79514602D01*
X224550327Y-79540903D01*
X224597421Y-79576699D01*
X224639908Y-79621006D01*
X224676642Y-79672841D01*
X224687166Y-79693433D01*
X224706479Y-79731220D01*
G37*
G36*
X222199393Y-79852422D02*
G01*
X222192148Y-79892562D01*
X222174525Y-79926188D01*
X222146541Y-79952874D01*
X222138485Y-79957944D01*
X222103630Y-79971138D01*
X222063439Y-79975357D01*
X222020353Y-79971015D01*
X221976816Y-79958527D01*
X221935270Y-79938306D01*
X221898158Y-79910767D01*
X221897844Y-79910482D01*
X221887274Y-79902296D01*
X221881542Y-79900439D01*
X221881977Y-79906132D01*
X221886738Y-79920833D01*
X221894866Y-79941467D01*
X221905098Y-79965132D01*
X221916175Y-79988928D01*
X221926834Y-80009953D01*
X221935815Y-80025306D01*
X221950904Y-80044707D01*
X221985417Y-80075839D01*
X222026379Y-80100358D01*
X222070399Y-80116421D01*
X222114086Y-80122185D01*
X222123969Y-80121805D01*
X222152319Y-80118053D01*
X222182562Y-80111267D01*
X222209839Y-80102657D01*
X222229291Y-80093438D01*
X222230712Y-80092513D01*
X222238876Y-80088313D01*
X222245446Y-80089646D01*
X222253193Y-80098258D01*
X222264888Y-80115900D01*
X222266195Y-80117939D01*
X222276793Y-80135138D01*
X222281111Y-80145261D01*
X222279826Y-80151520D01*
X222273621Y-80157125D01*
X222264784Y-80161881D01*
X222246030Y-80168932D01*
X222223570Y-80175340D01*
X222191165Y-80181534D01*
X222128233Y-80184598D01*
X222066469Y-80176356D01*
X222007757Y-80157321D01*
X221953981Y-80128009D01*
X221907024Y-80088932D01*
X221906336Y-80088229D01*
X221889796Y-80070309D01*
X221874765Y-80051508D01*
X221860557Y-80030428D01*
X221846484Y-80005672D01*
X221831861Y-79975843D01*
X221816000Y-79939544D01*
X221798215Y-79895378D01*
X221777819Y-79841948D01*
X221754124Y-79777855D01*
X221750452Y-79767827D01*
X221733111Y-79720647D01*
X221716503Y-79675744D01*
X221703717Y-79641404D01*
X221796889Y-79641404D01*
X221800559Y-79664298D01*
X221807960Y-79693712D01*
X221818101Y-79726538D01*
X221829991Y-79759671D01*
X221842641Y-79790001D01*
X221855059Y-79814422D01*
X221872407Y-79838878D01*
X221907284Y-79871798D01*
X221950105Y-79897533D01*
X221968599Y-79904942D01*
X222005747Y-79912610D01*
X222039803Y-79910487D01*
X222069134Y-79899356D01*
X222092107Y-79880000D01*
X222107089Y-79853200D01*
X222112445Y-79819740D01*
X222112319Y-79813909D01*
X222105911Y-79773360D01*
X222091024Y-79729532D01*
X222069330Y-79685874D01*
X222042501Y-79645837D01*
X222012209Y-79612872D01*
X221983488Y-79590543D01*
X221947290Y-79571035D01*
X221911664Y-79560233D01*
X221878176Y-79557996D01*
X221848390Y-79564188D01*
X221823873Y-79578669D01*
X221806191Y-79601301D01*
X221796907Y-79631944D01*
X221796889Y-79641404D01*
X221703717Y-79641404D01*
X221701350Y-79635048D01*
X221688374Y-79600492D01*
X221678296Y-79574008D01*
X221671837Y-79557527D01*
X221671661Y-79557094D01*
X221663385Y-79535970D01*
X221657491Y-79519484D01*
X221655245Y-79511173D01*
X221658647Y-79508988D01*
X221671617Y-79507368D01*
X221690963Y-79507505D01*
X221692939Y-79507611D01*
X221712546Y-79509162D01*
X221723765Y-79512749D01*
X221730587Y-79520833D01*
X221737001Y-79535870D01*
X221745163Y-79555221D01*
X221751854Y-79565776D01*
X221757185Y-79565843D01*
X221762271Y-79556328D01*
X221777530Y-79531847D01*
X221803046Y-79511818D01*
X221835950Y-79499390D01*
X221853810Y-79496365D01*
X221901433Y-79496678D01*
X221950285Y-79507854D01*
X221998750Y-79528919D01*
X222045212Y-79558898D01*
X222088055Y-79596818D01*
X222125664Y-79641704D01*
X222156423Y-79692583D01*
X222158700Y-79697181D01*
X222182685Y-79754306D01*
X222196244Y-79806195D01*
X222197167Y-79819740D01*
X222199393Y-79852422D01*
G37*
G36*
X217194370Y-76874160D02*
G01*
X217246364Y-77067835D01*
X217252880Y-77092158D01*
X217265145Y-77138231D01*
X217276095Y-77179748D01*
X217285332Y-77215169D01*
X217292453Y-77242953D01*
X217297060Y-77261560D01*
X217298751Y-77269447D01*
X217297071Y-77271105D01*
X217289951Y-77272778D01*
X217276417Y-77274149D01*
X217255569Y-77275240D01*
X217226512Y-77276078D01*
X217188346Y-77276687D01*
X217140174Y-77277091D01*
X217081098Y-77277315D01*
X217010220Y-77277385D01*
X216978370Y-77277391D01*
X216915174Y-77277461D01*
X216863144Y-77277641D01*
X216821216Y-77277968D01*
X216788328Y-77278479D01*
X216763416Y-77279211D01*
X216745418Y-77280200D01*
X216733270Y-77281485D01*
X216725909Y-77283102D01*
X216722272Y-77285089D01*
X216721295Y-77287483D01*
X216722778Y-77296985D01*
X216726946Y-77316095D01*
X216733150Y-77341911D01*
X216740741Y-77371621D01*
X216749273Y-77404142D01*
X216760473Y-77446894D01*
X216772064Y-77491191D01*
X216782567Y-77531385D01*
X216786148Y-77545051D01*
X216794336Y-77576143D01*
X216805047Y-77616678D01*
X216817816Y-77664904D01*
X216832178Y-77719070D01*
X216847670Y-77777423D01*
X216863826Y-77838212D01*
X216880183Y-77899685D01*
X216883231Y-77911136D01*
X216901764Y-77980885D01*
X216921536Y-78055482D01*
X216941793Y-78132074D01*
X216961784Y-78207808D01*
X216980754Y-78279831D01*
X216997950Y-78345291D01*
X217012620Y-78401335D01*
X217015343Y-78411762D01*
X217032349Y-78476734D01*
X217051133Y-78548307D01*
X217070700Y-78622701D01*
X217090057Y-78696138D01*
X217108207Y-78764841D01*
X217124158Y-78825031D01*
X217133173Y-78859070D01*
X217145431Y-78905664D01*
X217156317Y-78947405D01*
X217165447Y-78982808D01*
X217172442Y-79010392D01*
X217176918Y-79028673D01*
X217178495Y-79036168D01*
X217178232Y-79036589D01*
X217169302Y-79038451D01*
X217147683Y-79039974D01*
X217113382Y-79041160D01*
X217066405Y-79042007D01*
X217006759Y-79042515D01*
X216934448Y-79042685D01*
X216875011Y-79042656D01*
X216823709Y-79042529D01*
X216782787Y-79042250D01*
X216751055Y-79041767D01*
X216727325Y-79041025D01*
X216710407Y-79039972D01*
X216699110Y-79038553D01*
X216692246Y-79036716D01*
X216688625Y-79034407D01*
X216687057Y-79031572D01*
X216686619Y-79030035D01*
X216683282Y-79017691D01*
X216677302Y-78995201D01*
X216669108Y-78964193D01*
X216659129Y-78926291D01*
X216647794Y-78883121D01*
X216635531Y-78836310D01*
X216624284Y-78793322D01*
X216608482Y-78732923D01*
X216592123Y-78670400D01*
X216576152Y-78609355D01*
X216561510Y-78553390D01*
X216549140Y-78506110D01*
X216544734Y-78489270D01*
X216531549Y-78438941D01*
X216518413Y-78388897D01*
X216504994Y-78337880D01*
X216490960Y-78284637D01*
X216475980Y-78227911D01*
X216459720Y-78166447D01*
X216441849Y-78098989D01*
X216422036Y-78024282D01*
X216399947Y-77941070D01*
X216375251Y-77848098D01*
X216347616Y-77744110D01*
X216341829Y-77722294D01*
X216326705Y-77664931D01*
X216310632Y-77603567D01*
X216294670Y-77542268D01*
X216279881Y-77485102D01*
X216267323Y-77436135D01*
X216261315Y-77412789D01*
X216250981Y-77373700D01*
X216241609Y-77339566D01*
X216233723Y-77312230D01*
X216227846Y-77293534D01*
X216224502Y-77285322D01*
X216222174Y-77283972D01*
X216213943Y-77282236D01*
X216199219Y-77280808D01*
X216177117Y-77279664D01*
X216146750Y-77278781D01*
X216107231Y-77278135D01*
X216057674Y-77277702D01*
X215997190Y-77277460D01*
X215924894Y-77277385D01*
X215631699Y-77277385D01*
X215577663Y-77074161D01*
X215523628Y-76870938D01*
X217194370Y-76874160D01*
G37*
G36*
X217747639Y-79499608D02*
G01*
X217789297Y-79512278D01*
X217828871Y-79532018D01*
X217863229Y-79557928D01*
X217869606Y-79563579D01*
X217881368Y-79572143D01*
X217887615Y-79573931D01*
X217888192Y-79570775D01*
X217886125Y-79558273D01*
X217880885Y-79540372D01*
X217877294Y-79529682D01*
X217872517Y-79514810D01*
X217870645Y-79507961D01*
X217874041Y-79507141D01*
X217887020Y-79506852D01*
X217906386Y-79507505D01*
X217942126Y-79509410D01*
X217956201Y-79550685D01*
X217970814Y-79592858D01*
X217989877Y-79646681D01*
X218012502Y-79709629D01*
X218038191Y-79780313D01*
X218066444Y-79857344D01*
X218110394Y-79976679D01*
X218068477Y-79974819D01*
X218026559Y-79972960D01*
X218008299Y-79922160D01*
X217995398Y-79886302D01*
X217974694Y-79829010D01*
X217957459Y-79781857D01*
X217943198Y-79743654D01*
X217931412Y-79713212D01*
X217921606Y-79689346D01*
X217913283Y-79670865D01*
X217905945Y-79656583D01*
X217899096Y-79645311D01*
X217892239Y-79635862D01*
X217884877Y-79627047D01*
X217877920Y-79619470D01*
X217848724Y-79594232D01*
X217817611Y-79576024D01*
X217786448Y-79565118D01*
X217757104Y-79561785D01*
X217731445Y-79566297D01*
X217711340Y-79578926D01*
X217698656Y-79599944D01*
X217697587Y-79603361D01*
X217695021Y-79615197D01*
X217694432Y-79628381D01*
X217696195Y-79644412D01*
X217700683Y-79664788D01*
X217708268Y-79691010D01*
X217719323Y-79724575D01*
X217734222Y-79766985D01*
X217753337Y-79819737D01*
X217764660Y-79850835D01*
X217778374Y-79888820D01*
X217790072Y-79921592D01*
X217799162Y-79947476D01*
X217805051Y-79964794D01*
X217807145Y-79971870D01*
X217802505Y-79973937D01*
X217788315Y-79975118D01*
X217767905Y-79974850D01*
X217728664Y-79972960D01*
X217717501Y-79944385D01*
X217717212Y-79943641D01*
X217711327Y-79927948D01*
X217702148Y-79902858D01*
X217690542Y-79870766D01*
X217677375Y-79834068D01*
X217663513Y-79795160D01*
X217653036Y-79765840D01*
X217637697Y-79724247D01*
X217624760Y-79691807D01*
X217613258Y-79666678D01*
X217602221Y-79647018D01*
X217590682Y-79630982D01*
X217577673Y-79616730D01*
X217562224Y-79602418D01*
X217544553Y-79588478D01*
X217512214Y-79570421D01*
X217480717Y-79561360D01*
X217451789Y-79561185D01*
X217427160Y-79569786D01*
X217408558Y-79587054D01*
X217397711Y-79612877D01*
X217396358Y-79622064D01*
X217396371Y-79635521D01*
X217398698Y-79652249D01*
X217403731Y-79673671D01*
X217411860Y-79701212D01*
X217423477Y-79736295D01*
X217438974Y-79780344D01*
X217458743Y-79834782D01*
X217466676Y-79856455D01*
X217480162Y-79893457D01*
X217491722Y-79925382D01*
X217500742Y-79950519D01*
X217506604Y-79967158D01*
X217508695Y-79973590D01*
X217503916Y-79974792D01*
X217489573Y-79975745D01*
X217469008Y-79976096D01*
X217429320Y-79976057D01*
X217402867Y-79901483D01*
X217393976Y-79876543D01*
X217379558Y-79836459D01*
X217365176Y-79796826D01*
X217352915Y-79763410D01*
X217341238Y-79730836D01*
X217326402Y-79685664D01*
X217315144Y-79646320D01*
X217307997Y-79614727D01*
X217305495Y-79592806D01*
X217306020Y-79586494D01*
X217310855Y-79566603D01*
X217319111Y-79545619D01*
X217331066Y-79526982D01*
X217355824Y-79506778D01*
X217388010Y-79496009D01*
X217426715Y-79494925D01*
X217471030Y-79503776D01*
X217473209Y-79504443D01*
X217502206Y-79516178D01*
X217533073Y-79532821D01*
X217561116Y-79551575D01*
X217581639Y-79569645D01*
X217584597Y-79572725D01*
X217597574Y-79581356D01*
X217606790Y-79579565D01*
X217610295Y-79567499D01*
X217612423Y-79554494D01*
X217623819Y-79532552D01*
X217642249Y-79513379D01*
X217664503Y-79500916D01*
X217670615Y-79499073D01*
X217707034Y-79494906D01*
X217747639Y-79499608D01*
G37*
G36*
X220846833Y-76261748D02*
G01*
X221125020Y-76262111D01*
X221150420Y-76292375D01*
X221164966Y-76309597D01*
X221190546Y-76339493D01*
X221221396Y-76375134D01*
X221258322Y-76417445D01*
X221302128Y-76467350D01*
X221353620Y-76525775D01*
X221355624Y-76528046D01*
X221390715Y-76567895D01*
X221430759Y-76613506D01*
X221472597Y-76661272D01*
X221513068Y-76707584D01*
X221549014Y-76748836D01*
X221567675Y-76770282D01*
X221594640Y-76801225D01*
X221618310Y-76828332D01*
X221637426Y-76850163D01*
X221650730Y-76865282D01*
X221656964Y-76872249D01*
X221662152Y-76877991D01*
X221675139Y-76892659D01*
X221694424Y-76914579D01*
X221718892Y-76942477D01*
X221747429Y-76975076D01*
X221778918Y-77011102D01*
X221812247Y-77049279D01*
X221846300Y-77088332D01*
X221879963Y-77126985D01*
X221912119Y-77163962D01*
X221941656Y-77197989D01*
X221942450Y-77198902D01*
X221953760Y-77211774D01*
X221971080Y-77231338D01*
X221992195Y-77255097D01*
X222014895Y-77280560D01*
X222034396Y-77302511D01*
X222062440Y-77334297D01*
X222093952Y-77370189D01*
X222126343Y-77407234D01*
X222157023Y-77442485D01*
X222184190Y-77473704D01*
X222215598Y-77509630D01*
X222246038Y-77544292D01*
X222273066Y-77574909D01*
X222294237Y-77598697D01*
X222346025Y-77656485D01*
X222356251Y-77617747D01*
X222359414Y-77605516D01*
X222366633Y-77576781D01*
X222376186Y-77538099D01*
X222387715Y-77490954D01*
X222400861Y-77436833D01*
X222415266Y-77377220D01*
X222430570Y-77313602D01*
X222446416Y-77247463D01*
X222462443Y-77180291D01*
X222478295Y-77113569D01*
X222493612Y-77048785D01*
X222499177Y-77025286D01*
X222510240Y-76979207D01*
X222520368Y-76937848D01*
X222529173Y-76902740D01*
X222536270Y-76875413D01*
X222541271Y-76857397D01*
X222543790Y-76850223D01*
X222546317Y-76849782D01*
X222559725Y-76849449D01*
X222583082Y-76849614D01*
X222614647Y-76850213D01*
X222652682Y-76851183D01*
X222695447Y-76852459D01*
X222741201Y-76853977D01*
X222788206Y-76855675D01*
X222834722Y-76857487D01*
X222879009Y-76859351D01*
X222919328Y-76861201D01*
X222953938Y-76862975D01*
X222981101Y-76864608D01*
X222999077Y-76866037D01*
X223006125Y-76867197D01*
X223005677Y-76870889D01*
X223002320Y-76885363D01*
X222996190Y-76909296D01*
X222987719Y-76941109D01*
X222977338Y-76979221D01*
X222965478Y-77022054D01*
X222952570Y-77068028D01*
X222939046Y-77115565D01*
X222925336Y-77163085D01*
X222922452Y-77173131D01*
X222915924Y-77196113D01*
X222906579Y-77229154D01*
X222894763Y-77271025D01*
X222880821Y-77320498D01*
X222865098Y-77376346D01*
X222847940Y-77437340D01*
X222829691Y-77502252D01*
X222810697Y-77569854D01*
X222791303Y-77638918D01*
X222771854Y-77708215D01*
X222752696Y-77776519D01*
X222734174Y-77842601D01*
X222716632Y-77905232D01*
X222700417Y-77963185D01*
X222692528Y-77991501D01*
X222681276Y-78032254D01*
X222671365Y-78068590D01*
X222663320Y-78098559D01*
X222657670Y-78120207D01*
X222654941Y-78131585D01*
X222654513Y-78139577D01*
X222657399Y-78162688D01*
X222664863Y-78197161D01*
X222676849Y-78242710D01*
X222687026Y-78279216D01*
X222704621Y-78342446D01*
X222723034Y-78408747D01*
X222741964Y-78477025D01*
X222761110Y-78546187D01*
X222780170Y-78615139D01*
X222798844Y-78682788D01*
X222816830Y-78748041D01*
X222833828Y-78809803D01*
X222849537Y-78866983D01*
X222863654Y-78918486D01*
X222875880Y-78963218D01*
X222885913Y-79000087D01*
X222893453Y-79027999D01*
X222898197Y-79045861D01*
X222899845Y-79052579D01*
X222896466Y-79053648D01*
X222882368Y-79054524D01*
X222859215Y-79054751D01*
X222829084Y-79054316D01*
X222794056Y-79053207D01*
X222789420Y-79053029D01*
X222748327Y-79051764D01*
X222698989Y-79050667D01*
X222645338Y-79049803D01*
X222591307Y-79049237D01*
X222540827Y-79049035D01*
X222393386Y-79049035D01*
X222376429Y-78987122D01*
X222375990Y-78985516D01*
X222370963Y-78966851D01*
X222363087Y-78937325D01*
X222352693Y-78898191D01*
X222340113Y-78850706D01*
X222325679Y-78796123D01*
X222309724Y-78735697D01*
X222292577Y-78670683D01*
X222274573Y-78602335D01*
X222256041Y-78531907D01*
X222152610Y-78138604D01*
X222098542Y-78074707D01*
X222087137Y-78061230D01*
X222066872Y-78037283D01*
X222040104Y-78005653D01*
X222007757Y-77967430D01*
X221970751Y-77923703D01*
X221930009Y-77875561D01*
X221886452Y-77824093D01*
X221841000Y-77770388D01*
X221794577Y-77715535D01*
X221789035Y-77708986D01*
X221734364Y-77644377D01*
X221674793Y-77573963D01*
X221612195Y-77499959D01*
X221548441Y-77424577D01*
X221485404Y-77350033D01*
X221424956Y-77278539D01*
X221368970Y-77212310D01*
X221319318Y-77153560D01*
X221305862Y-77137637D01*
X221260725Y-77084237D01*
X221216101Y-77031464D01*
X221173088Y-76980614D01*
X221132783Y-76932983D01*
X221096283Y-76889869D01*
X221064685Y-76852567D01*
X221039088Y-76822374D01*
X221020587Y-76800588D01*
X220988481Y-76762803D01*
X220947008Y-76713911D01*
X220904211Y-76663381D01*
X220860886Y-76612155D01*
X220817826Y-76561178D01*
X220775827Y-76511394D01*
X220735683Y-76463746D01*
X220698188Y-76419178D01*
X220664138Y-76378635D01*
X220634327Y-76343060D01*
X220609549Y-76313398D01*
X220590599Y-76290591D01*
X220578272Y-76275585D01*
X220573362Y-76269322D01*
X220573955Y-76267687D01*
X220579624Y-76266002D01*
X220591590Y-76264637D01*
X220610767Y-76263567D01*
X220638070Y-76262766D01*
X220674413Y-76262209D01*
X220720712Y-76261870D01*
X220777880Y-76261725D01*
X220846833Y-76261748D01*
G37*
G36*
X220608409Y-76872507D02*
G01*
X220895338Y-76874160D01*
X220945032Y-77061485D01*
X220946840Y-77068301D01*
X220960418Y-77119537D01*
X220973859Y-77170338D01*
X220986540Y-77218336D01*
X220997835Y-77261163D01*
X221007118Y-77296452D01*
X221013766Y-77321835D01*
X221014508Y-77324680D01*
X221024664Y-77363537D01*
X221037576Y-77412811D01*
X221052793Y-77470789D01*
X221069865Y-77535760D01*
X221088341Y-77606012D01*
X221107771Y-77679833D01*
X221127704Y-77755511D01*
X221147689Y-77831335D01*
X221167277Y-77905592D01*
X221186015Y-77976571D01*
X221203455Y-78042560D01*
X221209729Y-78066300D01*
X221226912Y-78131419D01*
X221245967Y-78203759D01*
X221265949Y-78279723D01*
X221285912Y-78355718D01*
X221304912Y-78428145D01*
X221322002Y-78493410D01*
X221332200Y-78532356D01*
X221348834Y-78595729D01*
X221365914Y-78660642D01*
X221382710Y-78724326D01*
X221398493Y-78784019D01*
X221412533Y-78836952D01*
X221424100Y-78880362D01*
X221432735Y-78912772D01*
X221443070Y-78951904D01*
X221451884Y-78985669D01*
X221458732Y-79012343D01*
X221463168Y-79030203D01*
X221464745Y-79037524D01*
X221459719Y-79038610D01*
X221443345Y-79039718D01*
X221416997Y-79040698D01*
X221382104Y-79041518D01*
X221340098Y-79042144D01*
X221292409Y-79042544D01*
X221240467Y-79042685D01*
X221016189Y-79042685D01*
X220972865Y-78879172D01*
X220965522Y-78851461D01*
X220951492Y-78798530D01*
X220937224Y-78744717D01*
X220923590Y-78693312D01*
X220911463Y-78647605D01*
X220901715Y-78610885D01*
X220879176Y-78525724D01*
X220832993Y-78349174D01*
X220790279Y-78182864D01*
X220750721Y-78025537D01*
X220714006Y-77875936D01*
X220679817Y-77732804D01*
X220647843Y-77594885D01*
X220639840Y-77560017D01*
X220630701Y-77520724D01*
X220622733Y-77487050D01*
X220616343Y-77460687D01*
X220611937Y-77443327D01*
X220609919Y-77436664D01*
X220607826Y-77435400D01*
X220604888Y-77438012D01*
X220601576Y-77447111D01*
X220597484Y-77464209D01*
X220592207Y-77490821D01*
X220585339Y-77528462D01*
X220580616Y-77554686D01*
X220571517Y-77603847D01*
X220562259Y-77651772D01*
X220552624Y-77699300D01*
X220542393Y-77747268D01*
X220531348Y-77796512D01*
X220519270Y-77847871D01*
X220505941Y-77902181D01*
X220491143Y-77960281D01*
X220474658Y-78023007D01*
X220456266Y-78091197D01*
X220435749Y-78165689D01*
X220412889Y-78247319D01*
X220387468Y-78336925D01*
X220359267Y-78435345D01*
X220328067Y-78543416D01*
X220293651Y-78661975D01*
X220255800Y-78791860D01*
X220183522Y-79039510D01*
X219664520Y-79042670D01*
X219650303Y-78983940D01*
X219645800Y-78965791D01*
X219637953Y-78934971D01*
X219627963Y-78896288D01*
X219616451Y-78852129D01*
X219604036Y-78804882D01*
X219591339Y-78756935D01*
X219585372Y-78734494D01*
X219560235Y-78639930D01*
X219537823Y-78555568D01*
X219517691Y-78479714D01*
X219499389Y-78410674D01*
X219482470Y-78346755D01*
X219466487Y-78286261D01*
X219450992Y-78227499D01*
X219435536Y-78168775D01*
X219419673Y-78108393D01*
X219402955Y-78044661D01*
X219384933Y-77975885D01*
X219373067Y-77930582D01*
X219356437Y-77867095D01*
X219342446Y-77813692D01*
X219330735Y-77769018D01*
X219320950Y-77731716D01*
X219312734Y-77700431D01*
X219305730Y-77673806D01*
X219299582Y-77650486D01*
X219293932Y-77629115D01*
X219288426Y-77608337D01*
X219282706Y-77586795D01*
X219276416Y-77563135D01*
X219271687Y-77545350D01*
X219252277Y-77472246D01*
X219232852Y-77398934D01*
X219213683Y-77326457D01*
X219195045Y-77255852D01*
X219177210Y-77188160D01*
X219160451Y-77124423D01*
X219145042Y-77065678D01*
X219131254Y-77012968D01*
X219119361Y-76967331D01*
X219109635Y-76929809D01*
X219102351Y-76901441D01*
X219097780Y-76883267D01*
X219096195Y-76876327D01*
X219101164Y-76875209D01*
X219117480Y-76874060D01*
X219143777Y-76873044D01*
X219178622Y-76872194D01*
X219220583Y-76871545D01*
X219268230Y-76871130D01*
X219320131Y-76870984D01*
X219544066Y-76870984D01*
X219559062Y-76929722D01*
X219561190Y-76938012D01*
X219567881Y-76963830D01*
X219577037Y-76998943D01*
X219588125Y-77041317D01*
X219600611Y-77088918D01*
X219613963Y-77139710D01*
X219627649Y-77191660D01*
X219637704Y-77229795D01*
X219663024Y-77325940D01*
X219685424Y-77411208D01*
X219705167Y-77486620D01*
X219722512Y-77553197D01*
X219737721Y-77611958D01*
X219751055Y-77663924D01*
X219762775Y-77710115D01*
X219773141Y-77751552D01*
X219782415Y-77789255D01*
X219790857Y-77824243D01*
X219798729Y-77857538D01*
X219806291Y-77890160D01*
X219824039Y-77969308D01*
X219841347Y-78050186D01*
X219857446Y-78129104D01*
X219871825Y-78203483D01*
X219883969Y-78270744D01*
X219893368Y-78328310D01*
X219893822Y-78331303D01*
X219898959Y-78364731D01*
X219902771Y-78387695D01*
X219905736Y-78402152D01*
X219908330Y-78410057D01*
X219911033Y-78413366D01*
X219914322Y-78414035D01*
X219917395Y-78408156D01*
X219921539Y-78392128D01*
X219926208Y-78368400D01*
X219930859Y-78339422D01*
X219948544Y-78228145D01*
X219975861Y-78082746D01*
X220007779Y-77936327D01*
X220043295Y-77793430D01*
X220081404Y-77658592D01*
X220082543Y-77654822D01*
X220091270Y-77625915D01*
X220103075Y-77586779D01*
X220117461Y-77539066D01*
X220133930Y-77484428D01*
X220151983Y-77424518D01*
X220171124Y-77360986D01*
X220190854Y-77295485D01*
X220210676Y-77229668D01*
X220218807Y-77202680D01*
X220237199Y-77141758D01*
X220254496Y-77084620D01*
X220270334Y-77032463D01*
X220284348Y-76986484D01*
X220296172Y-76947880D01*
X220305441Y-76917848D01*
X220311789Y-76897586D01*
X220314852Y-76888290D01*
X220321480Y-76870855D01*
X220608409Y-76872507D01*
G37*
G36*
X218787382Y-76936072D02*
G01*
X218789590Y-76944669D01*
X218796672Y-76971897D01*
X218806234Y-77008353D01*
X218817720Y-77051932D01*
X218830576Y-77100529D01*
X218844247Y-77152040D01*
X218858176Y-77204360D01*
X218896102Y-77346956D01*
X218939023Y-77509383D01*
X218980799Y-77668697D01*
X219022727Y-77829835D01*
X219024491Y-77836636D01*
X219036323Y-77882157D01*
X219048289Y-77928039D01*
X219059561Y-77971118D01*
X219069311Y-78008230D01*
X219076713Y-78036210D01*
X219077822Y-78040374D01*
X219105397Y-78144041D01*
X219130311Y-78237837D01*
X219153175Y-78324067D01*
X219174598Y-78405038D01*
X219195191Y-78483056D01*
X219215564Y-78560428D01*
X219236326Y-78639460D01*
X219244668Y-78671244D01*
X219259161Y-78726463D01*
X219273337Y-78780472D01*
X219286614Y-78831055D01*
X219298412Y-78875999D01*
X219308148Y-78913088D01*
X219315242Y-78940108D01*
X219317525Y-78948847D01*
X219325361Y-78979624D01*
X219331702Y-79005723D01*
X219335947Y-79024615D01*
X219337495Y-79033771D01*
X219337456Y-79034026D01*
X219335492Y-79035420D01*
X219330090Y-79036661D01*
X219320590Y-79037757D01*
X219306329Y-79038716D01*
X219286645Y-79039547D01*
X219260878Y-79040258D01*
X219228365Y-79040858D01*
X219188444Y-79041356D01*
X219140456Y-79041760D01*
X219083736Y-79042078D01*
X219017625Y-79042319D01*
X218941461Y-79042492D01*
X218854581Y-79042604D01*
X218756324Y-79042666D01*
X218646030Y-79042685D01*
X217954564Y-79042685D01*
X217943446Y-78996647D01*
X217941022Y-78986829D01*
X217934577Y-78961487D01*
X217925826Y-78927651D01*
X217915390Y-78887711D01*
X217903894Y-78844061D01*
X217891962Y-78799092D01*
X217883380Y-78766823D01*
X217873118Y-78728073D01*
X217864366Y-78694838D01*
X217857566Y-78668806D01*
X217853162Y-78651665D01*
X217851595Y-78645105D01*
X217854834Y-78644807D01*
X217869542Y-78644411D01*
X217895202Y-78644041D01*
X217930796Y-78643702D01*
X217975309Y-78643399D01*
X218027725Y-78643139D01*
X218087028Y-78642927D01*
X218152202Y-78642768D01*
X218222229Y-78642669D01*
X218296095Y-78642635D01*
X218372570Y-78642618D01*
X218448592Y-78642547D01*
X218513518Y-78642404D01*
X218568203Y-78642168D01*
X218613502Y-78641821D01*
X218650271Y-78641344D01*
X218679364Y-78640718D01*
X218701635Y-78639923D01*
X218717941Y-78638942D01*
X218729134Y-78637755D01*
X218736072Y-78636342D01*
X218739607Y-78634686D01*
X218740595Y-78632767D01*
X218740089Y-78628926D01*
X218736890Y-78613803D01*
X218731233Y-78590103D01*
X218723691Y-78560184D01*
X218714834Y-78526404D01*
X218712036Y-78515918D01*
X218701310Y-78475673D01*
X218690506Y-78435061D01*
X218680744Y-78398294D01*
X218673143Y-78369585D01*
X218669923Y-78357399D01*
X218658282Y-78313460D01*
X218646799Y-78270285D01*
X218635989Y-78229794D01*
X218626366Y-78193905D01*
X218618444Y-78164539D01*
X218612738Y-78143613D01*
X218609762Y-78133047D01*
X218608736Y-78131079D01*
X218606034Y-78129103D01*
X218600823Y-78127433D01*
X218592179Y-78126043D01*
X218579173Y-78124908D01*
X218560880Y-78124002D01*
X218536373Y-78123300D01*
X218504725Y-78122777D01*
X218465009Y-78122405D01*
X218416300Y-78122161D01*
X218357671Y-78122018D01*
X218288195Y-78121951D01*
X218206945Y-78121935D01*
X217807500Y-78121935D01*
X217798025Y-78088597D01*
X217795105Y-78078194D01*
X217787682Y-78051083D01*
X217778654Y-78017475D01*
X217768508Y-77979247D01*
X217757730Y-77938277D01*
X217746809Y-77896442D01*
X217736231Y-77855617D01*
X217726483Y-77817680D01*
X217718053Y-77784509D01*
X217711429Y-77757979D01*
X217707097Y-77739968D01*
X217705544Y-77732353D01*
X217706676Y-77731411D01*
X217714222Y-77729987D01*
X217729395Y-77728810D01*
X217752829Y-77727871D01*
X217785158Y-77727162D01*
X217827016Y-77726673D01*
X217879038Y-77726395D01*
X217941856Y-77726320D01*
X218016105Y-77726438D01*
X218102419Y-77726741D01*
X218133621Y-77726871D01*
X218210397Y-77727155D01*
X218275717Y-77727321D01*
X218330494Y-77727351D01*
X218375637Y-77727225D01*
X218412058Y-77726924D01*
X218440668Y-77726427D01*
X218462377Y-77725716D01*
X218478097Y-77724771D01*
X218488737Y-77723572D01*
X218495210Y-77722101D01*
X218498426Y-77720337D01*
X218499295Y-77718262D01*
X218498674Y-77713689D01*
X218494988Y-77696612D01*
X218488100Y-77668091D01*
X218478135Y-77628618D01*
X218465220Y-77578685D01*
X218449482Y-77518784D01*
X218431046Y-77449407D01*
X218410041Y-77371047D01*
X218383131Y-77271035D01*
X217959041Y-77271035D01*
X217935579Y-77271034D01*
X217854903Y-77271008D01*
X217785790Y-77270930D01*
X217727340Y-77270776D01*
X217678655Y-77270523D01*
X217638836Y-77270148D01*
X217606984Y-77269626D01*
X217582200Y-77268935D01*
X217563586Y-77268051D01*
X217550241Y-77266951D01*
X217541268Y-77265611D01*
X217535768Y-77264009D01*
X217532841Y-77262120D01*
X217531589Y-77259922D01*
X217529712Y-77253534D01*
X217523907Y-77232816D01*
X217516078Y-77204058D01*
X217506706Y-77169104D01*
X217496273Y-77129802D01*
X217485263Y-77087999D01*
X217474156Y-77045539D01*
X217463435Y-77004271D01*
X217453583Y-76966041D01*
X217445080Y-76932694D01*
X217438410Y-76906077D01*
X217434055Y-76888038D01*
X217432495Y-76880421D01*
X217432730Y-76879689D01*
X217435055Y-76878250D01*
X217440432Y-76876975D01*
X217449551Y-76875856D01*
X217463100Y-76874882D01*
X217481768Y-76874043D01*
X217506246Y-76873331D01*
X217537221Y-76872735D01*
X217575382Y-76872245D01*
X217621420Y-76871852D01*
X217676024Y-76871547D01*
X217739881Y-76871318D01*
X217813682Y-76871158D01*
X217898115Y-76871055D01*
X217993871Y-76871001D01*
X218101637Y-76870985D01*
X218770778Y-76870985D01*
X218787382Y-76936072D01*
G37*
G36*
X224749709Y-77251308D02*
G01*
X224755028Y-77275071D01*
X224755540Y-77276133D01*
X224760218Y-77284772D01*
X224765871Y-77291746D01*
X224773804Y-77297233D01*
X224785317Y-77301413D01*
X224801714Y-77304463D01*
X224824298Y-77306564D01*
X224854371Y-77307893D01*
X224893236Y-77308630D01*
X224942196Y-77308953D01*
X225002553Y-77309041D01*
X225209785Y-77309135D01*
X225220040Y-77324786D01*
X225222063Y-77328419D01*
X225227934Y-77346943D01*
X225230295Y-77368252D01*
X225229311Y-77383063D01*
X225223078Y-77400406D01*
X225209097Y-77414623D01*
X225185075Y-77428784D01*
X225166570Y-77443824D01*
X225156349Y-77466886D01*
X225156505Y-77479351D01*
X225156709Y-77495697D01*
X225158010Y-77502357D01*
X225161965Y-77516727D01*
X225168220Y-77526618D01*
X225178857Y-77532928D01*
X225195954Y-77536555D01*
X225221592Y-77538396D01*
X225257850Y-77539350D01*
X225286682Y-77539986D01*
X225311621Y-77540999D01*
X225328203Y-77542678D01*
X225338798Y-77545442D01*
X225345778Y-77549710D01*
X225351512Y-77555900D01*
X225359910Y-77571425D01*
X225363617Y-77593908D01*
X225360933Y-77617138D01*
X225352753Y-77637833D01*
X225339976Y-77652709D01*
X225323497Y-77658482D01*
X225314421Y-77659364D01*
X225302684Y-77663244D01*
X225295295Y-77670353D01*
X225285739Y-77689885D01*
X225281458Y-77714167D01*
X225281869Y-77720610D01*
X225283017Y-77738597D01*
X225290981Y-77758572D01*
X225295148Y-77763763D01*
X225301147Y-77767906D01*
X225310690Y-77770520D01*
X225326067Y-77771956D01*
X225349565Y-77772560D01*
X225383473Y-77772685D01*
X225417122Y-77773205D01*
X225446045Y-77774647D01*
X225467511Y-77776824D01*
X225478901Y-77779546D01*
X225486291Y-77785371D01*
X225497961Y-77802640D01*
X225505492Y-77823852D01*
X225506455Y-77843385D01*
X225506407Y-77843633D01*
X225499564Y-77858351D01*
X225487274Y-77872697D01*
X225479271Y-77878754D01*
X225467151Y-77883904D01*
X225450031Y-77886359D01*
X225424077Y-77886985D01*
X225416982Y-77887001D01*
X225394924Y-77887655D01*
X225381129Y-77889998D01*
X225372041Y-77895021D01*
X225364106Y-77903716D01*
X225359650Y-77910504D01*
X225352373Y-77933236D01*
X225352369Y-77944135D01*
X225352363Y-77958084D01*
X225359217Y-77980622D01*
X225372534Y-77996425D01*
X225372945Y-77996641D01*
X225382958Y-77998386D01*
X225402705Y-77999821D01*
X225429528Y-78000802D01*
X225460772Y-78001187D01*
X225491382Y-78001318D01*
X225515735Y-78001912D01*
X225532066Y-78003364D01*
X225542843Y-78006075D01*
X225550534Y-78010444D01*
X225557609Y-78016871D01*
X225567739Y-78032237D01*
X225573495Y-78056721D01*
X225571336Y-78082263D01*
X225561061Y-78103769D01*
X225548926Y-78118760D01*
X225343869Y-78120228D01*
X225317432Y-78120421D01*
X225266088Y-78120860D01*
X225225464Y-78121373D01*
X225194186Y-78122051D01*
X225170878Y-78122985D01*
X225154167Y-78124267D01*
X225142680Y-78125987D01*
X225135042Y-78128237D01*
X225129878Y-78131108D01*
X225125816Y-78134691D01*
X225123041Y-78137928D01*
X225114784Y-78157106D01*
X225113039Y-78174051D01*
X225112308Y-78181150D01*
X225115668Y-78204818D01*
X225124917Y-78222868D01*
X225127189Y-78225254D01*
X225130961Y-78228185D01*
X225136395Y-78230542D01*
X225144716Y-78232387D01*
X225157152Y-78233784D01*
X225174929Y-78234793D01*
X225199273Y-78235479D01*
X225231411Y-78235903D01*
X225272570Y-78236129D01*
X225323976Y-78236219D01*
X225386855Y-78236235D01*
X225411539Y-78236237D01*
X225470154Y-78236287D01*
X225517749Y-78236447D01*
X225555552Y-78236773D01*
X225584789Y-78237324D01*
X225606687Y-78238157D01*
X225622473Y-78239330D01*
X225633375Y-78240901D01*
X225640619Y-78242928D01*
X225645432Y-78245469D01*
X225649041Y-78248580D01*
X225650651Y-78250271D01*
X225662828Y-78272326D01*
X225666054Y-78299390D01*
X225659759Y-78327283D01*
X225650044Y-78350535D01*
X225371732Y-78350535D01*
X225354424Y-78350534D01*
X225287722Y-78350547D01*
X225232359Y-78350698D01*
X225187231Y-78351132D01*
X225151236Y-78351997D01*
X225123269Y-78353439D01*
X225102227Y-78355604D01*
X225087006Y-78358639D01*
X225076504Y-78362691D01*
X225069616Y-78367906D01*
X225065239Y-78374431D01*
X225062269Y-78382412D01*
X225059604Y-78391997D01*
X225057678Y-78403904D01*
X225057063Y-78407704D01*
X225058748Y-78431597D01*
X225066014Y-78452090D01*
X225077756Y-78464760D01*
X225079428Y-78465291D01*
X225092836Y-78466801D01*
X225118335Y-78468104D01*
X225155467Y-78469189D01*
X225203773Y-78470049D01*
X225262793Y-78470674D01*
X225332069Y-78471055D01*
X225411142Y-78471185D01*
X225732523Y-78471185D01*
X225748109Y-78486771D01*
X225755670Y-78496577D01*
X225763434Y-78520105D01*
X225761766Y-78545644D01*
X225750535Y-78568753D01*
X225737374Y-78585485D01*
X225601533Y-78585485D01*
X225577114Y-78585498D01*
X225537971Y-78585655D01*
X225509022Y-78586105D01*
X225488609Y-78586992D01*
X225475071Y-78588459D01*
X225466749Y-78590648D01*
X225461985Y-78593703D01*
X225459119Y-78597767D01*
X225453630Y-78613195D01*
X225453667Y-78631698D01*
X225459343Y-78657334D01*
X225461606Y-78665464D01*
X225462061Y-78666864D01*
X225465602Y-78677770D01*
X225470711Y-78687305D01*
X225478381Y-78694421D01*
X225490061Y-78699473D01*
X225507198Y-78702814D01*
X225531242Y-78704797D01*
X225563640Y-78705776D01*
X225605842Y-78706104D01*
X225659295Y-78706135D01*
X225827944Y-78706135D01*
X225871269Y-78796622D01*
X225874180Y-78802703D01*
X225904658Y-78866455D01*
X225929962Y-78919581D01*
X225950435Y-78962815D01*
X225966417Y-78996891D01*
X225978252Y-79022542D01*
X225986282Y-79040504D01*
X225990849Y-79051511D01*
X225992295Y-79056297D01*
X225989210Y-79056940D01*
X225974702Y-79057854D01*
X225949229Y-79058755D01*
X225913808Y-79059626D01*
X225869457Y-79060451D01*
X225817194Y-79061214D01*
X225758038Y-79061899D01*
X225693005Y-79062489D01*
X225623114Y-79062969D01*
X225549383Y-79063323D01*
X225468045Y-79063636D01*
X225379381Y-79063989D01*
X225288418Y-79064361D01*
X225197301Y-79064743D01*
X225108170Y-79065127D01*
X225023169Y-79065502D01*
X224944441Y-79065859D01*
X224874127Y-79066190D01*
X224814370Y-79066485D01*
X224800372Y-79066550D01*
X224690757Y-79066555D01*
X224592337Y-79065512D01*
X224503799Y-79063297D01*
X224423829Y-79059783D01*
X224351111Y-79054847D01*
X224284334Y-79048363D01*
X224222182Y-79040206D01*
X224163341Y-79030251D01*
X224106498Y-79018373D01*
X224050338Y-79004446D01*
X223993548Y-78988346D01*
X223905959Y-78957629D01*
X223811533Y-78913538D01*
X223723829Y-78860559D01*
X223643624Y-78799446D01*
X223571698Y-78730948D01*
X223508829Y-78655819D01*
X223455796Y-78574810D01*
X223413377Y-78488673D01*
X223382352Y-78398160D01*
X223379552Y-78387120D01*
X223370824Y-78339523D01*
X223366548Y-78296663D01*
X223881162Y-78296663D01*
X223887322Y-78352675D01*
X223900756Y-78403194D01*
X223928575Y-78467477D01*
X223966674Y-78524771D01*
X224014583Y-78574609D01*
X224071832Y-78616526D01*
X224137949Y-78650054D01*
X224212464Y-78674728D01*
X224215880Y-78675588D01*
X224232765Y-78679336D01*
X224250543Y-78682187D01*
X224271181Y-78684260D01*
X224296647Y-78685670D01*
X224328908Y-78686533D01*
X224369932Y-78686966D01*
X224421686Y-78687085D01*
X224459034Y-78686954D01*
X224499011Y-78686495D01*
X224533043Y-78685752D01*
X224559440Y-78684775D01*
X224576516Y-78683615D01*
X224582579Y-78682322D01*
X224581973Y-78678790D01*
X224578719Y-78664884D01*
X224574438Y-78647963D01*
X224947349Y-78647963D01*
X224951633Y-78669546D01*
X224956877Y-78682322D01*
X224959331Y-78688299D01*
X224969030Y-78699295D01*
X224976742Y-78700794D01*
X224995889Y-78702345D01*
X225024465Y-78703697D01*
X225060741Y-78704786D01*
X225102988Y-78705548D01*
X225149476Y-78705921D01*
X225178060Y-78706005D01*
X225222648Y-78706043D01*
X225256800Y-78705843D01*
X225281993Y-78705303D01*
X225299703Y-78704325D01*
X225311405Y-78702807D01*
X225318577Y-78700650D01*
X225322694Y-78697755D01*
X225325232Y-78694020D01*
X225328928Y-78684547D01*
X225331756Y-78666864D01*
X225331463Y-78662525D01*
X225326563Y-78643041D01*
X225317408Y-78621767D01*
X225306309Y-78603438D01*
X225295579Y-78592789D01*
X225293586Y-78592100D01*
X225279704Y-78590159D01*
X225255239Y-78588482D01*
X225221778Y-78587137D01*
X225180912Y-78586194D01*
X225134228Y-78585723D01*
X225092253Y-78585584D01*
X225054351Y-78585647D01*
X225026002Y-78586069D01*
X225005522Y-78586973D01*
X224991225Y-78588483D01*
X224981428Y-78590722D01*
X224974448Y-78593813D01*
X224968599Y-78597881D01*
X224956185Y-78611294D01*
X224948253Y-78626897D01*
X224947894Y-78628480D01*
X224947349Y-78647963D01*
X224574438Y-78647963D01*
X224573284Y-78643401D01*
X224566390Y-78617235D01*
X224564063Y-78608505D01*
X224557184Y-78582333D01*
X224547953Y-78546834D01*
X224536261Y-78501581D01*
X224521999Y-78446147D01*
X224514355Y-78416351D01*
X224877535Y-78416351D01*
X224882297Y-78438865D01*
X224897779Y-78459365D01*
X224904851Y-78464725D01*
X224927788Y-78473497D01*
X224951685Y-78472819D01*
X224973856Y-78464106D01*
X224991612Y-78448773D01*
X225002267Y-78428234D01*
X225003134Y-78403904D01*
X224998245Y-78391861D01*
X224983480Y-78374835D01*
X224963794Y-78361974D01*
X224943743Y-78356885D01*
X224942934Y-78356889D01*
X224916192Y-78362093D01*
X224895620Y-78375429D01*
X224882355Y-78394361D01*
X224877535Y-78416351D01*
X224514355Y-78416351D01*
X224505057Y-78380107D01*
X224485326Y-78303034D01*
X224462696Y-78214503D01*
X224451160Y-78169323D01*
X224817857Y-78169323D01*
X224819504Y-78194148D01*
X224826761Y-78216370D01*
X224839134Y-78231375D01*
X224839381Y-78231524D01*
X224849491Y-78233819D01*
X224868214Y-78235473D01*
X224891697Y-78236137D01*
X224896616Y-78236140D01*
X224919105Y-78235585D01*
X224933151Y-78233313D01*
X224942384Y-78228295D01*
X224950435Y-78219503D01*
X224960011Y-78200427D01*
X224961422Y-78189972D01*
X224991596Y-78189972D01*
X225001269Y-78215597D01*
X225009838Y-78227343D01*
X225021460Y-78234552D01*
X225039556Y-78236235D01*
X225052470Y-78234895D01*
X225071842Y-78224628D01*
X225083514Y-78204318D01*
X225087420Y-78174051D01*
X225086697Y-78159715D01*
X225081645Y-78144140D01*
X225069604Y-78130910D01*
X225067730Y-78129329D01*
X225048260Y-78117735D01*
X225030337Y-78117935D01*
X225011182Y-78129882D01*
X225002333Y-78139601D01*
X224992104Y-78163318D01*
X224991843Y-78177008D01*
X224991596Y-78189972D01*
X224961422Y-78189972D01*
X224963172Y-78177008D01*
X224959772Y-78153956D01*
X224950400Y-78135068D01*
X224935644Y-78124143D01*
X224924999Y-78122210D01*
X224904858Y-78120713D01*
X224881167Y-78120376D01*
X224868647Y-78120706D01*
X224849403Y-78122608D01*
X224837355Y-78126985D01*
X224828780Y-78134867D01*
X224822315Y-78146507D01*
X224817857Y-78169323D01*
X224451160Y-78169323D01*
X224437057Y-78114086D01*
X224436889Y-78113431D01*
X224430934Y-78091655D01*
X224425727Y-78075188D01*
X224422377Y-78067549D01*
X224421869Y-78067308D01*
X224412297Y-78066239D01*
X224392395Y-78065380D01*
X224364128Y-78064778D01*
X224329464Y-78064477D01*
X224290368Y-78064523D01*
X224246019Y-78065171D01*
X224180569Y-78068110D01*
X224125055Y-78073649D01*
X224077853Y-78082109D01*
X224037336Y-78093815D01*
X224001881Y-78109089D01*
X223969863Y-78128255D01*
X223931096Y-78161559D01*
X223903091Y-78200991D01*
X223886432Y-78246064D01*
X223881162Y-78296663D01*
X223366548Y-78296663D01*
X223365640Y-78287556D01*
X223364154Y-78235311D01*
X223366521Y-78186881D01*
X223372894Y-78146358D01*
X223373120Y-78145420D01*
X223395338Y-78079880D01*
X223428491Y-78020176D01*
X223471793Y-77967271D01*
X223498784Y-77944135D01*
X224722295Y-77944135D01*
X224724230Y-77961048D01*
X224732072Y-77982321D01*
X224743884Y-77996425D01*
X224743998Y-77996493D01*
X224752803Y-77997950D01*
X224772115Y-77999225D01*
X224799838Y-78000242D01*
X224833873Y-78000922D01*
X224872124Y-78001187D01*
X224917458Y-78001082D01*
X224952274Y-78000297D01*
X224977614Y-77998260D01*
X224995101Y-77994393D01*
X225006356Y-77988125D01*
X225013000Y-77978878D01*
X225016655Y-77966080D01*
X225018941Y-77949155D01*
X225019324Y-77944135D01*
X225062309Y-77944135D01*
X225062315Y-77944927D01*
X225065699Y-77965967D01*
X225073424Y-77984322D01*
X225084538Y-78001285D01*
X225184404Y-78001187D01*
X225204622Y-78001072D01*
X225237112Y-78000459D01*
X225263946Y-77999410D01*
X225282777Y-77998030D01*
X225291257Y-77996425D01*
X225300161Y-77987086D01*
X225309302Y-77967224D01*
X225312845Y-77944135D01*
X225310911Y-77927221D01*
X225303069Y-77905948D01*
X225291257Y-77891844D01*
X225287812Y-77890904D01*
X225273124Y-77889415D01*
X225249429Y-77888212D01*
X225219073Y-77887399D01*
X225184404Y-77887082D01*
X225084538Y-77886985D01*
X225073424Y-77903947D01*
X225073049Y-77904532D01*
X225065451Y-77923198D01*
X225063165Y-77938430D01*
X225062309Y-77944135D01*
X225019324Y-77944135D01*
X225019760Y-77938430D01*
X225017457Y-77920254D01*
X225008204Y-77904447D01*
X224994424Y-77886985D01*
X224872647Y-77887082D01*
X224870436Y-77887084D01*
X224832282Y-77887373D01*
X224798456Y-77888071D01*
X224771053Y-77889101D01*
X224752165Y-77890384D01*
X224743884Y-77891844D01*
X224734980Y-77901183D01*
X224725839Y-77921045D01*
X224722295Y-77944135D01*
X223498784Y-77944135D01*
X223524455Y-77922131D01*
X223585690Y-77885721D01*
X223604233Y-77876884D01*
X223628658Y-77865807D01*
X223647790Y-77857797D01*
X223658598Y-77854165D01*
X223660508Y-77853788D01*
X223671639Y-77848082D01*
X223671165Y-77838836D01*
X223659417Y-77826680D01*
X223636725Y-77812250D01*
X223618511Y-77801860D01*
X223550152Y-77755059D01*
X223487419Y-77699715D01*
X223432072Y-77637741D01*
X223385872Y-77571049D01*
X223350580Y-77501550D01*
X223343342Y-77483494D01*
X223320198Y-77410891D01*
X223771316Y-77410891D01*
X223777767Y-77458239D01*
X223791521Y-77505416D01*
X223812315Y-77549638D01*
X223842192Y-77591968D01*
X223886511Y-77635083D01*
X223940160Y-77670985D01*
X224002135Y-77699021D01*
X224071434Y-77718535D01*
X224078069Y-77719744D01*
X224101490Y-77722783D01*
X224132074Y-77725627D01*
X224167343Y-77728164D01*
X224204822Y-77730281D01*
X224242032Y-77731866D01*
X224276497Y-77732808D01*
X224305740Y-77732993D01*
X224327284Y-77732309D01*
X224338653Y-77730645D01*
X224338974Y-77729184D01*
X224337646Y-77717723D01*
X224334951Y-77702700D01*
X224742715Y-77702700D01*
X224742926Y-77728598D01*
X224743110Y-77729184D01*
X224750616Y-77753143D01*
X224760455Y-77766461D01*
X224771254Y-77773465D01*
X224776102Y-77773939D01*
X224792744Y-77774463D01*
X224818141Y-77774676D01*
X224849861Y-77774565D01*
X224885470Y-77774116D01*
X224921701Y-77773458D01*
X224949922Y-77772655D01*
X224969426Y-77771429D01*
X224982268Y-77769455D01*
X224990501Y-77766408D01*
X224996179Y-77761964D01*
X225001357Y-77755797D01*
X225005516Y-77749656D01*
X225012118Y-77729484D01*
X225053913Y-77729484D01*
X225060767Y-77752022D01*
X225074084Y-77767825D01*
X225080450Y-77769383D01*
X225097494Y-77770991D01*
X225121956Y-77772086D01*
X225150920Y-77772490D01*
X225174660Y-77772221D01*
X225200198Y-77771243D01*
X225218869Y-77769719D01*
X225227757Y-77767825D01*
X225233250Y-77763212D01*
X225244296Y-77744486D01*
X225248735Y-77720610D01*
X225246165Y-77696012D01*
X225236185Y-77675116D01*
X225231912Y-77669925D01*
X225225580Y-77664416D01*
X225216904Y-77661015D01*
X225203294Y-77659215D01*
X225182163Y-77658507D01*
X225150920Y-77658385D01*
X225128515Y-77658428D01*
X225104409Y-77658892D01*
X225088658Y-77660285D01*
X225078676Y-77663114D01*
X225071871Y-77667889D01*
X225065656Y-77675116D01*
X225061200Y-77681904D01*
X225053923Y-77704636D01*
X225053915Y-77724938D01*
X225053913Y-77729484D01*
X225012118Y-77729484D01*
X225013606Y-77724938D01*
X225012177Y-77698396D01*
X225001235Y-77675116D01*
X224988074Y-77658385D01*
X224878997Y-77658482D01*
X224850388Y-77658668D01*
X224817280Y-77659325D01*
X224790182Y-77660368D01*
X224771323Y-77661705D01*
X224762934Y-77663244D01*
X224762441Y-77663581D01*
X224749411Y-77679632D01*
X224742715Y-77702700D01*
X224334951Y-77702700D01*
X224333790Y-77696228D01*
X224327773Y-77666284D01*
X224319965Y-77629475D01*
X224310733Y-77587385D01*
X224300444Y-77541597D01*
X224289468Y-77493696D01*
X224289366Y-77493258D01*
X224626111Y-77493258D01*
X224631051Y-77514782D01*
X224641442Y-77529845D01*
X224643766Y-77531517D01*
X224649068Y-77534150D01*
X224656759Y-77536223D01*
X224668126Y-77537787D01*
X224684459Y-77538890D01*
X224707047Y-77539582D01*
X224737177Y-77539913D01*
X224776140Y-77539933D01*
X224825225Y-77539690D01*
X224885719Y-77539234D01*
X224931978Y-77538847D01*
X224979063Y-77538379D01*
X225015882Y-77537831D01*
X225043786Y-77537104D01*
X225064122Y-77536097D01*
X225078240Y-77534710D01*
X225087490Y-77532843D01*
X225093219Y-77530395D01*
X225096777Y-77527267D01*
X225099514Y-77523359D01*
X225107607Y-77505111D01*
X225111178Y-77479351D01*
X225107577Y-77454779D01*
X225096945Y-77436135D01*
X225094591Y-77433933D01*
X225090128Y-77430924D01*
X225083705Y-77428552D01*
X225073981Y-77426742D01*
X225059611Y-77425417D01*
X225039254Y-77424502D01*
X225011567Y-77423922D01*
X224975208Y-77423601D01*
X224928834Y-77423463D01*
X224871103Y-77423435D01*
X224864736Y-77423436D01*
X224804589Y-77423668D01*
X224752742Y-77424269D01*
X224710077Y-77425214D01*
X224677471Y-77426477D01*
X224655804Y-77428034D01*
X224645956Y-77429859D01*
X224642070Y-77432532D01*
X224631813Y-77447871D01*
X224626429Y-77469534D01*
X224626111Y-77493258D01*
X224289366Y-77493258D01*
X224278172Y-77445265D01*
X224266923Y-77397887D01*
X224256091Y-77353148D01*
X224246042Y-77312630D01*
X224237145Y-77277918D01*
X224229769Y-77250596D01*
X224229006Y-77248046D01*
X224537172Y-77248046D01*
X224540915Y-77274519D01*
X224553444Y-77295404D01*
X224563259Y-77300221D01*
X224582193Y-77304096D01*
X224605017Y-77305986D01*
X224627103Y-77305535D01*
X224643821Y-77302383D01*
X224657736Y-77293760D01*
X224670541Y-77274658D01*
X224675418Y-77249916D01*
X224671268Y-77222721D01*
X224663510Y-77206051D01*
X224651377Y-77195352D01*
X224632348Y-77189996D01*
X224603650Y-77188582D01*
X224595992Y-77188647D01*
X224572942Y-77190235D01*
X224558400Y-77195343D01*
X224549070Y-77205830D01*
X224541658Y-77223556D01*
X224537172Y-77248046D01*
X224229006Y-77248046D01*
X224224280Y-77232246D01*
X224221046Y-77224454D01*
X224215592Y-77222501D01*
X224199004Y-77220048D01*
X224173930Y-77217822D01*
X224142767Y-77215921D01*
X224107910Y-77214442D01*
X224071757Y-77213481D01*
X224036703Y-77213135D01*
X224005145Y-77213502D01*
X223979478Y-77214678D01*
X223955508Y-77217048D01*
X223898989Y-77228617D01*
X223852396Y-77247850D01*
X223815837Y-77274693D01*
X223789416Y-77309095D01*
X223781389Y-77326825D01*
X223772436Y-77366158D01*
X223771316Y-77410891D01*
X223320198Y-77410891D01*
X223318837Y-77406623D01*
X223305205Y-77332173D01*
X223302304Y-77260939D01*
X223309993Y-77193715D01*
X223328128Y-77131295D01*
X223356568Y-77074475D01*
X223395171Y-77024047D01*
X223443794Y-76980808D01*
X223481955Y-76954194D01*
X223526783Y-76927742D01*
X223572052Y-76907326D01*
X223621844Y-76891162D01*
X223680237Y-76877469D01*
X223694444Y-76874643D01*
X223716694Y-76870574D01*
X223739265Y-76867013D01*
X223763040Y-76863935D01*
X223788905Y-76861315D01*
X223817742Y-76859128D01*
X223850437Y-76857351D01*
X223887873Y-76855959D01*
X223930935Y-76854927D01*
X223980507Y-76854230D01*
X224037472Y-76853845D01*
X224102716Y-76853747D01*
X224177122Y-76853910D01*
X224261575Y-76854311D01*
X224356958Y-76854926D01*
X224464156Y-76855729D01*
X224472123Y-76855791D01*
X224568657Y-76856554D01*
X224653347Y-76857248D01*
X224726988Y-76857896D01*
X224790375Y-76858523D01*
X224844301Y-76859151D01*
X224889561Y-76859806D01*
X224926950Y-76860510D01*
X224957262Y-76861288D01*
X224981292Y-76862164D01*
X224999834Y-76863161D01*
X225013683Y-76864304D01*
X225023634Y-76865615D01*
X225030480Y-76867120D01*
X225035017Y-76868842D01*
X225038038Y-76870804D01*
X225040339Y-76873031D01*
X225041309Y-76874103D01*
X225052796Y-76894699D01*
X225057005Y-76919192D01*
X225054318Y-76943776D01*
X225045119Y-76964647D01*
X225029788Y-76977999D01*
X225027623Y-76978740D01*
X225014252Y-76980798D01*
X224990561Y-76982451D01*
X224956076Y-76983712D01*
X224910321Y-76984595D01*
X224852820Y-76985114D01*
X224783099Y-76985284D01*
X224757410Y-76985276D01*
X224699794Y-76985258D01*
X224653215Y-76985433D01*
X224616478Y-76986036D01*
X224588387Y-76987305D01*
X224567746Y-76989476D01*
X224553360Y-76992787D01*
X224544032Y-76997473D01*
X224538568Y-77003771D01*
X224535770Y-77011919D01*
X224534444Y-77022152D01*
X224533394Y-77034708D01*
X224532594Y-77050326D01*
X224535438Y-77067325D01*
X224544332Y-77082122D01*
X224558117Y-77099585D01*
X225127975Y-77099585D01*
X225137860Y-77113697D01*
X225144550Y-77126974D01*
X225146827Y-77151350D01*
X225137860Y-77174372D01*
X225134656Y-77178541D01*
X225130589Y-77181797D01*
X225124182Y-77184252D01*
X225113954Y-77186018D01*
X225098425Y-77187208D01*
X225076117Y-77187937D01*
X225045548Y-77188317D01*
X225005239Y-77188461D01*
X224953710Y-77188485D01*
X224925829Y-77188494D01*
X224879964Y-77188609D01*
X224844534Y-77188933D01*
X224818040Y-77189566D01*
X224798981Y-77190606D01*
X224785857Y-77192154D01*
X224777169Y-77194307D01*
X224771417Y-77197167D01*
X224767100Y-77200830D01*
X224764330Y-77203879D01*
X224753126Y-77225632D01*
X224749894Y-77249916D01*
X224749709Y-77251308D01*
G37*
D14*
X225185000Y-91796000D02*
X192233000Y-91796000D01*
X225188000Y-91796000D02*
G75*
G03*
X226712000Y-90272000I0J1524000D01*
G01*
X190709000Y-90272000D02*
G75*
G03*
X192233000Y-91796000I1524000J0D01*
G01*
X190709000Y-90272000D02*
X190709000Y-77320000D01*
X226712000Y-77320000D02*
X226712000Y-90272000D01*
X226712000Y-77320000D02*
G75*
G03*
X225188000Y-75796000I-1524000J0D01*
G01*
X192233000Y-75796000D02*
G75*
G03*
X190709000Y-77320000I0J-1524000D01*
G01*
X192232000Y-75796000D02*
X225185000Y-75796000D01*
M02*
