G04 #@! TF.GenerationSoftware,KiCad,Pcbnew,7.0.2-0*
G04 #@! TF.CreationDate,2023-08-07T23:17:52+03:00*
G04 #@! TF.ProjectId,RJ45_Module,524a3435-5f4d-46f6-9475-6c652e6b6963,1.0*
G04 #@! TF.SameCoordinates,Original*
G04 #@! TF.FileFunction,Copper,L3,Inr*
G04 #@! TF.FilePolarity,Positive*
%FSLAX46Y46*%
G04 Gerber Fmt 4.6, Leading zero omitted, Abs format (unit mm)*
G04 Created by KiCad (PCBNEW 7.0.2-0) date 2023-08-07 23:17:52*
%MOMM*%
%LPD*%
G01*
G04 APERTURE LIST*
G04 #@! TA.AperFunction,ComponentPad*
%ADD10R,1.446000X1.446000*%
G04 #@! TD*
G04 #@! TA.AperFunction,ComponentPad*
%ADD11C,1.446000*%
G04 #@! TD*
G04 #@! TA.AperFunction,ComponentPad*
%ADD12C,2.355000*%
G04 #@! TD*
G04 #@! TA.AperFunction,ComponentPad*
%ADD13C,0.800000*%
G04 #@! TD*
G04 #@! TA.AperFunction,ComponentPad*
%ADD14C,6.400000*%
G04 #@! TD*
G04 #@! TA.AperFunction,ViaPad*
%ADD15C,0.600000*%
G04 #@! TD*
G04 #@! TA.AperFunction,Profile*
%ADD16C,0.050000*%
G04 #@! TD*
G04 APERTURE END LIST*
D10*
X212623600Y-84531200D03*
D11*
X211603600Y-87071200D03*
X210593600Y-84531200D03*
X209573600Y-87071200D03*
X208563600Y-84531200D03*
X207543600Y-87071200D03*
X206533600Y-84531200D03*
X205513600Y-87071200D03*
D12*
X200813600Y-83721200D03*
X217073600Y-83721200D03*
D13*
X220505000Y-83730000D03*
X221207944Y-85427056D03*
X221207944Y-82032944D03*
X222905000Y-86130000D03*
D14*
X222905000Y-83730000D03*
D13*
X225305000Y-83730000D03*
X224602056Y-82032944D03*
X224602056Y-85427056D03*
X222905000Y-81330000D03*
X194942000Y-81330000D03*
X196639056Y-85427056D03*
X196639056Y-82032944D03*
X197342000Y-83730000D03*
D14*
X194942000Y-83730000D03*
D13*
X194942000Y-86130000D03*
X193244944Y-82032944D03*
X193244944Y-85427056D03*
X192542000Y-83730000D03*
D15*
X206545000Y-85930000D03*
X210555000Y-85950000D03*
X209873956Y-78781118D03*
X211956142Y-78158858D03*
X206873953Y-78799958D03*
X209250265Y-78772087D03*
X207673455Y-78800155D03*
X208451255Y-78800155D03*
X211451255Y-78778772D03*
X210673455Y-78778772D03*
G04 #@! TA.AperFunction,Conductor*
G36*
X225191269Y-76296786D02*
G01*
X225359177Y-76311475D01*
X225372078Y-76313750D01*
X225531712Y-76356524D01*
X225544017Y-76361004D01*
X225676250Y-76422665D01*
X225693786Y-76430842D01*
X225705138Y-76437396D01*
X225840505Y-76532181D01*
X225850546Y-76540607D01*
X225967392Y-76657453D01*
X225975818Y-76667494D01*
X226070603Y-76802861D01*
X226077157Y-76814213D01*
X226146993Y-76963976D01*
X226151477Y-76976294D01*
X226194248Y-77135917D01*
X226196524Y-77148826D01*
X226211213Y-77316729D01*
X226211499Y-77323283D01*
X226211499Y-81774199D01*
X226193906Y-81822537D01*
X226149357Y-81848257D01*
X226098699Y-81839324D01*
X226073231Y-81815156D01*
X225903541Y-81553858D01*
X225901240Y-81550691D01*
X225693902Y-81294648D01*
X224796249Y-82192301D01*
X224837551Y-82130489D01*
X224856954Y-82032944D01*
X224837551Y-81935399D01*
X224782296Y-81852704D01*
X224699601Y-81797449D01*
X224626680Y-81782944D01*
X224577432Y-81782944D01*
X224504511Y-81797449D01*
X224442689Y-81838756D01*
X225340350Y-80941096D01*
X225084308Y-80733759D01*
X225081141Y-80731458D01*
X224759181Y-80522374D01*
X224755795Y-80520419D01*
X224413742Y-80346135D01*
X224410150Y-80344536D01*
X224051781Y-80206970D01*
X224048024Y-80205749D01*
X223677235Y-80106397D01*
X223673375Y-80105577D01*
X223294236Y-80045527D01*
X223290316Y-80045115D01*
X222906965Y-80025025D01*
X222903035Y-80025025D01*
X222519683Y-80045115D01*
X222515763Y-80045527D01*
X222136624Y-80105577D01*
X222132764Y-80106397D01*
X221761975Y-80205749D01*
X221758218Y-80206970D01*
X221399849Y-80344536D01*
X221396257Y-80346135D01*
X221054204Y-80520419D01*
X221050818Y-80522374D01*
X220728863Y-80731454D01*
X220725681Y-80733767D01*
X220469648Y-80941096D01*
X221367304Y-81838752D01*
X221305489Y-81797449D01*
X221232568Y-81782944D01*
X221183320Y-81782944D01*
X221110399Y-81797449D01*
X221027704Y-81852704D01*
X220972449Y-81935399D01*
X220953046Y-82032944D01*
X220972449Y-82130489D01*
X221013754Y-82192306D01*
X220116096Y-81294648D01*
X219908767Y-81550681D01*
X219906454Y-81553863D01*
X219697374Y-81875818D01*
X219695419Y-81879204D01*
X219521135Y-82221257D01*
X219519536Y-82224849D01*
X219381970Y-82583218D01*
X219380749Y-82586975D01*
X219281397Y-82957764D01*
X219280577Y-82961624D01*
X219220527Y-83340763D01*
X219220115Y-83344683D01*
X219200025Y-83728034D01*
X219200025Y-83731965D01*
X219220115Y-84115316D01*
X219220527Y-84119236D01*
X219280577Y-84498375D01*
X219281397Y-84502235D01*
X219380749Y-84873024D01*
X219381970Y-84876781D01*
X219519536Y-85235150D01*
X219521135Y-85238742D01*
X219695419Y-85580795D01*
X219697374Y-85584181D01*
X219906458Y-85906141D01*
X219908759Y-85909308D01*
X220116096Y-86165350D01*
X221013756Y-85267689D01*
X220972449Y-85329511D01*
X220953046Y-85427056D01*
X220972449Y-85524601D01*
X221027704Y-85607296D01*
X221110399Y-85662551D01*
X221183320Y-85677056D01*
X221232568Y-85677056D01*
X221305489Y-85662551D01*
X221367301Y-85621249D01*
X220469648Y-86518902D01*
X220725691Y-86726240D01*
X220728858Y-86728541D01*
X221050818Y-86937625D01*
X221054204Y-86939580D01*
X221396257Y-87113864D01*
X221399849Y-87115463D01*
X221758218Y-87253029D01*
X221761975Y-87254250D01*
X222132764Y-87353602D01*
X222136624Y-87354422D01*
X222515763Y-87414472D01*
X222519683Y-87414884D01*
X222903035Y-87434975D01*
X222906965Y-87434975D01*
X223290316Y-87414884D01*
X223294236Y-87414472D01*
X223673375Y-87354422D01*
X223677235Y-87353602D01*
X224048024Y-87254250D01*
X224051781Y-87253029D01*
X224410150Y-87115463D01*
X224413742Y-87113864D01*
X224755795Y-86939580D01*
X224759181Y-86937625D01*
X225081141Y-86728541D01*
X225084320Y-86726231D01*
X225340349Y-86518903D01*
X225340350Y-86518902D01*
X224442694Y-85621246D01*
X224504511Y-85662551D01*
X224577432Y-85677056D01*
X224626680Y-85677056D01*
X224699601Y-85662551D01*
X224782296Y-85607296D01*
X224837551Y-85524601D01*
X224856954Y-85427056D01*
X224837551Y-85329511D01*
X224796246Y-85267694D01*
X225693902Y-86165350D01*
X225693903Y-86165349D01*
X225901231Y-85909320D01*
X225903541Y-85906141D01*
X226073231Y-85644843D01*
X226114313Y-85613886D01*
X226165682Y-85616578D01*
X226203303Y-85651660D01*
X226211499Y-85685800D01*
X226211499Y-90237235D01*
X226211500Y-90237258D01*
X226211500Y-90268715D01*
X226211214Y-90275269D01*
X226196524Y-90443173D01*
X226194248Y-90456082D01*
X226151477Y-90615705D01*
X226146993Y-90628023D01*
X226077157Y-90777786D01*
X226070603Y-90789138D01*
X225975818Y-90924505D01*
X225967392Y-90934546D01*
X225850546Y-91051392D01*
X225840505Y-91059818D01*
X225705138Y-91154603D01*
X225693786Y-91161157D01*
X225544023Y-91230993D01*
X225531705Y-91235477D01*
X225372082Y-91278248D01*
X225359173Y-91280524D01*
X225191269Y-91295214D01*
X225184715Y-91295500D01*
X192236285Y-91295500D01*
X192229731Y-91295214D01*
X192061826Y-91280524D01*
X192048917Y-91278248D01*
X191889294Y-91235477D01*
X191876976Y-91230993D01*
X191727213Y-91161157D01*
X191715861Y-91154603D01*
X191580494Y-91059818D01*
X191570453Y-91051392D01*
X191453607Y-90934546D01*
X191445181Y-90924505D01*
X191350396Y-90789138D01*
X191343842Y-90777786D01*
X191337591Y-90764381D01*
X191274004Y-90628017D01*
X191269524Y-90615712D01*
X191226750Y-90456078D01*
X191224475Y-90443173D01*
X191209786Y-90275269D01*
X191209500Y-90268715D01*
X191209500Y-90206107D01*
X191209500Y-88029880D01*
X200844337Y-88029880D01*
X200874363Y-88302770D01*
X200943804Y-88568384D01*
X201051177Y-88821052D01*
X201194196Y-89055398D01*
X201369806Y-89266416D01*
X201574274Y-89449621D01*
X201574276Y-89449622D01*
X201574277Y-89449623D01*
X201803241Y-89601104D01*
X202051821Y-89717633D01*
X202314719Y-89796727D01*
X202586331Y-89836700D01*
X202586333Y-89836700D01*
X202790760Y-89836700D01*
X202792147Y-89836700D01*
X202868481Y-89831112D01*
X202997401Y-89821678D01*
X203023730Y-89815812D01*
X203265375Y-89761984D01*
X203521798Y-89663911D01*
X203761209Y-89529547D01*
X203978504Y-89361757D01*
X204169054Y-89164116D01*
X204328796Y-88940837D01*
X204454327Y-88696679D01*
X204542970Y-88436846D01*
X204592836Y-88166874D01*
X204597842Y-88029880D01*
X213544337Y-88029880D01*
X213574363Y-88302770D01*
X213643804Y-88568384D01*
X213751177Y-88821052D01*
X213894196Y-89055398D01*
X214069806Y-89266416D01*
X214274274Y-89449621D01*
X214274276Y-89449622D01*
X214274277Y-89449623D01*
X214503241Y-89601104D01*
X214751821Y-89717633D01*
X215014719Y-89796727D01*
X215286331Y-89836700D01*
X215286333Y-89836700D01*
X215490760Y-89836700D01*
X215492147Y-89836700D01*
X215568481Y-89831112D01*
X215697401Y-89821678D01*
X215723730Y-89815812D01*
X215965375Y-89761984D01*
X216221798Y-89663911D01*
X216461209Y-89529547D01*
X216678504Y-89361757D01*
X216869054Y-89164116D01*
X217028796Y-88940837D01*
X217154327Y-88696679D01*
X217242970Y-88436846D01*
X217292836Y-88166874D01*
X217302862Y-87892520D01*
X217272836Y-87619629D01*
X217203396Y-87354018D01*
X217096023Y-87101348D01*
X216953005Y-86867004D01*
X216953003Y-86867001D01*
X216777393Y-86655983D01*
X216572925Y-86472778D01*
X216343958Y-86321295D01*
X216095380Y-86204767D01*
X215895059Y-86144500D01*
X215832481Y-86125673D01*
X215560869Y-86085700D01*
X215355053Y-86085700D01*
X215353681Y-86085800D01*
X215353664Y-86085801D01*
X215149798Y-86100721D01*
X214881824Y-86160416D01*
X214625400Y-86258489D01*
X214385993Y-86392851D01*
X214168694Y-86560644D01*
X213978145Y-86758284D01*
X213818403Y-86981563D01*
X213692873Y-87225719D01*
X213604230Y-87485554D01*
X213554364Y-87755523D01*
X213544337Y-88029880D01*
X204597842Y-88029880D01*
X204602862Y-87892520D01*
X204572836Y-87619629D01*
X204558959Y-87566549D01*
X204563754Y-87515334D01*
X204600348Y-87479183D01*
X204651619Y-87475011D01*
X204693576Y-87504772D01*
X204696839Y-87509929D01*
X204759754Y-87618901D01*
X204890101Y-87763666D01*
X205047697Y-87878167D01*
X205225656Y-87957399D01*
X205416200Y-87997900D01*
X205416201Y-87997900D01*
X205610999Y-87997900D01*
X205611000Y-87997900D01*
X205801544Y-87957399D01*
X205979503Y-87878167D01*
X206137099Y-87763666D01*
X206267446Y-87618901D01*
X206364846Y-87450199D01*
X206422589Y-87272487D01*
X206425043Y-87264934D01*
X206429164Y-87225721D01*
X206445405Y-87071200D01*
X206445405Y-87071199D01*
X206611795Y-87071199D01*
X206632156Y-87264934D01*
X206680879Y-87414884D01*
X206692354Y-87450199D01*
X206789754Y-87618901D01*
X206920101Y-87763666D01*
X207077697Y-87878167D01*
X207255656Y-87957399D01*
X207446200Y-87997900D01*
X207446201Y-87997900D01*
X207640999Y-87997900D01*
X207641000Y-87997900D01*
X207831544Y-87957399D01*
X208009503Y-87878167D01*
X208167099Y-87763666D01*
X208297446Y-87618901D01*
X208394846Y-87450199D01*
X208452589Y-87272487D01*
X208455043Y-87264934D01*
X208459164Y-87225721D01*
X208475405Y-87071200D01*
X208641795Y-87071200D01*
X208662156Y-87264934D01*
X208710879Y-87414884D01*
X208722354Y-87450199D01*
X208819754Y-87618901D01*
X208950101Y-87763666D01*
X209107697Y-87878167D01*
X209285656Y-87957399D01*
X209476200Y-87997900D01*
X209476201Y-87997900D01*
X209670999Y-87997900D01*
X209671000Y-87997900D01*
X209861544Y-87957399D01*
X210039503Y-87878167D01*
X210197099Y-87763666D01*
X210327446Y-87618901D01*
X210424846Y-87450199D01*
X210482589Y-87272487D01*
X210485043Y-87264934D01*
X210489164Y-87225721D01*
X210505405Y-87071200D01*
X210671795Y-87071200D01*
X210692156Y-87264934D01*
X210740879Y-87414884D01*
X210752354Y-87450199D01*
X210849754Y-87618901D01*
X210980101Y-87763666D01*
X211137697Y-87878167D01*
X211315656Y-87957399D01*
X211506200Y-87997900D01*
X211506201Y-87997900D01*
X211700999Y-87997900D01*
X211701000Y-87997900D01*
X211891544Y-87957399D01*
X212069503Y-87878167D01*
X212227099Y-87763666D01*
X212357446Y-87618901D01*
X212454846Y-87450199D01*
X212512589Y-87272487D01*
X212515043Y-87264934D01*
X212519164Y-87225721D01*
X212535405Y-87071200D01*
X212515043Y-86877467D01*
X212515043Y-86877465D01*
X212454846Y-86692202D01*
X212454846Y-86692201D01*
X212357446Y-86523499D01*
X212227099Y-86378734D01*
X212069503Y-86264233D01*
X212069502Y-86264232D01*
X211891544Y-86185001D01*
X211799092Y-86165350D01*
X211701000Y-86144500D01*
X211506200Y-86144500D01*
X211410927Y-86164750D01*
X211315655Y-86185001D01*
X211137698Y-86264232D01*
X210980099Y-86378735D01*
X210849754Y-86523498D01*
X210752353Y-86692202D01*
X210692156Y-86877465D01*
X210671795Y-87071200D01*
X210505405Y-87071200D01*
X210485043Y-86877467D01*
X210485043Y-86877465D01*
X210424846Y-86692202D01*
X210424846Y-86692201D01*
X210327446Y-86523499D01*
X210197099Y-86378734D01*
X210039503Y-86264233D01*
X210039502Y-86264232D01*
X209861544Y-86185001D01*
X209769092Y-86165350D01*
X209671000Y-86144500D01*
X209476200Y-86144500D01*
X209380928Y-86164750D01*
X209285655Y-86185001D01*
X209107698Y-86264232D01*
X208950099Y-86378735D01*
X208819754Y-86523498D01*
X208722353Y-86692202D01*
X208662156Y-86877465D01*
X208641795Y-87071200D01*
X208475405Y-87071200D01*
X208455043Y-86877467D01*
X208455043Y-86877465D01*
X208394846Y-86692202D01*
X208394846Y-86692201D01*
X208297446Y-86523499D01*
X208167099Y-86378734D01*
X208009503Y-86264233D01*
X208009502Y-86264232D01*
X207831544Y-86185001D01*
X207739092Y-86165350D01*
X207641000Y-86144500D01*
X207446200Y-86144500D01*
X207350928Y-86164750D01*
X207255655Y-86185001D01*
X207077698Y-86264232D01*
X206920099Y-86378735D01*
X206789754Y-86523498D01*
X206692353Y-86692202D01*
X206632156Y-86877465D01*
X206611795Y-87071199D01*
X206445405Y-87071199D01*
X206425043Y-86877467D01*
X206425043Y-86877465D01*
X206364846Y-86692202D01*
X206364846Y-86692201D01*
X206267446Y-86523499D01*
X206137099Y-86378734D01*
X205979503Y-86264233D01*
X205979502Y-86264232D01*
X205801544Y-86185001D01*
X205709092Y-86165350D01*
X205611000Y-86144500D01*
X205416200Y-86144500D01*
X205320928Y-86164750D01*
X205225655Y-86185001D01*
X205047698Y-86264232D01*
X204890099Y-86378735D01*
X204759754Y-86523498D01*
X204662353Y-86692202D01*
X204602156Y-86877465D01*
X204581795Y-87071200D01*
X204594527Y-87192340D01*
X204582082Y-87242252D01*
X204540467Y-87272487D01*
X204489152Y-87268899D01*
X204452150Y-87233165D01*
X204450529Y-87229611D01*
X204402021Y-87115463D01*
X204396023Y-87101348D01*
X204253005Y-86867004D01*
X204253003Y-86867001D01*
X204077393Y-86655983D01*
X203872925Y-86472778D01*
X203643958Y-86321295D01*
X203395380Y-86204767D01*
X203195059Y-86144500D01*
X203132481Y-86125673D01*
X202860869Y-86085700D01*
X202655053Y-86085700D01*
X202653681Y-86085800D01*
X202653664Y-86085801D01*
X202449798Y-86100721D01*
X202181824Y-86160416D01*
X201925400Y-86258489D01*
X201685993Y-86392851D01*
X201468694Y-86560644D01*
X201278145Y-86758284D01*
X201118403Y-86981563D01*
X200992873Y-87225719D01*
X200904230Y-87485554D01*
X200854364Y-87755523D01*
X200844337Y-88029880D01*
X191209500Y-88029880D01*
X191209500Y-87450197D01*
X191209499Y-84667022D01*
X191227092Y-84618686D01*
X191271641Y-84592966D01*
X191322299Y-84601899D01*
X191355364Y-84641304D01*
X191357337Y-84647561D01*
X191417749Y-84873024D01*
X191418970Y-84876781D01*
X191556536Y-85235150D01*
X191558135Y-85238742D01*
X191732419Y-85580795D01*
X191734374Y-85584181D01*
X191943458Y-85906141D01*
X191945759Y-85909308D01*
X192153096Y-86165350D01*
X193050756Y-85267689D01*
X193009449Y-85329511D01*
X192990046Y-85427056D01*
X193009449Y-85524601D01*
X193064704Y-85607296D01*
X193147399Y-85662551D01*
X193220320Y-85677056D01*
X193269568Y-85677056D01*
X193342489Y-85662551D01*
X193404301Y-85621249D01*
X192506648Y-86518902D01*
X192762691Y-86726240D01*
X192765858Y-86728541D01*
X193087818Y-86937625D01*
X193091204Y-86939580D01*
X193433257Y-87113864D01*
X193436849Y-87115463D01*
X193795218Y-87253029D01*
X193798975Y-87254250D01*
X194169764Y-87353602D01*
X194173624Y-87354422D01*
X194552763Y-87414472D01*
X194556683Y-87414884D01*
X194940035Y-87434975D01*
X194943965Y-87434975D01*
X195327316Y-87414884D01*
X195331236Y-87414472D01*
X195710375Y-87354422D01*
X195714235Y-87353602D01*
X196085024Y-87254250D01*
X196088781Y-87253029D01*
X196447150Y-87115463D01*
X196450742Y-87113864D01*
X196792795Y-86939580D01*
X196796181Y-86937625D01*
X197118141Y-86728541D01*
X197121320Y-86726231D01*
X197377349Y-86518903D01*
X197377350Y-86518902D01*
X196479694Y-85621246D01*
X196541511Y-85662551D01*
X196614432Y-85677056D01*
X196663680Y-85677056D01*
X196736601Y-85662551D01*
X196819296Y-85607296D01*
X196874551Y-85524601D01*
X196893954Y-85427056D01*
X196874551Y-85329511D01*
X196833246Y-85267694D01*
X197730902Y-86165350D01*
X197730903Y-86165349D01*
X197938231Y-85909320D01*
X197940541Y-85906141D01*
X198149625Y-85584181D01*
X198151580Y-85580795D01*
X198325864Y-85238742D01*
X198327463Y-85235150D01*
X198465029Y-84876781D01*
X198466250Y-84873024D01*
X198565602Y-84502235D01*
X198566422Y-84498375D01*
X198626472Y-84119236D01*
X198626884Y-84115316D01*
X198646975Y-83731965D01*
X198646975Y-83728034D01*
X198646617Y-83721200D01*
X199131396Y-83721200D01*
X199150184Y-83971917D01*
X199206132Y-84217038D01*
X199297988Y-84451084D01*
X199423697Y-84668818D01*
X199463062Y-84718181D01*
X199463063Y-84718182D01*
X200107817Y-84073428D01*
X200195979Y-84213736D01*
X200321064Y-84338821D01*
X200461369Y-84426981D01*
X199816607Y-85071744D01*
X199816607Y-85071746D01*
X199972497Y-85178031D01*
X200199023Y-85287120D01*
X200439273Y-85361227D01*
X200687889Y-85398700D01*
X200939311Y-85398700D01*
X201187926Y-85361227D01*
X201428176Y-85287120D01*
X201654702Y-85178031D01*
X201810591Y-85071746D01*
X201810591Y-85071744D01*
X201165829Y-84426982D01*
X201306136Y-84338821D01*
X201431221Y-84213736D01*
X201519382Y-84073428D01*
X202164135Y-84718181D01*
X202164136Y-84718181D01*
X202203501Y-84668820D01*
X202282956Y-84531200D01*
X205601795Y-84531200D01*
X205622156Y-84724934D01*
X205682353Y-84910197D01*
X205779754Y-85078901D01*
X205881193Y-85191561D01*
X205910101Y-85223666D01*
X206067697Y-85338167D01*
X206245656Y-85417399D01*
X206436200Y-85457900D01*
X206436201Y-85457900D01*
X206630999Y-85457900D01*
X206631000Y-85457900D01*
X206821544Y-85417399D01*
X206999503Y-85338167D01*
X207157099Y-85223666D01*
X207287446Y-85078901D01*
X207384846Y-84910199D01*
X207445043Y-84724933D01*
X207465405Y-84531200D01*
X207631795Y-84531200D01*
X207652156Y-84724934D01*
X207712353Y-84910197D01*
X207809754Y-85078901D01*
X207911193Y-85191561D01*
X207940101Y-85223666D01*
X208097697Y-85338167D01*
X208275656Y-85417399D01*
X208466200Y-85457900D01*
X208466201Y-85457900D01*
X208660999Y-85457900D01*
X208661000Y-85457900D01*
X208851544Y-85417399D01*
X209029503Y-85338167D01*
X209187099Y-85223666D01*
X209317446Y-85078901D01*
X209414846Y-84910199D01*
X209475043Y-84724933D01*
X209495405Y-84531200D01*
X209495405Y-84531199D01*
X209661795Y-84531199D01*
X209682156Y-84724934D01*
X209742353Y-84910197D01*
X209839754Y-85078901D01*
X209941193Y-85191561D01*
X209970101Y-85223666D01*
X210127697Y-85338167D01*
X210305656Y-85417399D01*
X210496200Y-85457900D01*
X210496201Y-85457900D01*
X210690999Y-85457900D01*
X210691000Y-85457900D01*
X210881544Y-85417399D01*
X211059503Y-85338167D01*
X211147457Y-85274264D01*
X211696900Y-85274264D01*
X211708718Y-85333679D01*
X211708719Y-85333680D01*
X211753740Y-85401060D01*
X211821120Y-85446081D01*
X211880536Y-85457900D01*
X213366664Y-85457900D01*
X213426080Y-85446081D01*
X213493460Y-85401060D01*
X213538481Y-85333680D01*
X213550300Y-85274264D01*
X213550300Y-83788136D01*
X213538481Y-83728720D01*
X213533456Y-83721199D01*
X215391396Y-83721199D01*
X215410184Y-83971917D01*
X215466132Y-84217038D01*
X215557988Y-84451084D01*
X215683697Y-84668818D01*
X215723062Y-84718181D01*
X215723063Y-84718182D01*
X216367817Y-84073428D01*
X216455979Y-84213736D01*
X216581064Y-84338821D01*
X216721369Y-84426981D01*
X216076607Y-85071744D01*
X216076607Y-85071746D01*
X216232497Y-85178031D01*
X216459023Y-85287120D01*
X216699273Y-85361227D01*
X216947889Y-85398700D01*
X217199311Y-85398700D01*
X217447926Y-85361227D01*
X217688176Y-85287120D01*
X217914702Y-85178031D01*
X218070591Y-85071746D01*
X218070591Y-85071744D01*
X217425829Y-84426982D01*
X217566136Y-84338821D01*
X217691221Y-84213736D01*
X217779382Y-84073428D01*
X218424135Y-84718181D01*
X218424136Y-84718181D01*
X218463501Y-84668820D01*
X218589211Y-84451084D01*
X218681067Y-84217038D01*
X218737015Y-83971917D01*
X218755803Y-83721199D01*
X218737015Y-83470482D01*
X218681067Y-83225361D01*
X218589211Y-82991315D01*
X218463501Y-82773581D01*
X218424136Y-82724217D01*
X218424135Y-82724216D01*
X217779381Y-83368969D01*
X217691221Y-83228664D01*
X217566136Y-83103579D01*
X217425828Y-83015417D01*
X218070591Y-82370654D01*
X218070591Y-82370652D01*
X217914702Y-82264368D01*
X217688176Y-82155279D01*
X217447926Y-82081172D01*
X217199311Y-82043700D01*
X216947889Y-82043700D01*
X216699273Y-82081172D01*
X216459023Y-82155279D01*
X216232494Y-82264370D01*
X216076607Y-82370651D01*
X216076607Y-82370654D01*
X216721370Y-83015417D01*
X216581064Y-83103579D01*
X216455979Y-83228664D01*
X216367817Y-83368970D01*
X215723063Y-82724216D01*
X215723062Y-82724217D01*
X215683697Y-82773581D01*
X215557988Y-82991315D01*
X215466132Y-83225361D01*
X215410184Y-83470482D01*
X215391396Y-83721199D01*
X213533456Y-83721199D01*
X213493460Y-83661340D01*
X213426080Y-83616319D01*
X213426079Y-83616318D01*
X213366664Y-83604500D01*
X211880536Y-83604500D01*
X211821120Y-83616318D01*
X211753740Y-83661340D01*
X211708718Y-83728720D01*
X211696900Y-83788135D01*
X211696900Y-85274264D01*
X211147457Y-85274264D01*
X211217099Y-85223666D01*
X211347446Y-85078901D01*
X211444846Y-84910199D01*
X211505043Y-84724933D01*
X211525405Y-84531200D01*
X211508579Y-84371115D01*
X211505043Y-84337465D01*
X211444846Y-84152202D01*
X211444846Y-84152201D01*
X211347446Y-83983499D01*
X211217099Y-83838734D01*
X211067441Y-83730000D01*
X211059502Y-83724232D01*
X210881544Y-83645001D01*
X210822519Y-83632455D01*
X210691000Y-83604500D01*
X210496200Y-83604500D01*
X210400928Y-83624750D01*
X210305655Y-83645001D01*
X210127698Y-83724232D01*
X209970099Y-83838735D01*
X209839754Y-83983498D01*
X209742353Y-84152202D01*
X209682156Y-84337465D01*
X209661795Y-84531199D01*
X209495405Y-84531199D01*
X209478579Y-84371115D01*
X209475043Y-84337465D01*
X209414846Y-84152202D01*
X209414846Y-84152201D01*
X209317446Y-83983499D01*
X209187099Y-83838734D01*
X209037441Y-83730000D01*
X209029502Y-83724232D01*
X208851544Y-83645001D01*
X208792519Y-83632455D01*
X208661000Y-83604500D01*
X208466200Y-83604500D01*
X208370927Y-83624750D01*
X208275655Y-83645001D01*
X208097698Y-83724232D01*
X207940099Y-83838735D01*
X207809754Y-83983498D01*
X207712353Y-84152202D01*
X207652156Y-84337465D01*
X207631795Y-84531200D01*
X207465405Y-84531200D01*
X207448915Y-84374316D01*
X207445043Y-84337465D01*
X207384846Y-84152202D01*
X207384846Y-84152201D01*
X207287446Y-83983499D01*
X207157099Y-83838734D01*
X207007441Y-83730000D01*
X206999502Y-83724232D01*
X206821544Y-83645001D01*
X206762519Y-83632455D01*
X206631000Y-83604500D01*
X206436200Y-83604500D01*
X206340927Y-83624750D01*
X206245655Y-83645001D01*
X206067698Y-83724232D01*
X205910099Y-83838735D01*
X205779754Y-83983498D01*
X205682353Y-84152202D01*
X205622156Y-84337465D01*
X205601795Y-84531200D01*
X202282956Y-84531200D01*
X202329211Y-84451084D01*
X202421067Y-84217038D01*
X202477015Y-83971917D01*
X202495803Y-83721200D01*
X202477015Y-83470482D01*
X202421067Y-83225361D01*
X202329211Y-82991315D01*
X202203501Y-82773581D01*
X202164136Y-82724217D01*
X202164135Y-82724216D01*
X201519381Y-83368969D01*
X201431221Y-83228664D01*
X201306136Y-83103579D01*
X201165828Y-83015417D01*
X201810591Y-82370654D01*
X201810591Y-82370652D01*
X201654702Y-82264368D01*
X201428176Y-82155279D01*
X201187926Y-82081172D01*
X200939311Y-82043700D01*
X200687889Y-82043700D01*
X200439273Y-82081172D01*
X200199023Y-82155279D01*
X199972494Y-82264370D01*
X199816607Y-82370651D01*
X199816607Y-82370654D01*
X200461370Y-83015417D01*
X200321064Y-83103579D01*
X200195979Y-83228664D01*
X200107817Y-83368970D01*
X199463063Y-82724216D01*
X199463062Y-82724217D01*
X199423697Y-82773581D01*
X199297988Y-82991315D01*
X199206132Y-83225361D01*
X199150184Y-83470482D01*
X199131396Y-83721200D01*
X198646617Y-83721200D01*
X198626884Y-83344683D01*
X198626472Y-83340763D01*
X198566422Y-82961624D01*
X198565602Y-82957764D01*
X198466250Y-82586975D01*
X198465029Y-82583218D01*
X198327463Y-82224849D01*
X198325864Y-82221257D01*
X198151580Y-81879204D01*
X198149625Y-81875818D01*
X197940541Y-81553858D01*
X197938240Y-81550691D01*
X197730902Y-81294648D01*
X196833249Y-82192300D01*
X196874551Y-82130489D01*
X196893954Y-82032944D01*
X196874551Y-81935399D01*
X196819296Y-81852704D01*
X196736601Y-81797449D01*
X196663680Y-81782944D01*
X196614432Y-81782944D01*
X196541511Y-81797449D01*
X196479690Y-81838755D01*
X197377350Y-80941096D01*
X197121308Y-80733759D01*
X197118141Y-80731458D01*
X196796181Y-80522374D01*
X196792795Y-80520419D01*
X196450742Y-80346135D01*
X196447150Y-80344536D01*
X196088781Y-80206970D01*
X196085024Y-80205749D01*
X195714235Y-80106397D01*
X195710375Y-80105577D01*
X195331236Y-80045527D01*
X195327316Y-80045115D01*
X194943965Y-80025025D01*
X194940035Y-80025025D01*
X194556683Y-80045115D01*
X194552763Y-80045527D01*
X194173624Y-80105577D01*
X194169764Y-80106397D01*
X193798975Y-80205749D01*
X193795218Y-80206970D01*
X193436849Y-80344536D01*
X193433257Y-80346135D01*
X193091204Y-80520419D01*
X193087818Y-80522374D01*
X192765863Y-80731454D01*
X192762681Y-80733767D01*
X192506648Y-80941096D01*
X193404305Y-81838753D01*
X193342489Y-81797449D01*
X193269568Y-81782944D01*
X193220320Y-81782944D01*
X193147399Y-81797449D01*
X193064704Y-81852704D01*
X193009449Y-81935399D01*
X192990046Y-82032944D01*
X193009449Y-82130489D01*
X193050753Y-82192305D01*
X192153096Y-81294648D01*
X191945767Y-81550681D01*
X191943454Y-81553863D01*
X191734374Y-81875818D01*
X191732419Y-81879204D01*
X191558135Y-82221257D01*
X191556536Y-82224849D01*
X191418970Y-82583218D01*
X191417749Y-82586975D01*
X191357337Y-82812439D01*
X191327832Y-82854576D01*
X191278145Y-82867890D01*
X191231525Y-82846150D01*
X191209785Y-82799530D01*
X191209499Y-82792976D01*
X191209499Y-78800155D01*
X207164575Y-78800155D01*
X207185188Y-78943525D01*
X207245356Y-79075274D01*
X207340210Y-79184742D01*
X207428786Y-79241666D01*
X207462059Y-79263049D01*
X207601034Y-79303855D01*
X207745876Y-79303855D01*
X207884851Y-79263049D01*
X207932420Y-79232477D01*
X208015797Y-79178896D01*
X208016501Y-79179992D01*
X208050469Y-79161091D01*
X208100980Y-79170824D01*
X208116122Y-79183529D01*
X208206586Y-79241666D01*
X208239859Y-79263049D01*
X208378834Y-79303855D01*
X208523676Y-79303855D01*
X208662651Y-79263049D01*
X208784501Y-79184741D01*
X208879352Y-79075276D01*
X208939522Y-78943523D01*
X208960135Y-78800155D01*
X208957060Y-78778771D01*
X210164575Y-78778771D01*
X210185188Y-78922142D01*
X210245356Y-79053891D01*
X210340210Y-79163359D01*
X210373483Y-79184742D01*
X210462059Y-79241666D01*
X210601034Y-79282472D01*
X210745876Y-79282472D01*
X210884851Y-79241666D01*
X210973427Y-79184742D01*
X211015797Y-79157513D01*
X211016502Y-79158610D01*
X211050462Y-79139709D01*
X211100974Y-79149437D01*
X211116120Y-79162145D01*
X211239857Y-79241665D01*
X211239859Y-79241666D01*
X211378834Y-79282472D01*
X211523676Y-79282472D01*
X211662651Y-79241666D01*
X211784501Y-79163358D01*
X211879352Y-79053893D01*
X211939522Y-78922140D01*
X211960135Y-78778772D01*
X211939522Y-78635404D01*
X211889118Y-78525035D01*
X211879353Y-78503652D01*
X211807143Y-78420317D01*
X211784501Y-78394186D01*
X211784500Y-78394185D01*
X211784499Y-78394184D01*
X211662652Y-78315878D01*
X211523676Y-78275072D01*
X211378834Y-78275072D01*
X211239857Y-78315878D01*
X211108913Y-78400031D01*
X211108208Y-78398934D01*
X211074235Y-78417836D01*
X211023725Y-78408100D01*
X211008587Y-78395398D01*
X210884852Y-78315878D01*
X210745876Y-78275072D01*
X210601034Y-78275072D01*
X210462057Y-78315878D01*
X210340210Y-78394184D01*
X210245356Y-78503652D01*
X210185188Y-78635401D01*
X210164575Y-78778771D01*
X208957060Y-78778771D01*
X208939522Y-78656787D01*
X208929757Y-78635404D01*
X208879353Y-78525035D01*
X208821626Y-78458414D01*
X208784501Y-78415569D01*
X208784500Y-78415568D01*
X208784499Y-78415567D01*
X208662652Y-78337261D01*
X208523676Y-78296455D01*
X208378834Y-78296455D01*
X208239857Y-78337261D01*
X208108913Y-78421414D01*
X208108208Y-78420317D01*
X208074235Y-78439219D01*
X208023725Y-78429483D01*
X208008587Y-78416781D01*
X207884852Y-78337261D01*
X207745876Y-78296455D01*
X207601034Y-78296455D01*
X207462057Y-78337261D01*
X207340210Y-78415567D01*
X207245356Y-78525035D01*
X207185188Y-78656784D01*
X207164575Y-78800155D01*
X191209499Y-78800155D01*
X191209499Y-77323284D01*
X191209785Y-77316730D01*
X191212631Y-77284201D01*
X191224475Y-77148820D01*
X191226749Y-77135923D01*
X191269525Y-76976283D01*
X191274002Y-76963985D01*
X191343844Y-76814209D01*
X191350396Y-76802861D01*
X191445186Y-76667487D01*
X191453601Y-76657459D01*
X191570459Y-76540601D01*
X191580487Y-76532186D01*
X191715864Y-76437393D01*
X191727209Y-76430844D01*
X191876985Y-76361002D01*
X191889283Y-76356525D01*
X192048923Y-76313749D01*
X192061820Y-76311476D01*
X192229730Y-76296786D01*
X192236285Y-76296500D01*
X192298892Y-76296500D01*
X225122108Y-76296500D01*
X225184715Y-76296500D01*
X225191269Y-76296786D01*
G37*
G04 #@! TD.AperFunction*
G04 #@! TA.AperFunction,Conductor*
G36*
X193807130Y-84864870D02*
G01*
X193997818Y-85027732D01*
X193439137Y-85586413D01*
X193480439Y-85524601D01*
X193499842Y-85427056D01*
X193480439Y-85329511D01*
X193425184Y-85246816D01*
X193342489Y-85191561D01*
X193269568Y-85177056D01*
X193220320Y-85177056D01*
X193147399Y-85191561D01*
X193085577Y-85232868D01*
X193644266Y-84674180D01*
X193807130Y-84864870D01*
G37*
G04 #@! TD.AperFunction*
G04 #@! TA.AperFunction,Conductor*
G36*
X196798417Y-85232865D02*
G01*
X196736601Y-85191561D01*
X196663680Y-85177056D01*
X196614432Y-85177056D01*
X196541511Y-85191561D01*
X196458816Y-85246816D01*
X196403561Y-85329511D01*
X196384158Y-85427056D01*
X196403561Y-85524601D01*
X196444865Y-85586417D01*
X195886181Y-85027733D01*
X196076870Y-84864870D01*
X196239733Y-84674181D01*
X196798417Y-85232865D01*
G37*
G04 #@! TD.AperFunction*
G04 #@! TA.AperFunction,Conductor*
G36*
X221770130Y-84864870D02*
G01*
X221960818Y-85027732D01*
X221402137Y-85586413D01*
X221443439Y-85524601D01*
X221462842Y-85427056D01*
X221443439Y-85329511D01*
X221388184Y-85246816D01*
X221305489Y-85191561D01*
X221232568Y-85177056D01*
X221183320Y-85177056D01*
X221110399Y-85191561D01*
X221048577Y-85232868D01*
X221607266Y-84674180D01*
X221770130Y-84864870D01*
G37*
G04 #@! TD.AperFunction*
G04 #@! TA.AperFunction,Conductor*
G36*
X224761417Y-85232865D02*
G01*
X224699601Y-85191561D01*
X224626680Y-85177056D01*
X224577432Y-85177056D01*
X224504511Y-85191561D01*
X224421816Y-85246816D01*
X224366561Y-85329511D01*
X224347158Y-85427056D01*
X224366561Y-85524601D01*
X224407865Y-85586417D01*
X223849181Y-85027733D01*
X224039870Y-84864870D01*
X224202733Y-84674181D01*
X224761417Y-85232865D01*
G37*
G04 #@! TD.AperFunction*
G04 #@! TA.AperFunction,Conductor*
G36*
X221960818Y-82432267D02*
G01*
X221770130Y-82595130D01*
X221607266Y-82785819D01*
X221048581Y-82227133D01*
X221110399Y-82268439D01*
X221183320Y-82282944D01*
X221232568Y-82282944D01*
X221305489Y-82268439D01*
X221388184Y-82213184D01*
X221443439Y-82130489D01*
X221462842Y-82032944D01*
X221443439Y-81935399D01*
X221402135Y-81873583D01*
X221960818Y-82432267D01*
G37*
G04 #@! TD.AperFunction*
G04 #@! TA.AperFunction,Conductor*
G36*
X193997818Y-82432266D02*
G01*
X193807130Y-82595130D01*
X193644266Y-82785818D01*
X193085582Y-82227134D01*
X193147399Y-82268439D01*
X193220320Y-82282944D01*
X193269568Y-82282944D01*
X193342489Y-82268439D01*
X193425184Y-82213184D01*
X193480439Y-82130489D01*
X193499842Y-82032944D01*
X193480439Y-81935399D01*
X193439134Y-81873582D01*
X193997818Y-82432266D01*
G37*
G04 #@! TD.AperFunction*
G04 #@! TA.AperFunction,Conductor*
G36*
X196403561Y-81935399D02*
G01*
X196384158Y-82032944D01*
X196403561Y-82130489D01*
X196458816Y-82213184D01*
X196541511Y-82268439D01*
X196614432Y-82282944D01*
X196663680Y-82282944D01*
X196736601Y-82268439D01*
X196798412Y-82227137D01*
X196239732Y-82785818D01*
X196076870Y-82595130D01*
X195886180Y-82432266D01*
X196444867Y-81873578D01*
X196403561Y-81935399D01*
G37*
G04 #@! TD.AperFunction*
G04 #@! TA.AperFunction,Conductor*
G36*
X224366561Y-81935399D02*
G01*
X224347158Y-82032944D01*
X224366561Y-82130489D01*
X224421816Y-82213184D01*
X224504511Y-82268439D01*
X224577432Y-82282944D01*
X224626680Y-82282944D01*
X224699601Y-82268439D01*
X224761413Y-82227137D01*
X224202732Y-82785818D01*
X224039870Y-82595130D01*
X223849180Y-82432266D01*
X224407868Y-81873577D01*
X224366561Y-81935399D01*
G37*
G04 #@! TD.AperFunction*
D16*
X225185000Y-91796000D02*
X192233000Y-91796000D01*
X225188000Y-91796000D02*
G75*
G03*
X226712000Y-90272000I0J1524000D01*
G01*
X190709000Y-90272000D02*
G75*
G03*
X192233000Y-91796000I1524000J0D01*
G01*
X190709000Y-90272000D02*
X190709000Y-77320000D01*
X226712000Y-77320000D02*
X226712000Y-90272000D01*
X226712000Y-77320000D02*
G75*
G03*
X225188000Y-75796000I-1524000J0D01*
G01*
X192233000Y-75796000D02*
G75*
G03*
X190709000Y-77320000I0J-1524000D01*
G01*
X192232000Y-75796000D02*
X225185000Y-75796000D01*
M02*
