G04 #@! TF.GenerationSoftware,KiCad,Pcbnew,7.0.2-0*
G04 #@! TF.CreationDate,2023-08-07T23:17:52+03:00*
G04 #@! TF.ProjectId,RJ45_Module,524a3435-5f4d-46f6-9475-6c652e6b6963,1.0*
G04 #@! TF.SameCoordinates,Original*
G04 #@! TF.FileFunction,Copper,L1,Top*
G04 #@! TF.FilePolarity,Positive*
%FSLAX46Y46*%
G04 Gerber Fmt 4.6, Leading zero omitted, Abs format (unit mm)*
G04 Created by KiCad (PCBNEW 7.0.2-0) date 2023-08-07 23:17:52*
%MOMM*%
%LPD*%
G01*
G04 APERTURE LIST*
G04 #@! TA.AperFunction,ComponentPad*
%ADD10R,1.446000X1.446000*%
G04 #@! TD*
G04 #@! TA.AperFunction,ComponentPad*
%ADD11C,1.446000*%
G04 #@! TD*
G04 #@! TA.AperFunction,ComponentPad*
%ADD12C,2.355000*%
G04 #@! TD*
G04 #@! TA.AperFunction,ComponentPad*
%ADD13C,0.800000*%
G04 #@! TD*
G04 #@! TA.AperFunction,ComponentPad*
%ADD14C,6.400000*%
G04 #@! TD*
G04 #@! TA.AperFunction,ViaPad*
%ADD15C,0.600000*%
G04 #@! TD*
G04 #@! TA.AperFunction,Conductor*
%ADD16C,0.228600*%
G04 #@! TD*
G04 #@! TA.AperFunction,Profile*
%ADD17C,0.050000*%
G04 #@! TD*
G04 APERTURE END LIST*
D10*
X212623600Y-84531200D03*
D11*
X211603600Y-87071200D03*
X210593600Y-84531200D03*
X209573600Y-87071200D03*
X208563600Y-84531200D03*
X207543600Y-87071200D03*
X206533600Y-84531200D03*
X205513600Y-87071200D03*
D12*
X200813600Y-83721200D03*
X217073600Y-83721200D03*
D13*
X220505000Y-83730000D03*
X221207944Y-85427056D03*
X221207944Y-82032944D03*
X222905000Y-86130000D03*
D14*
X222905000Y-83730000D03*
D13*
X225305000Y-83730000D03*
X224602056Y-82032944D03*
X224602056Y-85427056D03*
X222905000Y-81330000D03*
X194942000Y-81330000D03*
X196639056Y-85427056D03*
X196639056Y-82032944D03*
X197342000Y-83730000D03*
D14*
X194942000Y-83730000D03*
D13*
X194942000Y-86130000D03*
X193244944Y-82032944D03*
X193244944Y-85427056D03*
X192542000Y-83730000D03*
D15*
X206545000Y-85930000D03*
X210555000Y-85950000D03*
X209873956Y-78781118D03*
X211956142Y-78158858D03*
X206873953Y-78799958D03*
X209250265Y-78772087D03*
X207673455Y-78800155D03*
X208451255Y-78800155D03*
X211451255Y-78778772D03*
X210673455Y-78778772D03*
D16*
X208265555Y-79620000D02*
X208265555Y-78985855D01*
X208265555Y-78985855D02*
X208451255Y-78800155D01*
X209573600Y-87071200D02*
X209566200Y-87071200D01*
X207573900Y-83781100D02*
X207859155Y-83495845D01*
X207859154Y-78985854D02*
X207673455Y-78800155D01*
X209566200Y-87071200D02*
X207573900Y-85078900D01*
X207573900Y-85078900D02*
X207573900Y-83781100D01*
X207859155Y-83495845D02*
X207859154Y-78985854D01*
X211265556Y-82320556D02*
X212623600Y-83678600D01*
X212094500Y-80180000D02*
G75*
G03*
X211794550Y-79880000I-300000J0D01*
G01*
X211565556Y-79880000D02*
X211794550Y-79880000D01*
X211794550Y-80480050D02*
G75*
G03*
X212094550Y-80180000I-50J300050D01*
G01*
X211265600Y-79580000D02*
G75*
G03*
X211565556Y-79880000I300000J0D01*
G01*
X211565556Y-81679956D02*
G75*
G03*
X211265556Y-81980000I44J-300044D01*
G01*
X211565556Y-81080000D02*
X211794558Y-81080000D01*
X211565556Y-80479956D02*
G75*
G03*
X211265556Y-80780000I44J-300044D01*
G01*
X211794558Y-81680000D02*
X211565556Y-81680000D01*
X211265600Y-80780000D02*
G75*
G03*
X211565556Y-81080000I300000J0D01*
G01*
X211794550Y-80480000D02*
X211565556Y-80480000D01*
X211794558Y-81679958D02*
G75*
G03*
X212094558Y-81380000I42J299958D01*
G01*
X212094600Y-81380000D02*
G75*
G03*
X211794558Y-81080000I-300000J0D01*
G01*
X211451255Y-78778772D02*
X211265556Y-78964471D01*
X211265556Y-78964471D02*
X211265556Y-79580000D01*
X211265556Y-81980000D02*
X211265556Y-82320556D01*
X212623600Y-83678600D02*
X212623600Y-84531200D01*
X210673455Y-78778772D02*
X210859154Y-78964471D01*
X210859154Y-78964471D02*
X210859154Y-82452970D01*
X210859154Y-82452970D02*
X211603600Y-83197416D01*
X211603600Y-83197416D02*
X211603600Y-87071200D01*
X209084000Y-80220000D02*
G75*
G03*
X208783956Y-79920000I-300000J0D01*
G01*
X208565555Y-81719955D02*
G75*
G03*
X208265555Y-82020000I45J-300045D01*
G01*
X208783956Y-80520000D02*
X208565555Y-80520000D01*
X208783953Y-82919953D02*
G75*
G03*
X209083953Y-82620000I47J299953D01*
G01*
X208265600Y-79620000D02*
G75*
G03*
X208565555Y-79920000I300000J0D01*
G01*
X208265600Y-80820000D02*
G75*
G03*
X208565555Y-81120000I300000J0D01*
G01*
X208565555Y-79920000D02*
X208783956Y-79920000D01*
X208565555Y-81120000D02*
X208783950Y-81120000D01*
X208565555Y-80519955D02*
G75*
G03*
X208265555Y-80820000I45J-300045D01*
G01*
X208783953Y-82920000D02*
X208565555Y-82920000D01*
X209084000Y-82620000D02*
G75*
G03*
X208783953Y-82320000I-300000J0D01*
G01*
X208783956Y-80519956D02*
G75*
G03*
X209083956Y-80220000I44J299956D01*
G01*
X209083900Y-81420000D02*
G75*
G03*
X208783950Y-81120000I-300000J0D01*
G01*
X208783950Y-81720050D02*
G75*
G03*
X209083950Y-81420000I-50J300050D01*
G01*
X208265600Y-82020000D02*
G75*
G03*
X208565555Y-82320000I300000J0D01*
G01*
X208565555Y-82919955D02*
G75*
G03*
X208265555Y-83220000I45J-300045D01*
G01*
X208783950Y-81720000D02*
X208565555Y-81720000D01*
X208565555Y-82320000D02*
X208783953Y-82320000D01*
X208265555Y-83220000D02*
X208265555Y-83450555D01*
X208265555Y-83450555D02*
X208563600Y-83748600D01*
X208563600Y-83748600D02*
X208563600Y-84531200D01*
G04 #@! TA.AperFunction,Conductor*
G36*
X193807130Y-84864870D02*
G01*
X193903999Y-84947604D01*
X193487349Y-85364254D01*
X193480439Y-85329511D01*
X193425184Y-85246816D01*
X193342489Y-85191561D01*
X193307743Y-85184649D01*
X193724394Y-84767998D01*
X193807130Y-84864870D01*
G37*
G04 #@! TD.AperFunction*
G04 #@! TA.AperFunction,Conductor*
G36*
X196576254Y-85184649D02*
G01*
X196541511Y-85191561D01*
X196458816Y-85246816D01*
X196403561Y-85329511D01*
X196396650Y-85364254D01*
X195980000Y-84947604D01*
X196076870Y-84864870D01*
X196159604Y-84767999D01*
X196576254Y-85184649D01*
G37*
G04 #@! TD.AperFunction*
G04 #@! TA.AperFunction,Conductor*
G36*
X193904000Y-82512395D02*
G01*
X193807130Y-82595130D01*
X193724395Y-82692000D01*
X193307744Y-82275350D01*
X193342489Y-82268439D01*
X193425184Y-82213184D01*
X193480439Y-82130489D01*
X193487350Y-82095744D01*
X193904000Y-82512395D01*
G37*
G04 #@! TD.AperFunction*
G04 #@! TA.AperFunction,Conductor*
G36*
X196403561Y-82130489D02*
G01*
X196458816Y-82213184D01*
X196541511Y-82268439D01*
X196576253Y-82275349D01*
X196159603Y-82691999D01*
X196076870Y-82595130D01*
X195979999Y-82512395D01*
X196396649Y-82095744D01*
X196403561Y-82130489D01*
G37*
G04 #@! TD.AperFunction*
G04 #@! TA.AperFunction,Conductor*
G36*
X225191269Y-76296786D02*
G01*
X225359177Y-76311475D01*
X225372078Y-76313750D01*
X225531712Y-76356524D01*
X225544017Y-76361004D01*
X225676250Y-76422665D01*
X225693786Y-76430842D01*
X225705138Y-76437396D01*
X225840505Y-76532181D01*
X225850546Y-76540607D01*
X225967392Y-76657453D01*
X225975818Y-76667494D01*
X226070603Y-76802861D01*
X226077157Y-76814213D01*
X226146993Y-76963976D01*
X226151477Y-76976294D01*
X226194248Y-77135917D01*
X226196524Y-77148826D01*
X226211213Y-77316729D01*
X226211499Y-77323283D01*
X226211499Y-82579622D01*
X226193906Y-82627960D01*
X226149357Y-82653680D01*
X226098699Y-82644747D01*
X226066440Y-82607456D01*
X225952783Y-82322199D01*
X225951065Y-82318485D01*
X225782700Y-82000916D01*
X225780604Y-81997434D01*
X225578883Y-81699916D01*
X225576427Y-81696686D01*
X225365840Y-81448763D01*
X224844461Y-81970141D01*
X224837551Y-81935399D01*
X224782296Y-81852704D01*
X224699601Y-81797449D01*
X224664856Y-81790537D01*
X225184138Y-81271256D01*
X225184137Y-81271254D01*
X225079977Y-81172587D01*
X225076858Y-81169937D01*
X224790717Y-80952419D01*
X224787337Y-80950127D01*
X224479333Y-80764807D01*
X224475761Y-80762913D01*
X224149522Y-80611979D01*
X224145742Y-80610473D01*
X223805099Y-80495697D01*
X223801198Y-80494614D01*
X223450148Y-80417342D01*
X223446123Y-80416683D01*
X223088796Y-80377821D01*
X223084717Y-80377600D01*
X222725283Y-80377600D01*
X222721203Y-80377821D01*
X222363876Y-80416683D01*
X222359851Y-80417342D01*
X222008801Y-80494614D01*
X222004900Y-80495697D01*
X221664257Y-80610473D01*
X221660477Y-80611979D01*
X221334238Y-80762913D01*
X221330666Y-80764807D01*
X221022662Y-80950127D01*
X221019282Y-80952419D01*
X220733141Y-81169937D01*
X220730032Y-81172578D01*
X220625861Y-81271255D01*
X220625860Y-81271255D01*
X221145142Y-81790537D01*
X221110399Y-81797449D01*
X221027704Y-81852704D01*
X220972449Y-81935399D01*
X220965537Y-81970143D01*
X220444157Y-81448763D01*
X220233572Y-81696686D01*
X220231116Y-81699916D01*
X220029395Y-81997434D01*
X220027299Y-82000916D01*
X219858934Y-82318485D01*
X219857216Y-82322199D01*
X219724175Y-82656106D01*
X219722875Y-82659964D01*
X219626715Y-83006301D01*
X219625836Y-83010299D01*
X219567688Y-83364987D01*
X219567246Y-83369048D01*
X219547786Y-83727971D01*
X219547786Y-83732028D01*
X219567246Y-84090951D01*
X219567688Y-84095012D01*
X219625836Y-84449700D01*
X219626715Y-84453698D01*
X219722875Y-84800035D01*
X219724175Y-84803893D01*
X219857216Y-85137800D01*
X219858934Y-85141514D01*
X220027299Y-85459083D01*
X220029395Y-85462565D01*
X220231116Y-85760083D01*
X220233572Y-85763313D01*
X220444158Y-86011235D01*
X220965537Y-85489855D01*
X220972449Y-85524601D01*
X221027704Y-85607296D01*
X221110399Y-85662551D01*
X221145141Y-85669461D01*
X220625860Y-86188743D01*
X220625861Y-86188744D01*
X220730022Y-86287412D01*
X220733141Y-86290062D01*
X221019282Y-86507580D01*
X221022662Y-86509872D01*
X221330666Y-86695192D01*
X221334238Y-86697086D01*
X221660477Y-86848020D01*
X221664257Y-86849526D01*
X222004900Y-86964302D01*
X222008801Y-86965385D01*
X222359851Y-87042657D01*
X222363876Y-87043316D01*
X222721203Y-87082178D01*
X222725283Y-87082400D01*
X223084717Y-87082400D01*
X223088796Y-87082178D01*
X223446123Y-87043316D01*
X223450148Y-87042657D01*
X223801198Y-86965385D01*
X223805099Y-86964302D01*
X224145742Y-86849526D01*
X224149522Y-86848020D01*
X224475761Y-86697086D01*
X224479333Y-86695192D01*
X224787337Y-86509872D01*
X224790717Y-86507580D01*
X225076859Y-86290061D01*
X225079967Y-86287421D01*
X225184137Y-86188743D01*
X225184138Y-86188742D01*
X224664857Y-85669461D01*
X224699601Y-85662551D01*
X224782296Y-85607296D01*
X224837551Y-85524601D01*
X224844462Y-85489857D01*
X225365840Y-86011235D01*
X225365841Y-86011235D01*
X225576427Y-85763312D01*
X225578883Y-85760083D01*
X225780604Y-85462565D01*
X225782700Y-85459083D01*
X225951065Y-85141514D01*
X225952783Y-85137800D01*
X226066439Y-84852544D01*
X226100674Y-84814151D01*
X226151578Y-84806747D01*
X226195333Y-84833795D01*
X226211498Y-84880378D01*
X226211498Y-90237235D01*
X226211500Y-90237258D01*
X226211500Y-90268715D01*
X226211214Y-90275269D01*
X226196524Y-90443173D01*
X226194248Y-90456082D01*
X226151477Y-90615705D01*
X226146993Y-90628023D01*
X226077157Y-90777786D01*
X226070603Y-90789138D01*
X225975818Y-90924505D01*
X225967392Y-90934546D01*
X225850546Y-91051392D01*
X225840505Y-91059818D01*
X225705138Y-91154603D01*
X225693786Y-91161157D01*
X225544023Y-91230993D01*
X225531705Y-91235477D01*
X225372082Y-91278248D01*
X225359173Y-91280524D01*
X225191269Y-91295214D01*
X225184715Y-91295500D01*
X192236285Y-91295500D01*
X192229731Y-91295214D01*
X192061826Y-91280524D01*
X192048917Y-91278248D01*
X191889294Y-91235477D01*
X191876976Y-91230993D01*
X191727213Y-91161157D01*
X191715861Y-91154603D01*
X191580494Y-91059818D01*
X191570453Y-91051392D01*
X191453607Y-90934546D01*
X191445181Y-90924505D01*
X191350396Y-90789138D01*
X191343842Y-90777786D01*
X191337591Y-90764381D01*
X191274004Y-90628017D01*
X191269524Y-90615712D01*
X191226750Y-90456078D01*
X191224475Y-90443173D01*
X191209786Y-90275269D01*
X191209500Y-90268715D01*
X191209500Y-90206107D01*
X191209500Y-88029880D01*
X200844337Y-88029880D01*
X200874363Y-88302770D01*
X200943804Y-88568384D01*
X201051177Y-88821052D01*
X201194196Y-89055398D01*
X201369806Y-89266416D01*
X201574274Y-89449621D01*
X201574276Y-89449622D01*
X201574277Y-89449623D01*
X201803241Y-89601104D01*
X202051821Y-89717633D01*
X202314719Y-89796727D01*
X202586331Y-89836700D01*
X202586333Y-89836700D01*
X202790760Y-89836700D01*
X202792147Y-89836700D01*
X202868481Y-89831112D01*
X202997401Y-89821678D01*
X203023730Y-89815812D01*
X203265375Y-89761984D01*
X203521798Y-89663911D01*
X203761209Y-89529547D01*
X203978504Y-89361757D01*
X204169054Y-89164116D01*
X204328796Y-88940837D01*
X204454327Y-88696679D01*
X204542970Y-88436846D01*
X204592836Y-88166874D01*
X204597842Y-88029880D01*
X213544337Y-88029880D01*
X213574363Y-88302770D01*
X213643804Y-88568384D01*
X213751177Y-88821052D01*
X213894196Y-89055398D01*
X214069806Y-89266416D01*
X214274274Y-89449621D01*
X214274276Y-89449622D01*
X214274277Y-89449623D01*
X214503241Y-89601104D01*
X214751821Y-89717633D01*
X215014719Y-89796727D01*
X215286331Y-89836700D01*
X215286333Y-89836700D01*
X215490760Y-89836700D01*
X215492147Y-89836700D01*
X215568481Y-89831112D01*
X215697401Y-89821678D01*
X215723730Y-89815812D01*
X215965375Y-89761984D01*
X216221798Y-89663911D01*
X216461209Y-89529547D01*
X216678504Y-89361757D01*
X216869054Y-89164116D01*
X217028796Y-88940837D01*
X217154327Y-88696679D01*
X217242970Y-88436846D01*
X217292836Y-88166874D01*
X217302862Y-87892520D01*
X217272836Y-87619629D01*
X217203396Y-87354018D01*
X217096023Y-87101348D01*
X216953005Y-86867004D01*
X216938460Y-86849526D01*
X216777393Y-86655983D01*
X216572925Y-86472778D01*
X216343958Y-86321295D01*
X216095380Y-86204767D01*
X215911835Y-86149547D01*
X215832481Y-86125673D01*
X215560869Y-86085700D01*
X215355053Y-86085700D01*
X215353681Y-86085800D01*
X215353664Y-86085801D01*
X215149798Y-86100721D01*
X214881824Y-86160416D01*
X214625400Y-86258489D01*
X214385993Y-86392851D01*
X214168694Y-86560644D01*
X213978145Y-86758284D01*
X213818403Y-86981563D01*
X213692873Y-87225719D01*
X213604230Y-87485554D01*
X213554364Y-87755523D01*
X213544337Y-88029880D01*
X204597842Y-88029880D01*
X204602862Y-87892520D01*
X204572836Y-87619629D01*
X204558959Y-87566549D01*
X204563754Y-87515334D01*
X204600348Y-87479183D01*
X204651619Y-87475011D01*
X204693576Y-87504772D01*
X204696839Y-87509929D01*
X204759754Y-87618901D01*
X204890101Y-87763666D01*
X205047697Y-87878167D01*
X205225656Y-87957399D01*
X205416200Y-87997900D01*
X205416201Y-87997900D01*
X205610999Y-87997900D01*
X205611000Y-87997900D01*
X205801544Y-87957399D01*
X205979503Y-87878167D01*
X206137099Y-87763666D01*
X206267446Y-87618901D01*
X206364846Y-87450199D01*
X206422589Y-87272487D01*
X206425043Y-87264934D01*
X206429164Y-87225721D01*
X206445405Y-87071200D01*
X206445405Y-87071199D01*
X206611795Y-87071199D01*
X206632156Y-87264934D01*
X206692353Y-87450197D01*
X206692354Y-87450199D01*
X206789754Y-87618901D01*
X206920101Y-87763666D01*
X207077697Y-87878167D01*
X207255656Y-87957399D01*
X207446200Y-87997900D01*
X207446201Y-87997900D01*
X207640999Y-87997900D01*
X207641000Y-87997900D01*
X207831544Y-87957399D01*
X208009503Y-87878167D01*
X208167099Y-87763666D01*
X208297446Y-87618901D01*
X208394846Y-87450199D01*
X208452589Y-87272487D01*
X208455043Y-87264934D01*
X208459164Y-87225721D01*
X208475405Y-87071200D01*
X208455043Y-86877467D01*
X208455043Y-86877465D01*
X208394846Y-86692202D01*
X208394846Y-86692201D01*
X208297446Y-86523499D01*
X208167099Y-86378734D01*
X208072826Y-86310240D01*
X208009502Y-86264232D01*
X207831544Y-86185001D01*
X207819829Y-86182511D01*
X207641000Y-86144500D01*
X207446200Y-86144500D01*
X207350928Y-86164750D01*
X207255655Y-86185001D01*
X207077698Y-86264232D01*
X206920099Y-86378735D01*
X206789754Y-86523498D01*
X206692353Y-86692202D01*
X206632156Y-86877465D01*
X206611795Y-87071199D01*
X206445405Y-87071199D01*
X206425043Y-86877467D01*
X206425043Y-86877465D01*
X206364846Y-86692202D01*
X206364846Y-86692201D01*
X206267446Y-86523499D01*
X206137099Y-86378734D01*
X206042826Y-86310240D01*
X205979502Y-86264232D01*
X205801544Y-86185001D01*
X205789829Y-86182511D01*
X205611000Y-86144500D01*
X205416200Y-86144500D01*
X205320928Y-86164750D01*
X205225655Y-86185001D01*
X205047698Y-86264232D01*
X204890099Y-86378735D01*
X204759754Y-86523498D01*
X204662353Y-86692202D01*
X204602156Y-86877465D01*
X204581795Y-87071200D01*
X204594527Y-87192340D01*
X204582082Y-87242252D01*
X204540467Y-87272487D01*
X204489152Y-87268899D01*
X204452150Y-87233165D01*
X204450529Y-87229611D01*
X204434690Y-87192340D01*
X204396023Y-87101348D01*
X204253005Y-86867004D01*
X204238460Y-86849526D01*
X204077393Y-86655983D01*
X203872925Y-86472778D01*
X203643958Y-86321295D01*
X203395380Y-86204767D01*
X203211835Y-86149547D01*
X203132481Y-86125673D01*
X202860869Y-86085700D01*
X202655053Y-86085700D01*
X202653681Y-86085800D01*
X202653664Y-86085801D01*
X202449798Y-86100721D01*
X202181824Y-86160416D01*
X201925400Y-86258489D01*
X201685993Y-86392851D01*
X201468694Y-86560644D01*
X201278145Y-86758284D01*
X201118403Y-86981563D01*
X200992873Y-87225719D01*
X200904230Y-87485554D01*
X200854364Y-87755523D01*
X200844337Y-88029880D01*
X191209500Y-88029880D01*
X191209499Y-83732028D01*
X191584786Y-83732028D01*
X191604246Y-84090951D01*
X191604688Y-84095012D01*
X191662836Y-84449700D01*
X191663715Y-84453698D01*
X191759875Y-84800035D01*
X191761175Y-84803893D01*
X191894216Y-85137800D01*
X191895934Y-85141514D01*
X192064299Y-85459083D01*
X192066395Y-85462565D01*
X192268116Y-85760083D01*
X192270572Y-85763313D01*
X192481158Y-86011235D01*
X193002537Y-85489855D01*
X193009449Y-85524601D01*
X193064704Y-85607296D01*
X193147399Y-85662551D01*
X193182142Y-85669461D01*
X192662861Y-86188743D01*
X192662861Y-86188744D01*
X192767022Y-86287412D01*
X192770141Y-86290062D01*
X193056282Y-86507580D01*
X193059662Y-86509872D01*
X193367666Y-86695192D01*
X193371238Y-86697086D01*
X193697477Y-86848020D01*
X193701257Y-86849526D01*
X194041900Y-86964302D01*
X194045801Y-86965385D01*
X194396851Y-87042657D01*
X194400876Y-87043316D01*
X194758203Y-87082178D01*
X194762283Y-87082400D01*
X195121717Y-87082400D01*
X195125796Y-87082178D01*
X195483123Y-87043316D01*
X195487148Y-87042657D01*
X195838198Y-86965385D01*
X195842099Y-86964302D01*
X196182742Y-86849526D01*
X196186522Y-86848020D01*
X196512761Y-86697086D01*
X196516333Y-86695192D01*
X196824337Y-86509872D01*
X196827717Y-86507580D01*
X197113859Y-86290061D01*
X197116967Y-86287421D01*
X197221137Y-86188743D01*
X197221138Y-86188742D01*
X196701857Y-85669461D01*
X196736601Y-85662551D01*
X196819296Y-85607296D01*
X196874551Y-85524601D01*
X196881462Y-85489857D01*
X197402840Y-86011235D01*
X197402841Y-86011235D01*
X197613427Y-85763312D01*
X197615883Y-85760083D01*
X197817604Y-85462565D01*
X197819700Y-85459083D01*
X197988065Y-85141514D01*
X197989783Y-85137800D01*
X198122824Y-84803893D01*
X198124124Y-84800035D01*
X198220284Y-84453698D01*
X198221163Y-84449700D01*
X198279311Y-84095012D01*
X198279753Y-84090951D01*
X198299214Y-83732028D01*
X198299214Y-83727971D01*
X198298847Y-83721200D01*
X199478620Y-83721200D01*
X199498901Y-83953015D01*
X199559130Y-84177793D01*
X199657472Y-84388690D01*
X199784742Y-84570450D01*
X199784743Y-84570451D01*
X200174940Y-84180253D01*
X200195979Y-84213736D01*
X200321064Y-84338821D01*
X200354544Y-84359858D01*
X199964347Y-84750055D01*
X199964348Y-84750056D01*
X200146109Y-84877327D01*
X200357006Y-84975669D01*
X200581784Y-85035898D01*
X200813599Y-85056179D01*
X201045415Y-85035898D01*
X201270193Y-84975669D01*
X201481089Y-84877327D01*
X201662850Y-84750056D01*
X201662851Y-84750055D01*
X201272654Y-84359858D01*
X201306136Y-84338821D01*
X201431221Y-84213736D01*
X201452258Y-84180254D01*
X201842455Y-84570451D01*
X201842456Y-84570450D01*
X201869939Y-84531200D01*
X205601795Y-84531200D01*
X205622156Y-84724934D01*
X205682353Y-84910197D01*
X205779754Y-85078901D01*
X205906722Y-85219914D01*
X205910101Y-85223666D01*
X206067697Y-85338167D01*
X206245656Y-85417399D01*
X206436200Y-85457900D01*
X206436201Y-85457900D01*
X206630999Y-85457900D01*
X206631000Y-85457900D01*
X206821544Y-85417399D01*
X206999503Y-85338167D01*
X207157099Y-85223666D01*
X207166947Y-85212728D01*
X207212361Y-85188578D01*
X207262678Y-85199271D01*
X207284432Y-85219914D01*
X207303562Y-85247235D01*
X207307085Y-85252766D01*
X207326538Y-85286459D01*
X207356347Y-85311471D01*
X207361184Y-85315904D01*
X208693478Y-86648198D01*
X208715218Y-86694818D01*
X208711823Y-86724610D01*
X208662156Y-86877465D01*
X208641795Y-87071200D01*
X208662156Y-87264934D01*
X208722353Y-87450197D01*
X208722354Y-87450199D01*
X208819754Y-87618901D01*
X208950101Y-87763666D01*
X209107697Y-87878167D01*
X209285656Y-87957399D01*
X209476200Y-87997900D01*
X209476201Y-87997900D01*
X209670999Y-87997900D01*
X209671000Y-87997900D01*
X209861544Y-87957399D01*
X210039503Y-87878167D01*
X210197099Y-87763666D01*
X210327446Y-87618901D01*
X210424846Y-87450199D01*
X210482589Y-87272487D01*
X210485043Y-87264934D01*
X210489164Y-87225721D01*
X210505405Y-87071200D01*
X210485043Y-86877467D01*
X210485043Y-86877465D01*
X210424846Y-86692202D01*
X210424846Y-86692201D01*
X210327446Y-86523499D01*
X210197099Y-86378734D01*
X210102826Y-86310240D01*
X210039502Y-86264232D01*
X209861544Y-86185001D01*
X209849829Y-86182511D01*
X209671000Y-86144500D01*
X209476200Y-86144500D01*
X209285656Y-86185001D01*
X209285655Y-86185001D01*
X209285652Y-86185002D01*
X209224972Y-86212018D01*
X209173658Y-86215606D01*
X209141213Y-86196493D01*
X208530994Y-85586274D01*
X208509254Y-85539654D01*
X208522568Y-85489967D01*
X208564705Y-85460462D01*
X208584168Y-85457900D01*
X208660999Y-85457900D01*
X208661000Y-85457900D01*
X208851544Y-85417399D01*
X209029503Y-85338167D01*
X209187099Y-85223666D01*
X209317446Y-85078901D01*
X209414846Y-84910199D01*
X209466880Y-84750056D01*
X209475043Y-84724934D01*
X209480463Y-84673365D01*
X209495405Y-84531200D01*
X209495405Y-84531199D01*
X209661795Y-84531199D01*
X209682156Y-84724934D01*
X209742353Y-84910197D01*
X209839754Y-85078901D01*
X209966722Y-85219914D01*
X209970101Y-85223666D01*
X210127697Y-85338167D01*
X210305656Y-85417399D01*
X210496200Y-85457900D01*
X210496201Y-85457900D01*
X210690999Y-85457900D01*
X210691000Y-85457900D01*
X210881544Y-85417399D01*
X211059503Y-85338167D01*
X211166200Y-85260646D01*
X211215645Y-85246468D01*
X211262638Y-85267390D01*
X211285188Y-85313624D01*
X211285600Y-85321485D01*
X211285600Y-86149547D01*
X211268007Y-86197885D01*
X211240989Y-86218244D01*
X211175376Y-86247457D01*
X211137697Y-86264233D01*
X210980099Y-86378735D01*
X210849754Y-86523498D01*
X210752353Y-86692202D01*
X210692156Y-86877465D01*
X210671795Y-87071200D01*
X210692156Y-87264934D01*
X210752353Y-87450197D01*
X210752354Y-87450199D01*
X210849754Y-87618901D01*
X210980101Y-87763666D01*
X211137697Y-87878167D01*
X211315656Y-87957399D01*
X211506200Y-87997900D01*
X211506201Y-87997900D01*
X211700999Y-87997900D01*
X211701000Y-87997900D01*
X211891544Y-87957399D01*
X212069503Y-87878167D01*
X212227099Y-87763666D01*
X212357446Y-87618901D01*
X212454846Y-87450199D01*
X212512589Y-87272487D01*
X212515043Y-87264934D01*
X212519164Y-87225721D01*
X212535405Y-87071200D01*
X212515043Y-86877467D01*
X212515043Y-86877465D01*
X212454846Y-86692202D01*
X212454846Y-86692201D01*
X212357446Y-86523499D01*
X212227099Y-86378734D01*
X212069503Y-86264233D01*
X212069499Y-86264231D01*
X211966213Y-86218244D01*
X211929210Y-86182511D01*
X211921600Y-86149546D01*
X211921600Y-85533100D01*
X211939193Y-85484762D01*
X211983742Y-85459042D01*
X211996800Y-85457900D01*
X213366664Y-85457900D01*
X213426080Y-85446081D01*
X213493460Y-85401060D01*
X213538481Y-85333680D01*
X213550300Y-85274264D01*
X213550300Y-83788136D01*
X213538481Y-83728720D01*
X213533456Y-83721200D01*
X215738620Y-83721200D01*
X215758901Y-83953015D01*
X215819130Y-84177793D01*
X215917472Y-84388690D01*
X216044742Y-84570450D01*
X216044743Y-84570451D01*
X216434940Y-84180253D01*
X216455979Y-84213736D01*
X216581064Y-84338821D01*
X216614544Y-84359858D01*
X216224347Y-84750055D01*
X216224348Y-84750056D01*
X216406109Y-84877327D01*
X216617006Y-84975669D01*
X216841784Y-85035898D01*
X217073600Y-85056179D01*
X217305415Y-85035898D01*
X217530193Y-84975669D01*
X217741089Y-84877327D01*
X217922850Y-84750056D01*
X217922851Y-84750055D01*
X217532654Y-84359858D01*
X217566136Y-84338821D01*
X217691221Y-84213736D01*
X217712258Y-84180254D01*
X218102455Y-84570451D01*
X218102456Y-84570450D01*
X218229727Y-84388689D01*
X218328069Y-84177793D01*
X218388298Y-83953015D01*
X218408579Y-83721199D01*
X218388298Y-83489384D01*
X218328069Y-83264606D01*
X218229727Y-83053709D01*
X218102456Y-82871948D01*
X218102455Y-82871947D01*
X217712258Y-83262144D01*
X217691221Y-83228664D01*
X217566136Y-83103579D01*
X217532654Y-83082540D01*
X217922851Y-82692343D01*
X217922850Y-82692342D01*
X217741090Y-82565072D01*
X217530193Y-82466730D01*
X217305415Y-82406501D01*
X217073599Y-82386220D01*
X216841784Y-82406501D01*
X216617006Y-82466730D01*
X216406110Y-82565072D01*
X216224348Y-82692342D01*
X216224347Y-82692343D01*
X216614545Y-83082541D01*
X216581064Y-83103579D01*
X216455979Y-83228664D01*
X216434941Y-83262145D01*
X216044743Y-82871947D01*
X216044742Y-82871948D01*
X215917472Y-83053710D01*
X215819130Y-83264606D01*
X215758901Y-83489384D01*
X215738620Y-83721200D01*
X213533456Y-83721200D01*
X213493460Y-83661340D01*
X213448438Y-83631257D01*
X213426079Y-83616318D01*
X213366664Y-83604500D01*
X212991429Y-83604500D01*
X212943091Y-83586907D01*
X212926303Y-83566898D01*
X212924873Y-83564422D01*
X212917367Y-83546296D01*
X212916776Y-83544090D01*
X212916252Y-83542134D01*
X212893933Y-83510258D01*
X212890409Y-83504727D01*
X212870960Y-83471040D01*
X212841151Y-83446027D01*
X212836315Y-83441595D01*
X211605582Y-82210861D01*
X211583842Y-82164241D01*
X211583556Y-82157687D01*
X211583556Y-82073200D01*
X211601149Y-82024862D01*
X211645698Y-81999142D01*
X211658756Y-81998000D01*
X211828882Y-81998000D01*
X211829297Y-81997961D01*
X211864147Y-81997967D01*
X211999925Y-81966993D01*
X212125406Y-81906580D01*
X212234296Y-81819758D01*
X212321134Y-81710880D01*
X212381565Y-81585408D01*
X212412557Y-81449633D01*
X212412557Y-81439126D01*
X212412558Y-81439117D01*
X212412558Y-81411190D01*
X212412599Y-81411074D01*
X212412599Y-81380000D01*
X212412600Y-81380000D01*
X212412599Y-81310362D01*
X212381604Y-81174579D01*
X212321170Y-81049098D01*
X212234326Y-80940212D01*
X212175678Y-80893449D01*
X212125428Y-80853383D01*
X212113735Y-80847754D01*
X212077814Y-80810934D01*
X212073965Y-80759638D01*
X212103988Y-80717869D01*
X212113711Y-80712253D01*
X212125460Y-80706594D01*
X212234329Y-80619756D01*
X212321149Y-80510872D01*
X212381566Y-80385400D01*
X212412551Y-80249630D01*
X212412550Y-80180000D01*
X212412550Y-80129634D01*
X212412550Y-80117894D01*
X212412500Y-80117577D01*
X212412500Y-80110376D01*
X212401158Y-80060676D01*
X212381518Y-79974617D01*
X212321106Y-79849155D01*
X212234293Y-79740280D01*
X212175498Y-79693383D01*
X212125434Y-79653450D01*
X211999978Y-79593014D01*
X211864227Y-79562010D01*
X211828612Y-79562004D01*
X211828554Y-79562000D01*
X211822373Y-79562000D01*
X211794603Y-79562000D01*
X211732536Y-79561990D01*
X211732473Y-79562000D01*
X211658756Y-79562000D01*
X211610418Y-79544407D01*
X211584698Y-79499858D01*
X211583556Y-79486800D01*
X211583556Y-79321183D01*
X211601149Y-79272845D01*
X211637569Y-79249030D01*
X211662651Y-79241666D01*
X211784501Y-79163358D01*
X211879352Y-79053893D01*
X211939522Y-78922140D01*
X211960135Y-78778772D01*
X211939522Y-78635404D01*
X211889118Y-78525035D01*
X211879353Y-78503652D01*
X211807143Y-78420317D01*
X211784501Y-78394186D01*
X211784500Y-78394185D01*
X211784499Y-78394184D01*
X211662652Y-78315878D01*
X211523676Y-78275072D01*
X211378834Y-78275072D01*
X211239857Y-78315878D01*
X211108913Y-78400031D01*
X211108208Y-78398934D01*
X211074235Y-78417836D01*
X211023725Y-78408100D01*
X211008587Y-78395398D01*
X210884852Y-78315878D01*
X210745876Y-78275072D01*
X210601034Y-78275072D01*
X210462057Y-78315878D01*
X210340210Y-78394184D01*
X210245356Y-78503652D01*
X210185188Y-78635401D01*
X210164575Y-78778771D01*
X210185188Y-78922142D01*
X210245356Y-79053891D01*
X210340210Y-79163359D01*
X210462055Y-79241664D01*
X210462056Y-79241664D01*
X210462059Y-79241666D01*
X210487139Y-79249030D01*
X210528561Y-79279526D01*
X210541153Y-79321183D01*
X210541153Y-82435799D01*
X210540867Y-82442351D01*
X210537477Y-82481112D01*
X210547548Y-82518700D01*
X210548967Y-82525103D01*
X210555721Y-82563408D01*
X210555721Y-82563409D01*
X210555722Y-82563410D01*
X210556681Y-82565072D01*
X210557875Y-82567139D01*
X210565384Y-82585267D01*
X210566501Y-82589434D01*
X210588816Y-82621305D01*
X210592339Y-82626836D01*
X210611792Y-82660529D01*
X210641601Y-82685541D01*
X210646438Y-82689974D01*
X211263574Y-83307110D01*
X211285314Y-83353730D01*
X211285600Y-83360284D01*
X211285599Y-83740914D01*
X211268005Y-83789252D01*
X211223457Y-83814972D01*
X211172799Y-83806039D01*
X211166206Y-83801758D01*
X211070232Y-83732028D01*
X211059502Y-83724232D01*
X210881544Y-83645001D01*
X210849359Y-83638160D01*
X210691000Y-83604500D01*
X210496200Y-83604500D01*
X210400928Y-83624750D01*
X210305655Y-83645001D01*
X210127698Y-83724232D01*
X209970099Y-83838735D01*
X209839754Y-83983498D01*
X209742353Y-84152202D01*
X209682156Y-84337465D01*
X209661795Y-84531199D01*
X209495405Y-84531199D01*
X209478579Y-84371115D01*
X209475043Y-84337465D01*
X209414846Y-84152202D01*
X209414846Y-84152201D01*
X209317446Y-83983499D01*
X209187099Y-83838734D01*
X209029503Y-83724233D01*
X209029499Y-83724230D01*
X208900027Y-83666585D01*
X208865489Y-83635487D01*
X208864877Y-83634427D01*
X208857364Y-83616289D01*
X208856251Y-83612134D01*
X208833930Y-83580256D01*
X208830411Y-83574731D01*
X208829723Y-83573540D01*
X208810960Y-83541040D01*
X208781151Y-83516027D01*
X208776315Y-83511595D01*
X208631094Y-83366374D01*
X208609354Y-83319754D01*
X208622668Y-83270067D01*
X208664805Y-83240562D01*
X208684268Y-83238000D01*
X208818149Y-83238000D01*
X208818616Y-83237957D01*
X208853537Y-83237963D01*
X208989316Y-83206991D01*
X209114798Y-83146580D01*
X209223689Y-83059758D01*
X209270260Y-83001369D01*
X209310524Y-82950886D01*
X209310523Y-82950886D01*
X209310528Y-82950881D01*
X209370959Y-82825408D01*
X209401091Y-82693407D01*
X209401952Y-82689634D01*
X209401952Y-82679126D01*
X209401953Y-82679117D01*
X209401953Y-82651195D01*
X209401999Y-82651065D01*
X209401999Y-82620000D01*
X209402000Y-82620000D01*
X209401999Y-82550361D01*
X209396233Y-82525103D01*
X209374883Y-82431570D01*
X209371004Y-82414576D01*
X209310568Y-82289094D01*
X209223722Y-82180209D01*
X209114823Y-82093380D01*
X209114822Y-82093379D01*
X209114819Y-82093377D01*
X209103137Y-82087753D01*
X209067216Y-82050933D01*
X209063367Y-81999637D01*
X209093390Y-81957868D01*
X209103112Y-81952252D01*
X209114860Y-81946594D01*
X209223729Y-81859756D01*
X209310549Y-81750872D01*
X209370966Y-81625400D01*
X209401951Y-81489630D01*
X209401950Y-81420000D01*
X209401950Y-81369634D01*
X209401950Y-81357894D01*
X209401900Y-81357577D01*
X209401900Y-81350376D01*
X209390558Y-81300676D01*
X209370918Y-81214617D01*
X209310506Y-81089155D01*
X209223693Y-80980280D01*
X209185890Y-80950127D01*
X209114832Y-80893448D01*
X209103009Y-80887753D01*
X209067097Y-80850924D01*
X209063261Y-80799627D01*
X209093294Y-80757866D01*
X209103016Y-80752254D01*
X209114803Y-80746580D01*
X209223693Y-80659758D01*
X209310532Y-80550880D01*
X209370962Y-80425408D01*
X209401955Y-80289633D01*
X209401955Y-80279126D01*
X209401956Y-80279117D01*
X209401956Y-80251192D01*
X209401999Y-80251071D01*
X209401999Y-80220000D01*
X209402000Y-80220000D01*
X209401999Y-80150362D01*
X209397267Y-80129634D01*
X209371004Y-80014579D01*
X209310569Y-79889096D01*
X209223724Y-79780210D01*
X209114825Y-79693382D01*
X208989337Y-79632966D01*
X208944073Y-79622641D01*
X208853548Y-79601991D01*
X208853546Y-79601991D01*
X208783909Y-79602000D01*
X208658755Y-79602000D01*
X208610417Y-79584407D01*
X208584697Y-79539858D01*
X208583555Y-79526800D01*
X208583555Y-79342567D01*
X208601148Y-79294229D01*
X208637569Y-79270413D01*
X208662651Y-79263049D01*
X208784501Y-79184741D01*
X208879352Y-79075276D01*
X208939522Y-78943523D01*
X208960135Y-78800155D01*
X208939522Y-78656787D01*
X208929757Y-78635404D01*
X208879353Y-78525035D01*
X208821626Y-78458414D01*
X208784501Y-78415569D01*
X208784500Y-78415568D01*
X208784499Y-78415567D01*
X208662652Y-78337261D01*
X208523676Y-78296455D01*
X208378834Y-78296455D01*
X208239857Y-78337261D01*
X208108913Y-78421414D01*
X208108208Y-78420317D01*
X208074235Y-78439219D01*
X208023725Y-78429483D01*
X208008587Y-78416781D01*
X207884852Y-78337261D01*
X207745876Y-78296455D01*
X207601034Y-78296455D01*
X207462057Y-78337261D01*
X207340210Y-78415567D01*
X207245356Y-78525035D01*
X207185188Y-78656784D01*
X207164575Y-78800155D01*
X207185188Y-78943525D01*
X207245356Y-79075274D01*
X207340210Y-79184742D01*
X207428783Y-79241664D01*
X207462059Y-79263049D01*
X207487139Y-79270412D01*
X207528562Y-79300909D01*
X207541154Y-79342566D01*
X207541153Y-83332977D01*
X207523560Y-83381315D01*
X207519127Y-83386151D01*
X207361188Y-83544090D01*
X207356354Y-83548520D01*
X207326540Y-83573538D01*
X207307089Y-83607227D01*
X207303567Y-83612755D01*
X207281247Y-83644633D01*
X207280131Y-83648799D01*
X207272625Y-83666923D01*
X207270468Y-83670660D01*
X207263713Y-83708966D01*
X207262294Y-83715367D01*
X207252222Y-83752958D01*
X207252312Y-83753980D01*
X207238996Y-83803666D01*
X207196857Y-83833169D01*
X207145613Y-83828683D01*
X207133200Y-83821370D01*
X207010232Y-83732028D01*
X206999502Y-83724232D01*
X206821544Y-83645001D01*
X206789359Y-83638160D01*
X206631000Y-83604500D01*
X206436200Y-83604500D01*
X206340927Y-83624750D01*
X206245655Y-83645001D01*
X206067698Y-83724232D01*
X205910099Y-83838735D01*
X205779754Y-83983498D01*
X205682353Y-84152202D01*
X205622156Y-84337465D01*
X205601795Y-84531200D01*
X201869939Y-84531200D01*
X201969727Y-84388689D01*
X202068069Y-84177793D01*
X202128298Y-83953015D01*
X202148579Y-83721199D01*
X202128298Y-83489384D01*
X202068069Y-83264606D01*
X201969727Y-83053709D01*
X201842456Y-82871948D01*
X201842455Y-82871947D01*
X201452258Y-83262143D01*
X201431221Y-83228664D01*
X201306136Y-83103579D01*
X201272654Y-83082540D01*
X201662851Y-82692343D01*
X201662850Y-82692342D01*
X201481090Y-82565072D01*
X201270193Y-82466730D01*
X201045415Y-82406501D01*
X200813600Y-82386220D01*
X200581784Y-82406501D01*
X200357006Y-82466730D01*
X200146110Y-82565072D01*
X199964348Y-82692342D01*
X199964347Y-82692343D01*
X200354545Y-83082541D01*
X200321064Y-83103579D01*
X200195979Y-83228664D01*
X200174941Y-83262145D01*
X199784743Y-82871947D01*
X199784742Y-82871948D01*
X199657472Y-83053710D01*
X199559130Y-83264606D01*
X199498901Y-83489384D01*
X199478620Y-83721200D01*
X198298847Y-83721200D01*
X198279753Y-83369048D01*
X198279311Y-83364987D01*
X198221163Y-83010299D01*
X198220284Y-83006301D01*
X198124124Y-82659964D01*
X198122824Y-82656106D01*
X197989783Y-82322199D01*
X197988065Y-82318485D01*
X197819700Y-82000916D01*
X197817604Y-81997434D01*
X197615883Y-81699916D01*
X197613427Y-81696686D01*
X197402840Y-81448763D01*
X196881461Y-81970141D01*
X196874551Y-81935399D01*
X196819296Y-81852704D01*
X196736601Y-81797449D01*
X196701856Y-81790537D01*
X197221138Y-81271256D01*
X197221137Y-81271254D01*
X197116977Y-81172587D01*
X197113858Y-81169937D01*
X196827717Y-80952419D01*
X196824337Y-80950127D01*
X196516333Y-80764807D01*
X196512761Y-80762913D01*
X196186522Y-80611979D01*
X196182742Y-80610473D01*
X195842099Y-80495697D01*
X195838198Y-80494614D01*
X195487148Y-80417342D01*
X195483123Y-80416683D01*
X195125796Y-80377821D01*
X195121717Y-80377600D01*
X194762283Y-80377600D01*
X194758203Y-80377821D01*
X194400876Y-80416683D01*
X194396851Y-80417342D01*
X194045801Y-80494614D01*
X194041900Y-80495697D01*
X193701257Y-80610473D01*
X193697477Y-80611979D01*
X193371238Y-80762913D01*
X193367666Y-80764807D01*
X193059662Y-80950127D01*
X193056282Y-80952419D01*
X192770141Y-81169937D01*
X192767032Y-81172578D01*
X192662861Y-81271255D01*
X193182143Y-81790537D01*
X193147399Y-81797449D01*
X193064704Y-81852704D01*
X193009449Y-81935399D01*
X193002537Y-81970143D01*
X192481157Y-81448763D01*
X192270572Y-81696686D01*
X192268116Y-81699916D01*
X192066395Y-81997434D01*
X192064299Y-82000916D01*
X191895934Y-82318485D01*
X191894216Y-82322199D01*
X191761175Y-82656106D01*
X191759875Y-82659964D01*
X191663715Y-83006301D01*
X191662836Y-83010299D01*
X191604688Y-83364987D01*
X191604246Y-83369048D01*
X191584786Y-83727971D01*
X191584786Y-83732028D01*
X191209499Y-83732028D01*
X191209499Y-77323284D01*
X191209785Y-77316730D01*
X191212631Y-77284201D01*
X191224475Y-77148820D01*
X191226749Y-77135923D01*
X191269525Y-76976283D01*
X191274002Y-76963985D01*
X191343844Y-76814209D01*
X191350396Y-76802861D01*
X191445186Y-76667487D01*
X191453601Y-76657459D01*
X191570459Y-76540601D01*
X191580487Y-76532186D01*
X191715864Y-76437393D01*
X191727209Y-76430844D01*
X191876985Y-76361002D01*
X191889283Y-76356525D01*
X192048923Y-76313749D01*
X192061820Y-76311476D01*
X192229730Y-76296786D01*
X192236285Y-76296500D01*
X192298892Y-76296500D01*
X225122108Y-76296500D01*
X225184715Y-76296500D01*
X225191269Y-76296786D01*
G37*
G04 #@! TD.AperFunction*
G04 #@! TA.AperFunction,Conductor*
G36*
X221770130Y-84864870D02*
G01*
X221866999Y-84947604D01*
X221450349Y-85364253D01*
X221443439Y-85329511D01*
X221388184Y-85246816D01*
X221305489Y-85191561D01*
X221270743Y-85184649D01*
X221687394Y-84767998D01*
X221770130Y-84864870D01*
G37*
G04 #@! TD.AperFunction*
G04 #@! TA.AperFunction,Conductor*
G36*
X224539254Y-85184649D02*
G01*
X224504511Y-85191561D01*
X224421816Y-85246816D01*
X224366561Y-85329511D01*
X224359650Y-85364254D01*
X223943000Y-84947604D01*
X224039870Y-84864870D01*
X224122604Y-84767999D01*
X224539254Y-85184649D01*
G37*
G04 #@! TD.AperFunction*
G04 #@! TA.AperFunction,Conductor*
G36*
X221867000Y-82512395D02*
G01*
X221770130Y-82595130D01*
X221687395Y-82692000D01*
X221270744Y-82275350D01*
X221305489Y-82268439D01*
X221388184Y-82213184D01*
X221443439Y-82130489D01*
X221450350Y-82095745D01*
X221867000Y-82512395D01*
G37*
G04 #@! TD.AperFunction*
G04 #@! TA.AperFunction,Conductor*
G36*
X224366561Y-82130489D02*
G01*
X224421816Y-82213184D01*
X224504511Y-82268439D01*
X224539253Y-82275349D01*
X224122603Y-82691999D01*
X224039870Y-82595130D01*
X223942999Y-82512395D01*
X224359649Y-82095744D01*
X224366561Y-82130489D01*
G37*
G04 #@! TD.AperFunction*
D17*
X225185000Y-91796000D02*
X192233000Y-91796000D01*
X225188000Y-91796000D02*
G75*
G03*
X226712000Y-90272000I0J1524000D01*
G01*
X190709000Y-90272000D02*
G75*
G03*
X192233000Y-91796000I1524000J0D01*
G01*
X190709000Y-90272000D02*
X190709000Y-77320000D01*
X226712000Y-77320000D02*
X226712000Y-90272000D01*
X226712000Y-77320000D02*
G75*
G03*
X225188000Y-75796000I-1524000J0D01*
G01*
X192233000Y-75796000D02*
G75*
G03*
X190709000Y-77320000I0J-1524000D01*
G01*
X192232000Y-75796000D02*
X225185000Y-75796000D01*
M02*
