M48
; DRILL file {KiCad 7.0.2-0} date 2023 August 07, Monday 23:17:56
; FORMAT={-:-/ absolute / inch / decimal}
; #@! TF.CreationDate,2023-08-07T23:17:56+03:00
; #@! TF.GenerationSoftware,Kicad,Pcbnew,7.0.2-0
; #@! TF.FileFunction,Plated,1,4,PTH
FMAT,2
INCH
; #@! TA.AperFunction,Plated,PTH,ViaDrill
T1C0.0118
; #@! TA.AperFunction,Plated,PTH,ComponentDrill
T2C0.0197
; #@! TA.AperFunction,Plated,PTH,ComponentDrill
T3C0.0350
; #@! TA.AperFunction,Plated,PTH,ComponentDrill
T4C0.0618
; #@! TA.AperFunction,Plated,PTH,ComponentDrill
T5C0.1260
%
G90
G05
T1
X8.1317Y-3.3831
X8.1446Y-3.1024
X8.1761Y-3.1024
X8.2067Y-3.1024
X8.2382Y-3.1013
X8.2628Y-3.1016
X8.2896Y-3.3839
X8.2942Y-3.1015
X8.3249Y-3.1015
X8.3447Y-3.0771
T2
X7.5804Y-3.2965
X7.6081Y-3.2296
X7.6081Y-3.3633
X7.6749Y-3.202
X7.6749Y-3.3909
X7.7417Y-3.2296
X7.7417Y-3.3633
X7.7694Y-3.2965
X8.6813Y-3.2965
X8.709Y-3.2296
X8.709Y-3.3633
X8.7758Y-3.202
X8.7758Y-3.3909
X8.8426Y-3.2296
X8.8426Y-3.3633
X8.8703Y-3.2965
T3
X8.0911Y-3.428
X8.1312Y-3.328
X8.171Y-3.428
X8.2112Y-3.328
X8.2509Y-3.428
X8.2911Y-3.328
X8.3309Y-3.428
X8.371Y-3.328
T4
X7.906Y-3.2961
X8.5462Y-3.2961
T5
X7.6749Y-3.2965
X8.7758Y-3.2965
T0
M30
