G04 #@! TF.GenerationSoftware,KiCad,Pcbnew,7.0.2-0*
G04 #@! TF.CreationDate,2023-08-07T23:17:52+03:00*
G04 #@! TF.ProjectId,RJ45_Module,524a3435-5f4d-46f6-9475-6c652e6b6963,1.0*
G04 #@! TF.SameCoordinates,Original*
G04 #@! TF.FileFunction,Soldermask,Top*
G04 #@! TF.FilePolarity,Negative*
%FSLAX46Y46*%
G04 Gerber Fmt 4.6, Leading zero omitted, Abs format (unit mm)*
G04 Created by KiCad (PCBNEW 7.0.2-0) date 2023-08-07 23:17:52*
%MOMM*%
%LPD*%
G01*
G04 APERTURE LIST*
%ADD10C,3.250000*%
%ADD11R,1.446000X1.446000*%
%ADD12C,1.446000*%
%ADD13C,2.355000*%
%ADD14C,0.800000*%
%ADD15C,6.400000*%
G04 #@! TA.AperFunction,Profile*
%ADD16C,0.050000*%
G04 #@! TD*
G04 APERTURE END LIST*
D10*
X202723600Y-87961200D03*
X215423600Y-87961200D03*
D11*
X212623600Y-84531200D03*
D12*
X211603600Y-87071200D03*
X210593600Y-84531200D03*
X209573600Y-87071200D03*
X208563600Y-84531200D03*
X207543600Y-87071200D03*
X206533600Y-84531200D03*
X205513600Y-87071200D03*
D13*
X200813600Y-83721200D03*
X217073600Y-83721200D03*
D14*
X220505000Y-83730000D03*
X221207944Y-85427056D03*
X221207944Y-82032944D03*
X222905000Y-86130000D03*
D15*
X222905000Y-83730000D03*
D14*
X225305000Y-83730000D03*
X224602056Y-82032944D03*
X224602056Y-85427056D03*
X222905000Y-81330000D03*
X194942000Y-81330000D03*
X196639056Y-85427056D03*
X196639056Y-82032944D03*
X197342000Y-83730000D03*
D15*
X194942000Y-83730000D03*
D14*
X194942000Y-86130000D03*
X193244944Y-82032944D03*
X193244944Y-85427056D03*
X192542000Y-83730000D03*
D16*
X225185000Y-91796000D02*
X192233000Y-91796000D01*
X225188000Y-91796000D02*
G75*
G03*
X226712000Y-90272000I0J1524000D01*
G01*
X190709000Y-90272000D02*
G75*
G03*
X192233000Y-91796000I1524000J0D01*
G01*
X190709000Y-90272000D02*
X190709000Y-77320000D01*
X226712000Y-77320000D02*
X226712000Y-90272000D01*
X226712000Y-77320000D02*
G75*
G03*
X225188000Y-75796000I-1524000J0D01*
G01*
X192233000Y-75796000D02*
G75*
G03*
X190709000Y-77320000I0J-1524000D01*
G01*
X192232000Y-75796000D02*
X225185000Y-75796000D01*
M02*
